<?xml version="1.0" encoding="UTF-8"?>
<svg id="Layer_2" data-name="Layer 2" xmlns="http://www.w3.org/2000/svg" viewBox="0 0 761.87 450.75">
  <defs>
    <style>
      .cls-1 {
        stroke-width: 0px;
      }
    </style>
  </defs>
  <g id="Layer_1-2" data-name="Layer 1">
    <g>
      <path class="cls-1" d="m251.65,344.71c-4.08-1.09-5.09-1.05-6.07.13-1.79,2.14.32,3.7,6.07,4.5,2.68.39,4.95.75,5.06.82.5.4,3.43-1.22,3.43-1.91,0-.99-2.06-1.84-8.48-3.55Z"/>
      <path class="cls-1" d="m325.2,350.55c-5.65-.5-15.23-2.63-16.53-3.65-.74-.57-4.91-1.17-9.26-1.34-4.35-.17-12.3-1.46-17.65-2.84-7.01-1.83-10.26-2.24-11.63-1.51-2.93,1.56-1.64,3.1,3.93,4.67,6.11,1.71,20.95,4.45,26.69,4.92,2.26.18,6.64.8,9.75,1.35,7.06,1.27,18.07,1.07,17.77-.3-.12-.57-1.51-1.16-3.08-1.31Z"/>
      <path class="cls-1" d="m229.81,348.63c-3.77,1.44-.82,3.6,10.28,7.56,4.35,1.54,6.67,1.54,6.67-.05,0-1.71-14.87-8.32-16.95-7.51Z"/>
      <path class="cls-1" d="m333.88,344.96c-1.81-4.88-20.18-11.66-28.11-10.38-3.06.51-3.45.27-4.04-2.41-.37-1.62-.84-3.55-1.07-4.28-.23-.74-5.15-3.62-10.96-6.41-11.56-5.56-16.77-6.39-19.7-3.16-3.93,4.35-17.35,5.24-24.28,1.61-1.41-.74-5.91-4.59-10.01-8.54-9.17-8.85-11.98-9.89-24.35-9.05-8.27.55-10.16.33-16.48-1.89-3.93-1.39-9.62-4.27-12.63-6.41-3.01-2.12-6.96-4.76-8.79-5.83-1.81-1.07-4.92-3.01-6.89-4.3-3.1-2.02-4.25-2.22-8.23-1.47-5.46,1.02-18.13-.24-26.83-2.68-10.31-2.9-13.74.54-11.33,11.33,3.35,14.93,25.52,26.94,40.21,21.79,6.85-2.39,9.74-2.07,13.59,1.47,1.86,1.7,4.54,4.16,5.94,5.45,1.42,1.31,4.65,3.58,7.19,5.09,2.54,1.49,5.56,4.13,6.7,5.84,1.15,1.76,3.63,3.63,5.65,4.28,5.15,1.66,6.18,2.73,9.37,9.74,3.33,7.33,14.26,18.03,24.16,23.66,6.64,3.78,9.98,4.22,15.28,2.01,2.88-1.21,3.78-2.36,4.99-6.43,1.35-4.62,1.69-4.96,4.67-4.8,1.77.08,5.42,1.52,8.1,3.21,7.1,4.43,13.81,5.86,17.84,3.78,1.74-.9,3.93-3.01,4.87-4.68l1.71-3.06,9.25.77c5.09.4,10.41.72,11.83.69,1.41-.03,7.8.33,14.19.84,16.5,1.27,18.93-.62,12.2-9.52-1.88-2.48-3.7-5.3-4.05-6.26Zm-11.82,11.9c-14.32-.64-22.94-2.01-30.79-4.92-2.39-.87-6.21-1.89-8.49-2.26-3.8-.6-4.15-.47-4.15,1.59,0,2.41-.29,2.39-7.85-.18-3.18-1.09-6.56-.57-6.56,1,0,1.26,12.45,5.42,16.2,5.42,1.84,0,3.35-.47,3.35-1.04s.45-1.02,1.02-1.02,1.04,1.32,1.04,2.96c0,2.01-.82,3.5-2.49,4.6-3.09,2.03-6.94.9-14.29-4.12-5.05-3.46-9.87-4.94-14.12-4.32-1.94.29-2.75,1.51-4.2,6.43-.99,3.33-2.39,6.46-3.14,6.93-.74.47-2.96.84-4.94.82l-3.59-.02,2.31-1.92c2.63-2.19,3.03-4.17.87-4.17-.81,0-4.04-.99-7.18-2.19-4.22-1.62-6.06-2.96-7.01-5.14-1.49-3.36-3.31-3.8-4.8-1.15-.92,1.61-1.46,1.37-5.15-2.23-3.55-3.46-5.72-7.81-5.27-10.61.17-1.14,5.15-.33,8.95,1.44,3.53,1.65,6.61,1.54,7.21-.27.44-1.32-16.36-8.07-18.37-7.36-.75.25-2.48-.38-3.82-1.44-1.35-1.04-3.26-1.91-4.23-1.91-2.54,0-7.57-4.15-6.41-5.3.57-.57,4.1-.29,8.9.7,4.38.9,8.97,1.5,10.19,1.32,3.1-.44,2.83-3.33-.35-3.68-3.78-.4-14.12-3.18-20.33-5.44-2.99-1.09-6.7-2.01-8.23-2.03-2.64-.02-6.39-2.03-6.39-3.4,0-.33,1.27-.44,2.83-.18,13.47,2.09,14.69,1.42,5.65-3.14-5.08-2.58-7.06-3-14.14-2.98-5.27.02-10.2.72-13.75,1.93-6.85,2.36-15.6,1.7-21.97-1.62-5.81-3.03-3.28-3.55,8.75-1.82,6.78.97,9.39,1,10.26.13,1.53-1.52.54-2.41-3.01-2.73-4.19-.37-19.04-3.73-21.02-4.75-1.12-.59-2.12-.37-2.96.63-1.84,2.23-2.46,1.94-4.84-2.33-3.31-5.9-3.9-10.69-1.64-13.49,1.87-2.29,1.99-2.31,9.09-.84,14.37,2.99,19.74,3.78,25.52,3.78,6.69,0,13.08,2.74,22.09,9.45,2.99,2.24,8.55,5.54,12.33,7.31,6.58,3.08,7.35,3.21,18.39,2.94,13.59-.32,15.26.29,24.47,9.02,8.35,7.91,14.56,10.81,23.21,10.83,5.86.02,7.5-.42,12.1-3.28,5.96-3.7,6.44-3.65,15.58,2.03,3.78,2.34,14.39,12.52,14.39,13.79,0,1.12-7.36-.02-11.04-1.69-5.69-2.57-9.52-6.76-9.52-10.39,0-3.29-1.84-4.97-3.18-2.87-1.62,2.57-1.07,8.11.87,8.8.99.35,3.2,1.66,4.89,2.91,9.62,7.08,18.24,8.83,23.81,4.87,3.3-2.36,6.48-2.78,10.08-1.38,1.82.72,1.76.86-.77,1.49-1.52.39-2.78,1.39-2.78,2.22,0,1.16,1.34,1.53,5.6,1.53,3.08,0,6.66.48,7.97,1.09,1.98.9,9.03,10.07,9.03,11.75,0,.28-6.36.24-14.14-.12Z"/>
      <path class="cls-1" d="m589.62,365.96c.93-3.1-.3-8.45-1.96-8.45-.94,0-1.17,1.37-.82,4.94.42,4.47.2,5.12-2.21,6.71-1.47.97-2.69,2.21-2.69,2.76,0,3.4,6.32-1.5,7.68-5.95Z"/>
      <path class="cls-1" d="m596.79,368.59c2.73-3.9,1.62-15.2-1.47-15.2-.52,0-.94,3.35-.92,7.43.02,4.39-.44,7.58-1.07,7.8-.62.2-1.11.78-1.11,1.3,0,1.81,2.98.92,4.57-1.34Z"/>
      <path class="cls-1" d="m632.86,403.77c2.08,0,5.62-5.98,5.62-9.51.02-3.71,1.62-3.6,3.62.27,1.17,2.27,1.32,3.61.54,5.07-1.94,3.65-1.02,4.72,1.54,1.81,3.16-3.6,3.21-6.61.18-11.11-2.31-3.43-6.68-4.94-6.07-2.09.15.77-.39,1.92-1.22,2.58-.82.63-2.01,3.11-2.63,5.49-.63,2.38-1.59,4.6-2.14,4.95-.55.33-1,1.05-1,1.57s.7.97,1.57.97Z"/>
      <path class="cls-1" d="m707.26,198.13c1.32,0,2.63-2.03,4.54-7.08,1.62-4.32,1.56-6.28-.24-6.28-.93,0-5.2,9.81-5.2,11.95,0,.78.4,1.41.9,1.41Z"/>
      <path class="cls-1" d="m582.46,427.56c.3.78,3.58,2.51,7.3,3.85,3.71,1.32,6.96,3.01,7.24,3.73.27.7,1.89,1.57,3.6,1.92,1.71.33,4.43,1.56,6.04,2.69,4.49,3.2,10.96,5.14,17.14,5.14,7.09,0,18.93-5.27,23.65-10.54,3.86-4.3,9.29-6.36,14.54-5.51,2.08.35,7.48,1.05,12,1.59,4.54.54,8.29.99,8.35,1.02.07.03.9,2.16,1.89,4.7,2.21,5.81,7.68,9.27,17.05,10.8,3.65.59,10.11,1.72,14.36,2.54,11.43,2.19,24.8,1.44,31.86-1.77,6.94-3.17,14.39-9.49,14.39-12.2,0-4.3-3.95-9.91-8.44-12.02-10.21-4.77-21.25-9.29-26.74-10.94-7.65-2.31-16.89-.99-29.41,4.18-15.28,6.33-17.72,4.84-10.42-6.37,5.37-8.23,5.21-12-.79-18.16-7.51-7.73-9.59-8.49-23.43-8.55-11.16-.05-12.9-.3-18.37-2.83-3.31-1.52-6.94-2.78-8.08-2.78-3.9,0-13.1,11.7-13.12,16.67,0,2.39-.54,2.87-3.81,3.5-2.13.4-5.77.18-8.23-.47-6.49-1.74-6.9-1.62-11.97,3.44-3.35,3.35-5.09,6.21-6.28,10.26-.96,3.29-2.46,6.06-3.62,6.69-2.94,1.57-7.35,7.75-6.71,9.41Zm29.02,11.55c-1.57-.82-2.59-1.94-2.26-2.49.9-1.44,3.14-1.19,4.57.54,2.06,2.48.77,3.58-2.31,1.96Zm71.71-14.78c3.4,0,9.32-1.96,18.53-6.16,12.85-5.86,22.32-5.1,38.6,3.1,4.49,2.24,8.79,4.1,9.57,4.1,2.59,0,6.67,4.07,7.95,7.92,1.17,3.58,1.09,3.88-1.72,6.22-3.21,2.66-10.24,6.04-14.64,7.04-1.51.35.25-.92,3.9-2.83,7.45-3.86,11.53-8.33,9.52-10.34-.96-.96-1.99-.52-4.59,1.92-5.86,5.52-26.44,14.04-22.57,9.36.74-.89,2.39-1.89,3.68-2.21,4.84-1.22,11.95-5.94,11.95-7.93,0-1.07-.27-1.96-.62-1.96s-4.74,2.04-9.74,4.55c-5,2.51-11.21,4.87-13.77,5.26-5.14.77-5.49,1.15-2.84,3.14,1.64,1.26,1.58,1.37-.77,1.34-2.81-.03-7.21-1.54-7.21-2.48,0-.32,2.18-1.5,4.82-2.64,5.54-2.37,17.8-10.86,17.8-12.32,0-1.79-2.11-1-14.11,5.27-7.73,4.05-12.67,6.06-14.04,5.69-1.17-.3-2.88.17-3.86,1.04-1.59,1.44-2.09,1.44-5.22-.05-2.6-1.24-4.28-3.31-6.74-8.32-2.43-4.89-3.85-6.66-5.35-6.66-1.14,0-2.08-.47-2.08-1.02s1.61-1.04,3.56-1.04Zm-93.29.92c1.02-1.04,1.77-1.02,3.82.06,2.17,1.17,2.91,1.12,5.12-.32,2.78-1.82,5.26-5.61,4.28-6.58-.32-.32-2.19.27-4.15,1.32-1.96,1.05-3.81,1.67-4.12,1.39-1.19-1.21,2.8-12.95,5.54-16.33,2.83-3.46,3.15-3.6,8.94-3.26,3.32.18,7.97.05,10.34-.32,4.17-.62,4.42-.87,6.51-6.51,2.44-6.56,7.55-12.54,10.71-12.54,3.58,0,10.86,3.5,10.86,5.21,0,.89,1.44,2.66,3.2,3.96,2.64,1.96,3.1,2.86,2.61,5.29-.72,3.6,1.44,3.2,3.5-.65,1.19-2.23,1.09-2.9-.92-5.59-2.78-3.77-1.04-4.05,2.58-.44,1.84,1.84,2.49,3.38,2.14,5.15-.27,1.39-.1,2.78.35,3.06,1.47.9,3.16-3.65,2.83-7.58l-.33-3.78,5.09.27c2.79.14,6.26,1.02,7.7,1.96,4.99,3.21,11.38,10.08,11.38,12.24,0,1.19-1.85,4.75-4.12,7.92-2.27,3.16-5.02,7.85-6.12,10.42-2.12,4.94-5.96,7.06-9.14,5.06-2.9-1.82-2.31-3.01,3.48-7,5.71-3.93,9.72-9.64,9.72-13.81,0-1.12-1.12-3.33-2.49-4.92-2.06-2.36-2.75-2.64-3.85-1.56-1.12,1.1-1.04,1.87.44,4.45,2.68,4.65,2.22,6.64-2.44,11.18-4.74,4.62-6.11,5.12-5.29,1.99.49-1.89.15-2.09-2.93-1.81-2.61.25-3.41.77-3.2,2.09.18,1.11-.94,2.39-3.08,3.5-5.62,2.91-13,8.3-15.62,11.4-1.35,1.61-4.52,3.97-7.04,5.22-4.1,2.04-10.02,3.11-10.02,1.79,0-.27,1.74-1.39,3.86-2.49,7.06-3.7,12.59-9.93,12.59-14.19,0-3.41-1.92-2.88-3.58.99-.79,1.84-2.9,4.27-4.7,5.4-1.81,1.12-5.62,3.58-8.47,5.44-4.47,2.93-5.39,3.2-6.64,1.94-1.26-1.27-.9-1.88,2.64-4.4,4.82-3.48,9.92-11.05,9.02-13.39-.5-1.34-.92-1.41-2.15-.39-.84.7-1.53,2.06-1.53,3.01,0,4.38-11.7,11.33-19.03,11.33l-4.12-.02,4.33-3.81c4.62-4.08,6.95-9.49,4.09-9.49-1.91,0-4.82,2.73-4.82,4.52,0,.72-2.31,2.37-5.14,3.71-2.83,1.32-5.14,2.78-5.14,3.25,0,1.41-4.58.97-6.74-.62-1.59-1.15-1.74-1.74-.74-2.74Z"/>
      <path class="cls-1" d="m710.57,433.83c12.85-6.64,9.9-9.02-3.5-2.83-4.28,1.99-8.71,3.62-9.82,3.62-2.75,0-5.31,1.04-5.31,2.16,0,.5,2.53.92,5.59.92,4.45,0,7.11-.79,13.04-3.87Z"/>
      <path class="cls-1" d="m546.48,379.1c1.04,1.69,4.37,1.17,9.52-1.49,4.5-2.31,5.44-2.42,12.58-1.59,9.22,1.11,25.14,1.29,29.87.33,3.77-.75,14.34-10.2,14.34-12.82,0-.87-1.42-3.7-3.15-6.31-4.37-6.59-10.41-9.41-20.33-9.45-7.5-.03-9.37.8-10.71,4.82-.2.6-3.65.48-8.9-.29-16.3-2.37-33.18.96-34.66,6.85-.43,1.72.17,3.35,2.06,5.6,1.47,1.76,2.68,3.62,2.68,4.13s1.67,2.8,3.73,5.05c2.04,2.27,3.4,4.12,3.01,4.12s-.4.47-.05,1.04Zm-1.29-6.96c-.21-.62-2.06-3.31-4.08-5.97-4.08-5.34-3.86-7.05,1.14-9.51,6.26-3.08,26.37-2.64,30.27.65,1.14.96,3.03,2.54,4.2,3.53,2.86,2.39,2.69,4.3-.6,6.9-2.01,1.59-2.44,2.48-1.61,3.29.84.84,1.97.3,4.28-1.99,3.33-3.33,3.93-6.21,1.96-9.37-.99-1.57-.78-2.46,1.11-4.87,2.66-3.4,4.52-4.32,8.84-4.42,8.28-.17,20.72,10.24,18.09,15.14-.89,1.66-3.21,3.28-4.7,3.28-.18,0,.06-1.73.57-3.85,1.12-4.87.34-7.45-2.24-7.45-1.71,0-1.86.32-.94,2.03,1.16,2.16.45,6.81-1.35,9.1-.75.97-.7,1.59.2,2.14.95.58.84,1.14-.49,2.24-1.37,1.12-4.79,1.37-15.23,1.14-7.4-.17-14.29-.57-15.33-.87-1.76-.52-1.76-.67-.15-2.45,2.13-2.36,1.21-7.75-1.59-9.24-2.74-1.47-3.61.55-1.57,3.68,1.96,2.96,1.53,4-2.53,6.09-2.72,1.42-5.54.49-3.09-1.02,1.54-.96,1.34-6.96-.22-6.44-.69.24-1.49,1.42-1.79,2.66-.3,1.24-1.84,3.87-3.41,5.84-1.57,1.97-3.31,3.58-3.85,3.58-1.31,0-1.27-2.78.03-3.59.57-.34,1.04-2.68,1.04-5.19,0-6.38-2.71-6.31-3.67.06-.67,4.49-2.51,7.2-3.28,4.85Z"/>
      <path class="cls-1" d="m715.12,223.75c2.73-2.72,3.89-8.13,1.89-8.83-1.2-.44-4.5,6.66-4.5,9.69,0,1.44.48,1.27,2.61-.86Z"/>
      <path class="cls-1" d="m676.28,247.67c5.71,2.19,7.23,3.5,8.97,7.65,1.57,3.78,7.8,8.17,13.65,9.62,6.44,1.61,12.89.65,18.37-2.71,3.43-2.11,6.94-3.3,11.18-3.73,7.83-.82,16.99-3.97,21.44-7.36,3.38-2.58,3.44-2.78,2.59-7.51-1.54-8.57-1.92-9.47-5.67-13.64-2.04-2.24-3.23-4.09-2.68-4.09s2.51-1.5,4.34-3.33c2.89-2.96,3.23-3.86,2.81-7.72-.59-5.47-6.98-15.04-11.16-16.78-1.91-.78-5.25-1-9.05-.6l-6.04.62-1.54-4.52c-2.08-6.11-7.6-14.34-10.88-16.27-1.47-.86-6.25-2.34-10.66-3.32-9.3-2.06-9.05-2.14-18.47,7.11-3.28,3.23-5.93,6.73-5.93,7.87s-.72,3.17-1.61,4.52c-1.72,2.63-1.07,5.09,2.07,7.7,2.01,1.67,2.08,5.07.1,5.82-.82.32-3.13,2.58-5.14,5.02l-3.63,4.43,2.03,4.47c2.71,5.98,2.63,6.55-1.54,10.84-6.39,6.58-4.28,11.77,6.44,15.9Zm44.6,1.91c-4.37,4.05-5.27,5.42-4.35,6.54.93,1.12.38,1.77-2.71,3.25-4.17,1.97-15.31,2.93-16.27,1.39-.62-1,2.16-2.27,7.45-3.43,1.79-.39,3.83-1.41,4.55-2.26,1.44-1.74,14.96-10.68,16.11-10.64.4.02-1.76,2.33-4.79,5.15Zm25.57-11.35c.57,0,1.02.7,1.02,1.56s-.45,1.54-1.02,1.54-1.04-.7-1.04-1.54.47-1.56,1.04-1.56Zm1.81,9.71c.2.2-.97,1.31-2.6,2.46-1.61,1.16-4.3,2.43-5.95,2.81-2.88.67-2.95.62-1.29-1.12,1.68-1.76,9.1-4.89,9.84-4.15Zm-74.25-15.91l3.9-3.98,10.02.29c6.46.18,10.62.77,11.7,1.66,1.39,1.15,2.01,1.02,4.1-.96,1.36-1.26,3.03-3.77,3.71-5.54.69-1.79,2.41-4.99,3.83-7.11,1.42-2.14,2.31-4.15,1.98-4.49-1.35-1.34-7.77,5.04-9.42,9.4-.97,2.53-2.28,4.6-2.91,4.6-.8,0-.77-.37.09-1.24,1.34-1.32,1.67-5.19.54-6.31-.39-.39-1.99.54-3.56,2.04-2.26,2.16-3.17,2.49-4.3,1.54-1.12-.92-1.74-.86-2.73.35-.89,1.07-3.2,1.56-7.23,1.56-6.07,0-7.53-.96-9.48-6.31-.66-1.74,3.76-7.23,8.32-10.36,2.73-1.87,2.46-4.2-.92-7.83-2.06-2.19-2.06-2.33-.25-7.41,1.27-3.56,2.52-5.36,4.03-5.74,1.46-.37,2.04-1.16,1.74-2.29-.3-1.14.99-2.93,3.67-5.07,4.37-3.51,8.37-4.18,12.82-2.16,2.78,1.27,2.61,3.43-.77,9.97-1.49,2.84-1.5,3.28-.15,3.28,1.61,0,5.69-6.98,5.69-9.72,0-2.41,1.34-1.92,4.8,1.76,2.51,2.66,6.51,9.18,6.51,10.62,0,.15-1.04.42-2.31.6-1.84.27-2.43,1.17-2.88,4.45-.69,5.1-3.67,9.75-6.24,9.75-2.34,0-2.56,1.88-.33,2.75,1.82.69,6.84-3.6,9.84-8.4,1.1-1.76,1.92-2.39,1.92-1.49s-.54,2.14-1.19,2.79c-2.04,2.03,1.91,2.75,4.77.87,1.39-.9,2.76-1.66,3.08-1.66s.54,2.07.54,4.64c0,3.4.42,4.62,1.53,4.62,1.87,0,3.05-4.22,2.18-7.72-.6-2.37-.39-2.56,3.05-2.56,5.1,0,6.89,1.19,10.76,7.21l3.35,5.22-2.19,2.04c-1.22,1.12-2.21,2.98-2.21,4.12,0,1.21-1.25,2.78-3.05,3.82-2.79,1.61-3.01,2.09-2.44,5.86.35,2.26,1.26,4.85,2.04,5.74,2.86,3.32.63,9.89-5.26,15.63-3.95,3.83-3.75,3.8-8.65,1.04-.22-.14,1.05-1.88,2.83-3.9,5.19-5.91,7.48-11.31,7.13-16.77-.24-3.59-.75-4.88-2.11-5.14-1.53-.3-1.79.45-1.79,4.89,0,5.19-.05,5.25-5.41,8.64-2.96,1.87-7.25,4.13-9.51,5-2.38.94-4.77,2.81-5.69,4.47-.89,1.59-3.18,3.45-5.15,4.15-1.96.72-4.67,1.32-6.02,1.38q-2.46.06-.52-2.24c1.07-1.27,2.54-2.68,3.25-3.13.7-.45,1.29-1.56,1.29-2.45,0-1.26-.78-1-3.53,1.09-3.7,2.81-5.72,3.4-5.72,1.66,0-.55.37-1.02.84-1.02s2.68-1.58,4.94-3.5c3.09-2.64,4.73-3.36,6.81-2.98,1.86.35,4.46-.47,8.2-2.61,6.13-3.52,9.17-6.41,11.5-10.96.85-1.7,3.28-4.02,5.37-5.14,7.21-3.9,9.49-9.89,6.49-17.12-1.76-4.24-5.11-3.7-4.05.67,1.73,7.06,1.81,8.3.79,10.21-1.67,3.16-4.08,4.7-6.93,4.43-1.79-.18-2.9.47-3.77,2.22-3.26,6.49-13.64,15.95-15.5,14.11-.3-.3.37-2.07,1.47-3.93,2.12-3.63,2.04-6.99-.2-6.99-.74,0-1.64,1.17-2.01,2.61-1.76,7-12.87,17.95-16.72,16.48-.92-.37-3.21-.14-5.1.48-3.01.99-4.15.77-9.27-1.77-4.23-2.11-6.11-3.7-6.81-5.83-.85-2.61-.54-3.36,2.91-6.89Z"/>
      <path class="cls-1" d="m162,123.08c1.62,0,6.24-8.94,5.17-10.01-1.09-1.08-4.65,3.13-5.69,6.71-.75,2.61-.63,3.29.52,3.29Z"/>
      <path class="cls-1" d="m167.81,82.03c4.22,3.63,4.33,3.9,4.73,11.11.37,6.26.65,7.2,1.89,6.16,1.94-1.62,1.67-12.53-.44-17.14-1.53-3.33-5.79-6.38-8.94-6.38-2.78,0-1.72,2.39,2.75,6.24Z"/>
      <path class="cls-1" d="m163.22,90.48c.52,4.13,2.6,4.75,3.15.96.4-2.66-1.74-6.96-2.84-5.74-.45.48-.59,2.64-.3,4.78Z"/>
      <path class="cls-1" d="m208.34,127.88c4.75,4.37,4.77,4.4,4.08,9.56-.75,5.59-.14,6.73,1.44,2.61,1.05-2.76,2.83-3.38,3.65-1.26.45,1.19-1.19,7.62-3.18,12.45-.59,1.42-.42,1.8.65,1.47.79-.27,2.54-3.8,3.89-7.87,2.02-6.12,2.24-7.87,1.26-10.22-1.32-3.21-12.85-13.61-15.1-13.61-2.68,0-1.49,2.46,3.32,6.86Z"/>
      <path class="cls-1" d="m206.27,74.25c1.71-2.33,1.53-5.81-.33-6.43-1.52-.5-2.84,4.19-1.87,6.68.65,1.67.8,1.65,2.21-.25Z"/>
      <path class="cls-1" d="m225.04,122.58c-2.38-2.33-9.25-5.71-10.31-5.05-2.14,1.32-.67,4.46,2.91,6.24,2.08,1.04,4.1,2.57,4.47,3.43.37.86,1.23,2.58,1.88,3.85.65,1.26,1.19,4.05,1.19,6.21s.47,4.4,1.05,4.97c.7.72.39,1.66-1.04,2.95-1.14,1.04-2.07,2.36-2.07,2.93,0,1.61,5.14-3.56,6.89-6.96,2.11-4.03,1.19-13.87-1.46-15.66-1-.7-2.59-2.01-3.51-2.9Z"/>
      <path class="cls-1" d="m137,84c.44,0,.79,1.05.79,2.33.02,1.86.22,2.01,1.02.77,1.71-2.64,1.14-4.94-2.18-8.7-3.23-3.7-7.08-4.85-7.08-2.14,0,1.49,6.01,7.75,7.45,7.75Z"/>
      <path class="cls-1" d="m152.53,121.3l1.79-2.19c.97-1.21,2.27-2.19,2.9-2.19,1.39,0,1.49-3.77.13-4.62-.55-.33-1.57.32-2.29,1.46q-1.29,2.06-3.58-.1c-2.11-1.97-5.49-2.06-5.47-.12,0,.43,1.47,2.38,3.26,4.28l3.26,3.48Z"/>
      <path class="cls-1" d="m190.22,73.91c0,2.61,2.46,1.91,2.86-.84.42-2.75-3.28-7.23-8.9-10.8-5.64-3.58-6.31-3.63-6.31-.5,0,1.77.9,2.81,3.23,3.78,4.7,1.94,9.12,5.99,9.12,8.35Z"/>
      <path class="cls-1" d="m171.66,67.03c-4.13-.57-5.65-.37-6.89.86-1.41,1.41-1.11,1.69,2.94,2.72,2.48.64,5.07,1.34,5.74,1.57,1.67.55,4.47,6.16,6.04,12.1,1.11,4.16,1.05,5.12-.24,6.43-1.35,1.34-1.34,1.52.05,1.52,4.49,0,4.6-8.79.22-18.66-2.54-5.76-2.59-5.81-7.87-6.55Z"/>
      <path class="cls-1" d="m228.94,156.33c1.32,1.32,2.36.65,3.03-1.96.7-2.86-.78-5.22-2.59-4.1-1.22.75-1.53,4.95-.44,6.06Z"/>
      <path class="cls-1" d="m265.09,172.18c-.24-1.59-1.88-3.08-5.22-4.73-4.57-2.27-4.89-2.68-4.89-6.43,0-2.88-.43-4-1.54-4-.84,0-1.54.81-1.56,1.79,0,.99-.29,2.83-.62,4.07-.69,2.58,2.86,6.44,8.87,9.63,4.7,2.49,5.34,2.44,4.96-.32Z"/>
      <path class="cls-1" d="m244.71,199.17c-1.14,0-2.06.5-2.06,1.11s.59.92,1.29.69c.7-.24,1.79.25,2.41,1.09.63.87,4.38,2.03,8.73,2.69,7.43,1.14,15.58.6,20.68-1.36,3.28-1.25,8.02-5.86,8.02-7.76,0-2.11-.2-2.07-6.44,1.37-7.21,3.98-14.66,5.59-21.75,4.7-5.71-.7-7.36-1.88-3.93-2.76.99-.25,5.02-.57,8.99-.69,7.24-.23,10.79-1.85,10.79-4.9,0-1.66.4-1.68-4.62.13-6.06,2.18-13.84,1.89-22.44-.85-6.98-2.21-7.58-2.26-7.15-.59.43,1.64,2.21,2.64,7.73,4.42,2.46.81,2.28,2.71-.25,2.71Z"/>
      <path class="cls-1" d="m100.47,82.35c1.19,1.19,2.34-.6,2.34-3.6,0-3.87-1.64-7.08-3.63-7.08s-1.91,1.53.15,4.65c.92,1.39,1.41,3.18,1.11,3.98-.32.81-.3,1.7.03,2.04Z"/>
      <path class="cls-1" d="m242.65,158.1c0-3.18-1.62-5.04-3.09-3.51-.47.48-.6,2.16-.3,3.71v-.02c.75,3.86,3.4,3.71,3.4-.18Z"/>
      <path class="cls-1" d="m237.51,183.01c0,1.59,10.59,6.67,14.91,7.16,3.71.42,14.91-.09,16.7-.75.7-.25,1.29-1.17,1.29-2.04,0-1.35-1.42-1.49-10.26-.9-9.9.64-10.39.57-14.37-2.06-4.39-2.91-8.27-3.56-8.27-1.41Z"/>
      <path class="cls-1" d="m266.9,82.98c-1.71,0-3.9,2.53-3,3.43,1.31,1.3,2.93.65,6.26-2.46,3.47-3.25,3.93-4.6,2.41-7.01-1.04-1.62-3.52-.54-2.86,1.26.62,1.7-1.19,4.79-2.81,4.79Z"/>
      <path class="cls-1" d="m223.62,89.81c-1.92-.74-6.68.97-6.68,2.39,0,.59,1.12,1.05,2.49,1.05,4.91,0,7.53-2.17,4.19-3.44Z"/>
      <path class="cls-1" d="m276.58,128.74c1.56-.96,1.22-5.24-.5-6.68-2.16-1.77-3.25,1.32-1.69,4.75.63,1.41,1.62,2.28,2.19,1.93Z"/>
      <path class="cls-1" d="m248.94,152.9c1.46,0,1.04-5.59-.57-7.76-1.37-1.88-1.5-1.89-2.16-.18-.4,1-.13,3.2.55,4.88.7,1.68,1.69,3.06,2.18,3.06Z"/>
      <path class="cls-1" d="m242.77,171.66c-.74-1.29-1.34-1.49-2.14-.68-2.95,2.93,4.2,8.15,13.25,9.67,7.1,1.2,16.54,1.2,16.54-.02,0-1.64-3.92-2.71-12.85-3.55-8.65-.79-13.1-2.43-14.79-5.42Z"/>
      <path class="cls-1" d="m216.92,83.52c-4.05,2.56-4.77,3.6-3.38,4.99.9.9,2.21.39,7.43-2.9,2.31-1.46,4.2-3.11,4.2-3.66,0-1.84-4.08-1.07-8.25,1.57Z"/>
      <path class="cls-1" d="m94.6,85.55c0,2,1.94,2,2.71,0,1.54-4.02-4.42-13.54-6.95-11.06-1.02,1-.97,1.62.2,3.08,2.31,2.88,4.04,6.29,4.04,7.99Z"/>
      <path class="cls-1" d="m54.12,107.65c1.79,0,1.74-1.01-.17-3.53-.84-1.1-1.5-3.2-1.5-4.67s-.52-3.21-1.16-3.85c-1.65-1.65.6-13.77,2.88-15.44.97-.7,3.5-1.29,5.64-1.29,6.31,0,7.96-5.96,3.7-13.35l-2.29-3.98,2.36-2.51c2.63-2.81,10.64-4.84,19.11-4.82,7.03,0,11.13,2.58,12.75,8,1,3.35,2.19,4.7,6.04,6.85,5.26,2.95,7.25,2.34,5.44-1.61-1.59-3.51.22-7.85,3.65-8.72,2.04-.5,3.33-.05,5.44,1.96,3.8,3.63,7.8,5,10.98,3.8,1.42-.54,2.6-1.34,2.61-1.77.02-.44.67-1.64,1.46-2.69,1.96-2.58,6.07-1.39,5.15,1.49-.45,1.44.32,2.9,2.69,5.11,2.46,2.31,3.01,3.41,2.16,4.27-.87.87-1.66.72-3.08-.55-4.7-4.27-5.87-.54-1.22,3.93,1.69,1.62,3.08,3.82,3.08,4.87s.47,1.64,1.11,1.26c.6-.37.99-2.14.87-3.92-.13-1.79.39-4.74,1.17-6.56,1.19-2.79,2.09-3.41,5.84-3.96,3.36-.51,5.14-1.52,7.36-4.22,2.46-2.98,3.5-3.5,6.39-3.23,2.73.27,3.55.85,3.82,2.71.28,2.06.84,2.33,4.12,2.06,3.14-.27,3.73-.69,3.55-2.49-.27-2.75,3.63-4.77,6.31-3.26,1.01.57,3.08.77,4.62.47,4.99-1,10.66.97,14.09,4.91,3.44,3.96,4.52,4.49,4.52,2.19,0-2.49-6.74-8.77-10.16-9.45-3.25-.65-4.5-2.44-1.69-2.44.84,0,2.33-1.27,3.31-2.83,4-6.24,7.96-7.92,13.79-5.87,6.69,2.38,11.38,8.22,10.22,12.73-.97,3.8-3.14,3.92-3.14.17,0-2.01-.52-3.17-1.42-3.17-1.76,0-2.99,4.22-1.62,5.57,1.44,1.46,1.2,2.64-.54,2.64-.84,0-2.69-2.31-4.13-5.14-1.44-2.83-3.06-5.14-3.61-5.14-1.67,0-1.09,3.43,1.04,6.16,1.12,1.42,2.02,3.45,2.04,4.5.02,1.05,1.93,3.82,4.25,6.14l4.23,4.23-3.16,1.29c-1.74.7-3.65,2.22-4.27,3.36-1.45,2.73.2,2.75,3.9.02,2.54-1.89,9.94-5.04,16.88-7.2,3.18-.99,8.18.03,8.77,1.79.22.65-1.49,2.14-3.78,3.32-2.31,1.17-4.19,2.59-4.19,3.18,0,.69.66.69,1.99-.03,3.4-1.82,8.03-1.27,9.74,1.17,1.92,2.75,1.37,3.8-1.69,3.21-2.54-.48-7.98,1.22-7.98,2.49,0,.45,3.16.81,7.01.81,5.75,0,7.68.45,10.69,2.53,2.02,1.39,4.43,3.78,5.35,5.34.9,1.54,2.57,3.09,3.68,3.44,2.19.71,3.68,4.67,2.71,7.2-.45,1.16-1.76.4-5.41-3.14-9.69-9.41-17.95-13.62-24.11-12.27-3.88.85-3.96,2.69-.08,1.92,3.73-.75,10.47,2.61,16.16,8.02,2.31,2.21,5.26,4.73,6.55,5.64,3.48,2.45,6.88,11.67,4.3,11.67-.5,0-1.49-1.42-2.21-3.14-1.54-3.7-7.6-8.08-17-12.32-7.57-3.38-8.35-3.52-12.38-1.99-1.97.75-2.48,1.39-1.71,2.17.74.72,1.71.75,2.9.09,1.32-.74,3.53-.22,8.47,2.03,10.68,4.85,15.26,8.74,17.67,14.99,1.94,5.07,1.97,5.6.42,7.96-.9,1.41-1.96,2.54-2.33,2.54s-1.72-2.21-3.01-4.89c-3.48-7.28-7.98-12.38-9.54-10.84-.99.97-.89,1.74.47,3.6,7,9.55,7.98,11.61,7.38,15.46-.32,2.12-.21,3.86.25,3.86,2.18,0,10.06-9.24,12.7-14.91,3.36-7.18,6.36-19.96,5.35-22.79-1.05-2.95-3.6-5.49-5.49-5.49-.96,0-3.32-1.54-5.24-3.44-1.94-1.89-4.35-3.88-5.37-4.43-1.66-.89-1.41-1.31,2.23-3.72,2.26-1.49,4.92-4.12,5.94-5.84,2.09-3.55,2.68-3.75,4.49-1.57,1.88,2.26,3.08,1.87,3.08-.97,0-3.08-1.64-4.25-3.63-2.59-1.22,1.02-1.5.87-1.5-.77,0-1.11-1.16-4.28-2.56-7.06-1.41-2.78-2.58-6.13-2.58-7.45,0-4.17,5.22-11.52,16.4-23.1,5.95-6.18,11.09-11.61,11.4-12.1,1.39-2.24,7.39-3.7,12.1-2.93,2.66.45,5.39.84,6.06.87,1.86.09,7.5,6.29,9.16,10.04,1.67,3.83,1.81,6.36.47,8.48-.82,1.29-1.22,1.26-2.9-.27-1.07-.96-2.69-1.76-3.59-1.76-3.06,0-2.98,2.06.15,3.85,1.71.99,3.35,2.48,3.66,3.35.32.86.82,2.08,1.12,2.71.3.62-.39,1.39-1.54,1.69-2.99.78-1.69,3.2,2.56,4.73,4.79,1.73,4.5,3.21-.62,3.21-3.45,0-4.13.32-3.83,1.79.32,1.54,1.37,1.76,7.18,1.49,4.32-.2,7.08.12,7.55.85,1.08,1.77-.92,3.21-4.79,3.4-5.02.25-4.7,3.16.39,3.58,2.99.25,3.87.75,3.87,2.27,0,2.63,3.03,4.08,8.53,4.08,6.29,0,9.22-2.63,12.52-11.25,1.49-3.9,3.38-7.66,4.2-8.33.81-.69,1.47-2.46,1.47-3.97,0-3.78,4.07-11.4,7.36-13.79,1.76-1.29,5.4-2.24,10.32-2.73,8.57-.84,12.35-2.8,14.22-7.33,1.59-3.85,8.67-9.97,12.7-11.03,1.69-.44,5.41-.49,8.27-.12,5.05.64,5.32.55,8.95-3.29,4.49-4.77,8.94-5.27,14.36-1.61,3.97,2.66,5.84,5.97,6.93,12.28l.74,4.38,7.18-.12c4.9-.08,9.54-.97,14.74-2.83,8.42-3.01,11.61-3.5,9.59-1.49-1.56,1.56-1.61,7.15-.09,10.48,1.32,2.87,3.01,3.41,11.7,3.66,11.9.35,18.61,5.71,17.31,13.81-.34,2.04-1.04,3.73-1.56,3.73-1.07,0-8.02,7.31-8.03,8.45,0,1.56,4.3,3.08,5.46,1.93.62-.62,1.96-1.12,2.98-1.12,2.29,0,2.42,3.08.32,7.16-1.35,2.61-1.35,3.45,0,7.28.84,2.38,1.53,6.85,1.53,9.92,0,4.74.27,5.54,1.77,5.26,1.05-.2,2.24-1.99,2.93-4.43.97-3.43.86-5.04-.74-9.67-2.36-6.89-2.36-6.98.14-8.32,1.56-.82,2.81-.7,5.15.5,3.75,1.96,4,3.62.52,3.62-1.86,0-2.58.55-2.58,1.99,0,1.09.51,2.3,1.11,2.68.6.37.79,1.44.4,2.38-.39.92-1.29,3.77-2.01,6.31-.74,2.54-1.66,5.44-2.06,6.43-.57,1.39-.24,1.81,1.46,1.81,2.61,0,3.63,2.11,2.74,5.67-.52,2.06-1.12,2.46-2.96,1.99-2.08-.52-2.53.08-4.35,5.91-1.44,4.6-2.59,6.58-3.98,6.84-1.32.24-1.76-.1-1.35-1.04.32-.77,1.64-3.82,2.91-6.79,1.85-4.25,2.07-5.65,1.09-6.64-.99-1-1.71-.99-3.4.07-3.01,1.89-3.5.8-1.47-3.43,1.99-4.22,2.38-11.21.74-13.19-.62-.75-1.44-3.98-1.81-7.2-.57-4.84-1.04-5.84-2.66-5.84-1.81,0-1.92.62-1.51,7.26.25,3.98.74,7.53,1.09,7.88.81.81.81,7.85-.02,9.96-.33.89-1.09,1.62-1.64,1.62s-.77-.7-.43-1.57c1.32-3.43-2.43-2.54-6.36,1.49-7.3,7.55-8.67,4.75-2.19-4.49,4.64-6.63,6.04-11.95,5.17-19.59-.59-5.07-.65-5.14-4.45-5.46-4.47-.37-4.65.22-2.21,7.36,1.4,4.12,1.46,5.35.32,8.17-1.56,3.85-8.26,14.44-9.48,14.98-.45.18-1.88,2.75-3.18,5.64-2.19,4.95-6.41,9.44-15.01,15.96-3.53,2.71-11.63,4.17-12.77,2.31-.44-.7.12-1.15,1.44-1.15,4.1,0,8.8-2.79,14.42-8.58,5.76-5.92,8.07-10.26,8.17-15.31.03-2.14-.43-2.83-1.96-2.83s-2.18.95-2.71,3.85c-.39,2.12-1.44,5.29-2.36,7.03-1.73,3.29-8.3,9.59-12.09,11.56-3.21,1.69-12.92,2.63-17.5,1.69l-3.95-.78,4.08-.9c2.22-.5,4.68-.67,5.47-.37,1.91.74,5-1.05,10.12-5.87,4.91-4.58,6.86-8.5,6.38-12.74-.47-4.05-3.95-4.75-3.95-.8,0,3.36-5.27,11.93-8.74,14.21-2.95,1.92-8.87,2.6-9.42,1.05-.21-.6,1.26-2.72,3.26-4.73,2.91-2.91,3.78-4.72,4.27-8.85.7-5.94-.2-10.83-1.91-10.26-.63.2-1.24,2.66-1.34,5.45-.52,14.04-11.91,22.21-28,20.07-6.73-.9-7.61-1.74-4.38-4.19,2.9-2.18,1.98-4.16-1.07-2.26-2.21,1.37-16,1.72-16.8.42-.28-.47,1.07-1.69,3.01-2.75,3.35-1.79,4.67-3.63,2.61-3.63-.52,0-4.55.69-8.95,1.54-4.42.84-8.4,1.15-8.85.69-.47-.45.87-1.96,2.98-3.33,5.79-3.8,5.64-5.34-.35-3.43-2.73.87-6.93,1.84-9.34,2.16-2.41.32-4.37.99-4.37,1.47s-.9.9-1.99.9c-2.06,0-5.2,3.55-5.2,5.89,0,1.91,1.84,1.61,5.39-.92,3.03-2.15,3.17-2.17,4.52-.32,1.98,2.69,1.92,2.8-3.18,6.61-4.69,3.53-6.61,6.22-4.38,6.19.69,0,2.34-1.17,3.68-2.58,4.22-4.45,6.66-4.32,11.11.59,2.17,2.37,4.87,5.77,5.99,7.53,1.14,1.77,2.88,4.03,3.88,5.03,1.27,1.27,1.61,2.63,1.14,4.5-.52,2.04-.33,2.58.75,2.23.78-.27,1.57-2.18,1.76-4.3.24-2.9-.45-4.97-2.83-8.57-3.52-5.31-3.41-6.53.3-4.08,3.26,2.14,7.24,10.51,7.3,15.35.05,4.12.47,4.57,2.41,2.63,1.49-1.49,1.59-6.26.25-10.95-.87-3.01-.78-3.26.59-2.11,2.21,1.82,5.22,8.02,6.64,13.64.65,2.61,1.61,4.77,2.09,4.77,1.54,0,1.02-12.24-.65-15.48-1.49-2.9-1.47-3.03.57-3.03,5.23,0,12.88,13.22,14.07,24.33.45,4.3.13,5.99-1.66,8.89-2.07,3.38-4.95,5.46-6.02,4.39-.27-.27.52-1.89,1.76-3.62,2.26-3.16,2.09-5.2-.42-5.2-.75,0-1.64-.7-1.96-1.54-.33-.85-1.27-1.54-2.11-1.54-1.07,0-1.49,1.14-1.46,3.98.07,5.02-1.22,7.57-3.23,6.33-1.19-.74-1.24-1.61-.3-4.67,2.18-7.13-1.53-9.39-4.62-2.83-1.88,3.98-6.41,6.44-4.97,2.68.42-1.04,1.02-3.23,1.34-4.87.57-2.78.42-2.94-2.01-2.33-1.77.44-3.4.02-5.1-1.32-1.69-1.34-2.98-1.66-3.97-1.02-2.19,1.38-2.57,1.21-3.88-1.65-.99-2.16-1.53-2.43-3.18-1.54-1.11.59-2.46,1.07-3.01,1.07-1.62,0-5.29-6.67-5.29-9.64,0-1.49-.43-2.69-.97-2.69-2.86,0-3.63,8-.97,10.28,2.29,1.96,1.51,7.46-.99,6.98-5.14-.99-5.51-13.24-.6-20.15,1.66-2.34,3.53-4.27,4.15-4.28.63-.01,3.31,2.3,5.95,5.12,2.65,2.83,5.06,5.14,5.35,5.14,1.47,0-1.42-5.22-5.6-10.12l-4.7-5.5-1.92,2.41c-6.66,8.33-8.95,9.57-8.95,4.85,0-2.99-2.56-1.77-2.68,1.29-.05,1.39-.65,5.05-1.34,8.13-.69,3.1-1.46,6.63-1.71,7.87-1.2,5.98-12.58,14.73-19.11,14.73-5.65,0-13.92-1.98-15.33-3.67-1.02-1.24-.55-1.47,2.93-1.47,2.29,0,4.33.54,4.55,1.17.54,1.61,10.63-.77,14.33-3.38,3.92-2.75,8.2-16.17,4.8-15.03-.69.22-1.66,1.76-2.19,3.41-1.86,5.76-7.88,10.05-15.78,11.29-3.93.62-5.54,0-18.34-6.99-1.69-.92-3.78-1.93-4.64-2.25-.84-.3-2.51-1.26-3.7-2.12-1.86-1.35-2.34-1.39-3.36-.13-.97,1.15-.28,2.53,3.41,6.88,7.75,9.06,19.54,15.83,29.95,17.15,7.77,1.01,11.75.55,11.75-1.34,0-.81.4-1.47.89-1.47s2.98-1.86,5.56-4.12c2.56-2.26,4.95-4.12,5.3-4.12s.32,3.71-.05,8.23c-.6,7.2-.47,8.23.99,8.23.99,0,1.92-1.17,2.29-2.83,1.42-6.43,2.76-9.6,3.89-9.21,1.7.6.85,6.01-1.21,7.53-1.44,1.07-1.5,1.62-.43,3.4,1.1,1.79.99,2.42-.77,4.19-1.14,1.12-2.53,2.06-3.1,2.06s-1.02.45-1.02,1.02.96,1.04,2.12,1.04c1.64,0,1.99.47,1.54,2.04-.32,1.14-.84,2.99-1.17,4.13-.8,2.86,2.31,3.92,4.15,1.41.79-1.07,1.81-1.96,2.27-1.99.47-.05,2.68-.6,4.9-1.27,2.22-.65,4.27-.97,4.52-.72.25.25-.89,2.19-2.51,4.34-7.18,9.37-12.6,20.85-9.84,20.85,1.61,0,10.61-10.46,12.15-14.11.77-1.82,1.39-4.28,1.39-5.47,0-3.33,5.44-8.18,9.18-8.18,4.39,0,4.12,2.49-.77,7.09-2.16,2.04-4.52,5.19-5.26,7.01-.72,1.82-1.96,3.83-2.75,4.49-1.87,1.55-1.84,2.99.07,2.99,2.73,0,.35,3.56-9.22,13.82-7.58,8.14-10.58,10.56-16.57,13.46-13.42,6.46-16.6,6.86-8.41,1.05,8.37-5.91,21.39-17.3,21.39-18.69,0-2.16-3.55-1.67-5.76.77-2.83,3.16-13.47,10.54-19.43,13.49-7.11,3.51-18.81,6.54-20.15,5.2-.7-.7.57-1.76,3.9-3.23,2.71-1.22,6.79-3.58,9.05-5.27,2.26-1.68,7.5-5.41,11.63-8.3,4.13-2.88,7.31-5.79,7.06-6.46-.66-1.77-1.86-1.27-13.05,5.54-5.61,3.4-13.34,7.33-17.17,8.72-8.22,2.98-8.1,2.96-6.46.99.7-.85,1.7-1.54,2.24-1.54,1.61,0,10.17-6.24,13.29-9.67,6.56-7.2,1.92-7.82-5.79-.77-6.22,5.67-12.18,8.87-14.71,7.85-1.56-.63-1.54-.81.25-1.89,5.11-3.06,8-6.43,7.65-8.91l-.37-2.51-4.12,3.68c-5.48,4.92-7.55,5.77-11.82,4.95-1.97-.39-3.06-.75-2.41-.84,2.65-.3,9.61-5.74,9.61-7.51,0-2.6-1.91-2.34-6.61.85-6.09,4.13-12.02,5.54-20.47,4.87-5.64-.45-7.85-.24-9.39.94-1.97,1.5-1.96,1.61,1.12,4.48,1.74,1.62,5.77,4.27,8.97,5.88,4.62,2.34,5.99,3.61,6.64,6.16.57,2.21,1.54,3.33,3.08,3.55,1.24.18,2.26-.18,2.26-.84s1.04-1.02,2.31-.84c1.71.23,2.41,1.12,2.66,3.41.6,5.31,4.28,7.43,4.28,2.48,0-2.61,2.01-3.35,5.48-2.04,1.69.65,2.74,1.83,2.74,3.08,0,2.79,1.59,3.5,3.52,1.55,1.35-1.35,1.62-1.37,1.62-.13,0,.82.67,2.04,1.47,2.71,1.19.97,1.71.78,2.61-.9.8-1.51,2.16-2.12,4.64-2.12,3.81,0,5.56,1.57,3.75,3.38-1.56,1.56-1.46,4.85.15,4.85.7,0,2.44-1.39,3.83-3.09,1.41-1.69,3.18-3.08,3.95-3.08.89,0,.42,1.14-1.27,3.16-2.39,2.83-3.63,7.11-2.07,7.11.33,0,2.58-1.61,4.99-3.59,4.17-3.4,9.37-4.74,11.25-2.88.39.39-1.92,3.38-5.15,6.63-4.67,4.73-5.35,5.81-3.36,5.3,1.37-.33,4.73-2.24,7.5-4.23,3.86-2.8,6.29-3.75,10.54-4.1,6.69-.55,6.98.45,1.41,5.22-2.26,1.93-4.1,4.02-4.1,4.64,0,2.01,2.14,2.53,3.92.94,1.82-1.64,11.61-6.31,15.09-7.21,1.14-.29,3.56-.99,5.39-1.58,1.82-.57,3.55-.67,3.82-.23.72,1.17-9.21,7.34-14.12,8.8-2.33.69-4.4,1.77-4.62,2.43-.66,1.99,4.07,1.34,9.84-1.36,2.99-1.39,7.28-3.03,9.52-3.63,6.98-1.89,13.32-4.99,13.32-6.53,0-.92,1.42-1.65,3.85-1.96,6.46-.84,15.83-2.88,22.99-5.02,5.04-1.52,7.83-3.09,10.76-6.1,2.18-2.23,5.67-5.24,7.78-6.7,5.46-3.78,7.06-8,7.77-20.3q.6-10.58-3.16-18.61c-2.76-5.91-5.26-9.4-9.41-13.2-6.88-6.31-7.33-8.44-1.59-7.66,2.64.35,4.77.02,6.18-.96,1.92-1.35,2.42-1.29,4.84.62,1.49,1.15,3.58,2.13,4.67,2.13s4.19,2.07,6.91,4.62c2.71,2.54,5.44,4.64,6.06,4.64s1.94-1.39,2.94-3.1c1.01-1.69,2.28-3.08,2.83-3.08s3.11,2.19,5.71,4.88c12.77,13.27,30.89,17,30.89,6.38,0-1.64.69-3.08,1.64-3.45,2.29-.89,9.32,1.15,14.49,4.17,4.12,2.42,4.43,2.46,7.53.85,3.03-1.57,3.33-1.56,4.58.15,2.31,3.18,17.39,11.16,19.09,10.12,2.41-1.5.37-3.51-7.85-7.66-7.03-3.56-8.47-4.67-7.11-5.44,1.14-.64,3.3-.39,6.51.75q8.38,2.95,8.4,1.21c0-1.71-5.62-5-10.54-6.19-1.56-.37-2.83-1.12-2.83-1.69,0-2.61,12.95.28,18.73,4.2,2.63,1.77,5.77,2.99,7.8,3.01,3.97.02,10.34-3.03,13.99-6.66,2.23-2.23,3.5-2.58,9.29-2.58,6.56,0,6.68.05,5.81,2.36-1.24,3.26-.24,7.98,2.29,10.76,1.47,1.62,2.14,3.78,2.19,7.09.08,6.44-1.83,6.67-3.41.42-1.42-5.54-3.35-7.84-5.77-6.91-1.99.77-2.01,4.74-.02,6.21.86.64,1.84,3.35,2.19,6.03.57,4.1.4,4.88-1.02,4.88-.92,0-1.68-.8-1.68-1.81,0-2.63-5.89-14.64-7.2-14.64-2.86,0-1.89,7,1.58,11.31,1.52,1.91,2.59,9.19,1.67,11.41-1.09,2.63-7.43,9.42-8.13,8.72-.35-.35-.05-2.96.69-5.79,1.57-6.16.8-10.53-1.76-10.02-1.22.25-1.73,1.29-1.64,3.41.17,4.32-2.36,13.85-4.22,15.9-1.69,1.85-8.8,4.42-9.72,3.5-.32-.3,1.14-2.12,3.23-4.05,4.05-3.7,6.37-9.4,5.8-14.26-.38-3.25-3.86-6.2-4.68-3.93-.25.7-1.59,1.27-2.95,1.27-1.52,0-2.49.6-2.49,1.56,0,.84-.2,1.54-.43,1.54s-1.16.27-2.06.62c-.99.39-1.62.08-1.62-.77,0-2.54-8.65-14.24-10.53-14.24-2.22,0-2.33,1.37-.22,3.11,1.27,1.06,1.32,1.49.25,2.18-2.07,1.32-2.54,1.07-3.8-1.96-1.17-2.83-6.86-7.45-9.15-7.45-2.65,0-.99,3.41,4.16,8.62,2.98,2.99,6.22,5.74,7.21,6.09,2.22.8,3.85,4.8,3.85,9.48s-4.88,9.47-13.42,12.97c-3.65,1.49-6.82,2.53-7.08,2.29-.25-.24,1.14-1.77,3.08-3.41,2.83-2.39,3.28-3.25,2.26-4.28-1.04-1.07-1.83-.8-4.12,1.32-4.88,4.57-12.23,7.5-14.78,5.89-1.14-.72-1.07-.9.32-.92,2.14-.02,7.43-6.71,6.51-8.22-.42-.66-2.81.77-5.99,3.56-4.85,4.23-5.77,4.64-10.73,4.64-2.98,0-5.39-.35-5.37-.77.01-.42,2.14-2.11,4.7-3.73,5.04-3.2,6.14-4.8,5.11-7.5-.57-1.46-1.14-1.26-3.97,1.39-4.35,4.08-8.03,6.49-9.91,6.49-.87,0-.23-.97,1.54-2.31,1.67-1.27,4.07-3.23,5.34-4.34,2.61-2.33,3.11-6.71.75-6.71-.86,0-1.54.65-1.54,1.46,0,1.98-9.1,9.84-11.4,9.84-2.98,0-3.4-2-.99-4.58,1.24-1.32,1.8-2.66,1.27-2.99-.54-.33-1.5-2.71-2.15-5.29-1.09-4.3-3.41-6.78-4.92-5.27-.35.35.1,3.14.97,6.24,2.07,7.28.92,9.32-4.69,8.29-2.09-.4-3.8-.84-3.8-.99s.72-2.04,1.62-4.18c1.34-3.21,1.42-4.64.42-8.18-1.64-5.86-5.56-10.71-7.3-9.02-1.02,1-.72,2.29,1.47,6.31,3.01,5.56,3.45,9.09,1.44,11.83-1.67,2.3-5.32,1.21-4.27-1.27,1.89-4.39,1.56-7.51-1.46-13.97-1.92-4.12-3.77-6.71-4.77-6.71-2.84,0-2.88,2.86-.13,8.4,1.47,2.95,2.68,6.66,2.68,8.27,0,2.81-.12,2.86-4.22,2.21-3.68-.59-4.16-.44-3.85,1.17.2,1,1.29,2.34,2.41,2.96,1.14.63,2.42,1.72,2.87,2.42.45.72,1.74,1.29,2.86,1.29s2.33.74,2.66,1.62c.42,1.09,1.39,1.42,2.98,1.02,1.42-.35,2.96.03,3.9.96.85.85,2.11,1.54,2.79,1.54s5.69,2.14,11.13,4.77c7.24,3.5,12.13,5.09,18.39,6.02,4.69.71,8.77,1.53,9.07,1.82.99,1.01-6.01,2.03-13.3,1.96-4.7-.05-7.92.45-9.3,1.42-1.17.82-1.91,1.54-1.64,1.59.27.07,5.57.22,11.8.37,10.19.22,11.8,0,16.3-2.24l5-2.49,9.91,2.04c6.04,1.26,15.85,2.24,25.07,2.54l15.14.48,6.34-3.09c3.48-1.69,9.17-3.47,12.62-3.93,3.44-.45,8.7-1.79,11.66-2.96l5.41-2.12v2.54c0,3.82-3.92,5.74-13.57,6.68-8.8.85-10.14,1.17-16.25,3.93-5.51,2.49-34.57,3.86-40.36,1.89-7.38-2.51-13.74-3.01-20.82-1.68-10.71,2.01-8.12,4.45,2.88,2.69,3.95-.62,7.24-.57,9.77.15,11.31,3.26,13.05,3.45,25.76,2.75l13-.72-2.71,2.18c-1.49,1.19-3.93,2.63-5.46,3.21-6.1,2.33-37.3.55-45.03-2.56-3-1.2-2.03.96,1.02,2.26,6.89,2.96,14.9,4.08,30.82,4.33,15.35.24,16.93.09,19.61-1.82,4.84-3.43,11.58-4.64,18.96-3.4,19.03,3.24,30.26,2.16,41.05-3.97,3.87-2.19,8.18-5.29,9.59-6.86,2.12-2.41,2.69-2.63,3.53-1.35.72,1.11.43,2.14-1.01,3.66-1.54,1.66-2.01,3.62-2.01,8.47,0,6.14-.1,6.39-3.83,8.94-4.38,2.96-6.13,3.16-8.95,1.02-1.24-.92-4.32-1.5-8.05-1.5-5.2,0-6.01.25-5.71,1.8.25,1.36,1.54,1.88,5.29,2.11,3.23.2,4.8.73,4.55,1.54-.45,1.51-8.28,5.35-12.85,6.33-2.74.58-3.25.43-2.74-.84.32-.85,1.97-2.02,3.66-2.61,3.75-1.31,3.3-2.25-2.26-4.76q-4.27-1.92-8.86.51c-2.53,1.34-5,3.21-5.5,4.18-1.47,2.73-6.58,4.47-9.14,3.1-1.71-.9-2.99-.7-6.41,1.05-3.55,1.81-5.27,2.06-10.04,1.46-3.18-.39-6.49-1.11-7.39-1.59-.9-.49-4.84-1.14-8.75-1.46-3.9-.33-8.37-.85-9.92-1.17-2.11-.42-2.83-.17-2.83,1.04,0,2.71,4.39,4.67,10.85,4.85,3.36.09,8.61.86,11.68,1.69,3.32.9,7.35,1.26,10.01.9,3.8-.52,4.6-.3,5.59,1.52.69,1.31.77,2.53.2,3.1-1.07,1.07-25.09-.57-31.63-2.18-5.64-1.37-6.7-1.29-6.7.5,0,.84.92,1.54,2.03,1.54s2.51.9,3.1,2.01c1.07,2,12.78,6.21,17.3,6.21,1.19,0,3.29.54,4.7,1.17,2.73,1.24,7.84.47,7.84-1.19,0-.55-1.11-1.01-2.46-1.01s-4.47-.92-6.93-2.04l-4.49-2.03,7.72-.17c12.94-.27,16.82.18,19.01,2.21,1.91,1.76,2.87,1.81,13.13.74,9.9-1.02,11.26-.97,12.78.55,1.41,1.41,1.46,1.77.22,2.16-3.2,1.04-12.06,2.63-17.94,3.23-5.44.55-6.44.37-8.14-1.49-2.59-2.88-9.84-2.99-11.58-.18-1.39,2.22-.8,3.2,1.98,3.2,1.05,0,3.18.63,4.7,1.41,2.36,1.2,4.62,1.2,14.69.05,6.56-.77,13.19-1.88,14.73-2.46,1.54-.59,3.28-1.06,3.86-1.06,1.34,0,.13,5.34-1.41,6.29-1.39.85-8.48,1.24-24.47,1.34-11.93.06-13.49-.15-21.59-3.13-4.82-1.76-11.98-3.81-15.95-4.55-5.56-1.04-8.2-2.18-11.66-5.02-11.58-9.51-16.32-11.28-32.03-11.97-13.4-.57-13.85-.4-17.45,6.74-2.83,5.65-5.02,8.23-6.94,8.23s-.74-5.96,1.89-8.8c1.07-1.17,1.96-3.03,1.96-4.12.03-3.06,1.21-4.23,5.12-5.07,7.43-1.57,10.51-5.32,3.35-4.04-5.72,1.01-11.31,4.43-12.07,7.4-.35,1.41-2.81,5.06-5.47,8.11-4.49,5.19-5.07,5.54-8.48,5.04-2.18-.33-4.45,0-5.66.81-4.49,3.03-6.06,2.69-2.51-.52,12.82-11.63,15.48-14.36,14.91-15.26-1.24-2.03-3.58-.97-8.95,4.05-15.78,14.71-24.1,20.43-33.94,23.36-5.29,1.57-6.16,3.68-1.76,4.28,1.37.2,2.93.77,3.47,1.28.55.52,2.99.94,5.47.94,2.73,0,4.23.4,3.83,1.04-.35.57-5.29,1.02-11.29,1.02-11.9,0-14.9.78-19.3,5.09-1.67,1.64-5.87,4.45-9.36,6.26l-6.31,3.3,4.79-4.49c4.73-4.45,10.01-12.67,8.85-13.81-1.04-1.04-4.64,1.84-6.61,5.29-2.86,4.99-18.27,16.87-21.89,16.87-2.33,0-.64-1.81,7.7-8.22,6.31-4.87,8.68-7.31,8.68-9.01.02-1.27-.33-2.31-.75-2.29-.43.02-3.31,2.34-6.43,5.17-6.98,6.36-9.97,8.03-15.92,8.85-5.99.82-5.94-.66.12-3.15,4.88-2.01,19.91-13.4,19.91-15.09,0-1.86-2.57-.89-8.42,3.21-7.56,5.3-15.48,8.87-21.67,9.75-5.31.77-6.93-.84-2.08-2.06,4.35-1.09,12.38-6.71,13.01-9.1.84-3.18.23-3.2-4.37-.14-3.9,2.58-8.3,2.88-6.81.47,1.34-2.18-.67-3.21-3.13-1.61-1.34.87-2.68,1.15-3,.63-.32-.52.47-1.26,1.74-1.65,1.29-.39,4.25-2.28,6.61-4.19,2.36-1.91,4.75-3.48,5.32-3.48,1.81,0,5.45-5.39,4.38-6.47-.63-.62-3.41.72-7.65,3.68-4.64,3.25-9.39,5.44-15.75,7.26-10.57,3.06-18.86,4.4-18.86,3.06,0-.5,2.19-1.5,4.87-2.22,7.36-1.94,15.68-7.28,15.68-10.08,0-1.35.82-2.54,1.97-2.91,2.16-.69,9.34-8.17,9.34-9.74,0-2.84-2.73-1.79-6.51,2.54-9.37,10.73-11.53,12.53-17.65,14.81-7.88,2.94-16.35,4.64-18.64,3.77-1.57-.62-1.49-.85.72-2.03,8.08-4.27,13.31-8.18,13.31-9.97,0-2.53-1.12-2.49-4.43.12-4.32,3.4-13.82,7.33-16.87,6.98-3.1-.37-2.79-.55,15.91-10.14,4.1-2.11,9.36-5.74,11.68-8.07,2.32-2.33,4.6-4.23,5.05-4.23s2.53-2.33,4.62-5.19c3.63-4.93,3.9-5.1,5.72-3.47,1.42,1.29,3.03,1.59,6.19,1.16,2.98-.39,4.73-.12,5.75.9,1.99,1.99,4.4,1.84,10.8-.69,4.58-1.81,7.9-2.16,21.55-2.31,8.87-.1,15.48.18,14.68.63-4.08,2.27-17.77,4.75-27.21,4.92-7.71.13-10.77.58-11.93,1.74-1.26,1.26-3.13,1.42-9.4.9-4.32-.37-8.15-1.17-8.53-1.81-1.41-2.26-13.31,7.21-13.31,10.59,0,2.56,1.71,2.33,3.55-.45.84-1.27,3.18-3.62,5.21-5.21,3.63-2.9,3.67-2.9,5.42-.85,1.66,1.92,2.49,2.01,13.2,1.26,6.28-.45,11.86-1.09,12.4-1.42.55-.33,5.12-1.11,10.17-1.72,5.04-.6,10.8-1.36,12.77-1.66,3.46-.52,3.51-.48,1.54,1.14-3.31,2.71-14.06,7.51-18.51,8.3-2.26.39-5.02,1.34-6.14,2.11-1.1.77-4.27,1.41-7.01,1.41-3.55,0-4.89.37-4.59,1.29.29.85,3.28,1.37,8.95,1.57,9.93.35,17.47-1.67,20.5-5.52,1.09-1.37,3.52-3.14,5.41-3.95,4.65-1.94,9.1-5.56,9.1-7.38,0-.82,1.16-1.93,2.58-2.46,1.41-.54,2.56-1.62,2.56-2.41s1.97-2.19,4.37-3.11c2.41-.92,5.75-2.78,7.43-4.13,2.54-2.03,2.84-2.71,1.77-3.98-1.07-1.31-.84-1.62,1.57-2.03,11.67-1.97,31.04-7.53,37.25-10.68,7.68-3.9,8.55-4.7,9.05-8.37.35-2.53-1.22-3.11-2.53-.97-.45.74-2.49,2.36-4.55,3.6-3.1,1.88-5.24,2.26-12.85,2.25-12.07-.02-13.17-.79-8.25-5.69,2.11-2.11,3.58-4.05,3.29-4.35-.6-.6-5.29,2.94-11.88,9.02-2.54,2.33-6.39,5.17-8.53,6.29s-4.17,2.71-4.49,3.53c-.39.99-2.07,1.49-5.09,1.49-4.13,0-4.52-.22-4.52-2.56,0-2.57-1.39-3.44-2.54-1.57-.81,1.29-8.7,4.84-16.35,7.31-6.96,2.26-6.81,2.24-6.81,1.11,0-.48,3.26-2.18,7.24-3.78,7.81-3.14,9.05-4.15,7.26-5.94-1.52-1.52-6.73.35-16.05,5.81-10.11,5.91-16,8.55-20.95,9.39-2.61.44-4.67,1.47-5.32,2.68-.86,1.62-2.21,1.96-7.62,1.96-5.97,0-6.61-.2-6.91-2.22-.29-1.96-.72-1.68-3.41,2.21-4.55,6.59-16.01,15.77-23.9,19.11-3.78,1.61-9.32,4.4-12.3,6.19-5.49,3.29-18.13,7.15-19.9,6.04-1.89-1.17-.92-2.39,2.9-3.62,5.49-1.79,16.9-7.5,22.12-11.1,5.39-3.7,10.81-11.06,9.29-12.58-.7-.7-1.57-.24-2.69,1.47-4.99,7.63-42.89,24.72-42.86,19.33,0-.63,3.52-2.12,13.35-5.69,5.94-2.14,19.51-15.03,15.85-15.03-.33,0-2.76,1.91-5.41,4.22-2.63,2.33-6.13,4.92-7.77,5.77-3.85,1.99-16.28,5.44-19.61,5.44-2.96,0-3.5-1.84-.78-2.69.99-.32,3.65-1.41,5.91-2.39,2.26-1,5.95-2.42,8.22-3.16,5.75-1.86,11.51-5.87,12.21-8.52.94-3.58-.87-4.12-4.28-1.26-7.23,6.09-26.81,13.25-36.01,13.19-9.16-.07-9.99-1.66-2.06-3.86,3.55-1.01,9.24-3.08,12.65-4.64,3.4-1.54,7.34-3.1,8.75-3.45,2.56-.64,8-8.47,6.76-9.71-.33-.33-1.91.64-3.48,2.14-3.23,3.1-17.95,9.34-24.58,10.44-2.38.39-5.54,1.65-7.01,2.81-2.33,1.84-2.99,1.94-5.17.77-1.37-.74-2.49-1.69-2.49-2.11s2.66-1.54,5.91-2.44c7.38-2.07,14.99-5.24,19.74-8.2,2.01-1.24,4.45-2.56,5.44-2.93,1.72-.63,2.63-4.85,1.04-4.83-.43,0-3.31,1.52-6.43,3.38-7.38,4.42-10.01,5.4-21.03,7.95-7.46,1.71-9.74,1.89-12.08.92-4.2-1.74-3.53-2.68,2.34-3.25,3.18-.3,6.29-1.35,7.96-2.69,1.52-1.2,4.89-3.33,7.48-4.7,4.42-2.36,8.95-7.3,7.76-8.49-.28-.3-2.06.62-3.93,2.03-5.76,4.3-11.3,6.63-22.43,9.37-5.87,1.46-10.81,2.49-10.98,2.33-.17-.15-.42-1.41-.59-2.74-.22-1.94.37-2.65,2.81-3.37,4.74-1.39,18.22-8.13,20.82-10.39,1.99-1.74,3.2-4.76,1.89-4.76-.25,0-6.06,2.56-12.94,5.66-6.88,3.11-13.05,5.66-13.7,5.66-1.35-.02-3.85-4.72-2.98-5.61.32-.3,2.69-.6,5.29-.63,3.2-.05,6.18-.97,9.25-2.84,7.9-4.82,6.01-7.25-2.59-3.35-2.33,1.05-6.61,2.24-9.51,2.64-2.91.4-5.56,1.15-5.87,1.67-.96,1.54-4.3,1.04-4.99-.75-.96-2.48.81-3.98,7.51-6.43,6.28-2.3,11.41-5.68,11.41-7.51,0-1.22-.85-1.01-10.58,2.64-6.04,2.26-7.08,2.39-7.6,1.04-.72-1.86.43-3.14,3.26-3.65,1.12-.22,2.19-1.19,2.39-2.19.29-1.55-.22-1.73-3.6-1.2-3.35.54-4.15.27-5.35-1.73-1-1.64-1.09-2.44-.27-2.73,2.11-.7,5.8-4.15,5.15-4.8-.35-.35-2.54.12-4.89,1.05-2.78,1.12-5.47,1.47-7.83,1.04-4.25-.81-4.57-1.88-1.02-3.48,3.25-1.49,3.45-3.78.25-2.84-4.83,1.41-8.97,1.86-10.74,1.16-1.56-.62-1.27-1.02,1.74-2.45,3.66-1.76,6.04-6.28,2.59-4.95-3.78,1.46-12.87,1.99-12.87.77,0-.66.81-1.46,1.79-1.77,1.01-.32,2.73-.99,3.87-1.49,1.12-.5,3.4-1.39,5.02-1.99,4.82-1.74,2.33-2.31-5.11-1.15-7.24,1.14-8.65.92-8.65-1.34,0-1.59,3.13-2.59,8.22-2.64,1.98-.02,4.3-.47,5.14-1.02,1.1-.7-.18-1.01-4.4-1.01-4.34-.02-6.09-.43-6.55-1.57-.94-2.48,1.26-4.2,7.08-5.51,5.79-1.31,13.72-5.35,13.52-6.91-.07-.52-.4-2.46-.75-4.3-.54-2.86-.08-3.97,3.03-7.42,4.6-5.08,7.61-12.88,7.61-19.66,0-4.28-.7-6.34-3.86-11.29-2.27-3.58-4.49-5.96-5.39-5.81-2.66.47-2.26,3.41.99,6.88,1.81,1.94,3.2,4.6,3.29,6.32.09,1.64.2,3.78.25,4.77.06,1.24-.54,1.69-1.91,1.45-1.11-.18-2.61.47-3.35,1.49-1.17,1.59-1.34,1.26-1.34-2.75-.02-8.48-2.83-15.01-5.37-12.45-.75.74-.59,2.31.55,5.15,2.12,5.31,1.32,11.45-1.41,10.73-1.04-.27-2.03-1.46-2.21-2.63-.4-2.76-2.88-3.6-2.88-.99,0,2.74-5.8,10.53-7.85,10.53-.94,0-2.73,1.12-3.98,2.49-3.2,3.44-14.11,6.19-16.22,4.08-.35-.35,1.66-2.45,4.45-4.65,2.8-2.21,5.09-4.48,5.09-5.04,0-1.46-1.12-1.22-3.23.67-1.72,1.57-14.79,3.75-16.57,2.76-1.56-.89-.69-2.16,2.34-3.41,2.52-1.04,3.03-1.77,2.69-3.97-.25-1.71-.92-2.54-1.81-2.27-.79.24-3.17.63-5.27.89-3.28.39-3.86.15-3.86-1.54,0-1.09,1.15-3.08,2.57-4.4,3.17-2.98,3.45-5.56.51-4.62-2.46.77-2.65-.9-.51-4.64.81-1.4,1.49-4.35,1.51-6.52.02-3.13-.63-4.59-3.16-6.95-1.76-1.64-3.6-2.98-4.08-2.98-1.66,0-5.06-8.37-4.13-10.16.48-.92,1.19-3.86,1.57-6.56.59-4.04.33-5.42-1.41-7.87-1.17-1.64-2.12-3.3-2.12-3.7,0-1.59-4.35-6.68-5.72-6.68-2.64,0-1.56,4.28,2.13,8.37,4.77,5.27,4.84,9.22.25,13.27-4.57,4.03-12.77,8.25-14.64,7.53-2.63-1.02-1.72-2.43,2.85-4.39,2.41-1.04,4.95-2.58,5.66-3.41,1.72-2.07,1.91-9.59.28-11.55-1.87-2.26-3.43-.82-2.76,2.56.69,3.41-1.98,7.3-6.56,9.57-4.57,2.29-4.57.42.02-5.37,4.2-5.32,5.33-9.39,2.6-9.39-.85,0-2.18,1.5-2.96,3.35-1.76,4.1-7.28,9.47-8.8,8.53-1.94-1.2-1.22-3.14,2.49-6.74,3.63-3.51,4.64-6.16,2.34-6.16-.69,0-3.21,1.93-5.62,4.3-5.14,5.04-6.78,4.87-2.39-.25,2.93-3.45,4.05-7.15,2.16-7.15-.5,0-2.86,2.33-5.22,5.15-4.89,5.82-7.63,6.79-6.58,2.31.36-1.56.65-3.06.65-3.35-.09-3.97-.48-5.14-1.79-5.14-1.05,0-1.54,1.06-1.55,3.35,0,3.68-3.23,9.74-5.69,10.69-2.38.9-3.06-.42-1.29-2.48,2.11-2.43,3.13-7.06,2.33-10.68-.89-4.05-2.53-2.68-2.53,2.11,0,2.86-.74,4.65-2.71,6.63-1.5,1.49-3.31,2.71-4.07,2.71-2.03,0-2.81-1.96-1.46-3.59,1.32-1.59.57-3.6-1.35-3.6-.69,0-1.84.97-2.58,2.14-1.17,1.87-1.96,2.06-6.33,1.46-4.23-.59-5.32-.35-7.13,1.45-2.31,2.31-2.86,6.71-1,7.87.63.4,1.55.07,2.07-.7.77-1.17,1.17-1.11,2.31.39,1.91,2.48,2.69,2.24,2.69-.77,0-1.42.59-2.56,1.29-2.56,2.88.02,14.46,4.08,18.71,6.58,5.71,3.35,12.32,3.63,13.94.6.6-1.12,1.73-2.06,2.51-2.06.9,0,1.2.74.87,2.06-.47,1.77-.03,2.06,3.1,2.06s4,.59,5.86,3.62c1.24,1.99,3.11,4.08,4.19,4.65,2.18,1.17,6.84.35,9.19-1.61,2.01-1.68,7.4-2.76,8.84-1.77.62.42,1.44,2.04,1.83,3.59.42,1.78,2.26,3.82,4.9,5.49,4.02,2.53,4.19,2.86,3.67,6.76-.3,2.26-1.27,4.65-2.14,5.3-2.46,1.88-3.41,5.77-3.2,12.97.17,5.44.57,6.79,2.18,7.51,1.09.49,2.81,2.12,3.85,3.67,1.69,2.51,17.5,11.49,20.23,11.49.6,0,3.13.94,5.64,2.08,3.78,1.72,6.32,2.02,15.11,1.81,10.08-.27,10.58-.18,10.86,1.91.3,2.11-2.99,4.6-3.65,2.76-1.16-3.28-2.19-3.83-4.05-2.16-1.02.93-4.07,2.63-6.74,3.78-2.69,1.16-4.88,2.58-4.88,3.17s-.47,1.07-1.06,1.07-2.84,1.19-5.03,2.64c-3.83,2.53-3.95,2.76-2.66,5.39.75,1.52,3.03,6.22,5.07,10.47,3.98,8.32,8.97,13.02,16.28,15.36,2.11.69,3.85,1.84,3.85,2.58,0,.8,1.79,1.62,4.37,2.01,6.96,1.05,7.24,1.49,7.76,11.58.25,4.99.9,9.93,1.46,10.98.54,1.04,3.01,2.79,5.5,3.88q4.5,2.01,3.9,6.43c-.59,4.27-.44,4.57,3.88,8.05,5.6,4.54,8.32,5.96,11.36,5.96,3.05.02,7.93,2.99,12.94,7.93,4.15,4.1,12.58,7.5,18.61,7.5,2.54,0,3.48.57,4.25,2.56.69,1.81,1.74,2.57,3.56,2.57,1.65,0,4.62,1.84,8.25,5.14,3.13,2.83,6.03,5.19,6.44,5.22.42.05,3.38.17,6.56.27,3.9.12,6.46.75,7.8,1.98,1.09.99,2.79,1.79,3.77,1.79s6.14,2.07,11.48,4.64c7,3.33,10.98,4.62,14.28,4.62,6.52,0,8.9,1.2,14.81,7.45,3.38,3.58,7.8,6.79,12.45,9.07,3.97,1.94,7.21,4,7.23,4.57.02.59-1.02,1.5-2.29,2.06-1.76.77-2.39,2.03-2.63,5.2-.44,6.13,1.84,8.32,10.59,10.14,9.52,1.98,13.89,4.2,13.89,7.12,0,6.17,6.09,9.79,17.74,10.51,15.78.99,16.92,1.29,22.74,6.04,6.71,5.45,8.23,6.29,16.3,8.8,4.55,1.42,7.96,3.39,11.58,6.71,4.25,3.88,5.77,4.67,8.75,4.5,6.54-.37,8.15.06,11.45,3.01,3.29,2.93,3.35,5.3.12,5.3-.92,0-3.68.97-6.13,2.16-3.23,1.56-5.04,3.33-6.54,6.43l-2.06,4.27,2.11,1.72c1.17.96,4.77,2.03,8.02,2.39,3.23.37,10.04,1.37,15.14,2.21,5.09.85,10.98,1.27,13.1.93,3.93-.62,5.42.84,1.98,1.93-2.76.89-7.13,5.82-7.9,8.97-.9,3.62,2.39,7,6.94,7.13,1.84.07,4.5.49,5.92.96,3.86,1.29,15.29,0,20.8-2.33,2.69-1.14,5.92-1.79,7.2-1.47,1.29.32,4.64,1.09,7.46,1.73,2.83.63,6.69,1.62,8.59,2.21,5.97,1.86,12.21.22,16.72-4.38,2.18-2.23,5.39-4.34,7.11-4.67,1.73-.35,3.82-1.59,4.64-2.76,1.31-1.88,1.29-2.43-.18-4.67-1.54-2.36-1.54-2.78.18-5.96,1.81-3.38,4.61-4.65,4.61-2.11,0,.72-.7,2.31-1.56,3.53-2.26,3.21-.12,3.92,3.58,1.17,3.3-2.43,3.97-5.57,1.99-9.27-.9-1.69-.7-2.46,1.04-4.08,4.34-4.03,1.99-7.5-10.32-15.16-8.57-5.36-16.35-7.11-23.78-5.4-4.85,1.12-5.49,1.04-8.92-1.23-2.02-1.34-4.25-3.66-4.95-5.17-.72-1.49-1.82-3.85-2.46-5.22-1.77-3.83-5.92-5.11-12.18-3.77-8.99,1.92-9.29,1.79-14.93-6.61-6.18-9.24-8.47-10.21-23.13-9.77-5.37.17-10.46.28-11.31.27-2.91-.07-15.95-5.54-19.35-8.13-4.55-3.47-5-5.06-2.66-9.37,1.46-2.71,1.62-3.75.67-4.07-1.89-.64-1.57-2.39.94-5.07,1.7-1.81,2.31-3.93,2.57-8.97.32-6.21.17-6.75-2.61-9-1.61-1.32-3.8-2.91-4.85-3.53-1.81-1.05-1.72-1.32,1.26-4.12,1.74-1.64,5.26-4.25,7.81-5.81,4.34-2.63,5.19-2.78,12.3-2.17l7.65.63,5.07-5.94c5.89-6.89,11.2-9.69,18.44-9.7,9.29-.02,16.03,2.89,26.94,11.71,2.44,1.96,6.48,3.97,9.25,4.6,2.71.62,8.17,2.06,12.13,3.2,20.18,5.83,20.43,5.86,38.56,4.92,13.69-.7,17.67-1.27,20.65-2.88,2.72-1.47,3.98-1.69,4.83-.84.86.85,1.58.82,2.76-.17,1.11-.92,3.26-1.14,6.98-.7,5.39.64,18.34-1.2,29.2-4.15,6.16-1.68,17-8.35,19.18-11.82.82-1.31,1.79-6.33,2.16-11.15.55-7.26.3-9.96-1.46-15.65-1.17-3.78-2.73-7.24-3.48-7.68-.75-.45-2.63-3.66-4.18-7.15-3.35-7.51-5.57-8.79-15.77-8.97l-6.91-.12-.32-3.6c-.64-6.98-12.39-15.13-22.68-15.75-3.3-.2-6.01-1.14-8.42-2.94-1.94-1.46-5.84-3.75-8.64-5.09-6.88-3.28-8.79-4.37-8.79-4.99.02-.3,2.49-2.12,5.54-4.07,6.53-4.17,7.66-5.77,8.5-11.95.55-3.93.28-5.02-1.69-7.13-2.26-2.41-2.29-2.64-.77-7.25.93-2.84,1.27-5.86.84-7.5-.65-2.39-1.66-2.96-7.87-4.46-15.28-3.67-24.41-1.41-28.4,7.06-1.39,2.94-3.65,5.54-6.28,7.2-3.53,2.22-4.7,2.48-8.23,1.72-4.18-.9-4.94-1.72-6.51-6.98-1.07-3.6-5.62-5.54-13.29-5.65-4.4-.07-5.62.35-7.87,2.74-1.46,1.56-2.96,4.27-3.33,6.05-.5,2.42-1.62,3.63-4.6,4.97l-3.93,1.77-7.06-3.65c-6.07-3.11-7.73-3.55-11.7-3.01-5.42.72-6.14,1.51-6.16,6.86l-.02,4-4.48-.62c-5.61-.75-16.4-7.08-19.87-11.63-2.54-3.33-2.76-6.83-.75-12.07.27-.7-.48-2.39-1.68-3.76-1.19-1.38-2.41-3.77-2.72-5.31-.55-2.78-7.08-8.8-8.25-7.63-.32.33-2.38-1-4.55-2.98-2.19-1.96-4.58-3.58-5.32-3.58s-2.37-1.17-3.61-2.6c-1.26-1.44-3.5-3.08-4.99-3.65-1.8-.69-2.37-1.38-1.69-2.06.69-.69,1.94-.69,3.73,0,1.49.57,8.62,1.11,15.85,1.19,7.23.08,16.58.82,20.79,1.65,8.68,1.71,15.78.54,17.64-2.91.55-1.05,1.71-1.91,2.54-1.91,2.46,0,10.12-8.35,12.77-13.91,1.34-2.81,4.2-7.08,6.37-9.47,4.3-4.73,4.64-6.16,2.53-10.34-1.91-3.78-2.94-12.75-1.82-15.75,1.76-4.72-3.53-12.53-9.32-13.8-1.82-.4-3.35-1.61-3.9-3.05-.51-1.32-1.86-2.69-3.03-3.06-2.65-.84-2.66-1.68-.05-3.9,1.52-1.31,2.06-3.03,2.06-6.76,0-6.43-3.11-11.21-9.27-14.29-3.98-1.99-5.64-2.21-12.06-1.68-7.15.6-7.48.54-8.35-1.81-1.76-4.75-.03-6.49,6.99-7.06,4.76-.39,6.78-1.04,7.87-2.51,1.95-2.66,1.86-3.11-.85-4.43-4.18-2.03-11.65-2.31-17.38-.69-3.03.87-7.18,1.94-9.26,2.39-2.06.44-5,1.81-6.56,3.03-4.97,3.9-12.82,2.38-12.82-2.51,0-5.59-6.26-13.07-12.4-14.84-6.37-1.82-9.13-1.26-13.05,2.66-3.4,3.38-4.12,3.65-9.42,3.51-3.14-.09-6.51-.12-7.45-.07-2.86.15-12.02,8.1-14.16,12.28-2.41,4.74-5.35,6.06-14.67,6.55-5.83.32-7.51.85-10.8,3.48-4.18,3.32-7.95,9.99-8.97,15.83-.84,4.82-8.03,10.34-12.4,9.5-3.05-.58-8.35-3.81-12.94-7.88-2.57-2.29-2.63-2.56-1.81-10.27.99-9.17.37-10.93-6.54-18.51-4.75-5.2-8.6-6.71-17.29-6.74-4.45-.02-11.3,2.96-11.3,4.92,0,.48-5.1,6.07-11.33,12.45-6.22,6.36-12.7,13.57-14.39,16.03-3.71,5.41-4.01,10.74-.9,15.85,3.67,6.04,2.58,12.67-2.54,15.41-3.4,1.83-5.12,1.02-7.2-3.36-3.65-7.68-10.31-9.81-18.14-5.8-5.18,2.63-6.46,2.57-9.91-.39l-2.81-2.43,2.49-1.29c8.17-4.22,9.1-8.89,3.38-16.7-3.65-4.95-10.23-9.02-14.57-9.02-2.19.02-8.54,3.86-10.16,6.19-2.15,3.06-10.74,6.91-15.44,6.89-2.39,0-5.04.57-5.87,1.27-1.07.89-3.38,1.05-7.66.57-6.86-.8-10.38-.08-10.38,2.11,0,2.76-3.97,5.59-7.85,5.59-3.1,0-4.45-.79-8.03-4.64-2.38-2.54-5.09-4.62-6.02-4.62s-2.95,1.84-4.44,4.1c-3.33,5.04-6.07,5.3-10.16,1.04-4.28-4.49-8.92-4.27-13.39.6-2.87,3.14-3.68,3.53-5.47,2.57-1.14-.62-2.36-2.02-2.71-3.11-.35-1.09-2.74-3.23-5.34-4.74-4.64-2.73-4.8-2.74-14.78-1.69-11.46,1.2-13.66,2.09-16.47,6.67-2.53,4.15-2.51,5.96.05,9.22,2.48,3.13,2.69,7.48.43,8.35-.89.33-3.14.62-5.02.62s-3.83.57-4.39,1.29c-1.56,1.98-3.36,10.41-3.36,15.68s3.68,14.9,5.79,14.9Zm322.7,11.33c-1.69-1.89-1.71-2.06-.14-2.06.96,0,2.01.7,2.34,1.57.97,2.49-.15,2.75-2.21.48Zm-16.95,28.78c2.39,0,2.36-.18.92,3.95-1.17,3.33-2.36,4.07-3.53,2.16-1.27-2.04.49-6.11,2.61-6.11Zm-.62,26.59c-2.68,1.2-7.61,1.59-7.61.59,0-1.17,2.44-5.17,5.29-8.65,1.71-2.07,2.93-4.8,2.93-6.51,0-4.07,2.48-3.01,2.68,1.14.1,1.77.43,3.93.75,4.77.99,2.54-1.29,7.41-4.04,8.67Zm44.43-41.18c-2.71-6.22-.03-5.49,3.08.84,1.56,3.2,3.63,6.02,4.6,6.28,2.88.75,4.07,8.67,1.92,12.68-.58,1.09-1.69,1.99-2.48,1.99-1.09,0-1.29-1.36-.84-6.18.44-4.9.25-6.16-.9-6.16-.8,0-1.97-1.27-2.59-2.83-.62-1.56-1.88-4.55-2.8-6.63Zm4.02,59.15c-1.61.62-1.76.29-1.17-2.63.37-1.83,1.09-3.73,1.59-4.23,1.41-1.42,3.15.18,3.15,2.88,0,1.34.54,2.61,1.19,2.81.79.27.94,1.67.47,4.2-.4,2.1-1.89,5.07-3.31,6.63l-2.59,2.84.58-3.09c2.06-10.68,2.06-10.16.1-9.41Zm-.15-21.96c.85,0,1.82.47,2.17,1.04.35.57-.05,1.02-.9,1.02s-1.82-.45-2.17-1.02c-.35-.57.05-1.04.9-1.04Zm4.16-9.22c-5.69,2.16-5.86.54-.18-1.85,1.77-.77,2.83-.82,2.83-.18,0,.57-1.19,1.49-2.64,2.04Zm-11.49,5.54c.72-.72,3.85.7,3.85,1.74,0,1.29-2.81,1.16-3.63-.18-.38-.6-.47-1.3-.21-1.56Zm-8.74,23.86c3.03-3.44,3.33-4.42,3.33-10.44,0-3.67.42-6.64.9-6.64,1.59,0,3.26,2.76,2.66,4.35-.39.99.17,1.74,1.52,2.09,2.43.63,2.88,2.81.59,2.81-1.49,0-5.65,6.9-5.69,9.47-.02.72-1.41,3.52-3.08,6.21-3.06,4.85-5.12,6.23-5.12,3.4,0-.82.48-1.79,1.09-2.16.6-.36.96-1.7.78-2.98-.2-1.46.94-3.73,3.02-6.11Zm-22.88-39.71c1.41,0,2.56.4,2.56.9,0,1.42-2.44,2.98-3.85,2.48-2.36-.85-1.39-3.38,1.29-3.38Zm1.79,22.86c-2.65-.44-2.71-.66-1.24-3.41,1.19-2.23,2.48-1.86,4.07,1.12,1.19,2.22.43,2.83-2.83,2.29Zm-23.61,55.84c-15.63,7.55-16.05,5.22-.87-4.7,9.86-6.44,16.92-12.63,16.99-14.87.02-1.14,1.65-4.35,3.65-7.13,1.98-2.78,3.6-5.83,3.6-6.76s.32-2.02.7-2.42c.4-.39.87-1.74,1.05-2.99.2-1.26.82-2.44,1.39-2.64.57-.18,2.46-1.56,4.22-3.01,3.03-2.56,3.14-2.93,2.56-8.47-.34-3.2-.9-6.58-1.27-7.51-1.07-2.81,1.34-1.98,5.74,1.99,3.78,3.41,5.34,6.56,3.26,6.56-.48,0-2.33,2.27-4.12,5.04-1.96,3.03-4.28,5.29-5.82,5.67-1.66.42-2.78,1.61-3.23,3.45-.37,1.55-1.52,4.53-2.58,6.63-1.85,3.7-2.06,8.35-.48,10.91,1.24,2,2.68.38,5.76-6.46,2.49-5.57,5.51-8.77,6.91-7.36.65.65-7.08,15.05-8.07,15.05-.48,0-3.7,2.19-7.15,4.87-10.81,8.42-12.51,9.51-22.24,14.19Zm21.07,7.41c-3.82,1.82-7.16,3.33-7.46,3.33-2.53,0,4.8-6.68,10.68-9.71,4.12-2.12,14.49-12,14.49-13.79,0-3.18-3.35-2.21-7.46,2.16-4.59,4.84-12.68,10.32-20.05,13.55-6.48,2.86-6.24,1.42.5-3.11,3.26-2.19,8.62-6.43,11.91-9.41,3.28-2.96,6.76-5.4,7.73-5.4,1.04,0,2.27-1.29,2.95-3.08,1.25-3.33,4.79-4.27,5.82-1.54,1.05,2.74,3.29,1.64,5.14-2.53.99-2.23,2.6-4.3,3.58-4.62.99-.32,3.51-2.19,5.61-4.17,4.13-3.9,5.07-3.43,1.71.87-1.17,1.47-2.83,4.77-3.7,7.33-1.14,3.32-2.14,4.65-3.53,4.65-1.23,0-2.48,1.24-3.37,3.35-2.24,5.32-16.63,18.28-24.55,22.11Zm21.25-5.71c-5.47,3.78-8.07,3.73-4.05-.08,3.88-3.7,6.43-6.74,10.12-12.18,2.41-3.53,9.19-8.5,11.6-8.5.32,0-.64,1.49-2.12,3.33-1.47,1.84-4.67,5.89-7.08,8.99-2.42,3.09-6.22,6.89-8.47,8.45Zm33.42-43.39c.58,0,1.09.47,1.09,1.02s-.22,1.04-.45,1.04c-.25,0-.75-.47-1.11-1.04-.33-.55-.13-1.02.47-1.02Zm-.18,10.8c.82-1.12,4.95-3.6,5.99-3.6.79,0-.02,6.19-1.59,12.33-2.11,8.2-4.12,8.07-2.21-.15.92-4.02.03-6.73-1.84-5.57-1.27.79-1.54-1.4-.35-3.01Zm-1.96,22.36l2.09-2.83-.6,2.57c-.8,3.41-3.86,6.66-9.18,9.79-2.4,1.41-4.62,2.54-4.95,2.54s1.35-2.07,3.76-4.62c2.39-2.54,4.9-4.64,5.57-4.64s2.16-1.27,3.32-2.83Zm-.89-8.53c0,.58-.69,1.08-1.52,1.08s-2.18,1.51-2.96,3.35c-.79,1.83-2.99,5.04-4.91,7.13-1.91,2.09-6.24,5.52-9.64,7.61-6.12,3.8-6.24,3.45-.74-2.49.74-.77,2.19-3.13,3.26-5.24,1.07-2.09,2.68-4.42,3.55-5.14.87-.72,2.86-3.81,4.4-6.88,3.06-6.06,4.77-7.15,4.25-2.71-.29,2.41,0,2.78,1.99,2.49,1.27-.17,2.31.18,2.31.79Zm-2.3-27.9c.22.67-.33,1.22-1.22,1.22s-1.62-.74-1.62-1.62c0-1.83,2.21-1.5,2.84.4Zm5.37-29.1c-1.3.8-1.3-.57,0-2.58.86-1.34,1.01-1.3,1.02.2,0,.96-.45,2.03-1.02,2.38Zm128.52,52.43c.57.35,1.02,1.88,1.02,3.4-.02,1.53-.47,3.47-1.02,4.32-.72,1.11-1,.17-1-3.41-.02-3.03.37-4.69,1-4.3Zm-26.02,28.58c-2.63-.69-1.54-2.88,1.42-2.86,1.53,0,2.61.68,2.81,1.79.35,1.77-.58,2.01-4.23,1.07Zm38.41-10.16c-1.76,2.16-4.65,3.4-12.39,5.3-3.11.75-8.2,1.36-11.31,1.31l-5.66-.07,7.2-1.32c6.21-1.16,13.99-3.41,21.6-6.29,1.86-.7,1.91-.6.55,1.07Zm9.72-.12c-4.52,2.14-5,2.16-4.22.12.33-.9.62-2.31.62-3.14,0-1.51,6.94-5.07,7.95-4.09,1.46,1.46-1.04,5.53-4.35,7.12Zm4.4-12.24c-4.25,1.83-5.27,2.01-4.7.87,2.45-5.02,3.35-6.43,4.13-6.43.5,0,.63.47.28,1.04-.35.57.42,1.44,1.73,1.96,2.29.89,2.24.97-1.44,2.56Zm-7.28,65.31c-2.78-.06-2.96-.22-1.24-.95,2.87-1.24,5.91-1.24,5.15,0-.35.55-2.12.99-3.92.95Zm14.96,6.61c-5.83.96-7.9.81-10.09-.8-2.44-1.79-2.36-1.86,4.99-4.57,6.83-2.53,9.17-2.81,6.43-.82-2.02,1.49-1.39,3.77,1.06,3.77,3.09,0,1.3,1.81-2.38,2.42Zm3.83-16.78c-2.44,1.54-3.77,1.07-1.59-.57,1.09-.84,2.23-1.26,2.54-.95.3.32-.13,1-.96,1.52Zm-135.18-27.14c.85-.32,1.54-.15,1.54.4s-.69,1-1.54,1-1.54-.18-1.54-.42c0-.22.69-.67,1.54-.99Zm-19.43,4.25c3.53-4.15,4.92-4.79,9.65-4.38,2.54.24,5.31.44,6.14.45,3.08.1-1.37,2.87-7.31,4.57-3.21.9-6.86,1.66-8.13,1.66-2.3,0-2.3-.02-.35-2.3Zm-49.05,14.24c.64-.77,3.56-1.73,6.49-2.11,2.93-.4,8.77-2.31,12.98-4.25,7.15-3.29,7.73-3.41,8.97-1.74.96,1.32,2.58,1.76,6.02,1.62,2.58-.1,4.7.17,4.7.59,0,1.42-10.8,5.12-18.19,6.21-4.07.6-10.71,1.11-14.78,1.11-6.14,0-7.18-.25-6.21-1.42Zm-12.75,1.42c.35-.57,1.34-1.04,2.18-1.04s1.27.47.92,1.04c-.35.55-1.34,1.02-2.17,1.02s-1.27-.47-.92-1.02ZM90.1,103.55c-2.9,0-3.65-1.47-1.24-2.41.82-.3,2.03.12,2.71.92,1,1.24.75,1.49-1.47,1.49Zm91.92,59.92c-5.19,3.58-5.15,1.57.09-4.43,3.65-4.2,5.64-5.79,6.16-4.93,1.17,1.89-1.74,6.27-6.24,9.37Zm181.95,182.72c-.57,0-1.02-.47-1.02-1.04s.45-1.02,1.02-1.02,1.04.45,1.04,1.02-.47,1.04-1.04,1.04Zm102.25,65.63c-1.44.67-2.34,1.65-1.99,2.22.33.57.13,1.02-.47,1.02s-1.09-.9-1.09-2.03c0-1.91,2.72-4.15,5.07-4.15,2.03,0,1.14,1.72-1.52,2.93Zm-33.39-108.81c1.66-.89,1.92-.8,1.44.47-.33.87-1.26,1.57-2.04,1.57-2,0-1.77-.77.6-2.04Zm-43.16,26.56c3.11-1.78,8.38-5.32,11.73-7.88l6.07-4.65,11.91-.14c9.62-.08,12.55-.48,15.14-2.02,1.86-1.11,4-1.61,5.02-1.22,1.69.65,1.69.82-.13,2.88-2.61,2.93-7.72,4.97-12.45,4.99-7.45.03-16.75,2.91-20.94,6.51-2.21,1.88-6.19,4.58-8.9,6.02-5.29,2.83-11.08,4.57-10.14,3.06.32-.52,3.13-2.48,6.26-4.38,3.11-1.89,5.67-3.8,5.67-4.25,0-1.29-1.2-.97-6.59,1.77-7.28,3.68-9.37,3.14-2.66-.69Zm91.5,88.42c-1.41,0-1.99-.24-1.29-.52.72-.28,1.88-.28,2.58,0,.7.28.13.52-1.29.52Zm34.88,19.08c-3.35,1.92-12.8,3.25-13.64,1.91-.35-.59,1.68-1.29,4.75-1.66,2.96-.37,6.76-.9,8.45-1.22l3.1-.57-2.66,1.54Zm.7-9.24c-1.05,2.53-2.24,3.55-4.74,4.05-1.84.37-4.32.66-5.52.66-1.79-.02-1.91-.2-.63-1.02.84-.55,2.27-1,3.18-1,.9-.02,3.8-2.21,6.43-4.87,2.63-2.68,4.78-4.32,4.78-3.66s-.47,1.49-1.04,1.84c-.59.35-1.69,2.15-2.46,4.01Zm6.84-16.9c5.89-2.68,7.84-2.68,5.39.02-1.02,1.14-2.48,2.06-3.25,2.06s-2.26.89-3.35,1.97c-1.67,1.68-2.07,1.74-2.57.44-.9-2.36-.89-2.38,3.78-4.49Zm1.95,22.66c-.92,0-2.85.27-4.27.58-2.48.55-2.49.52-.57-1.04,1.1-.89,2.46-1.62,3.03-1.62,2.41,0,6.79-5.59,6.81-8.67,0-2.61.74-3.56,4.2-5.56,2.31-1.31,4.42-2.16,4.69-1.89,1.12,1.12-1.14,8.45-3.21,10.41-5.32,5.02-9.09,7.77-10.68,7.78Zm18.71-3.41c-1.32.87-2.41,2.22-2.41,2.99s-.67,1.42-1.47,1.42c-2.76,0-2.57-1.72.47-4.64,2.21-2.11,2.86-3.51,2.42-5.22-1.34-5.35,3.28-9.2,5.67-4.73,1.26,2.36-1.34,7.98-4.68,10.17Zm8.55,6.93c-2.61,2.61-4.79,3.43-4.79,1.81,0-1.16,6.21-5.64,6.88-4.97.28.28-.65,1.72-2.09,3.16Zm6.04-14.89c-.89,1.43-1.83,1.37-4.1-.3-2.18-1.59-1.51-6.84.87-6.84,1.67,0,4.2,5.57,3.23,7.15Zm6.64,6.74c-2.73,3.28-5.66,1.09-4.96-3.71.49-3.32,2.5-3.52,4.5-.47,1.39,2.14,1.49,2.95.45,4.19Zm.52-10.14c-1.51-2.31-1.2-5.81.5-5.81.44,0,1.02,1.04,1.31,2.31.27,1.29.84,3.13,1.26,4.12,1.14,2.69-1.21,2.21-3.06-.62Zm-78.79-55.64c6.63-.92,11.13,1.09,15.05,6.7,1.69,2.42,4.55,5.97,6.36,7.9l3.3,3.46,15.26-1.37,3.3,4.79c1.81,2.64,5.8,6.46,8.85,8.5,5.46,3.62,5.68,3.67,10.23,2.39,5.84-1.64,11.83-.84,18.76,2.53,6.32,3.06,7.38,6.19,2.34,6.94-3.82.55-4.67,0-5.56-3.63-1.02-4.15-3.21-2.81-3.21,1.96,0,3.6-.27,4.02-2.56,4.02-1.85,0-2.61-.57-2.69-2.06-.2-3.68-1.64-6.67-3.2-6.67-1.17,0-1.41.82-.99,3.35.3,1.84.22,4.19-.18,5.2-.6,1.56-.96,1.29-2.11-1.62-2.23-5.67-7.28-7.6-7.28-2.76,0,2.34-3.46,6.11-5.6,6.11-1.11,0-1.57-1.57-1.81-5.89-.24-4.58-.7-5.97-2.04-6.24-1.41-.27-1.81.62-2.06,4.54-.28,4.3-.65,4.99-3.21,5.84-3.73,1.24-4.28.55-2.86-3.51,1.34-3.87.47-10.14-1.42-10.14-.82,0-1.56,2.26-1.99,6.13-.74,6.61-2.83,9.05-9.81,11.5-2.84.99-4.27,2.81-2.36,3.03.44.05,1.81.2,3.08.33,3.23.37,3.6.99,2.27,3.9-.63,1.39-2.42,3.28-3.97,4.2-2.64,1.56-2.91,1.54-4.53-.37-2.38-2.76-2.18-3.35.84-2.6,2.78.7,3.65-1.11,1.02-2.11-.92-.35-1.54-1.91-1.54-3.88,0-3.6,3.43-7.5,8.49-9.64,3.85-1.62,3.71-3.65-.18-2.8-2.96.66-3,.59-1.96-2.24,1.42-3.85-.35-8.53-3.23-8.53-2.36,0-2.49.39-1.05,3.08,1.61,3-.52,7.1-6.44,12.4l-5.31,4.75,2.86.7c4.32,1.09,3.17,4.05-1.92,4.9-2.24.39-4.53.27-5.07-.24-.6-.58-.3-.93.77-.93,1.99,0,2.26-1.14.64-2.76-1.98-1.96-.57-5.67,2.81-7.48,7.87-4.2,10.84-7.23,7.09-7.23-1.27,0-1.27-.38-.08-2.71.77-1.47,1.15-3.33.87-4.1-.85-2.19-3.36-1.67-4.35.89-.94,2.41-7.28,6.79-7.28,5.03,0-.55.57-1.2,1.27-1.45.72-.25,1-.77.65-1.16-.82-.89-11.13,3.14-13.5,5.29-2.33,2.09-1.49,2.83,3.18,2.83,3.7,0,3.77.08,4.08,4.37.3,4.07.13,4.37-2.26,4.37-1.42,0-3.77.55-5.2,1.2-3.08,1.39-3.9.85-3.75-2.41.06-1.32.1-4.82.05-7.8-.05-4.32.32-5.54,1.79-6.06,9.62-3.38,15.28-7.33,13.32-9.29-.35-.33-4.19,1.09-8.52,3.18-4.49,2.16-9.06,3.67-10.56,3.5-2.43-.29-2.24-.54,2.21-2.81,5.72-2.93,9.52-6.64,8.49-8.3-.4-.67-1.79-.92-3.11-.6-1.44.37-2.54.1-2.83-.69-.32-.84-1.67-.13-3.95,2.01-5.57,5.29-13.7,7.81-18.81,5.86-3.8-1.46.02-3.38,7.78-3.92,3.93-.28,11.13-7.4,15.21-15.06,3.05-5.71,3.35-5.94,8.15-6.59Zm-12.48,1.53c3.16,0-.32,8.13-4.57,10.64-1.11.64-3.58,2.21-5.52,3.48-4.84,3.18-6.22,2.86-2.45-.59,1.71-1.56,4.25-4.43,5.64-6.39,3.95-5.57,5.47-7.15,6.89-7.15Zm-8.59-2.21c1.57,1.74,1.42,2.26-2.37,8.14-2.23,3.44-5.24,7.04-6.7,8-1.44.95-2.63,2.59-2.63,3.66,0,1.17-.72,1.94-1.81,1.92-1.94-.01-5.12-1.71-4.34-2.29.27-.2,2.93-2.36,5.91-4.8,4.35-3.56,5.19-4.72,4.23-5.87-.92-1.12-.57-2.33,1.69-5.57,3.65-5.27,3.97-5.44,6.01-3.18Zm-15.28,3.26c-.99-1.59,2.74-7.23,4.77-7.23.97,0,1.99.35,2.26.79.84,1.35-2.02,6.79-5.62,10.66-1.92,2.06-4.72,5.17-6.22,6.94-1.49,1.76-3.58,3.17-4.62,3.11-2.81-.15-8.4-1.89-8.97-2.81-.27-.44,2.83-2.08,6.89-3.63,8.02-3.08,12.54-6.17,11.52-7.83Zm-1.97-11.26c3.13,2.59-4.62,12.52-13.49,17.27-4.27,2.29-7.69,2.84-7.69,1.24,0-.52,1.35-1.24,3.01-1.61,1.65-.37,3.56-1.32,4.25-2.14.67-.8,1.77-1.47,2.46-1.47,1.81,0,5.71-4.46,5.71-6.54,0-.97,1.01-3.13,2.23-4.78,1.65-2.23,2.57-2.75,3.53-1.96Zm-4.55-32.37c-3.11,5.17-5.97,6.53-15.59,7.46-4.97.49-6.7,1.06-6.7,2.21,0,2.14,12.55,1.84,17.09-.42,1.82-.92,3.56-1.4,3.86-1.09,1.35,1.36-1.96,4.15-6.14,5.19-6.09,1.51-6.16,4.05-.08,3.93l4.43-.1-.65,3.82c-.57,3.33-.35,3.88,1.61,4.4,1.59.42,2.07,1.11,1.62,2.27-.36.94-.65,2.31-.65,3.06,0,2.18-9.9,12.43-13.77,14.27-4.38,2.07-6.79,2.12-6.79.12,0-.84.6-1.54,1.32-1.54,2.88,0,6.28-5.98,4.73-8.32-.78-1.19-1.27-1.07-2.78.72-1,1.19-2.88,2.72-4.19,3.43-2.64,1.41-20.52,3.37-22.07,2.41-.54-.35,2.14-1.68,5.98-2.96,7.85-2.64,11.86-5.81,11.86-9.34,0-2.91-1.46-3.08-3.35-.39-.77,1.11-3.67,2.98-6.41,4.15-4.8,2.06-5.29,2.09-12.72.55-4.25-.89-7.92-1.79-8.15-2.04-.25-.24,2.27-1.17,5.57-2.09,7.99-2.18,10.71-3.75,13.51-7.8,3.35-4.83,1.22-6.61-2.73-2.26-3.73,4.07-9.79,5.87-19.66,5.81-5.57-.03-8.7-.6-11.29-2.01l-3.6-1.97,10.79-.59c11.4-.63,15.35-2.09,24.67-9.1,5.98-4.49,13.17-7.46,18.94-7.81,8.23-.48,13.91-2.58,18.24-6.7,5.09-4.83,6.78-3.38,3.09,2.71Zm169.47-26.54c-2.24-.99-2.33-1.17-.65-1.57,2.66-.64,10.76.67,11.48,1.86.82,1.32-7.63,1.11-10.83-.28Zm21.52-5c-5.74,1.24-9.45,1.27-13.28.15-1.96-.57-1.05-.87,3.81-1.24,3.95-.32,7.12-1.15,8.3-2.22,3.31-3.02,11.53-6.76,11.53-5.29,0,3.16-5.24,7.5-10.36,8.6Zm18.53,3.66c-1.54,1.54-8.17,3.35-8.17,2.23,0-.96,5.86-3.75,7.88-3.75,1.59,0,1.62.17.29,1.52Zm4.33-10.42c-1.94,1.77-5.3,2.33-5.3.87,0-.84,5.59-5.34,6.64-5.34,1.27,0,.42,2.9-1.34,4.47Zm3.01-20.92c.81-1.32,1.16-1.26,2.51.5,2.08,2.69,1.54,4.87-1.59,6.33-4.1,1.89-7.18,2.63-7.18,1.72,0-.47,1.19-2.22,2.66-3.93,1.45-1.69,3.08-3.77,3.59-4.62Zm-15.04-5.06c1.52-1.72,2.02-3.81,2.06-8.63l.03-6.36,3.1.35c1.69.2,3.13.44,3.2.52.06.09.43,3.4.8,7.35l.67,7.21-4.91,5.19c-4.99,5.29-10.54,8.44-12.62,7.15-2.09-1.29-6.18.42-6.18,2.59,0,1.12.67,2.03,1.47,2.03,3.83,0,2.91,3.93-1.51,6.54-3.74,2.21-17.45,3.63-17.45,1.81,0-.67,2.01-2.07,4.47-3.13,4.35-1.88,8.9-7.45,8.9-10.93,0-.82.86-1.49,1.91-1.49,2.24,0,13.17-6.93,16.05-10.19Zm-7.51-5.15c1.39-1.76,1.94-3.71,1.67-5.97-.55-4.74,1.65-4.27,3.29.72,1.17,3.53,1.12,4.4-.37,6.66-2.04,3.13-11.55,10.81-13.59,11-.8.06-2.02.18-2.73.25-.7.07-1.87,1.4-2.63,2.98-.75,1.56-2.61,3.63-4.13,4.6-1.52.97-3.29,2.48-3.96,3.33-.92,1.19-3.92,1.62-12.85,1.86-12.8.32-13.27-.52-1.89-3.5,4.13-1.09,7.88-2.84,9.77-4.62,1.71-1.57,4.49-3.38,6.18-4.01,5.51-2.08,19.11-10.59,21.24-13.29Zm-4.27-19.61c.57,0,1.02.7,1.02,1.54s-.45,1.56-1.02,1.56-1.04-.7-1.04-1.56.47-1.54,1.04-1.54Zm0,11.31c2.56,1.37,2.73,5.74.25,6.44-.99.28-2.51.82-3.4,1.19-2.14.89-3.03-.18-3.03-3.65s3.13-5.6,6.18-3.98Zm-14.14-17.77c.97-2.07,1.79-2.59,3.35-2.12,5.35,1.61,6.16,4.94,1.41,5.89-6.47,1.29-6.94.92-4.75-3.77Zm-2.88,7.68c.15.18.55,1.81.9,3.62.69,3.63-.8,5.17-9.07,9.29-2.27,1.14-5.98,2.33-8.23,2.68-3.92.59-3.97.55-1.02-.52,5.34-1.99,8.73-4.93,8.73-7.6,0-1.79,1.17-3.23,4.2-5.14,2.33-1.47,4.34-2.51,4.49-2.33Zm-7.66-.55c0-.82.74-1.76,1.62-2.09,2.42-.94,3.73-.77,3.01.39-.35.57-1.54,1.5-2.63,2.09-1.56.84-2.01.75-2.01-.39Zm-6.68-11.98c.35-.55.84-1.02,1.09-1.02s.45.47.45,1.02-.48,1.04-1.09,1.04-.81-.47-.45-1.04Zm-2.57,11.05c0-3.74.48-4.84,2.91-6.63,3.08-2.29,10.81-3.55,11.21-1.84.13.57-1.19,1.51-2.96,2.11-3.68,1.24-8.06,5.91-8.06,8.59,0,1-.94,2.68-2.06,3.7-1.14,1.02-2.06,2.49-2.06,3.26,0,1.84-2.86,2.86-13.52,4.87-10.77,2.01-17.67,2.16-17.08.35.77-2.34,7.38-4.7,15.18-5.42,4.25-.39,9.69-1.56,12.08-2.59,4.19-1.81,4.37-2.08,4.37-6.39Zm-10.16-9.24c1.84-2.41,3.51-4.57,3.7-4.82.18-.23.82.05,1.42.66.77.77.12,2.19-2.18,4.8-4.77,5.42-7.21,4.88-2.94-.64Zm.9-28.53c-.55,0-1.02-.59-1.04-1.29,0-.7-.29-2.33-.64-3.59-.45-1.71-.18-2.31,1.04-2.31s1.68.97,1.68,3.6c0,1.97-.47,3.6-1.04,3.6Zm6.17-8.23c.57,0,1.02.67,1.02,1.49s-.45,1.77-1.02,2.11c-.57.35-1.02-.3-1.02-1.47s.45-2.12,1.02-2.12Zm-24.1-18.47c1.53-1.53,19.7-1.54,21.54-.02,2.21,1.84,1.88,3.77-.78,4.49-1.27.33-4.23.62-6.58.63-3.78.02-4.22-.23-3.75-2.04.5-1.89.03-2.06-5.44-2.06-3.85,0-5.62-.35-4.99-1Zm-37.27,2.22c2.83-.33,5.84,1.22,5.84,3.01,0,1.31-2.11.94-5.66-1l-3.08-1.68,2.9-.33Zm-95.84-11.76c1.77-3.4,1.96-3.44,1.96-.42,0,1.77-.57,2.72-1.59,2.72-1.31,0-1.38-.39-.37-2.31Zm-5.04-12.08c.57,0,.67,2.44.27,5.92-.72,5.99-1.79,8.43-2.93,6.63-.87-1.41,1.51-12.55,2.66-12.55Zm36.3-39.06c.87-1.71,2.04-3.1,2.59-3.1,1.39,0,1.26.7-.67,3.65-2.34,3.58-3.85,3.14-1.92-.55Zm-7.92,10.07c-1.02.74-1.86,2.01-1.86,2.81s-1.37,2.15-3.03,3.01c-1.86.97-5.55,1.54-9.52,1.49-4.65-.06-5.76-.32-3.9-.89,4.97-1.52,14.93-7.08,17.37-9.69,1.36-1.46,2.83-2.41,3.3-2.13,1.19.74-.15,3.82-2.36,5.39Zm15.62,8.94c-3.52,1.83-4.09.81-1.01-1.83,2.29-1.96,4.1-2.31,4.1-.77,0,.55-1.39,1.72-3.09,2.59Zm-2.06-10.27c-3.38,4.52-6.16,8.57-6.16,8.98,0,1.02-3.25.97-4.89-.06-.9-.57.09-1.86,3.33-4.28,2.54-1.91,4.91-4.35,5.24-5.44.92-2.89,6.59-11.03,7.7-11.03,2.34,0,.48,4.23-5.22,11.83Zm29.8-20.55c.59-.37,1.05.07,1.05.96,0,1.8-.62,2.07-1.5.63-.32-.52-.12-1.24.45-1.59Zm-175.88-33.25c4.55.17,5.34,1.19,2.21,2.86-2.41,1.31-7.26,1.37-9.2.13-2.21-1.4,1.98-3.2,6.99-2.99Z"/>
      <path class="cls-1" d="m492.72,16.48c.42-.12,2.14.2,3.85.69,2.18.63,3.98.45,6.09-.6,2.69-1.34,3.85-1.26,12.08.96,8.22,2.19,10.66,2.37,25.04,1.96,15.73-.47,19.81-1.41,18.09-4.2-.37-.58-3.55-2.53-7.06-4.31-3.51-1.79-6.76-3.89-7.21-4.69-1.54-2.68-6.63-4.43-16.18-5.61-8.57-1.04-10.21-.95-16.32.87-3.73,1.12-8.67,2.54-10.96,3.17-5.46,1.49-8.94,5.19-8.5,9.04.18,1.61.69,2.84,1.09,2.75Zm3.38-4.84c1.17-1.77,2.98-2.66,6.46-3.18,2.66-.38,7.85-1.5,11.52-2.49,5.71-1.5,7.91-1.61,15.03-.65,6.78.9,9,1.68,12,4.17,2.03,1.69,3.72,3.65,3.75,4.35.05.81-1.29,1.29-3.55,1.29-2.91,0-3.81-.5-4.6-2.57-1.17-3.06-.72-3.03-10.04-.84l-7.48,1.74-1.66-2.34c-1.34-1.93-2.31-2.24-5.37-1.82-6.88.97-12.62,2.49-13.77,3.66-.64.64-1.77,1.16-2.53,1.16-1.05,0-.99-.55.25-2.46Z"/>
      <path class="cls-1" d="m439.02,73.25c0,1.13-.67,1.39-2.56.9-2.33-.57-2.58-.34-2.58,2.49,0,2.21.59,3.31,2.06,3.76,1.12.37,2.06,1.47,2.06,2.48s.27,2.09.6,2.42c1.41,1.41,3.29-.63,3.88-4.19,1.19-7.15.84-9.45-1.41-9.45-1.16,0-2.06.69-2.06,1.58Z"/>
      <path class="cls-1" d="m463.71,53.16c-1.14,0-2.06.6-2.06,1.32s-1.37,2.93-3.04,4.88c-1.68,1.96-3.06,3.92-3.08,4.34-.03.42.99.77,2.26.75,1.51-.02,3.32-1.42,5.15-4.02,3.36-4.75,3.62-7.28.77-7.28Z"/>
      <path class="cls-1" d="m461.03,77.68c-.09,4.37.2,5.3,1.66,5.3,2.19,0,3.51-6.51,1.94-9.45-1.82-3.4-3.48-1.47-3.6,4.15Z"/>
      <path class="cls-1" d="m413.32,38.89c0,6.48-1.46,10.43-5.04,13.67-1.19,1.07-2.15,2.34-2.15,2.83,0,3.77,9.92-6.91,10.79-11.65,1.26-6.64,1.26-9.09.02-10.78-2.14-2.94-3.62-.55-3.62,5.93Z"/>
      <path class="cls-1" d="m452.39,77.16c0,1.32.3,2.71.69,3.08,1.83,1.83,4.5-.43,3.78-3.2-.84-3.18-4.47-3.08-4.47.12Z"/>
      <path class="cls-1" d="m389.07,45.41c-.33,1.41-2.66,4.42-5.15,6.71-2.49,2.29-4.52,4.38-4.52,4.67,0,.27.96.48,2.11.48,4.72,0,13.74-10.17,11.8-13.3-1.2-1.96-3.58-1.16-4.23,1.43Z"/>
      <path class="cls-1" d="m275.55,111.5c0,1.05.55,2.48,1.24,3.15,2.03,2.02,3.03,1.42,2.69-1.58-.39-3.29-3.93-4.72-3.93-1.57Z"/>
      <path class="cls-1" d="m404.49,43.94c-1.76,2.99-4,6.02-4.99,6.74-.99.72-1.49,1.81-1.12,2.41.92,1.49,1.74,1.39,4.49-.54,3.33-2.33,7.56-9.44,7.18-12.06-.49-3.47-2.09-2.48-5.56,3.45Z"/>
      <path class="cls-1" d="m393.79,87.77c-1.69,1.01-3.08,2.43-3.08,3.18,0,1.07.55,1.05,2.81-.13,8.52-4.43,13.84-13.97,10.64-19.03-1.76-2.78-4.22-.42-4.22,4.01,0,5.32-2.21,9.64-6.16,11.97Z"/>
      <path class="cls-1" d="m392.27,71.67c-1.66,0-4.95,5.52-3.92,6.56,1.22,1.24,4.2.63,4.82-.99,1.09-2.86.67-5.57-.9-5.57Z"/>
      <path class="cls-1" d="m445.72,45.05c0,7.19,1.37,7.38,3.51.48,1.47-4.72,1.44-5.09-1-9.69-2.54-4.82-6.13-6.73-8.4-4.45-.67.67-2.21.32-4.5-1.04-3.08-1.82-3.56-1.88-4.1-.44-.4,1.04.45,2.53,2.36,4.13,4.03,3.4,5.75,8.97,3.68,11.91-2.36,3.38-.43,3.97,2.36.72,2.74-3.18,2.96-4.45,1.49-8.32-1.29-3.4.2-4.23,2.66-1.53,1.44,1.59,1.94,3.72,1.94,8.2Z"/>
      <path class="cls-1" d="m2.83,101.86c3.6,1.84,18.46,6.64,21.85,7.06,6.83.84,15.6-.09,17.54-1.83,3.16-2.86,2.41-5.07-3.92-11.6-5.82-5.99-6.02-6.11-12.93-6.78-6.21-.59-7.7-.37-12.81,1.98-6.29,2.88-12.56,7.24-12.56,8.77,0,.52,1.27,1.59,2.83,2.39Zm20.77,3.75c-1.17,0-1.84-.47-1.49-1.04.35-.57,1.31-1.02,2.12-1.02s1.47.45,1.47,1.02-.96,1.04-2.11,1.04Zm-13.69-9.54c6.24-3.13,10.34-4.15,11.18-2.81.35.57,1.96,1.04,3.59,1.04s3.26.48,3.63,1.09c.45.73,1.27.57,2.43-.47,1.57-1.44,2-1.34,4.53,1.01,3.98,3.68,6.18,7.36,5.49,9.17-.33.87-1.82,1.53-3.46,1.51-2.6-.03-2.69-.15-1.05-1.39,2.49-1.89,2.29-2.31-1.54-3.21-5.91-1.38-11.49-1.58-14.14-.52-2.91,1.17-12.82-.06-14.58-1.82-.77-.77.39-1.82,3.92-3.58Z"/>
      <path class="cls-1" d="m477.61,58.85c4.02-4,4.49-5.69,1.62-5.69-1.94,0-8.33,6.36-8.33,8.27,0,2.11,3.29.84,6.71-2.58Z"/>
      <path class="cls-1" d="m471.12,252.1c-1.57.62-1.52.87.54,2.56,1.89,1.54,4.19,1.86,13.36,1.88,11.53.02,11.84-1.09.7-2.34-3.33-.39-7.6-1.17-9.45-1.74-1.86-.57-4.19-.74-5.14-.35Z"/>
      <path class="cls-1" d="m486.32,246.08c-2.63-1.44-8.52-2.81-13.7-3.2-2.99-.22-5.06,2.16-2.96,3.43.62.37,5.19.79,10.17.92,8.17.24,8.82.12,6.49-1.16Z"/>
      <path class="cls-1" d="m432.56,292.3c3.08-.99,14.69-13.55,14.69-15.91,0-3.17-1.1-2.71-6.21,2.56-7.66,7.88-22.61,17.89-26.72,17.89-2.98,0-2.43-1.12,2.39-4.99,10.26-8.2,17.17-15.6,17.17-18.37s-2.84-.97-10.24,6.44c-5.51,5.52-8.4,7.68-10.27,7.68-1.44,0-4.4.5-6.58,1.11-3.53.99-7.09.28-4.05-.81,2.26-.82,11.63-8.7,12.7-10.71,1.91-3.56-1.82-3.58-6.04,0-8.77,7.43-18.16,12.89-24.06,13.96-3.23.59-5.92,1.54-5.99,2.11-.24,2.26,7.31,3.2,16.6,2.04,5.03-.64,9.15-1.01,9.15-.84s-1.69,1.12-3.77,2.13c-3.88,1.86-6.44,4.79-5.25,5.99.39.37,2.21,1.04,4.08,1.47,5,1.19,6.88,1.15,9.35-.17,1.23-.67,6.14-2.08,10.95-3.15,9.62-2.14,11.7-3.29,10.83-6.01-.37-1.19.06-2.04,1.27-2.43Z"/>
      <path class="cls-1" d="m422.2,270.69c6.63-1.62,9.26-5.1,5.96-7.83-1.37-1.15-1.99-.9-4.13,1.66-1.37,1.66-3.01,3.9-3.63,4.95-1.02,1.77-.86,1.88,1.8,1.22Z"/>
      <path class="cls-1" d="m427.21,233.29c-2.83,2.14-5.3,4.38-5.5,5-.22.63,1.51-.05,3.82-1.53,2.33-1.45,4.58-2.64,5.06-2.64,1.52,0,8.3-7.65,9.42-10.61.6-1.59,1.09-4.52,1.09-6.51,0-4.99-3.3-4.45-4.19.67-1.09,6.29-4.38,11.61-9.69,15.62Z"/>
      <path class="cls-1" d="m284.45,28.5c-2.31,0-10.96,8.42-10.96,10.68,0,1.79.52,1.59,3.86-1.61,2.11-2.02,4.89-4.22,6.16-4.87,2.53-1.31,3.17-4.2.94-4.2Z"/>
      <path class="cls-1" d="m435.98,210.21c-.06,2.83,2.71,1.02,5.46-3.53,3.11-5.14,3.14-7.23.25-14.14-1.44-3.46-3.92-4.77-5.15-2.74-.32.5.12,2.87.96,5.27,1.94,5.5,1.96,9.32.03,11.87-.84,1.1-1.53,2.57-1.54,3.28Z"/>
      <path class="cls-1" d="m441.85,259.06c.32-.94-1.17-1.29-5.3-1.29-5.37,0-6.78.69-5.02,2.44,1.2,1.2,9.87.24,10.32-1.15Z"/>
      <path class="cls-1" d="m270.81,89.98c1.05,1.74,2.09,1.54,4.2-.81,1.94-2.12,2.73-8.4,1.17-9.27-.49-.28-1.02,1.04-1.17,2.95-.25,3.14-1.31,4.64-4.01,5.57-.52.18-.6.89-.18,1.56Z"/>
      <path class="cls-1" d="m237.63,130.99c2.67,4.69,3.09,6.28,2.54,9.74-.78,4.92,1.32,5.14,2.71.27,1.39-4.87,0-10.99-3.43-15.16-5.75-6.98-6.91-3.73-1.82,5.15Z"/>
      <path class="cls-1" d="m316.93,88.07c2.53,1,8.49.42,14.14-1.38,2.51-.8,3.7-1.84,3.93-3.46.4-2.83-.33-2.86-5.74-.25-2.54,1.22-6.36,2.06-9.45,2.06-5.44,0-6.83,1.47-2.88,3.03Z"/>
      <path class="cls-1" d="m420.52,51.52c0,.33,1.11.62,2.46.62,5.11,0,7.57-8.32,5.14-17.32-.75-2.76-1.74-3.71-4.99-4.84-4.58-1.57-5.67-1.19-3.86,1.39,2.9,4.1,5.37,9.56,5.37,11.85,0,1.35-.92,3.65-2.06,5.08-1.12,1.44-2.06,2.88-2.06,3.21Z"/>
      <path class="cls-1" d="m310.5,144.42c0,2.96,7.5,0,13.12-5.17,3.9-3.58,2.63-3.53-5.41.25-4.23,2.01-7.7,4.22-7.72,4.92Z"/>
      <path class="cls-1" d="m414.71,88.97c-.5,4.1-5.52,13.27-9.09,16.62-1.42,1.34-2.57,2.81-2.57,3.28,0,1.89,3.88.67,6.29-1.98,3.44-3.83,7.75-10.43,9.07-13.96,1.64-4.37,1.41-13.04-.35-13.04-1.47,0-2.63,3.11-3.35,9.07Z"/>
      <path class="cls-1" d="m337.33,203.1c1.64-.24,3.48-2.19,5.89-6.24,3.38-5.71,3.75-9,.99-9-1.04,0-6.84,9.61-8.88,14.68-.2.5.7.77,2.01.57Z"/>
      <path class="cls-1" d="m336.61,117.94c-1.09,0-1.42,1.79-1.42,7.58,0,4.16-.3,9.03-.65,10.79-.74,3.73,1.32,4.59,2.15.9,2.18-9.54,2.58-12.72,2.01-15.78-.39-1.99-1.29-3.5-2.09-3.5Z"/>
      <path class="cls-1" d="m409.61,79.05c-.92.18-2.56,2.64-3.66,5.47-1.11,2.83-3.37,6.85-5.02,8.94-1.66,2.09-3.01,4.08-3.01,4.43s1.19.51,2.66.32c2.12-.25,3.46-1.81,6.67-7.82,4.34-8.05,5.12-11.9,2.36-11.34Z"/>
      <path class="cls-1" d="m306.39,29.17c0-1.16-4.55-3.6-8.7-4.69-2.55-.66-1.37,2.11,1.69,3.98,3.95,2.4,7.01,2.71,7.01.71Z"/>
      <path class="cls-1" d="m334.73,76.58c.97-3.03.09-3.13-5.07-.64l-4.76,2.31-3.04-2.26c-1.68-1.24-3.53-2.26-4.12-2.26-1.98,0-1.11,3.85,1.24,5.47,4.55,3.18,14.44,1.54,15.74-2.63Z"/>
      <path class="cls-1" d="m340.39,92.24c-2.86,0-6.24,2.21-6.24,4.08,0,2.56,2.71,2.75,5.32.39,1.99-1.81,2.54-4.47.92-4.47Z"/>
    </g>
  </g>
</svg>