<?xml version="1.0" encoding="UTF-8"?>
<svg id="Layer_2" data-name="Layer 2" xmlns="http://www.w3.org/2000/svg" viewBox="0 0 824.75 186.12">
  <defs>
    <style>
      .cls-1 {
        stroke-width: 0px;
      }
    </style>
  </defs>
  <g id="Layer_1-2" data-name="Layer 1">
    <g>
      <path class="cls-1" d="m127.25,23.32c-.65-1.96-.77-1.94-2.63.52-1.56,2.04-2.19,2.31-3.23,1.27-.7-.71-1.66-1.29-2.11-1.29-1.17,0-1.02,3.86.18,4.62.55.33,1.52,2.54,2.16,4.92.99,3.67,1.34,4.05,2.38,2.63,1.39-1.91,3.85-.67,5.06,2.56.39,1.02,1.2,1.54,1.83,1.17,1.3-.81.48-6.49-1.59-11.26-.75-1.71-1.66-4.02-2.04-5.14Z"/>
      <path class="cls-1" d="m136.82,25.61c-.62.62-.58,3.35.07,7.46.57,3.56.8,6.88.5,7.35-.3.48-.24,1.37.13,1.98,1.04,1.67,3.06.45,2.86-1.73-.12-1.05-.3-4.25-.43-7.08-.25-5.91-1.64-9.45-3.13-7.98Z"/>
      <path class="cls-1" d="m187.13,113.29c-1.49,0-5.06,5.69-4.13,6.59.97.99,1.96.69,4.42-1.31,2.42-1.96,2.24-5.3-.28-5.29Z"/>
      <path class="cls-1" d="m147.63,34.03c-.55,2.74-.96,3.06-3.23,2.49-2.49-.64-2.58-.51-1.91,2.83.38,1.92,1.14,3.65,1.69,3.83.55.2,1,1.01,1,1.81,0,2.03,1.81,1.82,2.91-.33,1.54-2.98,2.41-12.39,1.22-13.1-.6-.38-1.34.69-1.69,2.48Z"/>
      <path class="cls-1" d="m266.46,23.82c-1.98,0-2.24,3.18-.42,5.19,1.68,1.85,4.59,2.78,4.59,1.46,0-1.46-3.25-6.64-4.17-6.64Z"/>
      <path class="cls-1" d="m274.75,48.31c0-5.17-1.34-9.06-3.13-9.06-1.09,0-1.39,14.68-.3,15.75,1.61,1.62,3.43-1.91,3.43-6.69Z"/>
      <path class="cls-1" d="m277.46,26.62c-2.41-6.31-4.33-8.74-5.79-7.31-.84.84-.25,2.79,2.24,7.4,3.89,7.11,6.28,7.06,3.55-.09Z"/>
      <path class="cls-1" d="m801.24,139.12c-8.74.27-11.56-.02-13.54-1.31-1.36-.89-4.1-1.91-6.07-2.27-11.03-2.03-10.98-2.03-19.21,1.37-4.42,1.83-8.49,3.73-9.02,4.23-.54.51-3.43.92-6.43.92-7.66,0-7,3.17.99,4.65,2.13.4,4.11,1.14,4.43,1.64,1.09,1.74,3.38.89,3.71-1.39.42-2.99,3.46-3.55,4.89-.9.99,1.84.6,2.29-3.7,4.18-2.63,1.17-5.59,1.89-6.54,1.58-.96-.3-2.34.18-3.1,1.07-2.57,3.13-14.96,9.74-18.21,9.74-1.77,0-4.45.47-5.97,1.05-2.03.75-3.18.7-4.3-.23-1.26-1.04-1.88-.86-3.4,1.02-4.1,5.07-10.43,9.47-13.64,9.47h-3.2l4.15-4.37c4.73-5,8.02-9.94,7.18-10.79-.32-.32-3.95,2.91-8.07,7.16-6.83,7.09-7.75,7.69-10.81,7.23-1.82-.27-3.33-.82-3.33-1.2s1.66-2.31,3.68-4.25c4.28-4.12,6.86-8.6,6.38-11.08-.25-1.19-1.51-.03-4.08,3.77-2.04,3.03-5.27,6.52-7.16,7.8-7.48,5-9.71,4.2-4.45-1.62,3.88-4.3,4.82-8.45,1.77-7.87-.99.18-1.94,1.32-2.11,2.51-.39,2.71-3.52,5.69-9.49,9.09-13.86,7.87-19.66,8.82-9.17,1.49,6.33-4.4,10.43-9.32,8.97-10.78-.39-.39-2.8,1.39-5.35,3.95-5.47,5.47-12.17,8.97-17.1,8.95l-3.53-.03,5.66-3.11c8.95-4.92,16.51-13.28,12.03-13.28-2,0-4.75,2.27-6.17,5.14-1.42,2.84-12.94,9.25-16.63,9.25s-3.98-2.81-.17-4.62c4.89-2.33,13.32-12.87,10.29-12.87-.35,0-2.81,2.21-5.47,4.89-5.72,5.8-12.02,9.1-19.06,10.01l-5.14.67,2.74-2.38c1.53-1.32,3.95-3.23,5.42-4.25,3.41-2.38,6.09-6.46,5.19-7.91-.44-.71-2.98,1.04-6.7,4.57-5.67,5.42-9.59,7.78-12.9,7.78-2.95,0-1.36-1.98,4.07-5.07,5.19-2.98,8.85-6.81,8.85-9.29,0-1.92-1.89-1.12-5.86,2.55-3.86,3.55-12.13,7.53-13.29,6.37-.32-.32,1.23-1.51,3.45-2.64,3.36-1.71,9.52-8.02,9.52-9.72,0-.27-1.19-.79-2.66-1.15-2.09-.52-3.6.1-6.94,2.83-5.11,4.15-8.89,6.28-8.89,4.97,0-.52,1.16-1.69,2.56-2.63,1.61-1.04,2.58-2.65,2.58-4.24,0-3.38-1.31-3.2-5.31.7-2.83,2.76-3.4,2.98-3.92,1.49-.54-1.52-.93-1.39-3.14.97-2.69,2.86-8.07,6.07-8.87,5.29-.25-.25.72-2.19,2.14-4.3,1.44-2.13,2.34-4.28,2.02-4.8-.78-1.27-2.96.6-5.52,4.73-2.12,3.45-8.67,7.7-9.92,6.44-.4-.39,1.91-3.46,5.1-6.81,5.74-6.01,6.94-9.05,4.87-12.32-.7-1.1-1.26-.73-2.49,1.64-2.98,5.76-16.92,17.3-18.71,15.51-.24-.23.54-3.08,1.71-6.32,2.16-6.02,1.96-11.46-.4-10.68-.69.23-1.56,2.22-1.94,4.45-1.76,9.99-9.32,19.73-17.07,21.96l-3.16.9,4.99-6.85c5.52-7.6,10.27-20.1,8.37-22.01-.79-.8-1.71.27-3.2,3.77-1.16,2.69-2.09,5.24-2.09,5.67s-1.8,3.56-4,6.96c-3.9,6.04-11.13,11.6-20.08,15.5-5.25,2.27-5.19-.27.1-4.19,8.05-5.94,23.93-23.66,22.16-24.73-.64-.37-4.22-.25-6.55.23-.35.07-.9,1.4-1.24,2.95-.32,1.56-1.66,4.03-2.94,5.5-2.68,3.05-21.24,16.35-22.78,16.35-.57,0,2.45-3.58,6.7-7.96,8.42-8.68,11.83-13.29,10.69-14.42-.4-.4-1.19.08-1.72,1.07-.55.99-1.69,1.79-2.51,1.79s-3.2,1.89-5.31,4.22c-7.03,7.78-21.12,17.37-25.52,17.37-.93,0,3.13-4.59,9.21-10.39,5.99-5.71,10.88-11.03,10.88-11.83,0-3.11-4.27-1.14-9.44,4.37-4.99,5.29-15.82,11.71-19.7,11.68-.65-.02,2.01-2.94,5.91-6.52,4.08-3.75,6.79-7.01,6.39-7.66-.39-.62-1.39-.87-2.22-.55-1.27.48-1.36.12-.52-2.09.82-2.16.72-2.69-.49-2.69-.84,0-1.52.6-1.52,1.32,0,3.5-17.79,16.15-22.69,16.15-.64,0,1.12-2.66,3.92-5.91,2.78-3.25,5.34-6.68,5.69-7.61.33-.96,3.14-5.37,6.22-9.84,6.16-8.95,8.77-17.26,5.22-16.57-1.16.21-2.13,1.64-2.56,3.68-.37,1.83-2.01,5-3.63,7.05-1.62,2.06-3.95,5.18-5.15,6.96-4.2,6.21-20.23,21.24-21.41,20.08-.43-.45,2.86-4.54,12.64-15.63,7.04-8,10.91-14.46,10.04-16.75-.87-2.24-2.12-1.7-3.29,1.39-1.73,4.55-7.97,12.47-9.89,12.53-.97.03-2.44,1.34-3.26,2.9-1.86,3.52-12.22,13.44-17.19,16.48-3.62,2.19-13.25,3.29-13.24,1.5,0-.43,1.47-1.71,3.28-2.83,1.8-1.14,4.01-2.53,4.92-3.09,3.11-1.96,17.02-14.14,22.44-19.65,3.28-3.33,5.34-6.26,5.14-7.33-.42-2.18-3.92-3.08-3.92-1.01s-7.88,10.21-13.55,13.99c-2.64,1.76-5.42,3.78-6.16,4.52-2.01,1.94-9.27,6.04-9.79,5.52-.24-.25,1.69-2.43,4.28-4.87,2.59-2.42,4.97-5.45,5.29-6.71.32-1.27,1.46-3.1,2.54-4.09,2.39-2.15,2.51-3.51.32-3.51-.89,0-7.26,5.67-14.12,12.6-8.26,8.31-14.39,13.55-18.06,15.44-3.05,1.57-5.74,2.66-5.97,2.41-.52-.52,9.47-10.02,11.88-11.3,1.73-.92,8.75-7.35,15.56-14.26,2.09-2.13,4.42-5.83,5.17-8.23.75-2.41,2.26-6.16,3.33-8.33,1.07-2.18,1.71-4.19,1.42-4.47-.69-.69-6.24,7.08-8.82,12.36-2.26,4.62-18.86,20.64-20.75,20-.62-.2,1.22-2.76,4.08-5.69,5.84-5.96,7.88-9.37,8.92-14.94.9-4.84-.99-5.15-2.93-.48-1.47,3.5-14.21,19.47-14.95,18.74-.23-.24.34-1.58,1.26-3,2.14-3.24,2.14-4.68.02-4.68-1.37,0-1.56-.72-1.04-3.87.35-2.11.94-4.88,1.29-6.16.75-2.76-1.42-3.25-2.33-.52-2.36,7.23-4.55,11.38-8.47,16-2.46,2.95-5,5.52-5.65,5.74-.63.24-.4-.47.52-1.54.94-1.07,2.78-4.03,4.1-6.58,3.08-5.92,3.45-18.47.6-21.3-1.68-1.67-1.73-1.42-1.09,4.65.6,5.75.37,6.98-2.18,11.8-3.8,7.14-11.01,18.37-11.5,17.89-.2-.2.82-3.11,2.31-6.46,3.08-6.96,4.43-16.16,2.54-17.33-1.65-1.02-1.79-.75-2.51,4.48-.35,2.5-2.07,6.78-3.85,9.54-3.33,5.22-14.21,15.65-15.23,14.63-.32-.32.12-1.12.96-1.77,4.2-3.26,12-18.01,10.96-20.7-1.01-2.61-2.24-1.19-4.72,5.44-1.24,3.31-3.67,7.61-5.41,9.52-10.53,11.73-10.19,11.45-13.49,10.8-1.73-.35-3.32-.81-3.53-1.02-.2-.21,1.86-2.64,4.6-5.38,2.72-2.75,6.22-7.25,7.76-10.01,4.5-8.07,3.2-12.67-1.42-5-4.28,7.09-8.5,11.85-13.15,14.79-7.6,4.82-8.35,3.33-1.54-3.03,6.64-6.18,10.37-11.13,9.25-12.25-.37-.36-1.92.34-3.48,1.56-9.31,7.35-15.78,11.48-19.66,12.52-2.42.65-4.67.93-4.99.63-1.04-1.05,1.84-3.45,4.9-4.05,3.46-.7,12.32-8.37,12.32-10.68,0-.82,1.69-3.2,3.77-5.26,5.02-5.02,8.03-11.73,6.51-14.57-1.44-2.68-3.08-1.69-3.08,1.87-.02,4.04-4.77,10.56-11.82,16.18-8.47,6.75-14.91,12.99-14.91,14.48,0,1.34-9.24,4.87-10.21,3.9-.32-.32,1.38-2.3,3.78-4.37,3.35-2.9,4.12-4.12,3.35-5.3-1.56-2.38-1.25-3.7,1.56-7.05,3.14-3.73,1.81-5.07-2.76-2.79-4.28,2.14-4.25,2.18-1.89-2.23,2.18-4.05,2.79-10.56,1-10.56-.57,0-1.56,1.27-2.19,2.83-3.59,8.94-9.99,16.7-13.72,16.7-2.07,0-2.04-.07,1.99-6.06,3.88-5.79,7.27-15.86,6.18-18.47-.59-1.44-.75-1.46-1.16-.14-1.44,4.77-3.9,9.25-5.09,9.25-.74,0-2.04,1.32-2.88,2.95-1.81,3.48-13.76,15.56-15.4,15.55-.62-.02-1.81-.45-2.64-.99-1.22-.77-.18-2.31,5.37-7.83,3.8-3.77,6.64-7.26,6.34-7.75-.89-1.46-3.53-1.02-4.18.69-.75,1.98-13.61,11.21-14.43,10.39-.35-.35-.15-1.21.4-1.93,1.56-1.97,2.29-5.86,1.24-6.51-.5-.32-2.9.77-5.3,2.39-7.46,5.07-8.68,4.92-4.32-.52,2.16-2.69,4.77-5.74,5.79-6.74,2.88-2.84,2.27-6.26-.7-4.05-.57.4-4.17,4.3-8,8.63-4.8,5.46-7.93,8.12-10.09,8.59-1.72.39-3.33.51-3.55.27-.24-.22,2.34-3.8,5.72-7.95,3.38-4.15,6.14-7.9,6.14-8.32s2.53-3.5,5.62-6.81c5.24-5.57,12.95-18.74,15.75-26.83.75-2.21,1.81-3.33,3.13-3.33,3.63,0,4.4,2.24,3.35,9.69-1.02,7.26-1.44,8.07-7.18,14.21-2.58,2.76-3.13,3.85-1.94,3.85,2.58,0,12-11.18,12.74-15.11.84-4.43,2.38-5.29,4.6-2.53,2.21,2.75,3.01,2.81,3.01.27,0-2.34-8.55-9.77-13.74-11.93-4.18-1.74-9.69-1.97-11.97-.5-1.2.77-.92.99,1.29,1,4,.03,3.71,2.91-1.34,13.34-4.52,9.36-9.62,16.5-11.78,16.5-.74,0-2.8,1.96-4.55,4.37-4.64,6.33-10.11,10.23-12.53,8.92-2.78-1.47-2.42-2.56,2.18-6.73,2.28-2.04,4.12-4.38,4.12-5.2s2.43-4.25,5.41-7.61c6.96-7.88,12.98-17.84,13.77-22.76.47-2.93,1.11-3.88,2.59-3.88,1.09,0,3.32-.7,4.96-1.54,1.64-.85,4.73-1.49,6.89-1.42,2.14.06,5.22-.4,6.81-1.04,1.59-.64,4.45-1.14,6.37-1.14,3.83,0,13.62-2.34,16.72-4,1.24-.67,4.74-.75,9.44-.25,6.71.7,8.42.48,16.67-2.19l9.19-2.99,3.44,3.66c1.89,2.01,3.65,4.25,3.89,4.97.36,1.05,1.37,1.05,5.25.02,7.87-2.09,12.7-1.67,15.75,1.38,3.23,3.23,2.07,5.15-2.12,3.56-7.2-2.75-6.29.75,1.57,6.14,3.48,2.36,7.33,5.49,8.59,6.93,3.85,4.49,5.12,1.81,1.57-3.35-3.31-4.82-3.7-6.19-2.01-7.23,1.76-1.09,8.02,4.45,12.03,10.66,2.07,3.2,3.92,6.01,4.07,6.26.17.24.57.15.92-.2.9-.9-1.59-7.87-4.45-12.41-1.37-2.18-2.34-4.07-2.16-4.24,1.72-1.44,5.47-2.61,8.37-2.61s3.77.52,4.72,2.83c.65,1.56,3.01,4.92,5.25,7.46,2.24,2.54,4.07,4.97,4.08,5.39.02.44.7.77,1.56.77,2.61,0,1.72-2.86-2.19-7.21-3.97-4.38-4.1-6.09-.33-4.07,1.24.67,3.81,1.2,5.72,1.2,3.16,0,3.75.54,6.79,6.07,4.25,7.72,6.79,8.27,3.85.82-2.69-6.83-4.84-10.93-6.14-11.73-1.71-1.05-.07-2.56,2.81-2.56,1.47,0,5.19.78,8.25,1.76,5.54,1.74,8.48,4.87,8.48,8.98,0,2.31-.45,2.08-5.71-3.03-2.61-2.54-5.64-4.64-6.73-4.64-2.84,0-2.45.94,2.14,4.85,2.26,1.94,5.77,6.49,7.8,10.12,2.04,3.65,3.95,6.61,4.23,6.61.5,0-.06-3.13-1.3-7.33-1.16-3.92,6.29-2.6,9.92,1.77.82.97,1.69,4.95,1.99,8.97.7,10.08,2.61,9.99,2.57-.1-.01-9.29-1.47-12.33-7.13-15.03-3.36-1.59-5.12-4.73-2.66-4.73,3.85,0-3.38-7.03-11.23-10.95-4.8-2.39-6.11-2.61-12.23-1.97-5.27.54-7.46,1.27-9.49,3.21-3.36,3.23-4.17,3.16-8.17-.57-4.05-3.78-6.49-3.85-15.11-.4-7.68,3.08-10.76,2.49-12.89-2.41-3.26-7.55-3.78-7.8-17.05-7.9-9.36-.06-12.68-.47-14.66-1.76-2.41-1.57-3.08-1.52-11.26.97-9.04,2.74-12.82,3.13-17.84,1.85-2.79-.7-2.91-.95-2.27-4.92.99-6.19,3.21-9.76,6.93-11.04,4.7-1.64,7.05-4.09,7.05-7.38,0-2.44-.67-3.08-4.89-4.6-13.82-5-15.08-6.55-8.27-10.21,6.78-3.63,5.91-7.63-2.71-12.53-3.97-2.26-5.83-4.18-7.78-8.08-4.01-7.98-5.69-8.45-32.9-9.37-29.35-1-31.26-.9-35.54,1.74-2.91,1.79-3.53,2.8-3.53,5.69,0,3.98-.25,4.07-5.87,2.08-2.71-.96-6.37-1.24-11.01-.87-6.04.48-7.09.87-8.07,2.99-.6,1.35-2.22,2.72-3.6,3.08-2.74.69-9.89-1.16-13.05-3.37-1.17-.82-4.57-1.42-7.96-1.42-5.02,0-6.78.55-11.63,3.65-4.34,2.78-5.86,4.42-6.34,6.81-.47,2.36-1.54,3.51-4.34,4.68-3.4,1.43-3.98,1.41-7.26-.36-4.34-2.34-5.83-5.17-6.91-13.19-.78-5.77-1.14-6.37-6.27-10.54-6.46-5.25-12.24-6.02-16.32-2.19-2.53,2.36-10.69,3.21-28.23,2.93-8.13-.13-9.1.27-12.65,5.32-1.35,1.94-1.83,2.02-4.62.87-1.72-.72-4.19-1.02-5.46-.69-2.81.72-8,5.05-8,6.67,0,.65-1.62,1.17-3.7,1.17-2.78,0-4.42.77-6.56,3.06l-2.86,3.08-2.73-2.14c-3.01-2.38-11.75-5-16.53-4.99-4.97.02-11.61,3.6-13.92,7.51-2.51,4.25-4.72,4.99-9.21,3.1-3.26-1.38-3.44-1.31-6.83,2.27-1.91,2.03-3.46,4.34-3.46,5.14,0,1.69.3,1.66-11.4,1.49C1.63,37.06.15,37.84,0,43.33c-.07,2.31.85,4.19,3.33,6.75,3.73,3.83,6.86,5.12,15.11,6.16,4.9.62,6.06.32,13.88-3.65,4.69-2.38,9.09-4.79,9.79-5.34,2.64-2.14,30.51-.72,37.8,1.91,4.12,1.49,7.55,1.35,33.89-1.39,2.8-.29,7.43-.03,10.28.55,2.86.58,8.85,1.79,13.32,2.66,4.47.89,8.28,1.77,8.5,1.99.2.2.07,1.17-.3,2.16-.75,1.97-.82,1.97-17.84-.85-7.57-1.26-12.08-1.42-20.18-.72-10.81.94-13.22,1.73-18.36,5.99-4.89,4.08-7.08,4.47-17.64,3.18-11.41-1.41-12.35-.96-13.34,6.36-.57,4.22-.34,4.91,2.79,8.07,1.87,1.89,4.48,3.86,5.8,4.37,1.32.5,10.88.9,21.25.9,17.27,0,19.63-.21,28.47-2.71,5.29-1.51,12.42-2.83,15.81-2.93,3.41-.12,7.35-.82,8.75-1.57,1.56-.84,6.33-1.39,12.47-1.44,8.84-.07,10.23-.33,12.42-2.39,2.49-2.34,5.92-3.13,5.92-1.34,0,.54-1.02,1.67-2.26,2.54-4.03,2.83-1.12,2.91,3.68.1,3.35-1.97,5.14-2.48,6.36-1.79,1.47.82,1.29,1.24-1.37,3.14-4.12,2.91-4.76,5.81-1.96,8.86,1.99,2.18,3.33,2.49,12.28,2.91,5.52.25,10.29.05,10.59-.44.3-.48,1.32-.89,2.27-.89s4.42-1.67,7.73-3.71c4.32-2.66,6.34-3.4,7.13-2.6.8.79.63,1.29-.6,1.76-2.44.94-2.11,2.49.52,2.49,1.24,0,3.05.74,4.02,1.62,1.5,1.36,2.48,1.42,6.25.42,2.46-.67,5.32-1.66,6.38-2.21,2.53-1.34,3.5-.23,4.32,4.91.6,3.86.4,4.42-2.39,6.41-2.07,1.47-3.23,3.35-3.65,5.89-.84,5.12-2.37,6.63-6.84,6.63-5.02,0-10.11,1.82-11.3,4.03-.52.97-1.27,4.17-1.66,7.1-.39,2.93-.85,5.32-1.02,5.32-1.34,0-6.78-2.64-9.96-4.84-2.36-1.62-3.87-3.48-3.9-4.82-.05-3.47-2.56-5.91-8.4-8.15-8.6-3.29-14.36-2.89-23.7,1.62-4.37,2.11-8.02,4.3-8.08,4.87-.6,4.74-1.47,5.17-6.85,3.38-2.66-.89-5.32-1.96-5.89-2.36-.57-.42-5.57-1.04-11.14-1.37-11.3-.72-13.12-.17-19.18,5.67-7.93,7.66-12,8.75-23.41,6.26-7.36-1.61-7.57-1.59-12.58.75-2.81,1.32-6.04,3.26-7.18,4.32-2.51,2.34-2.73,7.65-.45,10.89,4.4,6.29,21.45,10.39,34.89,8.4,3.95-.59,11.13-1.51,15.93-2.06,4.8-.54,10.64-1.49,12.98-2.11,2.86-.77,4.88-.8,6.17-.12,2.4,1.27,18.33,4.3,22.47,4.25,13.96-.13,35.53,1.27,41.08,2.66l6.63,1.67,4.58-2.69c5.59-3.28,6.13-4.5,4.25-9.79-.81-2.3-1.19-4.85-.86-5.72.32-.86-.18-2.43-1.14-3.48-1.14-1.26-1.36-2.14-.64-2.57,1.53-.96,3.15.25,3.18,2.33.01.95,1,2.89,2.17,4.3,1.97,2.38,2.75,2.56,9.61,2.33,5.62-.2,7.78.12,8.75,1.27.72.87,2.96,1.56,5.11,1.56,2.53,0,4.47.7,5.69,2.06,1.02,1.12,2.75,2.04,3.82,2.04s2.96,1.12,4.23,2.48c2.18,2.36,2.88,2.48,15.29,2.46,12.18,0,13.4.18,19,2.9,3.29,1.59,6.67,2.94,7.53,3.01,3.33.22,6.06,1.69,7.65,4.12.9,1.39,2.24,2.53,2.96,2.53s3.77,1.22,6.76,2.71c4.99,2.48,6.19,2.66,14.61,2.18,9-.5,9.22-.47,11.53,2.28,3.35,3.96,11.4,5.07,14.66,2,2.96-2.78,7-2.31,7.45.85.18,1.27.74,2.31,1.24,2.31s2.07,1.26,3.5,2.78l2.58,2.79,6.46-2.49c5.54-2.14,7.92-2.46,16.72-2.22,7.21.2,10.74.72,11.9,1.77,2.71,2.44,5.09,1.74,10.83-3.16,4.25-3.63,5.62-4.34,6.28-3.2.55.96,3.48,1.64,8.55,2.03,15.78,1.16,22.74,2.29,26.83,4.35,7.24,3.66,53.93,5.3,72.21,2.53,8.65-1.31,11.01-2.13,24.26-8.44,12.28-5.84,14.09-5.98,19.5-1.46,4.97,4.13,6.88,4.42,13.91,2.03,6.58-2.24,14.46-.69,22.01,4.31l5.51,3.65,7.04-1.09c7.48-1.17,11.58-.4,12.64,2.38.87,2.24,8.22,3.97,17.3,4.03,7.06.07,8.65-.32,15.81-3.81l7.95-3.89,6.51,1.64c3.58.9,7.57,1.64,8.87,1.66,1.31.02,4.91,1.62,8.02,3.58,8,5.04,16.48,4.57,29.05-1.61,4.28-2.11,5.3-2.26,8.28-1.17,5.26,1.89,6.61,1.59,15.2-3.44,6.91-4.05,8.5-4.61,11.7-4,3.14.59,4.64.13,9.74-3.01,4.49-2.78,7.16-3.73,10.49-3.75,5.61-.02,13.47-2.31,14.07-4.1.32-.96-.12-1.12-1.49-.59-1.07.44-6.56,1.19-12.2,1.69-11.46,1.02-13.69.28-10.07-3.33l2.21-2.21,5.84,2.22c5.39,2.08,6.09,2.12,8.97.69,3.78-1.89,7.92-2.02,8.03-.27.03.7.72-.18,1.51-1.97,1.99-4.55,2.88-4.84,7.68-2.38,4.12,2.09,4.3,2.09,7.38.29,3.26-1.91,6.81-9.97,5.69-12.92-.92-2.38-11.46-4.05-23.3-3.7ZM36.72,44.07c-1.69.9-4.77,2.96-6.83,4.59-2.99,2.36-4.72,2.91-8.74,2.84-5.69-.09-7.33-.55-9.94-2.83-1-.89-3.1-1.64-4.62-1.66-2.27-.05-2.83-.59-3.11-3.03-.18-1.69.25-3.35,1.04-3.83,2.13-1.35,12.03-1.02,18.85.62,3.4.82,8.48,1.52,11.31,1.57l5.14.07-3.1,1.65Zm4.13-6.88c-2.14,1.77-14.42,2.66-15.38,1.12-.92-1.49,1.79-5.81,4.58-7.3,1.62-.87,2.21-.77,2.68.47.42,1.11,2.01,1.59,5.14,1.59,4.77,0,5.95,1.64,2.98,4.12Zm27.56-6.53c1.05,1.82,2.86.79,2.09-1.22-.77-1.99,2.07-1.97,3.73.02.7.85,1,2.24.69,3.1-.85,2.22-5.42,1.49-11.63-1.86-1.61-.85-3.85-1.89-4.97-2.26-1.98-.67-1.96-.74.32-1.62,2.6-.99,8.23,1.24,9.78,3.85Zm-20.85-7.38c2.84-2.6,14.76-2.61,17.27-.03,1.61,1.64,1.47,1.7-2.14,1.05-2.78-.52-4.59-.25-6.4.96-2.63,1.7-10.83,2.31-10.83.78,0-.48.94-1.72,2.09-2.76Zm30.64,18.14c-1.66,1.05-8.85.97-15.26-.17-2.54-.45-7.51-.87-11.04-.9-3.53-.05-6.43-.33-6.43-.65,0-1.44,2.49-5.24,4.49-6.86,2.98-2.41,8.08-2.26,13.29.4,2.37,1.22,6.86,2.49,9.97,2.83,4.42.47,5.72,1.02,6.01,2.54.2,1.05-.25,2.33-1.02,2.81Zm-13.12,26.04c-.54.33-1.24.17-1.57-.37-.33-.54-.17-1.24.37-1.57.54-.33,1.25-.17,1.59.37.32.54.15,1.26-.39,1.57Zm3.83,1.99c2.22-2.79,3.46-3.46,6.36-3.4,7.87.15,7.9,1.39.13,4.87-4.03,1.81-7.5,3.28-7.68,3.28-1.59,0-1.14-1.84,1.19-4.75Zm1.74,7.18c-.85.32-1.54.15-1.54-.4s.69-1,1.54-1,1.54.18,1.54.4c0,.23-.69.69-1.54,1Zm15.56-1.41c-.79,0-2.01.7-2.71,1.56-1.39,1.66-7.75,2.13-8.67.62-.32-.51,1.91-2.13,4.93-3.6,3.28-1.61,8.03-5.37,11.8-9.37,6.54-6.91,9.4-8.28,9.4-4.52,0,2.41-12.43,15.31-14.76,15.31Zm24.98-13.88c-1.17,1.69-2.53,4.12-3.05,5.37-.52,1.26-3.23,3.95-6.04,5.96-2.81,2.03-5.26,4.03-5.42,4.47-.18.44-1.47.5-2.88.17l-2.53-.62,2.84-2.03c5.57-3.92,8.91-6.83,8.91-7.77,0-.52.99-3.03,2.17-5.57,1.84-3.9,2.63-4.62,5.14-4.62,3.53,0,3.63.57.85,4.64Zm8.07,2.63c-5.09,4.64-6.28,3.7-2.66-2.11,1.76-2.83,3.81-5.16,4.58-5.16,2.54,0,1.42,4.2-1.92,7.27Zm11.45-.7c-1.17,1.49-3.08,3.23-4.25,3.85-1.94,1.04-2.06.92-1.37-1.29.42-1.34,1-3.7,1.29-5.25.45-2.31,1.09-2.83,3.51-2.83,3.55,0,3.82,1.72.82,5.52Zm10.12-2.18c-.24.7-1.44,1.42-2.66,1.61-1.66.25-2.08-.09-1.61-1.29.74-1.91,4.88-2.22,4.27-.32Zm60.26,79.25c-5.99,2.59-12.72,3.63-12.72,1.94,0-.42,2.21-1.82,4.9-3.11,2.71-1.27,6.22-3.98,7.83-5.99,2.51-3.14,2.73-3.86,1.49-5.1-1.26-1.26-1.99-.81-5.31,3.16-4.11,4.92-12.82,9.79-17.5,9.79-4.22,0-3.25-1.57,2.83-4.54,6.21-3.04,9.81-7.26,7.83-9.2-.89-.89-1.49-.79-2.41.39-1.86,2.39-11.19,8.79-13.82,9.47-1.29.33-4.07.13-6.18-.45l-3.81-1.05,3.33-2.78c1.84-1.54,3.33-3.3,3.33-3.93,0-2.66-2.34-2.23-6.29,1.17-4.59,3.93-12.12,7.83-15.08,7.83-1.04,0-2.69-.6-3.71-1.34-1.68-1.22-1.47-1.57,2.46-4.3,5.02-3.48,7.26-6.37,6.51-8.35-.85-2.21-2.21-1.74-6.31,2.19-7.06,6.75-12.4,9.44-20.08,10.11l-7.03.6,3.7-4.08c2.03-2.24,3.68-4.52,3.68-5.05,0-2.54-2.46-1.81-7.43,2.24-7.51,6.13-22.37,12.17-22.37,9.1,0-.62.45-1.12,1.02-1.12,1.49,0,1.27-2.78-.25-3.35-2.06-.77-13.39,2.41-16.08,4.52-3.18,2.49-6.79,2.44-9.37-.13-2.33-2.34-2.68-6.06-.77-8.38.7-.87,3.08-2.66,5.26-3.97,3.71-2.21,4.38-2.29,10.41-1.17,13.4,2.46,20.64.77,27.95-6.59,2.36-2.36,5.59-4.55,7.2-4.85,4.62-.9,19.8,1.19,24.81,3.4,2.51,1.12,5.41,2.03,6.43,2.03,3.63,0,5.09,1.24,5.09,4.3,0,2.34.42,2.98,1.81,2.71,2.98-.57,2.86-5.56-.2-8.4-1.46-1.34-2.63-2.93-2.63-3.51s3.11-2.58,6.93-4.42c9.22-4.43,17.56-4.77,23.28-.95,3.67,2.44,3.83,2.78,3.3,6.94-.57,4.3-.52,4.37,2.56,4.37,1.72,0,4.6,1.04,6.41,2.31,1.81,1.27,4.2,2.83,5.34,3.45,1.12.62,2.74,2.34,3.58,3.83,1.44,2.54,1.39,2.86-1.02,5.12-1.41,1.34-5.41,3.66-8.87,5.17Zm12.39,1.09c-.89.33-2.39.6-3.35.59-1.47-.03-1.44-.24.28-1.54,2.23-1.69,4.69-1.99,4.69-.6,0,.52-.72,1.2-1.62,1.55Zm123.98-114.03c.55-.35,1.02-.17,1.02.4s-.47,1.31-1.02,1.66c-.57.35-1.04.18-1.04-.39s.47-1.32,1.04-1.67Zm-101.74-.44c1.99,3.93,2.49,9.36.67,7.51-1.01-1.02-4.84-9.57-4.84-10.8,0-2.27,2.22-.52,4.16,3.28ZM139.48,6.55c2.53.25,3.06.72,2.75,2.36-.22,1.14-.35,4.04-.3,6.43.08,3.85-.18,4.37-2.18,4.37-3.33,0-13.07-6.33-13.07-8.49,0-1.49,9.57-4.99,12.8-4.67Zm-46.89,11.07c3.95-4.5,7.7-4.15,12.67,1.23,2.18,2.36,3.95,4.9,3.95,5.65,0,1.96-7.55,1.47-13.87-.9-5.37-1.99-5.66-2.64-2.75-5.98Zm96.64,63.78c-5.07,0-4.9-.5.43-1.34,2.12-.32,3.85-.15,3.85.37s-1.93.97-4.28.97Zm13.54-2.06c-.85.55-2.01,1-2.58,1s-.33-.45.52-1c.86-.55,2.01-.99,2.58-.99s.33.44-.52.99Zm27.02-.37c-3.86,1.62-5.44,1.77-5.44.47,0-1.19,11.33-7.61,12.1-6.86.96.97-3.14,4.9-6.66,6.39Zm3.67-9.91c-1.71,1.69-3.51,3.08-4.04,3.08-1.6,0-1.05-2.98.89-4.92,1-1.01,3.14-3.56,4.77-5.69,1.61-2.11,3.14-3.63,3.4-3.36,1.07,1.05-2.14,8.02-5.02,10.89Zm5.89,27.76c.74,0,2.75-1.49,4.45-3.32,1.69-1.81,3.45-2.94,3.88-2.49.45.44-1.49,2.83-4.32,5.32-5.35,4.72-5.89,5.02-6.99,3.92-.92-.92,1.27-3.43,2.98-3.43Zm5.69-14.49c1.47-1.12,2.61-1.42,2.83-.79.22.6-.54,2.01-1.67,3.15-1.53,1.52-2.24,1.72-2.83.78-.48-.78.15-1.99,1.67-3.14Zm.92,18.59c0,.57-.5,1.04-1.11,1.04s-.8-.47-.45-1.04c.35-.55.85-1.02,1.08-1.02.25,0,.47.47.47,1.02Zm-26.31,14.48l-2.64,2.49,2.27.54c1.84.43,2.01.74.84,1.65-2.16,1.73-3.98.54-3.98-2.63,0-2.84,2.69-6.24,4.95-6.24,1.94,0,1.41,1.51-1.44,4.19Zm9.84-4.77c.85-.48.4.59-1.02,2.36-2.54,3.21-4.12,4.17-4.12,2.49,0-.92,2.61-3.38,5.14-4.85Zm-.7,21.1c-1.24.03-2.56-.45-2.93-1.05-1.1-1.77-.13-1.92,2.61-.4,2.48,1.38,2.49,1.42.32,1.46Zm-4.42-9.97c0-.44,2.19-1.67,4.87-2.75,2.69-1.08,7.43-3.88,10.54-6.22,6.79-5.09,8.22-6.01,8.22-5.22,0,1.32-8.97,10.24-12.56,12.53-3.6,2.26-11.08,3.38-11.06,1.66Zm20.13-1.81c-1.86,1.41-4.49,2.56-5.84,2.54-2.76-.03-2.96.2,7.73-9.07,4.22-3.67,16.02-22.98,16.02-26.22,0-1.07,1.84-4.72,4.1-8.12,4.23-6.32,5.34-11.06,2.59-11.06-.84,0-1.81,1.16-2.16,2.58-.39,1.47-1.39,2.56-2.39,2.56s-2.23,1.38-2.95,3.35c-1.46,3.96-5.89,9-7.95,9-1.83,0-1.07-2.42,2.07-6.69,2.66-3.62,7.7-13.34,7.7-14.86,0-2.46-2.69-.67-8.44,5.59-3.36,3.68-7.5,7.66-9.17,8.85-2.95,2.09-3.15,2.11-5.07.37-2.58-2.33-2.53-2.99.57-7.05,2.69-3.55,3.26-6.22,1.54-7.3-.59-.37-.75-2.36-.39-4.69.44-2.68.2-4.58-.7-5.67-.74-.89-1.52-3.55-1.74-5.91-.72-7.65-1.89-6.63-5.92,5.17-2.04,5.98-4.15,9.89-7.23,13.37-4.64,5.24-7.28,5.32-4.3.15,1.82-3.2,2.38-7.05,1-7.06-.42,0-2.63,2.12-4.9,4.76-2.64,3.01-5.14,4.85-6.88,5.03-1.49.17-4.72,1.66-7.16,3.32-6.19,4.2-7.01,4.62-7.01,3.68,0-.47,1.39-1.76,3.08-2.9,3.11-2.07,5.42-5.87,6.71-11.04.58-2.34.37-2.83-1.26-2.83-1.29,0-2.38,1.19-3.23,3.51-.97,2.69-3.06,4.62-9,8.34-4.25,2.64-8,4.57-8.3,4.25-.32-.32,1.46-2.58,3.93-5.02,6.07-5.97,9.96-11.31,9.39-12.89-.82-2.24-3.16-1.39-5.6,2.06-5.22,7.39-10.98,9.77-6.28,2.59,1.57-2.38,3.62-5.12,4.55-6.07,1.42-1.44,6.01-10.47,6.01-11.82,0-.21-.59-.38-1.29-.38s-2.39,2.09-3.75,4.64c-1.34,2.54-3.03,4.62-3.75,4.62s-2.96,2.31-5,5.14c-3.16,4.4-4.19,5.14-7.11,5.14-4.25,0-5.24-.89-3.38-2.99,1.72-1.96,1.02-8.3-.92-8.3-.72,0-1.59,1.11-1.92,2.48-.82,3.24-12.72,13.97-15.47,13.94-1.89-.01-1.77-.33,1.12-2.83,4.42-3.8,7.53-9.29,7.53-13.34,0-4.69-2.69-4.38-4.04.47-.65,2.36-2.72,5.29-5.45,7.72-5.42,4.82-6.76,4.97-3.95.44,3.35-5.42,2.83-8.37-2.12-11.95-2.39-1.74-5.57-3.1-7.24-3.1s-5.61-.87-8.84-1.92c-6.39-2.09-16.33-2.23-25.42-.3-7.33,1.54-12.72,1.43-18.82-.38-5.3-1.58-7.78-4.4-2.76-3.13,2.9.72,3.35-.54,1.04-2.84-.86-.85-1.56-1.89-1.56-2.31s-.63-1.51-1.4-2.39c-.78-.89-1.77-2.78-2.18-4.2-.74-2.46-.62-2.42,2.75.79,1.94,1.82,3.95,3.33,4.5,3.33s1.59.96,2.31,2.11c.9,1.46,1.94,1.92,3.33,1.47,1.14-.35,2.01-.15,2.01.47s.7,1.09,1.54,1.09c3.9,0-.7-9.25-5.92-11.97-2.91-1.49-3.28-1.49-4.37.02-1.07,1.46-1.34,1.34-2.38-.9-1.46-3.21-.13-3.35,6.16-.65,5.25,2.24,15.11,3.65,19.26,2.74,2.68-.58,2.91-1.02,2.83-4.95-.05-2.44-.72-4.82-1.55-5.45-2.23-1.71-.64-6.44,2.59-7.66,3.67-1.41,5.57-.6,11.33,4.75,6.74,6.24,14.71,9.99,19.38,9.1,4.02-.75,4.23-1.32,2.01-5.62-1.42-2.75-1.41-3.37.12-6.38,2.81-5.52,4.57-6.94,8.55-6.89,2.54.02,4.77.96,7.15,2.98,3.1,2.64,3.53,3.71,4.25,10.17.82,7.6,1.3,8.3,10.89,15.83,2.36,1.87,2.45,2.19.99,3.81-.87.97-1.59,2.09-1.59,2.49s-1.01,2.09-2.24,3.77c-1.22,1.66-1.89,3.38-1.45,3.8,1,1.02,8.77-7.93,8.8-10.16.02-.97,2.11-2.71,4.92-4.1,3.77-1.88,5.15-3.25,6.04-6.01,1.46-4.5,8.52-9.22,13.84-9.25,2.21-.02,5.94,1.22,9.25,3.05,3.06,1.69,6.36,3.08,7.32,3.08,3.39.05,11.44,13.44,10.41,17.35-.77,2.98,1.47,2.86,2.84-.17,1.25-2.76,4.7-5.17,6.13-4.28.54.33.99,2.01.99,3.71s.72,3.81,1.61,4.7c1.52,1.53,1.49,3.58-.18,7.92-.4,1.09-.05,1.64,1.06,1.64,3.48,0,5.54-12.55,2.46-14.83-.84-.62-2.08-2.16-2.76-3.43-.67-1.27-2.07-2.31-3.11-2.31-1.34,0-2.04-1-2.45-3.46-.32-1.91-1.52-5.59-2.71-8.17-1.17-2.59-2.14-5.02-2.14-5.4s4.05-.39,9,.01c17.49,1.39,17.56,1.38,15.85-3.48-1.59-4.55.27-5.77,10.29-6.81,11.28-1.17,19.14-1.04,28.96.45,5.84.89,9.02.93,11.4.15,4.33-1.44,9.75.74,13.07,5.24,1.34,1.81,4.57,5.47,7.2,8.17l4.79,4.88-2.99,2.86c-3.48,3.33-3.88,3.08-7.87-4.79-1.56-3.08-3.18-5.49-3.6-5.34-.42.13-1.96.25-3.45.25-2.41,0-2.61.28-1.97,2.81.38,1.56,1.82,5.27,3.2,8.25,3.05,6.64,3.13,8.47.4,8.47-2.24,0-2.56-.55-3.53-6.43-.39-2.29-1.22-3.85-2.07-3.85-2.54,0-2.66,1.79-.45,7.68,1.19,3.18,1.91,6.47,1.58,7.31-.94,2.44,2.02,2.83,7.06.9,4.73-1.81,13.7-1.62,16.33.33.66.48,3.15,1.49,5.54,2.26,2.41.75,4.39,1.96,4.39,2.68s-2.66,2.04-5.92,2.95c-8.47,2.34-9.04,2.81-8.67,7.04.25,2.81-.14,3.9-1.73,4.76-2.66,1.42-3.6.01-2.71-4.07.95-4.33-1.29-3.93-3.16.59-.84,1.99-2.66,4.15-4.07,4.79-2.88,1.31-4.58.4-2.73-1.46,1.49-1.49,1.62-5.94.17-5.94-.57,0-2.04,2.07-3.28,4.62-1.86,3.83-2.75,4.64-5.11,4.64-2.63,0-2.81-.25-2.24-3.1.35-1.69.18-3.08-.33-3.08s-1.99,1.39-3.25,3.08c-1.79,2.44-3.06,3.1-5.96,3.1-3.09,0-3.56-.29-2.94-1.81,2.84-6.88.85-7.31-3.26-.7-2.38,3.85-4.03,5.15-9.02,7.16-3.37,1.37-6.31,2.29-6.53,2.06-.24-.22.13-2.09.82-4.15.67-2.04.93-4.01.58-4.37-1.12-1.12-3.46,2.14-5.74,7.96-2.94,7.6-4.73,10.19-7.9,11.4-2.51.96-2.56,1.11-.9,2.93,1.67,1.84,1.59,2.26-1.51,7.95-6.07,11.18-8.72,15.58-10.58,17.64-1.3,1.44-1.5,2.26-.69,2.78,1.77,1.09,5.61-3.1,9.76-10.68,3.86-7.03,9.13-15.26,12.53-19.55,1.61-1.99,2.53-2.31,5.16-1.72,4.07.89,4.67,2.51,2.99,8-1.94,6.38-10.59,19.31-12.92,19.31-1.04,0-2.16.67-2.48,1.49-.3.84-2.44,2.86-4.72,4.52-4.3,3.11-9.27,3.68-11.63,1.34-1.69-1.69-2.54-1.51-6.33,1.39Zm4.77-31.54c.52-1.54,2.84-2.39,2.84-1.04,0,.55-.73,1.29-1.62,1.62-1,.38-1.47.15-1.22-.59Zm4.42,48.25c-1.54-2.18-1.51-2.33.54-2.65,2.12-.33,6.12,2.34,6.12,4.1,0,1.88-5.1.75-6.66-1.45Zm71.45,12.6c-1.76,0-1.19-2.64,1.01-4.62,2.31-2.11,2.48-1.79,1.05,1.97-.55,1.46-1.47,2.64-2.06,2.64Zm57.55,12.85c-.7.85-1.44,1.54-1.64,1.54-.18,0-.08-.69.24-1.54.33-.85,1.07-1.54,1.64-1.54.6,0,.5.65-.24,1.54Zm18.49-9.75c1.66-.89,1.91-.81,1.42.48-.33.85-1.24,1.56-2.02,1.56-2.01,0-1.79-.77.6-2.04Zm4.45,12.2c-2.54,1.31-5.8,1.54-5.29.39.74-1.67,14.26-13.92,14.79-13.4.3.32-.17,1.29-1.04,2.16s-1.59,2.46-1.59,3.53c0,2.08-3.13,5.41-6.88,7.33Zm9.74,5.42c-.25.77-1.29,1.56-2.29,1.74-1.17.24-1.67-.13-1.37-1.02.25-.77,1.29-1.54,2.29-1.74,1.17-.24,1.66.13,1.38,1.02Zm46.4-6.74c-2.75,1.52-6.09,1.89-6.09.67,0-1.57,4.3-3.41,6.41-2.75,2.14.69,2.14.72-.32,2.08Zm23.84,6.14c-.5-.3-1.49.14-2.18.97-.7.85-2,1.54-2.91,1.54-1.44,0-1.46-.18-.14-1.44,2.11-2,6.13-3.09,6.13-1.65,0,.63-.4.9-.9.58Zm102.18-4.31c-.84.32-1.54.13-1.54-.4s.7-1.01,1.54-1.01,1.54.18,1.54.4c0,.24-.69.67-1.54,1.01Zm10.29-3.65c-2.06.94-2.57.89-2.57-.24,0-.77,1.15-1.61,2.57-1.89,1.41-.27,2.56-.17,2.56.24s-1.16,1.26-2.56,1.89Zm158.32-7.01c.35-.57,1.42-1.02,2.38-1,1.5.02,1.54.15.2,1-2.01,1.31-3.38,1.31-2.58,0Zm1,18.56c-.33.55-2.52,1.92-4.85,3.05-4.15,2.01-6.55,2.31-10.38,1.32-1.44-.37-1.73-1.09-1.22-3.1.57-2.26.37-2.54-1.46-2.06-1.77.45-2.11.06-2.11-2.45s.42-2.98,2.61-2.98c1.88,0,3.18.99,4.72,3.6,1.17,1.97,2.54,3.6,3.04,3.6,1.26,0,1.19-1.79-.12-2.6-1.54-.95-.17-2.56,2.19-2.56,2.9,0,8.3,2.98,7.56,4.16Zm-.48-5.27c0-.52-.69-.94-1.54-.94s-1.54-.47-1.54-1.04c0-1.64,2.36-1.14,5.02,1.09,1.36,1.12,2.3,2.18,2.06,2.34-.82.62-4-.54-4-1.46Zm11.83-26.22c1.89.47,2.56.23,2.56-.92,0-1.02.99-1.56,2.83-1.54,6.37.03,7.03,3.65,1.2,6.55-3.9,1.96-5.06,2.07-5.06.52,0-.7-.99-.89-2.53-.5-1.89.47-2.81.12-3.65-1.46-1.36-2.51.63-3.65,4.64-2.64Zm-5.94,24.33c-1.64-1.65-1.65-1.97-.23-3.16.87-.74,1.89-1.02,2.26-.67.35.37,0,.69-.81.74-.8.03-.37.48.96,1.02,1.31.54,2.21,1.51,1.99,2.19-.65,1.92-2.19,1.87-4.17-.12Zm12.2,3.4c-3.88,1.84-5.76,2.11-5.76.79,0-1.57,3.73-4.27,5.94-4.27,3.62,0,3.51,1.72-.18,3.48Zm9.07-14.87c-1.19-.05-1.44-.29-.62-.62.73-.28,1.62-.25,1.97.09.34.33-.27.58-1.35.54Zm-7.7-1.89c-2.81,3.05-4.5,4.04-6.96,4.04-1.79,0-3.25-.44-3.25-.96,0-1.27,4.75-4.95,7.53-5.82,1.22-.4,3.88-1.81,5.91-3.17,3.55-2.34,3.85-2.37,7.57-.82,2.44,1.02,4.3,1.25,5.05.65,1.51-1.19,7.88-2.12,7.88-1.14,0,.4-1.22,1.52-2.69,2.49-2.33,1.52-3.28,1.59-7.16.5-5.95-1.67-9.4-.62-13.87,4.22Zm21.02,3.98c-5.27,2.34-6.41,2.49-8.5,1.17-2.59-1.64-.45-4.2,3.51-4.2,2.03,0,5.06-.7,6.71-1.57,2.88-1.49,3.05-1.46,3.05.47,0,1.42-1.42,2.66-4.77,4.13Zm12.99-4.75c-4.57-1.99-4.87-2.31-3.15-3.38,1.57-.97,7.77-.29,10.61,1.17.99.5,1.79,1.59,1.79,2.42,0,1.96-4.49,1.84-9.25-.21Z"/>
      <path class="cls-1" d="m188.52,37.79c-.92-.57-10.43,12.94-10.43,14.81,0,2.48,2.39.6,6.7-5.24,4.57-6.22,5.47-8.5,3.73-9.57Z"/>
      <path class="cls-1" d="m283.38,26.9c1.09-1.07-1.92-8.54-4.2-10.43-2.83-2.34-2.71.35.23,5.8,1.86,3.43,3.38,5.2,3.97,4.62Z"/>
      <path class="cls-1" d="m225.4,46.97c-.92.55-.48,4.8.7,6.91.82,1.47,4.43-1.79,4.43-4.01s-3.18-4.12-5.14-2.9Z"/>
      <path class="cls-1" d="m221.28,28.86c0,.54,1.12,2.33,2.51,3.95,1.37,1.64,2.83,4.34,3.21,5.99.4,1.66.92,3.36,1.16,3.8.89,1.56,2.36.69,2.96-1.76.65-2.57-2.78-10.88-5.41-13.05-1.46-1.21-4.43-.49-4.43,1.07Z"/>
      <path class="cls-1" d="m581.61,135.89c3.33,0,4.95-7.92,2.11-10.26-1.77-1.49-2.06-.93-3.01,5.89-.49,3.45-.3,4.37.9,4.37Z"/>
      <path class="cls-1" d="m582.59,113.02c.55-3.1.39-3.85-.9-3.85-.96,0-1.59.92-1.59,2.31-.02,1.27-.45,2.98-.97,3.81-.52.82-.72,1.86-.43,2.31.63,1.04,2.18,1.05,2.76.05.24-.43.75-2.51,1.14-4.64Z"/>
      <path class="cls-1" d="m572.97,129.38c.54,1.41,1.56,2.38,2.26,2.14,2.16-.72,2.09-3.92-.13-6.29-1.99-2.11-2.03-2.54-.67-7.08.89-2.91,1.07-5.05.48-5.42-1.79-1.11-3.03.63-3.03,4.3,0,2.14-.89,4.75-2.16,6.36l-2.16,2.75,2.21.33c1.24.18,2.66,1.47,3.2,2.91Z"/>
      <path class="cls-1" d="m572.9,106.66c0-1.57-3.43-4.04-7.19-5.17-2.23-.67-2.04-.27,1.56,3.21,4.1,3.98,5.64,4.52,5.64,1.96Z"/>
      <path class="cls-1" d="m599.18,88.55c1.42-1.17,18.01.47,20.94,2.08.9.5,3.18,2.56,5.07,4.58,1.88,2.02,4.4,3.66,5.62,3.66,2.04,0,1.97-.2-.85-2.88-1.69-1.57-4.57-4.58-6.43-6.67-1.86-2.09-3.93-3.83-4.64-3.87-.69-.01-4.96-.5-9.47-1.05-4.54-.55-16.78-1.47-27.26-2.02-10.46-.57-21.62-1.29-24.82-1.61-5.6-.55-5.97-.44-10.05,3.26l-4.25,3.83-8.75-2.31c-9.15-2.41-10.41-2.39-20.49.43-7.01,1.96-12.23,1.66-19.24-1.1l-4.85-1.89-7.48,3.97c-8.67,4.6-10.92,6.74-8.52,8.08,1.79,1,5.64.06,5.64-1.38,0-1.91,1.84-.9,2.43,1.34.59,2.22.74,2.18,4.53-1.54,4.28-4.2,7.6-4.85,11.33-2.24,1.71,1.2,2.13,2.24,1.66,4.12-.37,1.44-.18,2.51.43,2.51,2.63,0,4.3-1.44,4.3-3.71,0-2.06.52-2.46,3.16-2.46,1.76,0,6.96-.97,11.58-2.14,7.31-1.88,9.09-2.01,13.85-.94,3.68.82,5.69,1.84,6.17,3.14.4,1.07,2.96,3.36,5.71,5.11,2.73,1.72,5.22,4.07,5.51,5.19.42,1.62.82,1.79,1.99.82,1.24-1.02.79-1.92-2.79-5.57l-4.28-4.37,3.97-3.75c5.09-4.79,6.76-5.15,15.46-3.35,4.72.97,10.51,1.31,17,.97,7.78-.4,10.53-.17,13.19,1.16,2.38,1.19,3.73,1.37,4.64.6Z"/>
      <path class="cls-1" d="m591.01,133.42c-.87,2.26-.77,7.13.15,8.05.94.93,3.23-4.19,3.3-7.36.05-2.66-2.49-3.16-3.45-.69Z"/>
      <path class="cls-1" d="m712.79,138.57c1.12,2.96,4.07,3.29,4.07.45,0-3.14-3.71-5.86-10.29-7.51-7.42-1.87-11-1.3-14.6,2.3-2.02,2.02-2.68,3.59-2.42,5.77.18,1.66.4,3.13.47,3.26.66,1.44,2.63-.63,4.27-4.49l2.04-4.75,6.93.74c8.05.87,8.29.97,9.54,4.23Z"/>
      <path class="cls-1" d="m592.33,114.82c-.35,2.16-1.44,4.52-2.42,5.24-.97.72-1.47,1.8-1.09,2.41.37.62,1.12.85,1.66.52,1.57-.97,5.06-8.42,5.06-10.77,0-3.68-2.51-1.64-3.2,2.61Z"/>
      <path class="cls-1" d="m553.39,92.72c-3.1-1.66-2.71,1.11.6,4.18,1.46,1.38,3.33,3.77,4.13,5.33,1.49,2.87,4.15,4.03,3.13,1.37-1.32-3.45-5.96-9.86-7.87-10.88Z"/>
      <path class="cls-1" d="m526.72,122.02c-1.07,0-1.51,1.34-1.57,4.7-.05,2.6-.87,5.89-1.81,7.35-.96,1.44-1.44,2.91-1.07,3.28,1.17,1.17,2.61.05,4.57-3.56,2.28-4.2,2.19-11.76-.12-11.76Z"/>
      <path class="cls-1" d="m499.54,66.63c13.57-1.83,16.39-1.79,24.02.22,9.22,2.44,14.06,2.61,29.4,1,9.62-1,12.12-1.62,14.41-3.6,1.54-1.3,3.18-2.37,3.65-2.37s.87-.92.87-2.04c0-2.64-6.06-5.35-12.43-5.56-3.73-.1-5.52-.84-8.52-3.46-7.43-6.53-11.19-7.77-25.97-8.57-11.75-.62-14.24-1.09-19.03-3.47-3.03-1.52-7.01-4.2-8.85-5.98l-3.35-3.23-6.43,1.41c-10.83,2.34-14.38,2.64-21.84,1.91-21.4-2.13-32.06.92-33.99,9.69-.67,3.05-.72,3.06-5.94,2.37-2.9-.38-7.23-1.22-9.62-1.87-3.65-.97-4.97-.87-8.02.59-6.85,3.26-11.37,3.36-15.93.33-5.02-3.32-10.16-3.5-17.87-.6-6.31,2.36-8.18,4.05-7.23,6.56,1.44,3.73,9.87,6.06,23.03,6.33,10.39.2,26.54,2.01,30.34,3.4,4.52,1.64,20.58,4.25,26.22,4.25,2.68,0,6.52-.7,8.53-1.54,4.01-1.68,10.62-1.29,17.67,1.02,6.58,2.18,21.44,3.95,26.87,3.21Zm-115.03-16.72c-2.41.35-5.76.89-7.46,1.19-3.43.6-5.92-.52-4.82-2.19,1.92-2.93,13.1-4.57,15.41-2.26,2.01,2.03,1.47,2.57-3.13,3.26Zm138.54,10.92c-.35.57-1.58,1.04-2.69,1.04s-1.77-.47-1.42-1.04c.35-.57,1.56-1.02,2.69-1.02s1.76.45,1.42,1.02Zm-116.71-6.91c-9.22-.39-11.6-1-9.15-2.38,2.22-1.24,19.61.03,19.14,1.41-.43,1.34-.6,1.35-9.99.97Zm14.68-3.73c1.17-1.61,1.66-1.64,4.76-.33,1.91.78,3.04,1.69,2.54,2.01-.5.3-2.64.89-4.75,1.28-4.07.75-4.72,0-2.54-2.96Zm12.63,7.08c-2.19,1.66-3.18,1.76-6.17.59-1.86-.72-1.82-.84.52-1.46,1.37-.37,3.67-.67,5.09-.65,2.48.02,2.49.07.57,1.52Zm7.95-3.18c-1.46.55-1.57.44-.57-.59.69-.7,1.52-1,1.84-.69.32.3-.25.89-1.27,1.27Zm4.27,4.6c-.32-.52.6-.93,2.06-.93s2.63.17,2.63.38c0,.92-4.15,1.39-4.69.55Zm47.29,3.97c-1.11-1.11.59-2.84,2.73-2.84,2.9,0,9.15-2.78,9.15-4.07,0-1.83-4.22-1.22-13.87,1.97-9.47,3.13-15.28,3.81-17.95,2.13-2.08-1.31-1.02-2.09,3.7-2.71,7.21-.99,8.6-1.46,8.6-2.99,0-1.99-1.16-1.92-10.02.54-4.08,1.12-10.27,2.04-13.74,2.04-5.49,0-6.14-.18-5.02-1.54.7-.84,1.76-1.54,2.36-1.54s3.31-1.01,6.04-2.24c3.3-1.49,4.95-2.86,4.95-4.1,0-2.06-1.09-2.42-2.63-.89-1.72,1.73-16.06,8.37-17.22,7.98-.62-.2.37-1.69,2.18-3.29,3.41-3.05,4.3-5.67,1.91-5.67-.77,0-2.23.92-3.25,2.04-2.21,2.45-3.48,2.6-5.04.59-.99-1.29-1.68-1.29-5.26-.02-3.78,1.36-7.69,1.94-7.69,1.17,0-.17.95-2.3,2.11-4.72,1.65-3.4,3.2-4.85,6.91-6.51,4.4-1.94,6.07-2.06,20.77-1.49,12.6.5,16.81.32,20.06-.85,5.89-2.14,8.07-1.91,13.07,1.39,8,5.27,16.16,7.61,26.34,7.51,10.96-.1,17.65,2,24.6,7.76,7.63,6.33,9.81,7.5,13.89,7.5,3.65.02,5.32,1.68,2.56,2.54-.71.22-5.04.69-9.63,1.05-7.85.6-8.38.52-8.9-1.47-.48-1.81-1.37-2.11-6.31-2.11-4.22,0-5.76-.39-5.76-1.42,0-2.14-3.58-2.66-10.49-1.56-5.2.84-6.51.74-8.02-.64-1.66-1.5-2.09-1.44-5.32.75-4.07,2.76-14.87,6.64-15.81,5.71Z"/>
      <path class="cls-1" d="m355.21,105.63c5.81,5.49,7.96,6.7,7.96,4.45,0-2.52-14.09-16.35-16.65-16.35-.47,0-.84.67-.84,1.49,0,2.37-1.87,2.88-4.33,1.14-1.26-.87-2.88-1.59-3.6-1.59-2.06,0-1.54,2.9.74,4.1,1.14.62,2.06,1.57,2.06,2.12,0,2.03-3.36,2.28-6.37.51-4.34-2.58-5.99-.6-2.34,2.79,1.77,1.64,2.36,2.81,1.62,3.26-2.26,1.41-1.12,2.79,1.79,2.16,2.09-.47,3.61-.07,5.39,1.42,1.37,1.14,2.99,2.07,3.59,2.11,2.49.06,2.38-1.52-.23-3.6-1.84-1.47-2.54-2.79-2.11-3.92,1.09-2.83,4.19-1.96,8.39,2.36,6.34,6.49,7.53,2.89,1.25-3.8-5.22-5.56-2.61-4.6,3.68,1.34Z"/>
      <path class="cls-1" d="m487.39,106.87c-.74.75-.58,1.97.51,4,.87,1.61,1.84,3.75,2.16,4.79.7,2.19,2.66,1.34,2.66-1.15,0-2.96-4.1-8.84-5.32-7.63Z"/>
      <path class="cls-1" d="m626.37,115.53c0,2.29,4.05.32,7.95-3.88,4.55-4.87,5.11-6.04,3.38-7.09-1.37-.86-5.15,1.29-5.15,2.91,0,.74-1.39,2.64-3.08,4.27-1.7,1.64-3.09,3.35-3.09,3.8Z"/>
      <path class="cls-1" d="m538.16,126.22c-.81,5.27-3.51,10.39-6.37,12.08-1.71,1.01-3.08,2.26-3.08,2.8,0,1.42.9,1.2,4.57-1.05,3.7-2.29,9.16-12.27,8.15-14.91-.82-2.14-2.88-1.46-3.26,1.09Z"/>
      <path class="cls-1" d="m545.16,124.5c0,.52-.3,1.72-.67,2.68-.5,1.3-.18,1.64,1.29,1.35,2.43-.45,3.33-4.97.99-4.97-.89,0-1.61.42-1.61.94Z"/>
      <path class="cls-1" d="m709.91,95.06c-8.5-5.46-21.44-7-28.53-3.38-2.21,1.14-4.15,2.06-4.3,2.06s0-1.32.32-2.93c.59-2.91.5-2.94-9.57-6.16-5.57-1.79-10.93-3.25-11.87-3.25-2.03,0-9.02,6.9-9.02,8.9,0,1.71.35,1.73-9.51-.27-5.81-1.19-8.49-1.34-9.25-.55-.79.77-.29,1.4,1.74,2.18,1.56.58,3.7,2.11,4.77,3.38l1.94,2.29.66-2.31c.78-2.81,1.02-2.83,5.65-.33,2.03,1.09,5.72,2.49,8.22,3.13,6.07,1.56,10.17,3.21,10.17,4.1,0,.4-1.54,2.51-3.41,4.69-2.49,2.88-3.9,3.77-5.24,3.25-1.27-.48-1.61-1.25-1.09-2.49.42-.99.99-2.9,1.29-4.24.75-3.56-1.77-2.36-4.2,1.97-1.07,1.93-3.1,4.49-4.5,5.69-1.41,1.2-3.1,3.28-3.77,4.62-1.32,2.66-6.22,4.16-9.45,2.91-1.11-.43-3.63-.82-5.61-.87-6.24-.15-6.93-1.39-3.28-5.81,2.44-2.96,2.94-4.22,2.07-5.26-.85-1.04-1.47-1.09-2.56-.17-.79.65-1.17,1.44-.87,1.74,1.02,1.02-7.06,8.4-9.2,8.4-1.74,0-2.09-.65-2.09-3.85,0-2.75-.45-3.86-1.56-3.86-.95,0-1.45.84-1.3,2.19.23,2.43-1.77,4.54-6.39,6.68-3.97,1.84-4.3,4.53-1.34,10.79,2.36,4.99,2.41,5.02,7.81,5.33,4.76.28,5.37.55,4.84,2.21-.48,1.57.24,2.08,4.34,2.96,9.62,2.11,12.75,2.37,14.21,1.17,1.11-.92,2.08-.75,4.3.7,6.7,4.43,6.81,4.45,9.14,1.59l2.16-2.64,6.85,2.24c7.63,2.51,8.87,2.69,8.87,1.31,0-.52-1.57-1.47-3.51-2.11-5.46-1.81-6.44-3.68-2.65-5.02,2.84-.99,3.26-.85,4.24,1.27.6,1.32,2.89,3.18,5.12,4.17,2.21.97,4.84,2.87,5.82,4.23,1.71,2.36,5.37,3.46,5.37,1.62,0-.48-.97-2.12-2.16-3.63l-2.17-2.76,2.94.7c3.75.89,5.5,2.29,5.54,4.4.03,1.44.24,1.41,1.47-.24,2.11-2.76,1.04-4.3-4.65-6.66-2.8-1.17-5.07-2.61-5.07-3.2s.33-1.09.77-1.07c.85.01,6.79,3.56,10.98,6.54,2.88,2.07,4.3,1.72,3.33-.82-.74-1.91-8.18-6.78-13.02-8.52-7.8-2.81-20.9-.42-28.8,5.26l-5.26,3.77-3.11-2.61c-3.51-2.96-3.3-2.91-11.96-3.03-4.15-.05-6.76-.57-7.31-1.44-1.57-2.54-6.46-4.37-9.97-3.7-3.16.59-3.5.37-4.99-3.2-.89-2.11-1.61-4.19-1.61-4.62,0-.92,8.1-3.08,11.61-3.08,1.35,0,4.05.81,5.97,1.77,2.08,1.07,6.63,1.94,11.26,2.16,7.01.35,8.07.13,10.8-2.11,1.67-1.37,3.86-2.81,4.88-3.18,1.04-.37,1.59-1.14,1.26-1.69-1.35-2.19,4.59-2.29,8.25-.15,5.02,2.98,6.78,2.76,11.88-1.52,4.25-3.53,4.65-3.67,10.13-3,3.13.37,7.04,1.34,8.68,2.14,4.65,2.28,8.53,1.86,10.47-1.11,1.88-2.84,5.64-3.41,7.53-1.14,2.98,3.58,10.16,2.27,11.85-2.16.97-2.53-.03-2.73-3.47-.7-2.76,1.64-3.33,1.69-4.57.37-1.72-1.84-2.91-8.97-1.64-9.76,1.57-.97,5.35,3.63,4.77,5.83-.39,1.49-.06,1.94,1.19,1.67,1.19-.23,1.64-1.2,1.44-3.06-.15-1.49.18-3.01.77-3.37,1.88-1.17,1.16-2.19-3.83-5.39Zm-45.45,39.49c2.78-.72,4.07-.13,4.07,1.86,0,2.31-1.44,2.53-4.02.59l-2.41-1.82,2.36-.62Zm24.7-24.29c-1.07-1.07-3.03-2.11-4.35-2.3-1.67-.23-2.41-1.02-2.42-2.59-.05-3.45-.92-3.65-3.56-.82-2.78,2.94-5.65,3.31-7.01.87-1.3-2.31-2.64-1.21-5.22,4.25-1.71,3.63-2.71,4.64-4.68,4.64-3.36,0-4.15-1.59-1.62-3.36,1.31-.92,2.16-2.83,2.33-5.26.22-2.98.78-3.93,2.61-4.4,2.33-.59,4.35-3.18,4.35-5.57,0-.84-.66-.69-1.89.44-2.46,2.24-5.07,2.15-11.95-.42-6.32-2.38-7.28-4.64-3.7-8.92,2.48-2.98,8.38-3.1,13.94-.27,2.21,1.14,4.52,2.06,5.1,2.08.59.02,1.73.43,2.54.95,1.24.79,1.05,1.31-1.02,3.05-1.39,1.14-1.91,2.09-1.17,2.12.74.02,1.81,1.41,2.39,3.1.96,2.75,1.32,2.95,3.28,1.89,1.2-.64,2.84-1.83,3.65-2.63,1.83-1.83,5.98-.9,9.12,2.04,2.42,2.26,3.05,5.34,1.29,6.43-1.84,1.14-1.09,2.83,1.02,2.27,1.51-.4,2.06-.03,2.06,1.31,0,2.72-2.83,3.35-5.07,1.11Zm7.13-4.17c-.57,0-1.02-.47-1.02-1.04s.45-1.02,1.02-1.02,1.04.45,1.04,1.02-.47,1.04-1.04,1.04Zm5.19-9.25c-3.28,0-3.36.08-1.74,1.87.93,1.04,1.69,2.43,1.69,3.08,0,2.21-1.91,1.26-3.75-1.88-1-1.69-2.31-3.03-2.89-2.96-2.58.28-3.63-.24-3.63-1.79,0-1.42.85-1.56,5.91-.94,6.74.82,9.77,2.61,4.42,2.61Z"/>
      <path class="cls-1" d="m512.83,129.5c-.22,3.88.08,5.37,1.04,5.37,2.19,0,2.75-1.93,2.03-6.83-.92-6.11-2.71-5.27-3.06,1.46Z"/>
      <path class="cls-1" d="m505.53,126.07c-.82,1.11-1.51,3.29-1.51,4.89s.42,2.87.92,2.87c1.29,0,2.18-2.68,2.12-6.51-.03-3.08-.1-3.14-1.54-1.26Z"/>
      <path class="cls-1" d="m368.17,107.09c.64,1.71,1.67,4.49,2.31,6.19,1.34,3.56,3.53,4.23,2.54.77-.37-1.27-.92-3.48-1.22-4.88-.92-4.13-5.94-10.76-8.44-11.13-3.03-.44-2.84.48.69,3.47,1.62,1.35,3.48,3.88,4.12,5.59Z"/>
      <path class="cls-1" d="m707.6,144.58c0,.32.45.57.99.57,1.51,0,3.32-3.86,2.16-4.58-.85-.54-3.14,2.39-3.14,4.01Z"/>
      <path class="cls-1" d="m740.5,100.95c-.85.55-2.74.99-4.22,1-1.47,0-4.15.54-5.96,1.16-3.01,1.05-3.24,1.44-2.61,4.38.39,1.76,1.11,3.73,1.61,4.37,1.52,1.89,10.02,2.52,16.97,1.24,6.33-1.17,6.63-1.12,10.38,1.54,5.3,3.78,11.31,3.7,18.79-.22,7.5-3.92,10.98-4.55,18.16-3.31,3.31.58,9.27,1.35,13.27,1.72,7.13.65,7.3.62,9.14-2.19,1.88-2.84,1.86-2.89-.78-5.17-4.49-3.85-13.84-6.84-22.67-7.24-6.83-.32-8.55-.79-11.18-2.98-1.69-1.44-4.42-3.3-6.04-4.13-2.59-1.34-2.96-2.11-2.96-6.06,0-6.46-3.17-8.79-11.9-8.79s-11.41,1.11-12.75,6.06c-1.32,4.89-3.47,5.84-9.27,4.1-7.93-2.38-7.95,2.34-.03,10.02,3.01,2.93,3.36,3.7,2.07,4.5Zm.94-5.68l-4.27-5.14,5.49-.32c6.34-.37,7.75-1.24,8.65-5.42.37-1.65,1.52-3.48,2.57-4.03,2.43-1.31,9.36-1.31,12.77-.02,2.21.84,2.63,1.66,2.63,5.04,0,4.25.57,4.9,10.69,12.53,3.32,2.51,4.97,3.01,9.81,3.01,5.19,0,14.76,2.54,19.88,5.29,3.1,1.66,1,2.78-3.33,1.81-4.62-1.04-7.08-1.17-19.71-1.07-8.18.07-8.92-.09-9.44-2.07-.4-1.49-1.09-1.96-2.26-1.51-.92.35-2.83.65-4.22.65-1.82,0-2.44.49-2.22,1.76.18,1.15-.96,2.37-3.3,3.55-3.56,1.77-7.2,2.42-7.2,1.3,0-.32,1.41-1.77,3.15-3.23,3.9-3.29,2.64-5-2.19-2.99-1.94.79-6.94,1.97-11.13,2.61-4.18.65-8.03,1.44-8.55,1.76-1.12.69-6.98-1.59-6.98-2.71,0-.92,3.68-2.01,6.83-2.04,1.2,0,3.18-.82,4.39-1.8l2.21-1.79-4.27-5.16Z"/>
      <path class="cls-1" d="m374,132.75c2.58-5,1.42-7.35-1.34-2.69-1.26,2.16-2.29,4.35-2.29,4.87,0,2.08,2.07.82,3.63-2.17Z"/>
      <path class="cls-1" d="m378.31,112.96c.44-5.32.18-6.82-1.3-8.32-2.54-2.54-3.73-.25-2.56,4.92,1.04,4.61.57,9.52-1.09,11.53-.94,1.12-.85,1.44.35,1.44,2.68,0,4.07-2.88,4.6-9.57Z"/>
      <path class="cls-1" d="m717.89,142.27c0,.4,1.2,1.55,2.71,2.58,1.49,1.02,4.07,3.13,5.74,4.69,1.67,1.57,3.92,3.31,5,3.9,1.07.57,1.96,1.72,1.96,2.56,0,1.99,1.67,1.93,2.46-.12.82-2.16-.72-4.85-3.71-6.46-1.34-.72-2.99-2.19-3.68-3.29-1.04-1.66-.97-1.99.4-1.99.9,0,1.89.92,2.18,2.06.67,2.53,3.4,2.73,3.36.25-.05-2.83-2.54-5.39-5.22-5.41-2.39,0-2.37-.06.62-2.04,3.66-2.43,7.58-2.65,10.34-.55,2.44,1.84,3.53,1.96,3.53.37,0-4.79-8.02-6.4-14.39-2.88-1.97,1.09-5.32,2.79-7.43,3.8-2.13,1.01-3.85,2.16-3.86,2.54Zm7.13-.2c.6,0,1.09.47,1.09,1.02s-.2,1.04-.45,1.04-.74-.47-1.09-1.04c-.35-.55-.15-1.02.45-1.02Z"/>
    </g>
  </g>
</svg>