<?xml version="1.0" encoding="UTF-8"?>
<svg id="Layer_2" data-name="Layer 2" xmlns="http://www.w3.org/2000/svg" viewBox="0 0 891.3 444.35">
  <defs>
    <style>
      .cls-1 {
        stroke-width: 0px;
      }
    </style>
  </defs>
  <g id="Layer_1-2" data-name="Layer 1">
    <g>
      <path class="cls-1" d="m204.12,118.82c.55-.34,1.66-.36,2.48-.04,1.77.7,8.83,12.42,11.39,18.91,1.02,2.57,2.54,4.66,3.38,4.66,2.34,0,1.89-1.82-2.86-11.64-6.54-13.51-12.44-16.84-18.89-10.67-3.88,3.72-4.07,1.49-.41-4.58,1.84-3.04,2.32-4.79,1.55-5.7-2.39-2.9-10.99,3.22-16.44,11.67-3.57,5.54-4.29,13.51-1.54,17.14,1.75,2.31,2,1.79,1.72-3.52-.18-3.42,3.27-11.66,5.43-13.01,1.4-.86,1.4,1.89-.02,7.99-1.34,5.81-.39,10.14,2.22,10.14,1.64,0,1.86-.75,1.43-4.69-.5-4.59,1.04-10.71,2.68-10.69.47,0,2.23,2.97,3.92,6.6,3.48,7.49,5.81,8.72,4.8,2.55l-.64-4,3.25,3.11c2.75,2.65,3.25,2.82,3.25,1.11,0-1.11-1.73-4.13-3.84-6.7-3.83-4.66-4.75-7.47-2.86-8.65Z"/>
      <path class="cls-1" d="m227.32,145.74c1.2,2.21,3.25,2.89,3.25,1.03,0-2.61-2.5-17.43-3.57-21.22-.66-2.3-2.07-4.64-3.15-5.22-2.63-1.41-3.84.77-1.73,3.14,1.77,2.02,4.08,11.51,4.08,16.82,0,1.83.5,4.26,1.13,5.44Z"/>
      <path class="cls-1" d="m526.44,345.55c-1.66,0-1.91,2.21-.84,7.54.82,4.16,1.25,4.27,2.63.61,1.32-3.45.29-8.15-1.79-8.15Z"/>
      <path class="cls-1" d="m189.39,245.61c.38.61.91,1.09,1.18,1.09.25,0,.48-.48.48-1.09s-.54-1.11-1.16-1.11-.86.5-.5,1.11Z"/>
      <path class="cls-1" d="m202.03,241.41c0,.7.82,2.18,1.82,3.29,3.24,3.57,4.9,1.96,2.54-2.47-1.25-2.31-4.36-2.92-4.36-.82Z"/>
      <path class="cls-1" d="m270.88,167.9c4.66-5.07,19.97-33.73,18.7-35-.64-.65-7.31,10.44-12.64,21-3.35,6.61-6.53,10.17-13.16,14.73-1.97,1.34-3.29,2.92-2.95,3.47,1.49,2.42,5.51.73,10.05-4.2Z"/>
      <path class="cls-1" d="m169.92,233.53c-1.61,0-1.84.57-1.25,3.02.39,1.67,1.39,4.38,2.23,6.04,3.11,6.16,5.29,2.63,2.72-4.4-1.16-3.13-2.38-4.67-3.7-4.67Z"/>
      <path class="cls-1" d="m329.85,136.25c2.22-5.79-.75-17-3.72-14.07-.93.91-.82,2.25.43,5.27.98,2.34,1.41,5.38,1.03,7.28-.68,3.41,1.08,4.59,2.25,1.52Z"/>
      <path class="cls-1" d="m271.6,194.65c4.11-7.29,5.78-9.31,8.15-9.78,3.51-.71,13.41-9.72,15.91-14.5,3.34-6.34,6.27-15.44,7.44-23.06.66-4.23,1.95-9.92,2.88-12.63,1.75-5.12,1.45-16.62-.65-23.62-1.27-4.25-1.41-3.16-1.18,8.81.13,6.97-.36,11.37-1.66,14.84-1.02,2.7-2.21,7.88-2.68,11.51-1.86,14.42-10.67,29.6-19.98,34.39-3.77,1.94-5.5,3.75-7.33,7.68-1.3,2.83-4.34,7.85-6.74,11.17-2.4,3.32-4.37,6.75-4.38,7.61-.07,3.04,5-3.13,10.22-12.44Z"/>
      <path class="cls-1" d="m316.2,124.29c-.57.34-1.05,3.83-1.05,7.71,0,5.56.36,7.08,1.66,7.08.89,0,1.7-.86,1.77-1.91.05-1.08.3-3.58.54-5.58.46-4-1.27-8.33-2.92-7.29Z"/>
      <path class="cls-1" d="m313.53,98.44c-2.05,0-2.15,3.24-.39,12.78.71,3.84,1.66,6.99,2.13,6.99,1.7,0,2.45-2.72,2.31-8.26-.18-6.91-1.81-11.51-4.04-11.51Z"/>
      <path class="cls-1" d="m524.59,416.25c1.18,1.18,1.52.91,10.3-8.12,9.55-9.81,14.12-17.07,16.96-26.88,2.25-7.84,2.74-21.59.75-22.25-.73-.25-1.32-1.14-1.32-2s-.81-1.56-1.78-1.56c-1.52,0-1.68.86-1.04,5.76,2.34,17.87-2.16,29.67-17.95,47.08-3.63,4-6.29,7.6-5.92,7.97Z"/>
      <path class="cls-1" d="m510.56,235.2c-1.16.36-2.11,1.13-2.11,1.68,0,3.34,7.85-2.85,9.9-7.81,1.2-2.88,1.14-3.63-.31-5.1-2.12-2.11-4.48-.82-3.73,2.05.82,3.15-1.34,8.4-3.75,9.17Z"/>
      <path class="cls-1" d="m514.5,427.92c-3.72,0-7.17,1.82-7.17,3.81,0,1.29.77,1.32,4.59.22,5.34-1.56,6.94-4.02,2.58-4.02Z"/>
      <path class="cls-1" d="m557.57,366.73c-.41,5.36.04,6.1,2.27,3.86,1.65-1.64,1.73-8.19.14-9.17-1.7-1.05-1.98-.43-2.41,5.31Z"/>
      <path class="cls-1" d="m530.72,336.09c-.39.38.3,2.54,1.52,4.79,1.22,2.27,3.13,8.21,4.22,13.19,1.98,8.99,1.98,9.21-.38,20.95-3.47,17.25-8.2,24.79-23.24,37.06-1.52,1.23-4.7,4.31-7.1,6.85-2.38,2.52-3.93,4.59-3.43,4.59.79,0,11.32-7.24,12.71-8.76.31-.32,2.54-2.06,4.95-3.86,6.78-5.06,13.39-12.44,15.86-17.68,2.15-4.54,5.99-19.48,7.76-30.09.93-5.56-.11-9.28-5.56-19.73-3.36-6.49-5.76-8.87-7.31-7.31Z"/>
      <path class="cls-1" d="m522.16,424.34c3.7-2.39,5.84-5.22,3.95-5.22-4.24,0-11.01,5.2-9.17,7.04.95.93,1.04.91,5.22-1.83Z"/>
      <path class="cls-1" d="m522.17,140.5c-.91,1.3-1.65,2.74-1.65,3.22s.88.84,1.95.84c2.8,0,5.74-5.6,5.74-10.96,0-5.77-2.32-5.49-3.54.43-.48,2.27-1.61,5.18-2.5,6.47Z"/>
      <path class="cls-1" d="m523.55,111.42c-1.95-1.4-4.43-3.42-5.52-4.51-1.09-1.07-2.48-1.64-3.13-1.27-1.68,1.05-.11,5.97,2.61,8.17,2.22,1.79,2.27,2.27,1.04,7.63-1.43,6.17-1.77,16.8-.59,17.98,1.18,1.18,2.56.86,2.7-.63.07-.77.3-3.77.5-6.7.41-5.95,2.15-12.12,4.42-15.75,1.4-2.22,1.23-2.61-2.02-4.93Z"/>
      <path class="cls-1" d="m563.89,347.09c3.79,2.48,4.45,1.72,2.25-2.54-1.89-3.68-4.32-4.4-5.83-1.7-.79,1.41-1.63,1.05-5.08-2.2-4.16-3.91-8.37-5.13-8.37-2.43,0,.82,2.47,3.41,5.49,5.77,3.01,2.36,5.77,5.41,6.15,6.77,1.36,4.9,3.31,2.36,2.66-3.48-.22-2.06-.12-2.06,2.72-.2Z"/>
      <path class="cls-1" d="m489.96,382.89c.7-5.33-1.81-3.76-5.65,3.56-2.13,4.06-5.72,9.58-7.99,12.28-6.34,7.52-21.23,16.85-32.37,20.3-5.22,1.59-9.63,3.4-9.85,3.99-.2.59.77,1.65,2.13,2.34,1.35.71,4.2,1.07,6.31.82,2.13-.25,7.56-.88,12.09-1.4,12.66-1.41,29.9-11.01,44.74-24.87,10.42-9.74,18.24-24.72,12.89-24.72-.93,0-1.95.86-2.27,1.91-4.27,13.96-19.4,28.46-41.79,40.13-6.02,3.13-9.08,4.05-13.17,4.02l-5.33-.07,5.49-2.56c15.57-7.24,33.48-25.65,34.79-35.75Zm-43.51,40.06c-1.18.93-3.65,1.64-5.49,1.61-2.79-.07-2.99-.21-1.16-.95,1.19-.46,3.68-1.18,5.49-1.59,3.11-.68,3.16-.63,1.16.93Z"/>
      <path class="cls-1" d="m334.82,153.5c-.68,4.45-1.93,9.42-2.77,11.06-.84,1.62-1.52,3.29-1.52,3.7s.81.06,1.82-.77c2.34-1.94,6.6-11.53,7.53-17.01.41-2.34,1.27-5.81,1.91-7.71,2.29-6.74-2.82-23.08-6.29-20.2-1.24,1.02-1.13,2.25.61,7.18,2.34,6.64,2.64,10.66,1.03,13.66-.59,1.09-1.62,5.63-2.32,10.08Z"/>
      <path class="cls-1" d="m251.92,40.67c2.38-.93,2.18-3.36-.34-4.02-2.82-.73-4.99.79-4.16,2.93.73,1.88,1.75,2.13,4.5,1.09Z"/>
      <path class="cls-1" d="m261.8,161.04c1.68,0,8.31-7.44,8.31-9.33,0-.62,1-2.98,2.2-5.24,1.22-2.25,2.2-4.69,2.2-5.42,0-2.32-1.83.52-3.88,6.08-1.27,3.4-3.5,6.54-6.19,8.71-2.32,1.86-4.21,3.79-4.21,4.29s.71.91,1.57.91Z"/>
      <path class="cls-1" d="m245.96,50.52c0,1.04,3.29,2.13,10.42,3.47,5.74,1.09,11.55,2.57,12.9,3.32,1.36.77,3.36,1.43,4.43,1.49,1.61.09,1.75-.27.82-2.02-1.45-2.7-2.61-3.41-9.37-5.77-6.83-2.38-19.22-2.68-19.22-.48Z"/>
      <path class="cls-1" d="m292.09,129.19c0-.6-.22-1.09-.48-1.09s-.79.48-1.16,1.09c-.38.61-.16,1.11.48,1.11s1.16-.5,1.16-1.11Z"/>
      <path class="cls-1" d="m298.19,109.85c.84-5.52-.66-11.48-3.95-15.86-1.64-2.15-2.32-2.41-3.41-1.32-1.11,1.11-.87,2.41,1.14,6.56,1.38,2.86,2.79,7.79,3.11,10.95.7,6.83,2.07,6.67,3.11-.34Z"/>
      <path class="cls-1" d="m250.9,61.64c4.64,2.14,8.49,2.09,8.04-.07-.48-2.41-16.1-8.13-19.91-7.31-3.29.74-1.45,2.92,3.72,4.43,2.66.81,6.35,2.13,8.15,2.95Z"/>
      <path class="cls-1" d="m368.88,112.73c-1.22,0-3.11,4.48-3.67,8.69-.22,1.56-.75,3.7-1.18,4.75-.43,1.06-.52,2.66-.16,3.56,1.29,3.38,3.61.23,5.38-7.31,1.8-7.69,1.73-9.69-.38-9.69Z"/>
      <path class="cls-1" d="m309.03,253.83c2.97-1.5,6.38-2.74,7.58-2.74,3.08,0,11.07-4.88,13.12-8.03,2.84-4.32,5.11-10.56,4.1-11.19-.52-.32-2.7,2.02-4.81,5.22-5.04,7.6-8.67,10.14-19.32,13.57-8.44,2.72-9.72,3.56-8.08,5.18,1.07,1.09,1.52.97,7.42-2.02Z"/>
      <path class="cls-1" d="m301.27,55.85c1.06,1.68,1.3,1.7,2.13.22.54-.93.68-2.4.34-3.25-.89-2.36-22.66-16.09-24.42-15.43-4.25,1.64.31,5.76,14.84,13.44,3.25,1.73,6.45,3.99,7.11,5.02Z"/>
      <path class="cls-1" d="m233.79,119.91c-.61.38-.48,1.61.29,3.04.71,1.32,1.52,7.95,1.78,14.75.27,6.81.84,12.37,1.29,12.37.86,0,2.2-9.12,2.2-15.07.02-4.47-4.2-15.93-5.56-15.09Z"/>
      <path class="cls-1" d="m270.97,177.31c-1.07.79-1.95,2.15-1.95,3.02,0,2.54.86,1.97,8.06-5.41,5.22-5.36,7.76-9.15,10.81-16.19,2.2-5.06,4.31-11.19,4.7-13.6l.71-4.4-1.82,3.84c-9.24,19.45-15.05,28.69-20.52,32.75Z"/>
      <path class="cls-1" d="m249.67,86.63c-1.22-5.13-2.66-7.24-4.02-5.88-.87.88-.7,2.26.65,5.06,2.2,4.63,4.42,5.17,3.38.82Z"/>
      <path class="cls-1" d="m249.67,149.78c3.63-5.72,5.54-26.08,2.47-26.08-1.13,0-1.54,1.89-1.59,7.49-.03,4.83-.87,9.53-2.32,13.23-1.24,3.14-2.26,6.2-2.26,6.77,0,1.91,2.11,1.11,3.7-1.41Z"/>
      <path class="cls-1" d="m259.23,96.75c1.29-.81-3.74-13.68-5.35-13.68-2.9,0-2.54,3.38.91,8.71,1.97,3.02,3.95,5.25,4.43,4.97Z"/>
      <path class="cls-1" d="m260.04,150.33c3.99-5.61,5.7-11.33,5.7-19.14,0-4.81-.41-7.36-1.11-6.94-.61.38-1.09,2.25-1.11,4.18-.02,5.7-2.91,14.89-5.95,18.86-1.56,2.04-2.83,4.24-2.83,4.88,0,2.25,3.17,1.14,5.29-1.84Z"/>
      <path class="cls-1" d="m271.35,113.78c1.3.07-2.18-12.26-4.04-14.32-3.57-3.93-3.63-.93-.14,6.65,1.93,4.18,3.81,7.63,4.18,7.67Z"/>
      <path class="cls-1" d="m266.63,88.75c.5-3.46-.48-5.68-2.52-5.68-2.21,0-2.13,2.16.25,5.52l1.91,2.72.36-2.56Z"/>
      <path class="cls-1" d="m275.28,131.65c-.36,2.29-.16,4.13.39,4.13s1.03-1,1.03-2.22.59-3.16,1.32-4.34c.73-1.16.98-2.48.54-2.93-1.27-1.27-2.63.91-3.29,5.36Z"/>
      <path class="cls-1" d="m280.36,95.15c-1.36,0-1.54.87-.97,4.66.39,2.56.98,7.26,1.3,10.42.34,3.18,1.04,5.77,1.57,5.77,2.07,0,2.93-4.09,2.11-10.04-1.18-8.49-2.04-10.81-4.02-10.81Z"/>
      <path class="cls-1" d="m264.07,43.44c0,.88,1.34,1.93,2.99,2.38,3.25.86,13.01,6.32,17.3,9.69,3.09,2.41,4.93,1.98,3.43-.79-4.29-7.92-23.72-17.14-23.72-11.28Z"/>
      <path class="cls-1" d="m499.47,204.32c-.73-.46-2.11.32-3.24,1.86-6.06,8.11-6.7,8.69-9.85,8.69s-4.04.98-2.52,2.5c.38.39,2.65.54,5.02.32,7.37-.61,15.22-10.53,10.58-13.37Z"/>
      <path class="cls-1" d="m386.16,381.05c-1.54,2.61-5.09,7.31-7.9,10.44-5.85,6.51-5.36,7.06,1.66,1.96,4.95-3.61,10.76-11.71,10.92-15.23.14-3.29-1.79-2.13-4.69,2.82Z"/>
      <path class="cls-1" d="m390.93,358.03c0,1.3,1.4.7,2.88-1.21,5.52-7.23,7.45-10.89,8.13-15.39.72-4.68-.39-10.94-2.18-12.35-.91-.7-4.45-11.82-4.45-13.93,0-.95-.79-1.45-1.91-1.22-1.32.29-1.86,1.33-1.72,3.38.27,3.89-.91,3.77-3.32-.33-1.08-1.8-2.48-3.29-3.13-3.29-.79,0-.95-1.73-.5-5.02.66-4.81-.54-9.26-2.47-9.26-.5,0-1.22,2.93-1.59,6.5-.97,9.23-4.95,17.15-12.66,25.04-6.11,6.29-7.22,8.96-3.06,7.37,2.29-.9,16.09-16.98,16.09-18.79,0-3.18,2.93-1.11,6.49,4.56,2.74,4.34,4.38,5.92,5.99,5.76,5.07-.54,4.74,15.32-.54,24.06-1.13,1.88-2.05,3.73-2.05,4.11Z"/>
      <path class="cls-1" d="m430.47,340.06c1.45-2.27,1.36-8.79-.2-13.3-2.27-6.54-7.53-14.16-9.8-14.16-2.79,0-2.65,1.04.75,5.54,4.2,5.6,8.14,15.04,8.15,19.58.02,2.98.29,3.57,1.09,2.34Z"/>
      <path class="cls-1" d="m371.27,320.86c2.95-6.06,4.08-15.94,1.81-15.94-1.14,0-1.91,1.61-2.43,5.2-1.63,10.96-14.79,28.77-22.38,30.28-3.06.6-3.43,1.05-2.86,3.34.54,2.11-.34,3.68-4.36,7.81-2.77,2.84-5.02,5.63-5.02,6.17s.98,1,2.2,1,2.18-.52,2.18-1.14,2.15-3.47,4.77-6.31c2.63-2.84,5.07-6.04,5.47-7.12.38-1.07,1.91-2.39,3.4-2.97,3.24-1.24,14.23-14.19,17.23-20.33Z"/>
      <path class="cls-1" d="m355.22,367.98c1.65-2.15,2.66-4.24,2.26-4.63-.77-.79-7.19,6.01-7.19,7.6,0,2.04,2.07.79,4.93-2.97Z"/>
      <path class="cls-1" d="m355.09,352.27c-2.11.91-15.73,16.02-15.05,16.7q1.07,1.07,5.01-3.04c4.2-4.4,11.46-14.26,10.04-13.66Z"/>
      <path class="cls-1" d="m417.39,287.06c-1.25,3.18-2.05,5.77-1.79,5.77,4.66,0,18.19-29.94,16.34-36.12-1.46-4.86-5.47-12.18-6.69-12.19-1.79-.02-1.73,1.05.27,5.86.91,2.16,1.64,5.49,1.64,7.38,0,4.45-2.86,14.8-5.47,19.7-1.13,2.11-3.06,6.43-4.31,9.6Z"/>
      <path class="cls-1" d="m435.32,278.97c2.59-2.27,3.45-4.29,4.53-10.53,1.46-8.54.55-21.79-1.7-24.49-2.18-2.65-4.69-2.08-3.72.84,2.91,8.92,1.84,28.94-1.84,34.04-2.72,3.77-1.47,3.84,2.73.14Z"/>
      <path class="cls-1" d="m421.03,381.71c2.74-3.25,3.74-6.51,2.02-6.51-1.13,0-6.86,7.29-6.86,8.72,0,2.11,1.96,1.2,4.84-2.21Z"/>
      <path class="cls-1" d="m414.28,313.91c-2.59.5-2.06,4.59,1.93,15.16,1.7,4.54,3.38,9.13,3.72,10.22.36,1.11,1.14,1.68,1.77,1.29,1.38-.84.61-5.9-2.47-16.45-1.24-4.24-2.42-8.35-2.64-9.15-.22-.79-1.25-1.29-2.31-1.07Z"/>
      <path class="cls-1" d="m531.41,233.78c3.31-5.2,2.68-17.5-.93-18.72-1.2-.39-1.34.47-.64,4.31,1.18,6.67,1.25,12.01.2,15.25-.72,2.2-.43,2.02,1.37-.84Z"/>
      <path class="cls-1" d="m520.53,236.96c0,3.68,5.61-5.86,5.72-9.72.13-4.42-1.23-7.99-3.06-7.99s-1.94.81-.41,5.22c.91,2.57.78,4.25-.56,7.44-.93,2.25-1.7,4.52-1.7,5.06Z"/>
      <path class="cls-1" d="m296.07,344.44c-2.04,0-4.35,2.92-3.47,4.35.93,1.52,1.21,1.46,3.25-.57,2.13-2.13,2.21-3.78.22-3.78Z"/>
      <path class="cls-1" d="m587.8,391.88c-1.22.23-2.06,1.57-2.31,3.63q-.36,3.25,1.93,1.19c2.81-2.54,3.02-5.33.38-4.82Z"/>
      <path class="cls-1" d="m437.6,347.75c1.79,0,2.75,2.47,2.75,7.04,0,1.97.3,3.88.7,4.27,2.91,2.91,3.56-9.71.93-18.36-.89-2.97-1.62-7.1-1.62-9.17,0-3.73-1.38-7.6-5.76-16.19-2.86-5.6-4.72-7.58-6.22-6.67-.77.49.61,4.29,3.88,10.83,5.06,10.06,5.08,10.1,4.51,19.16-.43,6.93-.23,9.08.84,9.08Z"/>
      <path class="cls-1" d="m299.95,351.75c2.97-4.08.7-5.95-2.71-2.27-1.56,1.68-2.58,3.45-2.27,3.95.98,1.61,3.13.9,4.99-1.68Z"/>
      <path class="cls-1" d="m336.29,322.67c.86-3.27-.86-2.99-3.24.54-4.2,6.18-8.89,10.26-11.82,10.26-1.67,0-2.63.47-2.26,1.09.38.61,1.99,1.11,3.58,1.11,3.24,0,12.65-8.9,13.73-12.99Z"/>
      <path class="cls-1" d="m334.64,352.2c4.11-2.4,7.08-5.61,6.51-7.1-.71-1.86.73-3.7,5.9-7.47,5.22-3.81,17.81-25.11,15.93-26.99-.98-.98-3.67,1.98-4.4,4.9-1.65,6.56-13.41,20.97-19.75,24.18-4.58,2.32-4.58,2.34-2.18,4.1,2.04,1.5,2,1.62-.91,3.91-1.67,1.3-3.02,3.09-3.02,3.97,0,1.24.47,1.34,1.93.5Z"/>
      <path class="cls-1" d="m404.23,357.01c8.06-7.6,10.1-22.52,4.65-34.05-4.63-9.78-8.94-9.94-5.09-.18,4.25,10.79,3.57,25.47-1.54,33.18-.79,1.2-1.43,2.64-1.43,3.22s1.54-.39,3.41-2.16Z"/>
      <path class="cls-1" d="m340.13,333.45c3.62-4.77,6.9-12.46,5.79-13.59-.66-.66-1.32-.27-1.8,1.08-1.91,5.33-7.88,13.58-11.12,15.33-1.97,1.06-3.57,2.34-3.57,2.86,0,2.75,7.17-1.05,10.71-5.68Z"/>
      <path class="cls-1" d="m477.68,292c0,2.29,9.58-8.03,12.6-13.57,2.41-4.42,2.61-5.36,1.16-5.36-.95,0-2.07.86-2.47,1.91-.88,2.37-4.27,7.34-8.28,12.12-1.64,1.99-3.02,4.2-3.02,4.9Z"/>
      <path class="cls-1" d="m476.5,280.43c.54-1.38,1.75-3.18,2.72-3.99,1.5-1.23,1.77-1.18,1.77.32,0,.98-.45,1.79-.97,1.79s-1.24.86-1.54,1.93c-.3,1.05-.93,2.84-1.4,3.99-1.14,2.79,1.81,1.86,3.38-1.05.6-1.16,1.82-3.36,2.68-4.86.88-1.5,1.68-4.24,1.83-6.04.12-1.81.57-6.86,1-11.21.84-8.72.11-13.49-2.04-13.49-1.07,0-1.3,2.47-.95,10.51.32,7.51.07,10.89-.91,11.82-1.05.98-1.48.97-1.88-.09-.27-.75-.91-1.38-1.43-1.38-.98,0-6.58,11.15-6.58,13.12,0,2.2,3.36,1.14,4.31-1.36Z"/>
      <path class="cls-1" d="m496.85,280.23c1.61-2.77,3.38-7.61,3.91-10.76.52-3.17,1.3-7.35,1.72-9.32.61-2.87.39-3.57-1.03-3.57-1.27,0-1.79,1.02-1.79,3.57,0,1.97-1.24,6.01-2.75,8.99-1.52,2.99-2.5,6.24-2.18,7.22.59,1.86-2.79,6.96-9.82,14.8-2.16,2.41-3.91,4.81-3.91,5.34,0,2.7,11.87-9.49,15.86-16.29Z"/>
      <path class="cls-1" d="m489.82,193.9c1.88-3.51-1.78-3.97-5.09-.65-1.56,1.54-3.84,2.95-5.11,3.15-1.27.18-2.5.95-2.75,1.72-1.23,3.72,10.82-.2,12.96-4.22Z"/>
      <path class="cls-1" d="m476.5,363.12c.7,0,1.52-.86,1.86-1.93.32-1.06.93-2.66,1.32-3.56.43-.91.6-4.25.43-7.42-.25-4.15-.78-5.78-1.93-5.78-1.24,0-1.59,1.7-1.59,7.6,0,4.18-.31,8.38-.66,9.35-.38.95-.11,1.73.57,1.73Z"/>
      <path class="cls-1" d="m518.87,311.37c-9.39-2.49-13.73-2.65-13.73-.5,0,1.73.93,2.09,10.21,3.93,3.5.7,9.69,2.66,13.73,4.38,8.63,3.67,10.12,3.89,10.12,1.59,0-2.09-9.74-6.62-20.33-9.4Z"/>
      <path class="cls-1" d="m483.19,188.63c0-1.75-3.25-3.68-5.06-2.99-1.45.55-1.52,1-.43,2.32,1.46,1.75,5.49,2.25,5.49.66Z"/>
      <path class="cls-1" d="m530.68,278.89c2.95,1.09,8.1-3.45,11.83-10.46,3.36-6.29,2.56-7.33-1.23-1.59-3.65,5.51-8.06,9.51-10.47,9.51-1.88,0-1.97,1.84-.13,2.53Z"/>
      <path class="cls-1" d="m474.39,265.95c-.86,2.22-.78,2.81.27,2.45,2.61-.86,3.91-5.49,3.61-12.76-.34-7.81-2.05-12.82-4.75-13.85-3.18-1.22-3.45,1.14-.75,6.51,2.9,5.7,3.52,12.63,1.62,17.66Z"/>
      <path class="cls-1" d="m470.03,271.33c-.71-.71-.66-2.58.11-5.4,2.63-9.55-.66-22.38-6.03-23.43-2.48-.48-2.25,1.48.68,5.44,2.13,2.88,2.45,4.66,2.41,12.87-.02,5.24-.45,10.62-.95,11.98-.79,2.16-.55,2.48,1.97,2.48,2.91,0,3.79-1.93,1.8-3.93Z"/>
      <path class="cls-1" d="m465.04,350.81c-.28,4.26-1.02,9.07-1.62,10.67-.63,1.61-.82,3.4-.47,3.99.41.66,1.22.59,2.15-.18,3.59-2.98,5.92-17.93,3.35-21.45-2.22-3.04-2.83-1.81-3.4,6.97Z"/>
      <path class="cls-1" d="m445.85,274.71c-1.8,4.72,1.06,2.02,3.34-3.16,3.14-7.17,3.64-17.59,1.09-23.37-1.99-4.48-4.81-6.97-6.26-5.52-.34.36.48,2.93,1.84,5.76,2.2,4.52,2.39,6.15,1.77,14.26-.38,5.02-1.18,10.44-1.79,12.03Z"/>
      <path class="cls-1" d="m493.89,271.15c.77-.29,1.66-1.84,1.99-3.43.34-1.59.82-3.88,1.05-5.08.61-2.93-1.72-10.46-3.22-10.46-.77,0-1.2,3.45-1.2,9.76,0,7.36.34,9.62,1.38,9.21Z"/>
      <path class="cls-1" d="m460.66,261.22c0-8.11-.39-10.19-2.55-13.69-1.41-2.25-3.27-4.11-4.11-4.11-2.09,0-1.96,1.49.5,6.37,3.41,6.74,4.66,16.39,2.88,22.29-.77,2.56-.72,2.58,1.25.68,1.68-1.61,2.04-3.64,2.04-11.53Z"/>
      <path class="cls-1" d="m457.23,372.52c1.54-7.33,1.41-10.51-.44-10.51-1.14,0-1.83,2.32-2.79,9.35-.41,3.02-1.41,7.15-2.25,9.19-.82,2.04-1.52,3.9-1.52,4.11,0,.23.48.43,1.09.43,1.99,0,4.33-4.97,5.92-12.57Z"/>
      <path class="cls-1" d="m492.59,197.49c-1.88,4.51-4.59,7.06-9.21,8.67-1.93.68-3.5,1.73-3.5,2.36,0,2.04,6.74-.16,11.96-3.89,3.99-2.86,5.07-4.31,5.07-6.78,0-4.48-2.5-4.7-4.32-.36Z"/>
      <path class="cls-1" d="m453.87,359.71c-.87-6.81-3.11-15.14-3.84-14.39-1.41,1.4-1.36,10.28.05,13.76,1.25,3.09,4.18,3.56,3.79.62Z"/>
      <path class="cls-1" d="m494.11,292.48c2.31-2.11,8.36-4.52,17.43-6.94,2.2-.59.38-2.59-2.34-2.57-3.75.04-18.81,7.97-19.21,10.14-.5,2.61.79,2.41,4.13-.63Z"/>
      <path class="cls-1" d="m512.38,209.36c-1.68,0-3.36,4.36-4.47,11.56-.92,5.95-1.72,7.01-6.69,8.73-2.33.78-4.42,2-4.65,2.66-.57,1.77,1.91,1.45,6.92-.86,6.22-2.84,7.81-5.17,9.2-13.39,1.54-9.01,1.56-8.7-.32-8.7Z"/>
      <path class="cls-1" d="m306.04,245.47c11.08-5.28,24.61-21.58,21.75-26.19-1.02-1.64-2.77-1.38-2.77.41,0,4.61-16.5,22.63-20.73,22.63-1.91,0-1.45-1.16,1.29-3.33,8.36-6.58,19.18-29.17,15.66-32.71-1.24-1.22-2.83,1.64-4.51,8.06-.93,3.59-3.16,8.81-4.95,11.6-3.86,6-15.55,17.46-17.84,17.46s-4.42,2.95-3.65,4.99c.91,2.36,7.02,1.24,15.75-2.93Z"/>
      <path class="cls-1" d="m515.26,356.42c-.2,3.86-.05,7.77.3,8.69,1.34,3.52,3.02-.84,3.17-8.2.12-6-.18-7.51-1.5-7.51-1.25,0-1.72,1.67-1.97,7.03Z"/>
      <path class="cls-1" d="m27.41,89.77c0-2.21-3.08-1.27-5.81,1.81-1.48,1.66-4.74,5.29-7.24,8.08-2.48,2.79-4.52,5.38-4.52,5.77,0,1.72,4.15.38,7.24-2.36,4.11-3.61,10.33-11.62,10.33-13.3Z"/>
      <path class="cls-1" d="m56.56,78.26c.36-1.89.12-4.84-.52-6.54-.65-1.68-1.18-4.91-1.18-7.19,0-5.18-5.42-14.01-9.6-15.64-1.79-.7-7.77-.98-14.57-.72-17.27.7-22,3.95-21.91,15.09.09,9.62,1.63,15.7,4.47,17.59,1.38.91,3.47,2.45,4.65,3.4,2.11,1.7,2.09,1.77-.49,4.22-1.45,1.36-4.54,3.45-6.86,4.66C4.87,96.05-.07,101.25,0,104.25c.11,4.97,5.74,13.37,10.78,16.07,1.34.71,6,1.93,10.35,2.7,11.24,1.98,20,1.48,26.9-1.5,9.42-4.08,12.19-9.32,8.11-15.23-1.13-1.59-2.34-3.77-2.72-4.82-.38-1.06-1.43-1.93-2.34-1.93-1.05,0-1.61-1.06-1.59-3.02.04-1.67-.31-5.33-.71-8.15l-.79-5.15,3.95-.74c3.34-.62,4.06-1.29,4.61-4.22Zm-4.42,35.09c1.88-2.5,3.72-1.35,2.05,1.27-1.27,2-3.75,3.18-3.7,1.75.01-.5.77-1.86,1.64-3.02ZM13.78,76.24c-1.32-6.51-1.64-15.27-.66-17.87,1.48-3.92,8.49-6.8,18.68-7.65,12.26-1.06,17.3,2.16,19.32,12.31.55,2.77.27,3.36-1.91,3.92-1.43.36-3.08,1.75-3.68,3.07-1.24,2.73-4.47,5.09-5.52,4.04-.39-.38-.13-1.77.57-3.08,1.68-3.15.68-3.95-2.86-2.34-2.16.98-3.25,1-4.38.06-1.16-.97-1.67-.86-2.18.46-.36.95-.38,2.16-.04,2.7.63,1.04-3.18,5.72-4.66,5.72-.49,0-1.54,1.24-2.34,2.74-.81,1.52-1.77,2.73-2.11,2.73-2.13,0-7.79-4.72-8.22-6.81Zm9.39,37.57c-2.23,0-2.45.38-1.81,3.29.7,3.13.55,3.3-2.8,3.3-4.74,0-12.31-7.49-14.3-14.15-1.43-4.74-1.4-4.86,1.79-7.42,1.78-1.41,4.72-3.31,6.54-4.17,5.2-2.52,10.98-7.17,11-8.86.02-1.57,10.46-9.65,11.33-8.78.27.27-.14,1.97-.89,3.79-.77,1.84-1.13,4.32-.81,5.56.77,2.88-11.58,20.25-16.25,22.84-1.8,1.02-3.5,1.99-3.77,2.15-.25.16.11.86.81,1.56,4.26,4.25,24.87-17.68,22.77-24.26-.74-2.32,2.55-9.03,4.82-9.78.88-.28,1.25.13.93,1.02-.28.84-.11,2.63.39,4,2.43,6.56-13,29.9-19.75,29.9Zm19.68,3.25c-2.61,1.41-4.47,1.46-4.47.14,0-.54,1.48-1.5,3.31-2.13,3.67-1.29,4.54.18,1.16,1.99Zm6.06-11.62c.45,1.14.3,2.88-.31,3.84-1.16,1.86-5.83,3.13-5.81,1.57,0-.48,1.2-2.38,2.64-4.18,2.43-3.02,2.74-3.13,3.47-1.23Zm-1.5-29.67c1.82-1.83,5.25-1.4,5.25.66,0,.63-1.59,1.14-3.52,1.14-3.27,0-3.4-.14-1.73-1.8Z"/>
      <path class="cls-1" d="m383.48,220.57c-.79-4.99-3-1.56-3.81,5.92-.79,7.44-3.57,14.18-7.4,18.02-1.04,1.03-2.22,4.02-2.65,6.63-1.79,11.28-14.55,27.42-21.65,27.42-1.75,0-3.18.5-3.18,1.09s1.52,1.11,3.36,1.11c11.1,0,24.55-15.21,26.01-29.42.34-3.25,1.22-6.15,1.97-6.43,2.91-1.13,8.22-18.72,7.34-24.33Z"/>
      <path class="cls-1" d="m426.63,141.27c-.91,0-1.66.5-1.66,1.09s.75,1.11,1.66,1.11,1.64-.5,1.64-1.11-.75-1.09-1.64-1.09Z"/>
      <path class="cls-1" d="m432.65,204.98c0,.59.75,1.09,1.67,1.09s1.64-.5,1.64-1.09-.75-1.11-1.64-1.11-1.67.5-1.67,1.11Z"/>
      <path class="cls-1" d="m409.59,159.08c0,.73,2.15,3.57,4.79,6.32,5.67,5.92,10.06,16.13,9.83,22.83-.18,4.95,1.03,6.02,2.91,2.54,3.18-5.95-.87-19.14-8.49-27.62-4.54-5.06-9.05-7.08-9.05-4.07Z"/>
      <path class="cls-1" d="m429.6,160.15c-3.24-.48-3.11,1.73.38,6.45,1.54,2.07,3.33,5.9,3.99,8.49.86,3.43,1.68,4.63,2.97,4.36,4.86-1-1.79-18.52-7.33-19.31Z"/>
      <path class="cls-1" d="m421.52,220.07c-.98.98-.95,1.7.12,2.98,1.66,1.99,2.92,2.15,3.95.49,1.18-1.89-2.5-5.04-4.07-3.47Z"/>
      <path class="cls-1" d="m448.76,147.1c-1.41.54-1.18,1.79,1.52,8.12,1.75,4.11,3.2,8.58,3.22,9.94.02,1.73.7,2.48,2.23,2.48,2.68,0,2.81-2.52.57-10.9-1.73-6.54-4.95-10.63-7.54-9.64Z"/>
      <path class="cls-1" d="m409.38,173.13c-1.52,0-.97,3.02,1.27,6.79,4.47,7.6,5.25,21.18,1.7,29.73-.61,1.47-.38,1.79.89,1.29,2.79-1.06,5.42-9.23,5.31-16.52-.12-9.85-5.04-21.29-9.17-21.29Z"/>
      <path class="cls-1" d="m440.36,199.03c0,1.93,2.36,1.59,3.04-.45.23-.71-.36-1.3-1.3-1.3s-1.73.79-1.73,1.75Z"/>
      <path class="cls-1" d="m465.53,127.49c3.24-1.86,7.45-3.06,12.57-3.56,7.51-.77,7.63-.82,5.63-2.84-1.7-1.68-3.13-1.93-7.99-1.43-7.79.81-16.05,4.88-16.52,8.15-.45,3.13.32,3.09,6.31-.32Z"/>
      <path class="cls-1" d="m443.65,154.8c0-1.93-5.67-6.94-7.85-6.94s-2.74,1.63-.88,2.79c.65.39,2.86,4.2,4.93,8.47,3.11,6.38,3.79,9.03,3.79,14.8,0,6.67.12,7.01,2.47,6.69,2.32-.34,2.45-.79,2.16-8.04-.2-4.83-1.13-9.35-2.48-12.15-1.18-2.45-2.14-4.99-2.14-5.61Z"/>
      <path class="cls-1" d="m458.47,146.99c2.34,3.45,2.47,4.13,1.09,5.95-.86,1.13-1.59,2.43-1.59,2.88-.07,1.56,1.34.82,3.99-2.02,1.88-2.04,2.43-3.52,1.89-5.22-1.18-3.74-3.84-7.31-5.44-7.31-2.64,0-2.63,1.77.05,5.72Z"/>
      <path class="cls-1" d="m382.14,111.37c-1.23.77-2.34.89-2.73.28-1.86-3.04-6.04,3.04-6.04,8.81,0,4.43,2.97,4.26,4.13-.27,1.23-4.7,3.56-5.36,3.56-.98,0,5.84,2.91,4.11,3.75-2.24.84-6.38.32-7.47-2.66-5.61Z"/>
      <path class="cls-1" d="m366.73,183.24c-.02,1.38-.97,3.61-2.09,4.97-2.27,2.72-11.07,6.88-14.55,6.88-2,0-1.88-.39,1.22-4.13,8.9-10.7,13.26-16.96,13.26-18.94,0-2.63-1.57-2.84-3.52-.47-.79.95-2.36,2.56-3.52,3.57-1.14,1-5.02,4.49-8.61,7.71-3.6,3.24-9.71,7.38-13.6,9.21-6.65,3.11-6.97,3.43-5.33,5.25,1.5,1.66,2.34,1.77,5.72.73,3.43-1.05,4.13-.95,5.17.75.93,1.56,2.14,1.86,5.57,1.41,9.5-1.2,13.39-2.79,17.75-7.24,3.63-3.72,7.76-11.71,6.64-12.84-1.36-1.36-4.06.7-4.1,3.13Z"/>
      <path class="cls-1" d="m414.83,224.57c-1.09,1.07-1.04,1.56.25,2.36,2.22,1.36,4.2-.63,2.43-2.42-1.04-1.02-1.63-1.02-2.68.06Z"/>
      <path class="cls-1" d="m360.46,199.4c-2.79.75-4.67,1.91-4.67,2.86,0,3.75,11.76.75,15.97-4.06,2.77-3.18,6.1-10.35,5.2-11.24-1.35-1.34-2.22-.55-4.18,3.81-2.14,4.75-4.81,6.62-12.31,8.63Z"/>
      <path class="cls-1" d="m277.42,239.01c1.72,0,12.46-10.24,12.46-11.87,0-.61,1.99-3.63,4.42-6.7,2.43-3.08,4.2-5.6,3.95-5.6-1.3,0-8.6,6.78-15.78,14.66-2.58,2.81-5.27,5.11-5.99,5.11s-3.24,1.34-5.59,2.99c-4.1,2.84-4.26,3.18-3.56,7.42,1.88,11.5,1.81,12.53-1.61,22.22-1.88,5.33-4.11,10.76-4.99,12.1-.87,1.34-1.59,2.95-1.59,3.57,0,2.43,2.88.88,5.68-3.08,5.2-7.34,7.94-17.14,7.71-27.56-.22-9.47,1.2-13.27,4.9-13.27Z"/>
      <path class="cls-1" d="m407.4,134.73c-8.08-.89-10.98-.44-10.98,1.68,0,1.41,2.91,2.21,10.98,3.02,8.1.82,11.98.7,12.63-.36.98-1.59-4.38-3.42-12.63-4.35Z"/>
      <path class="cls-1" d="m400,152.02c3.73,1.8,5.2,1.57,5.2-.84,0-1.4-.97-2.41-2.68-2.84-4.84-1.22-6.79,1.62-2.52,3.68Z"/>
      <path class="cls-1" d="m385.52,194.77c-1.73,1.09-2.16.93-2.75-1.13-.65-2.23-.82-2.14-2.74,1.45-2.61,4.88-5.59,7.58-9.58,8.65-1.72.47-3.29,1.67-3.49,2.68-.59,3.04,4.43,2.22,9.67-1.57l4.72-3.42-.55,5.72c-.3,3.17-1.18,6.11-1.93,6.6-.77.46-1.16,1.52-.87,2.34.77,2.27,5.43-3.43,6.85-8.33.63-2.23,1.59-4.15,2.15-4.25,1.36-.25,3.75,6.67,3.86,11.15.09,3.77-3.83,15.21-7.67,22.43-2.54,4.75-1.07,5.56,2,1.09,8.08-11.75,10.23-22.99,6.69-34.87-2.75-9.17-3.56-10.28-6.34-8.55Z"/>
      <path class="cls-1" d="m290.75,236.66c5.7-3.02,8.31-5.24,11.47-9.83,2.26-3.25,4.54-6.47,5.12-7.15,4.59-5.45,7.44-16.59,5.07-19.82-1.86-2.54-1.89-2.47-4.2,6.53-3.02,11.8-10.63,21.96-22.17,29.65-7.2,4.79-7.61,6.13-4.93,16.41,1.25,4.88,2.04,9.55,1.73,10.37-.32.8-.28,2.23.09,3.16.36.95,1.45,1.56,2.43,1.36,2.38-.48,1.89-8.96-1.02-17.55-1.16-3.45-1.86-6.94-1.54-7.76.31-.81,3.88-3.24,7.94-5.36Z"/>
      <path class="cls-1" d="m108.52,87.23c5.08-.44,6.31-2.68,5.02-9.17-.97-4.96-3.84-8.47-5.54-6.78-.41.41.05,3.29,1.04,6.38,1.14,3.52,1.46,6.24.86,7.33-.81,1.43-1.11,1.27-1.82-.93-.49-1.46-.98-3.65-1.14-4.85-.15-1.21-.31-2.52-.36-2.91-.18-1.34-3.77-2.11-4.48-.95-.39.64.06,3.65.98,6.69,1.64,5.33,1.8,5.51,5.45,5.18Z"/>
      <path class="cls-1" d="m78.35,90.86c-8.02,4.61-9.56,6.62-8.88,11.64,1,7.35,3.35,13.91,7.1,19.93,3.61,5.77,3.75,5.86,7.74,5.13,2.24-.41,4.4-1.34,4.83-2.04,6.43-10.71,7.99-12.21,13.48-13.12,6.22-1.03,8.28.45,8.28,6.08,0,4.61,2.81,9.26,6.1,10.08,3.57.89,6.65-.04,11.03-3.38,1.86-1.41,4.2-2.57,5.18-2.57,2.91,0,3.49,5.22,1.29,11.71-2.63,7.72-1.46,10.23,6.45,13.98,3.33,1.57,6.8,2.86,7.71,2.86,2.47,0,3.29,2.07,3.06,7.63-.18,4.34.28,5.52,3.67,9.12,2.12,2.27,4.48,4.11,5.24,4.1,3.09-.06,11.37-4.72,14.03-7.9,2.97-3.57,5.43-3.47,5.43.23,0,1.13.98,2.36,2.18,2.75,1.35.43,2.12,1.57,2.05,3.09-.07,1.32.22,3.2.63,4.2.55,1.29-1.31,4.18-6.35,9.98-3.94,4.5-8.33,8.97-9.8,9.92-1.46.97-3.27,3.22-4.02,5.04-1.23,2.95-1.75,3.24-5.07,2.68-2.5-.39-5.76.23-9.9,1.91-5.76,2.34-6.35,2.93-8.97,8.97-1.93,4.47-3.81,7.01-6.01,8.14-3.43,1.77-17.98,5.86-23.38,6.56-3.43.45-8.69,5.51-10.53,10.14-.55,1.41-1,4.99-1,7.97,0,5.29-.07,5.42-3.33,5.42-2.36,0-4.74,1.3-8.22,4.54-5.13,4.72-6.72,9.37-2.86,8.35,1.81-.46,2.15.23,2.58,5.44.71,8.54,3.22,10.83,10.33,9.4,8.35-1.68,11.28-1.22,13.3,2.09,1.68,2.79,1.62,3.08-1.18,6.4-6.45,7.67-1.61,15.57,12.1,19.72,14.53,4.4,19.86,4.95,27.26,2.82,3.61-1.04,9.55-2.4,13.17-3,3.63-.61,8.08-1.75,9.88-2.5,1.81-.77,4.4-1.72,5.77-2.13,1.36-.41,2.97-1.7,3.59-2.88,2.32-4.31,8.17-2.68,20.95,5.86,3.7,2.47,7.47,4.1,9.46,4.1,1.8,0,5.11,1.23,7.34,2.75,2.22,1.5,4.99,2.75,6.13,2.75s2.38.48,2.75,1.09c.38.61,1.61,1.09,2.75,1.09,3.22,0,5.49,4.27,5.49,10.31,0,3.9.87,7.03,3.09,11.03,1.68,3.05,3.72,7.79,4.49,10.51.79,2.72,1.8,5.69,2.25,6.62.47.91.41,2.82-.12,4.27-1.51,4.06-.2,6.27,6.9,11.73,5.78,4.45,6.51,5.43,5.95,7.97-.36,1.61-.71,4.86-.81,7.26-.14,3.86.36,4.75,4.59,8.24,2.61,2.14,6.58,5.68,8.8,7.86,3.47,3.42,4.79,3.99,9.39,4.1,3.65.07,6.38.86,8.58,2.49,2.93,2.16,4.48,2.37,17.11,2.27,16.54-.14,23.6-1.95,40.29-10.33,11.99-6.04,14.69-6.24,14.69-1.05s3.34,7.17,12.9,7.85l8.38.6,4.47,6.56c7.77,11.4,15.28,13.6,27.9,8.15,4.88-2.11,7.71-1.88,5.85.48-2.97,3.77,1.61,8.9,10.36,11.66,7.06,2.2,33.41.98,40.51-1.89l5.49-2.22,4.4,2.52c2.42,1.4,8.04,3.34,12.5,4.32,4.45.98,9.88,2.76,12.08,3.9,2.18,1.16,4.53,2.13,5.18,2.16,3.13.13,14.23-4.64,17.52-7.54,2.52-2.21,5.38-3.47,8.96-3.95,2.9-.39,6.63-1.22,8.3-1.86,4.5-1.72,9.49-7.37,10.79-12.23,1.64-6.08,5.2-9.19,11.58-10.14,7.35-1.11,18.95-4.51,20.92-6.13.89-.73,2.63-3.33,3.86-5.76,3.01-5.88,2.26-14.21-2.2-24.01-4.18-9.21-7.9-11.8-16.95-11.82-5.47,0-6.33-.28-6.33-2.09,0-1.93,2.56-4.47,10.94-10.9,2.05-1.57,3.34-3.54,3.34-5.15,0-4.09-7.13-9.28-16.45-11.94-10.15-2.91-11.33-4.54-7.38-10.24,3.54-5.12,3.72-7.87.71-11.1-3.3-3.54-16.18-9.67-22.13-10.53-3.93-.59-5.34-1.32-5.92-3.11-.86-2.73,2.47-5.99,7.1-6.95,5.83-1.22,6.11-1.65,17.45-27.79,3-6.94,2.98-11.55-.04-16-1.52-2.21-2.54-4.9-2.25-5.95.27-1.04,3.79-3.63,7.83-5.76,4.7-2.47,7.88-4.95,8.81-6.9,1.38-2.81,1.2-3.45-2.3-8.72-6.62-9.96-7.55-12.53-7.9-21.7-.36-8.99-.87-10.17-8.06-18.34-1.21-1.4-3.86-4.54-5.86-7.01-3.79-4.63-15.03-12.6-19.34-13.7-3.75-.95-3-3.14,3.04-8.88,3.02-2.88,5.76-6.47,6.08-7.97,1.95-9.05,1.89-9.49-1.04-11.8-3.65-2.88-3.59-3.45.43-4.85,2.31-.81,3.29-1.86,3.25-3.52-.04-2.34-2.31-6.2-3.65-6.2-1.57,0-11.69-10.08-11.69-11.65,0-1.89-18.39-19.09-20.41-19.09-.98,0-5.01-1.54-8.96-3.43-5.92-2.82-8.13-3.32-12.78-2.93-4.86.43-18.77,5.13-29.9,10.13-4.9,2.2-5.38,6.26-2,16.77,2.95,9.26,2.81,14.26-.39,12.89-10.01-4.29-14.03-5.06-20.09-3.88-11.76,2.31-17.02,4.4-20.91,8.3-3.67,3.67-4,3.77-8.15,2.65-6.63-1.81-7.42-2.86-6.7-8.92.34-2.91,1.57-6.51,2.71-7.97,1.29-1.63,1.91-3.72,1.59-5.36-.71-3.7-9.71-7.58-18.21-7.85-7.58-.23-9.42-1.68-10.71-8.36-1.99-10.19-1.63-11.23,5.84-17.39,3.84-3.2,7.44-7.2,8.17-9.15,2-5.35,1.77-13.43-.44-15.66-2.24-2.23-12.21-7.02-14.66-7.04-.95,0-2.66-.73-3.84-1.61-2.47-1.88-6.64-2.2-7.62-.59-.38.61-2.45,1.09-4.61,1.09h-3.94l.7-5.95c.39-3.29.25-7.17-.31-8.63-1.05-2.77-6.97-6.4-13.4-8.26-2.04-.59-4.7-1.41-5.9-1.84-1.21-.43,1.25,1.2,5.49,3.61,11.12,6.33,11.71,7.19,10.42,15.03-.84,5.26-.73,6.81.57,8.28,2.43,2.66,2.02,3.27-2.21,3.27-5.58,0-5.01,2.9,1.11,5.6,5.84,2.59,7.4,2,6.94-2.63-.32-3.06.03-3.48,3.48-4.38,2.13-.54,4.42-1.46,5.11-2.04.7-.57,2.68-.71,4.4-.3,4.83,1.13,14.55,6.95,16.45,9.85,2.56,3.89,1.09,10.83-2.88,13.65-4.48,3.2-5.88,2.82-3.88-1.03.93-1.79,1.68-4.29,1.68-5.58,0-3.7-2.66-1.89-3.41,2.32-.68,3.79-4.29,12.17-6.62,15.35-.84,1.18-1,4.11-.48,9.01,1.36,12.57,6.35,17.21,18.52,17.27,2.5,0,8.69,2.32,10.51,3.94.21.2-.72,2.64-2.08,5.45-1.35,2.81-2.7,7.22-3,9.82-.5,4.47-.3,4.86,3.7,7.6,2.32,1.57,5.09,2.86,6.13,2.86s2.47,1.05,3.14,2.32c1.14,2.14,1.83,2.25,9.28,1.56,4.56-.43,8.92-.31,10.07.28,1.11.57,4.61,1.36,7.77,1.77,5.15.66,5.77.52,5.77-1.3,0-3.17-10.91-7.28-17.07-6.44-2.7.38-5.09.2-5.47-.41-1.64-2.66,12.57-1.52,21.8,1.77,4.11,1.47,7.96,2.38,8.51,2.04,2-1.24.93-3.76-2.29-5.44-3.61-1.86-3.97-2.74-1.99-4.72,2.13-2.13,5.18-1.54,8.04,1.56,1.72,1.86,3.43,2.7,4.79,2.34,1.62-.43,2.25.16,2.74,2.61.66,3.27,2.88,4.43,2.88,1.48,0-.91,1.23-3.61,2.75-6.01,2.81-4.43,6.9-6.29,18.4-8.31,2.47-.43,4.11-1.34,4.11-2.27,0-1.27-1.62-1.41-9.03-.81l-9.02.75,3.97-3.47c2.18-1.91,5.84-4.27,8.15-5.24,3.45-1.43,3.86-1.93,2.4-2.75-2.24-1.25-9.51,1.47-15.57,5.83-5.17,3.72-7.26,3.89-7.2.61.05-4.51,4.22-7.88,15.89-12.95,2.68-1.16,2.91-1.52,1.25-1.89-3.16-.73-11.82,1.79-16.34,4.74-4.9,3.22-5.24,3.25-5.24.7,0-3.79,2.81-5.78,13.73-9.66,19.45-6.93,22.18-7.11,32.3-2.04,2.95,1.48,6.08,2.7,6.94,2.7,1.82,0,15.96,14.32,19,19.22,1.11,1.83,2.74,4.15,3.61,5.18,2,2.39,2.47,10.49.65,11.19-2.09.79-.54,4.79,2.89,7.55,3.04,2.41,3.65,3.79,3.38,7.77-.13,1.99-10.25,12.48-15.23,15.78-1.36.91-2.47,2.36-2.47,3.24,0,1.91,6.44,4.75,10.78,4.75,4.7,0,15.6,7.6,22.09,15.39,9.07,10.89,9.4,11.64,9.47,20.48.04,7.22.5,8.89,4.93,17.54,2.68,5.26,5.06,9.96,5.26,10.47.39.98-10.94,6.63-11.73,5.85-.25-.27.34-1.72,1.33-3.22,1.88-2.84,2.39-6.15.98-6.06-.46.04-2.7,2.64-4.97,5.77-4.09,5.65-4.13,5.81-3.7,14.41.32,6.38.91,9.07,2.22,10.01,2.97,2.16,2.04,5.97-4.59,19.07l-6.34,12.53-5.36,1.57c-4.02,1.16-6.03,1.25-7.97.38-3.63-1.66-8.28-1.48-10.8.38-2,1.48-1.84,1.62,2.5,2.34,5.99.97,9.06,3.09,7.2,4.99-1.05,1.07-2.23.95-5.67-.61-4.36-1.97-6.72-1.65-6.72.89,0,.84-3.25,1.93-8.51,2.84-8.51,1.46-21.88,5.83-23.83,7.77-1.93,1.95.14,2.18,4.97.55,2.66-.89,8.74-2.47,13.49-3.5,7.22-1.56,9.67-1.66,14.77-.59,8.15,1.72,10.06,3.67,2.73,2.79-3.89-.46-5.79-.23-6.4.75-1.34,2.16,2.59,4.36,7.81,4.36,2.66,0,8.01,1.41,12.69,3.38,11.03,4.63,11.99,4.84,13.09,3.09,1.39-2.26,9.1,1.96,8.08,4.43-1.8,4.35-1.64,5.79.98,9.26,1.91,2.48,4.4,4.11,7.77,5.06,4.58,1.29,4.9,1.61,4.34,4.38-.5,2.56-.01,3.35,3.36,5.33,2.16,1.29,3.91,2.72,3.88,3.2-.04.46-2.15,2.36-4.67,4.2l-4.61,3.35-.05,8.19c-.03,4.5-.44,9.8-.91,11.76-1.16,4.88,1.02,4.69,3.4-.3,2.7-5.66,4-2.21,1.88,4.95-1.84,6.17-1.72,7.02.95,6,2.41-.93,5.18-8.45,5.18-14.12s1.47-6.38,7.19-4.88c8.65,2.29,13.26,19.29,8.35,30.78-1.79,4.13-2.68,4.93-6.86,6.04-2.65.71-4.99,1.11-5.2.89-.22-.22.2-2.2.93-4.38,1.59-4.82,1.16-5.43-2.61-3.72-2.09.95-2.9,2.15-2.9,4.31,0,1.65-.73,3.59-1.62,4.34-2.59,2.15-3.31-1.46-1.04-5.31,1.93-3.27,1.48-7.29-.73-6.54-.68.21-1.88,2.3-2.68,4.64-1.52,4.45-4.4,8.08-5.5,6.97-.36-.36.41-2.72,1.7-5.24,2.59-5.07,2.59-10.46,0-10.46-1.07,0-1.86,1.5-2.25,4.4-.86,6.11-3.61,10.87-7.87,13.55-4.15,2.64-5.49,1.23-2.21-2.38,2.66-2.93,9.74-20.18,8.7-21.21-.81-.81-5.15,2.68-5.15,4.13,0,.5-1.05,3.72-2.34,7.15-1.8,4.81-4.15,8.01-10.08,13.78-5.7,5.52-7.17,7.51-5.59,7.51,1.18,0,3.22-.75,4.52-1.67,2.8-1.98,4.26-.48,2.55,2.66-1.72,3.2-1.43,3.7,1.67,2.92,2.52-.63,2.68-.48,1.64,1.47-1.79,3.34.95,4.25,3.31,1.11,2.21-2.93,3.79-2.34,2.73,1.02-1.19,3.74-12.01,6.08-15.98,3.45-1.41-.93-1.25-1.41.98-3.13,3.51-2.72,2.22-4.92-1.84-3.18-5.4,2.29-6.19,3.29-3.92,4.95,1.95,1.45,1.95,1.54.04,2.63-1.09.62-3.57,2.52-5.52,4.21-2.66,2.36-4.27,2.97-6.59,2.52-2.16-.41-4.1.16-6.44,1.88-3,2.24-3.73,2.34-7.38,1.14-2.21-.73-5.22-2.23-6.69-3.34-2.57-1.95-2.61-2.09-.71-4.18,1.46-1.63,1.61-2.27.55-2.63-1.73-.59-7.51,1.48-7.51,2.68,0,2.2-4.5.5-6.63-2.5-1.32-1.84-2.21-3.49-2-3.65.22-.14,4.09-2.43,8.63-5.06,4.53-2.63,8.4-5.2,8.6-5.7.2-.5,1.08-.91,1.93-.91s1.56-.52,1.56-1.18,1.95-2.93,4.34-5.07c6.62-5.94,19.4-29.48,18.5-34.09-.71-3.7-3.22-1.89-5.67,4.11-4.85,11.91-14.89,28.34-19.7,32.21-6.34,5.15-20.7,12.82-23.97,12.82-1.46,0-3.77.77-5.11,1.7-4.04,2.82-14.16,5.84-23.94,7.15-8.62,1.14-9.58,1.07-14.1-1.13-8.99-4.34-9.37-8.08-1.09-10.76,9.65-3.13,20.59-10.98,35.3-25.31,8.49-8.26,10.17-10.46,10.17-13.3,0-5.31-2.7-4.13-7.11,3.15-4.2,6.94-16.72,18.73-27.94,26.35-7.33,4.97-7.79,5.15-7.79,2.84,0-.9,1.48-2.38,3.27-3.31,5.81-3,23.1-21.27,23.1-24.42,0-.77.41-1.41.93-1.41,1.41,0,7.97-11.01,7.26-12.16-1.14-1.84-2.11-1.07-5.99,4.75-7.44,11.16-16.46,22.51-20.02,25.2-5.11,3.86-14.28,10.19-16.23,11.19-.9.46,1.89-2.54,6.22-6.67,7.51-7.17,13.64-16.02,12.14-17.52-.39-.38-2.91,1.72-5.63,4.67l-4.91,5.36.64-4.13c.34-2.25.27-4.11-.16-4.11s-3.34,2.61-6.45,5.81c-3.13,3.18-8.56,7.5-12.07,9.6-15.94,9.49-18.25,10.69-21.93,11.39-7.15,1.34-5.41-1.39,3.84-6.04,9.1-4.58,16.86-11.17,15.59-13.24-.39-.65-1.91.02-3.59,1.57-3.06,2.81-17.84,10.19-21.7,10.85-3.54.61-3.22-1.52.54-3.52,7.72-4.15,18.3-13.48,17.23-15.21-.93-1.5-3.83-.11-9.94,4.82-4.7,3.78-12.46,7.56-18.02,8.78-4.86,1.08-4.2-.07,1.81-3.14,6.4-3.27,13.26-10.1,11.71-11.64-.72-.71-2.27,0-4.56,2.09-4.82,4.4-14.94,9.15-19.82,9.29-3.84.13-4.04-.04-3.73-3.02.45-4.18,7.76-13.71,13.93-18.14,3.56-2.54,4.97-4.31,4.97-6.24,0-1.46-.27-2.68-.61-2.68-2.36,0-7.65,4.45-14.23,11.96-7.19,8.2-10.85,11.07-12.3,9.6-.34-.34.81-2.29,2.56-4.32,4.99-5.88,7.01-8.44,7.01-8.87,0-.23-1.32-.66-2.93-.97-2.41-.46-3.84.36-7.97,4.56-6.79,6.92-17.98,15.25-24.56,18.3-2.97,1.38-6.77,3.81-8.46,5.42-2.11,2.04-3.99,2.82-6.02,2.57-2.74-.32-2.45-.7,4-4.95,6.9-4.58,25.06-21.64,25.06-23.58,0-.55-.75-1.29-1.67-1.64-1.09-.41-3.79,1.7-7.93,6.2-7.01,7.63-19.61,17.59-22.2,17.54-.98-.02,1.11-2.72,4.9-6.35,6.95-6.65,13.4-15.17,12.31-16.26-.5-.49-19.7,15.82-22.76,19.32-1.34,1.56-14.25,7.72-16.12,7.72-1.16,0-2.68-.59-3.4-1.3-1-1,.23-2.16,5.41-5.1,9.58-5.4,28.94-24.17,26.96-26.13-.3-.32-5.42,3.95-11.37,9.48-11.33,10.54-24.97,18.66-31.36,18.66-4.86,0-3.57-2.5,2.72-5.27,7.77-3.42,21.31-14,26.33-20.61,7.33-9.66,4.84-11.14-3.99-2.4-17.07,16.93-30.17,24.2-36.98,20.56-3.22-1.72-2.66-4.36.91-4.36,1.66,0,4.86-1.23,7.08-2.73,2.21-1.52,4.34-2.75,4.72-2.75,1.25,0,14.69-10.92,19.15-15.55,8.59-8.96,11.15-12.07,12.17-14.75,1.3-3.41.38-5.06-1.5-2.63-5.95,7.72-36.07,32.92-39.34,32.92-2.07,0-.54-1.88,4.9-5.94,5.94-4.47,17.79-17.5,17.79-19.59,0-2.43-2.52-1.91-5.88,1.22-4.38,4.09-4.49,2.81-.15-2.04,3.13-3.52,4.4-7.68,2.32-7.68-1,0-7.85,7.18-9.6,10.06-1.59,2.59-14.45,10.8-16.93,10.8-2.25,0-.82-1.75,3.6-4.4,5.43-3.24,14.01-10.8,14.01-12.33,0-1.25,8.63-11.94,10.69-13.25,1.5-.95,1.95-6.27.54-6.27-.46,0-4.29,3.52-8.51,7.79-8.54,8.71-13.3,12.09-21.47,15.3-7.33,2.9-6.04,1.2,4.27-5.66,9.24-6.17,18.88-14.89,18.88-17.11,0-2.42-1.22-1.63-7.58,4.93-8.6,8.86-23.06,17.39-24.77,14.6-.38-.61,1.82-2.38,4.9-3.93,3.06-1.54,6.42-3.67,7.47-4.7,1.03-1.03,3.34-2.82,5.09-3.97,6.29-4.07,20.54-18.77,25.48-26.28,5.25-7.99,6.9-8.29,6.99-1.29.05,4.48,3.59,11.94,6.7,14.12,4.61,3.24,13.4,1.5,17.84-3.49,3.56-3.97,1.45-5.15-2.61-1.45-2.75,2.52-4.81,3.43-7.72,3.43-6.13,0-8.26-3.17-11.39-16.95-1.46-6.54-3.16-12.37-3.75-12.97-1.61-1.59-3.65.16-2.91,2.5.36,1.11.2,2.93-.38,4.02-.55,1.09-1.68,3.41-2.5,5.15-2.48,5.29-14.34,18.38-24.11,26.62-9.69,8.17-12.46,9.96-17.65,11.46-2.57.73-3.36.5-4.32-1.32-.66-1.22-1.04-2.29-.82-2.4,9.44-4.68,19.65-11.99,25.06-17.97,9.85-10.83,11.46-13.01,11.74-15.84.18-1.66,2.61-5.36,5.81-8.79,10.19-10.92,11.51-13.46,11.94-23.11.25-5.26.86-8.6,1.59-8.6.66,0,2.71,1.45,4.56,3.22,8.17,7.83,12.46,10.92,16.82,12.09,4.07,1.11,4.59,1.57,4.04,3.75-.48,1.97.04,2.81,2.47,3.93,6.31,2.93,9.24,3.31,13.89,1.77,2.52-.82,6.31-1.82,8.42-2.21,8.67-1.65,14.75-4.38,21.11-9.48,3.68-2.95,7.34-5.38,8.13-5.38,1.79,0,4.54-5.15,5.68-10.67.71-3.45,1.32-4.15,3.56-4.15,2.05,0,2.63.52,2.41,2.2-.59,4.36-2.9,11.01-4.49,12.9-.89,1.06-1.3,2.25-.89,2.64.39.39,2.68-1.34,5.07-3.86,3.49-3.64,4.51-5.7,5.1-10.13.7-5.28,2.64-8.71,4.91-8.71,1.54,0-.07,8.69-2.52,13.57-2.04,4.06-1.77,7.36.32,4,7.24-11.62,7.5-12.42,7.56-21.68.04-9.1,1.27-11.67,2.86-6.04,2.37,8.44-1.34,24.42-7.74,33.34-2.21,3.08-3.84,5.75-3.63,5.97.82.84,9.87-8.8,11.8-12.58,1.96-3.86,5.54-18.61,5.54-22.88,0-1.11-.9-3.77-1.99-5.92l-2-3.89,3.15-1.4c3.41-1.5,13.39-12.82,14.57-16.52,1.43-4.53,8.24-10.01,8.24-6.63,0,.59.73.78,1.65.43.89-.34,1.64-1.32,1.64-2.16,0-1.77,1.75-2.04,2.75-.43,1.37,2.23,2.61.98,2.95-3,.23-2.88.91-4.22,2.25-4.49,1.4-.25,1.93.36,1.95,2.2,0,1.39.43,3.2.95,4,1.48,2.36,2.25-2.36,1.52-9.5-.57-5.59-.46-6.1,1.08-4.82,2.75,2.27,3.25-.29.7-3.54-2.7-3.41-2.16-4.63,1.23-2.82,2.15,1.14,2.34,1.02,2.06-1.29-.43-3.18.82-5.29,3.14-5.29,2.5,0,5.77,3.24,5.77,5.72,0,1.14.5,1.78,1.11,1.41,1.88-1.16,1.22-5.97-1.29-9.35-2.18-2.95-2.27-3.59-.97-7.9.77-2.59,2.09-5.69,2.93-6.88,1.95-2.79,2.14-24.77.23-26.69-2.2-2.2,1.79-2.79,9.24-1.4,9.67,1.84,9.87,1.84,10.38.38.55-1.54-4.52-4.34-10.35-5.72-3.24-.77-3.52-1-1.34-1.09,3.18-.13,7.47-2.82,6.31-3.99-.41-.41-5.13-.82-10.47-.92-7.65-.12-10.35.27-12.69,1.79-3.97,2.61-3.75,5.07.87,9.44,2.11,2,3.84,4.07,3.84,4.63s.73,1.02,1.65,1.02c1.32,0,1.64,1.73,1.64,9.12,0,7.77-.34,9.51-2.31,11.62-1.29,1.36-2.57,4.54-2.9,7.06-.73,5.83-1.93,7.17-10.06,11.19-6.86,3.42-7.87,5.17-5.09,8.85,2.34,3.09,2.09,4.34-1.77,8.74-4.72,5.38-9.98,7.45-17.12,6.74-6.42-.63-8.06.55-5.2,3.7,3.72,4.11,1.16,11.89-4.91,14.96-1.36.7-3.06,2.39-3.75,3.81-.7,1.4-2.81,2.98-4.69,3.52-1.88.54-4.77,2.07-6.43,3.41-2.72,2.14-2.9,2.68-1.68,4.95,2.11,3.95-3.18,8.65-11.62,10.33-5.88,1.14-6.51,1.55-6.83,4.29-.18,1.66-.81,3.02-1.36,3.02s-1.08-1.36-1.13-3.02c-.18-6.88-2.65-12.8-4.95-11.92-.95.38-2.11.66-2.58.66s-1.18,2.72-1.57,6.02c-1.19,10.12-4.43,17.02-11.11,23.62-3.33,3.29-6.05,6.61-6.05,7.38s-1.3,1.7-2.88,2.11c-3.93.98-17.55-1.09-23.09-3.51l-4.56-2,8.4-4.1c4.61-2.25,10.49-5.92,13.07-8.11,7.72-6.65,16.57-23.61,12.31-23.61-.62,0-1.39.87-1.7,1.93-2.77,9.26-13.16,20.83-23.38,26.01-4.49,2.27-7.04,2.86-11.39,2.59-5.61-.32-9.12-3.05-3.95-3.07,1.41,0,3.86-.88,5.45-1.93,15.89-10.51,22.49-15.59,24.79-19.09,2.54-3.83,2.64-6.43.27-6.43-.57,0-2.13,1.7-3.48,3.75-1.36,2.07-4.94,5.34-7.98,7.29-3.04,1.94-8.06,5.47-11.17,7.83-6.74,5.11-12.28,6.38-16.32,3.73-1.54-1-3.2-1.57-3.72-1.27-.5.32-1.77-.36-2.8-1.52-1.83-2.02-1.72-2.11,3.43-2.77,12.74-1.66,15.69-2.84,22.13-8.83,3.43-3.18,7.13-7.33,8.22-9.2,1.88-3.24,1.89-3.47.09-4.15-1.34-.52-2.41.07-3.57,1.93-.89,1.47-4.49,5.44-7.95,8.81-6.99,6.85-11.73,8.67-22.4,8.67-5.61,0-6.13.2-5.51,2.13.46,1.46-.02,2.5-1.5,3.3-3.06,1.63-3.24,1.54-3.63-1.86-.54-4.63-3.63-3.93-3.7.82-.16,11.26-7.65,26.13-18.05,35.87-7.51,7.05-11.64,6.13-4.72-1.03,4.2-4.34,9.26-13.67,10.85-19.98.52-2.09.27-2.77-1.04-2.77-1.11,0-3.36,3.4-6.15,9.23-3.16,6.63-5.86,10.51-9.63,13.83-9.08,7.99-16.48,10.37-9.35,3.01,5.95-6.17,9.83-11.16,10.62-13.71.43-1.35,1.16-2.47,1.63-2.47s1.41-1.25,2.09-2.75c.7-1.5.82-2.75.3-2.75-1.18,0-8.88,8.46-8.88,9.76,0,.54-1.36,1.86-3.02,2.95-2.52,1.62-2.77,1.66-1.56.16,1.5-1.83.93-4.08-1.06-4.08-.6,0-2.89,1.86-5.08,4.11-5.24,5.41-6.08,2.71-1.48-4.77,1.8-2.97,3.43-6.31,3.61-7.45.59-3.63-1.89-3.08-3.76.82-1.84,3.88-8.2,11.69-9.49,11.69-.41,0-.55-2.04-.32-4.54.34-3.45.09-4.4-1.06-4.02-.84.27-2,1.95-2.61,3.73-1.48,4.4-8.19,14.71-9.56,14.71-.62,0-.75-.82-.28-1.93,1.75-4.05,6-17.28,6-18.62,0-3.75-3.25-.63-6.65,6.4-3.32,6.88-9.24,13.99-10.56,12.69-.25-.27,1.3-3.36,3.43-6.92,3.7-6.11,5.41-14.69,2.97-14.69-.52,0-2.31,3.22-3.97,7.15-2.63,6.18-8.76,13.62-10.1,12.26-.25-.25,1.34-3.46,3.54-7.15,4.08-6.85,5.42-13.28,2.95-14.16-.75-.27-1.75.43-2.2,1.56-1.61,3.93-10.62,15.73-12.01,15.73-2.36,0-1.64-3.01,1.67-6.83,6.65-7.76,8.43-11.85,5.15-11.85-.92,0-2.26.98-3.02,2.2-.75,1.22-2.05,2.2-2.87,2.2-1.06,0-1.2-.43-.47-1.37,1.18-1.52,4.5-13.6,4.47-16.19-.02-.92.34-2.52.77-3.58.44-1.07.32-1.91-.29-1.91s-1.7,1.59-2.45,3.56c-.73,1.96-1.99,5.06-2.75,6.86-.79,1.82-2.27,6.04-3.3,9.4-2.31,7.42-6.96,13.55-9.21,12.12-1.46-.95-1.29-2.09.91-5.6,1.75-2.77,7.56-16.84,8.2-19.82,1.18-5.54-2.11-18.5-4.15-16.34-.25.25-.07,2.93.39,5.94.66,4.22.36,6.85-1.27,11.53-1.18,3.35-2.54,7.69-3.06,9.64-1.52,5.95-6.13,13.78-8.65,14.71-1.88.68-2.38.46-2.38-1.08,0-1.05.47-2.41,1.04-2.98.55-.57,1.23-2.27,1.46-3.79.25-1.5,1.06-4.22,1.81-6.05.73-1.8,2.04-5.92,2.88-9.12,1.46-5.67,1.37-7.24-1.24-18.05-1.16-4.86-2.86-3.54-2.11,1.64,1.5,10.1.95,14.43-3.16,24.99-2.24,5.74-4.91,12.12-5.95,14.19-2.49,5.02-10.37,13.26-12.68,13.26-1.57,0-1.45-.64.92-4.38,1.52-2.39,2.75-4.88,2.75-5.49s.47-1.13,1.04-1.13,1.36-1.11,1.78-2.47c.43-1.36,2.04-5.18,3.56-8.51,2.88-6.24,5.68-26.34,4.24-30.15-1.09-2.81-2.91-.9-2.93,3.04-.02,1.93-.75,5.94-1.64,8.9-.92,2.95-1.65,6.67-1.65,8.22,0,3.27-5.49,17.25-9.29,23.72-3.22,5.45-9.83,11.93-11.58,11.33-.82-.27.55-3.16,3.61-7.61,2.71-3.97,5.29-8.4,5.74-9.85.44-1.47,1.18-3.15,1.62-3.76.45-.6,1.41-3.56,2.15-6.58.73-3,1.84-6.1,2.47-6.85,1.48-1.79,1.79-16.63.36-17.02-.61-.18-1.64,2.41-2.31,5.74-1.68,8.4-6.99,25.45-8.53,27.46-.7.89-2.22,3.36-3.38,5.49-3.13,5.7-7.28,10.94-9.72,12.25-1.86,1-1.79.65.59-2.52,2.95-3.95,12.26-22.9,11.96-24.31-.09-.48.57-2.31,1.48-4.08.91-1.75,1.66-4.67,1.66-6.47s.57-5.77,1.29-8.83c.7-3.06.95-5.92.52-6.33-1.59-1.59-3.09,1.88-4.63,10.71-2.81,16.05-18.62,44.81-22.52,40.92-.81-.81.47-3.29,4.31-8.36,3.13-4.15,5.92-9.23,6.56-11.96,1.18-5,5.58-16.46,8.74-22.77,1.43-2.84,1.56-3.86.52-4.2-.86-.31-1.14-1.56-.74-3.4.45-2.11-.46-1.25-3.29,3.11-2.15,3.33-4.22,7.02-4.63,8.24-.39,1.22-2.13,4.26-3.86,6.79-1.72,2.52-3.14,4.83-3.14,5.13,0,1.31-8.81,13.6-11.71,16.32-3.45,3.25-8.06,4.42-8.85,2.23-.27-.75.2-1.38,1.03-1.38,2.41,0,12.6-11.4,16.41-18.37,6.06-11.03,6.35-11.8,7.47-19.72.59-4.27,1.59-9.1,2.21-10.73,1.38-3.64,1.41-4.98.11-4.98-.55,0-1.5,2.09-2.13,4.66-2.31,9.62-3.27,12.55-6.69,20.04-3.63,7.99-10.78,19.22-12.25,19.22-2.09,0-2.11-4.58-.06-7.47,1.22-1.7,2.95-5.04,3.86-7.42,2.84-7.45,5.29-23.7,3.77-25.22-.91-.92-1.66,1.73-3.08,10.78-1.25,7.97-3.93,16.93-5.75,19.18-1.56,1.93-5.24,1.72-5.24-.3,0-.93.98-4.48,2.2-7.92,2.32-6.62,2.82-11.85,1.25-12.84-.54-.32-1.27,1.62-1.62,4.34-.72,5.13-4.18,12.98-6.35,14.32-1.24.77-.77-5.52.91-12.6.45-1.8.25-2.39-.63-1.86-.68.43-1.25,1.46-1.25,2.29,0,2.59-4.88,12.6-6.43,13.19-1.18.44-1.34-.31-.75-3.56.41-2.27.97-5.36,1.21-6.88.27-1.5-1.05.47-2.93,4.4-1.88,3.94-3.63,7.39-3.9,7.65-1.14,1.2-2.54-3.04-2.56-7.65-.01-4.02.63-5.61,3.4-8.58,1.93-2.05,4.09-3.38,4.95-3.06.84.33,2.79.13,4.31-.46,2.72-1.04,2.74-1.11.98-4.49-2.34-4.54-1.38-9.29,3.02-15.03,2.54-3.3,4.7-4.82,7.95-5.61,18.68-4.56,24.37-6.7,26.8-10.17,1.57-2.23,1.68-2.25,3.11-.32.8,1.11,1.46,2.95,1.46,4.09,0,2.84,2.66,1.79,3.09-1.21.2-1.31-.41-3.95-1.36-5.85-3.86-7.72-1-10.97,3.25-3.7,1.61,2.73,3.61,4.97,4.45,4.97,1.91,0,1.91.05-.11-4.77-2.48-5.94-2.18-7.51,1.38-7.1,2.88.32,3.02.61,2.84,5.83-.09,3.02-.48,6.29-.88,7.28-.55,1.4.23,1.91,3.88,2.5,6.38,1.02,8.7,2.5,8.7,5.54,0,2.79,1.18,3.11,16.7,4.59,3.45.34,6.85,1.3,7.54,2.16.71.84,1.97,1.53,2.77,1.53s5.29,1.25,9.96,2.77c7.17,2.34,10.3,2.74,20.09,2.56,9.01-.16,12.37.19,15.11,1.62,1.93,1.02,5.7,1.84,8.4,1.84,5.63,0,5.84.32,6.86,10.26.44,4.48.25,7.79-.57,9.33-2.02,3.79,1.25,3.02,3.52-.82,2.26-3.81,2.34-8.97.27-14.8-1.88-5.24-.77-8.73,3.49-10.98,4.13-2.2,12.74-12.42,11.24-13.35-.65-.39-3.24,1.34-5.77,3.88-5.58,5.58-13.35,9.71-19.98,10.62-5.54.75-6.6-.71-1.99-2.82,6.03-2.74,16.52-12.28,23.97-21.77,2.42-3.08,5.45-6.1,6.76-6.72,2.16-1.02,4.61-7.28,3.36-8.52-.28-.28-4.16,3.56-8.61,8.54-19.18,21.49-27.17,27.46-38.85,28.96l-5.51.72,4.63-2.58c7.24-4,19.65-15.43,19.2-17.66-.52-2.72-1.39-2.43-5.23,1.64-8.14,8.64-16.32,14.36-23.81,16.61-2.88.86-5.45,1.2-5.74.73-.55-.91,3.91-4.63,9.92-8.27,10.28-6.26,16.61-11.46,21.86-18.02,5.92-7.36,8.35-12.19,6.15-12.19-.66,0-2.13,1.54-3.27,3.41-1.14,1.88-4.04,5.49-6.45,8.03-4.59,4.81-25.6,19.61-29.69,20.89-1.3.41-2.37,1.22-2.37,1.79,0,1.7-7.58,1.14-10.53-.79l-2.75-1.8,4.72-2.74c2.59-1.52,7.28-4.4,10.38-6.43,3.13-2.04,6.13-3.7,6.67-3.7,1.61,0,6.54-5.84,7.19-8.51.5-2.07-.34-1.65-4.92,2.47-3.02,2.72-5.99,4.95-6.59,4.95s-3.91,2-7.4,4.43c-6.37,4.47-17.63,9.49-17.63,7.86,0-.48,1.7-2.54,3.79-4.56,2.1-2.02,4.27-5.07,4.88-6.79l1.09-3.11-2.97,1.88c-1.63,1.04-3.2,2.16-3.5,2.52-.3.34-2.81,2.22-5.54,4.16-3.68,2.61-6.56,3.68-10.99,4.08-5.92.52-5.95.5-2.58-1.07,4.81-2.24,15.82-12.53,15.82-14.78,0-1.02.54-2.41,1.22-3.09.66-.66.98-1.88.68-2.68-.36-.95-.93-.5-1.66,1.27-2,4.97-6.1,7.68-13.53,8.99-3.86.68-7.61,1.96-8.33,2.82-1.88,2.31-7.37.3-7.83-2.84-.27-1.84.2-2.38,2.07-2.38,1.34,0,5.36-1.07,8.94-2.37,5.38-1.97,6.85-3.08,8.62-6.54,2.66-5.22,2.92-8.47.48-6.45-.89.75-1.64,2.07-1.64,2.95,0,2.05-2.2,4.24-5.27,5.2-2.18.7-3.6-.86-1.59-1.75.45-.2,2.2-2.34,3.88-4.75,1.68-2.41,4.22-5.83,5.65-7.56,3.02-3.68,5.47-3.09,3.93.95-.82,2.18-.62,2.77,1.24,3.36,1.22.39,2.54.39,2.91.02.38-.38.75-4.36.82-8.86.11-5.63.68-8.8,1.84-10.12,2.71-3.13,2.82-4.95.59-10.03-2.29-5.17-1.95-10.8.93-14.89,1.68-2.41,2.09-6.13.68-6.13-.46,0-2.31,2.47-4.07,5.49-2.86,4.9-3.33,5.27-4.35,3.45-.62-1.14-3.97-4.63-7.42-7.78-10.56-9.6-11.08-12.49-4.15-22.59,1.81-2.63,3.29-5.51,3.29-6.38s.73-1.89,1.64-2.23c.91-.36,1.64-1.32,1.64-2.15,0-2.41,3.36-4.81,10.44-7.42,7.08-2.61,15.96-7.34,17.28-9.2.45-.65,2.11-5.28,3.7-10.31,4.27-13.62,3.48-17.13-5.42-24.02-3.99-3.08-6.61-2.32-4.9,1.43.66,1.45,1.89,2.64,2.73,2.64s2.74,1.22,4.22,2.7c2.82,2.84,3.68,9.4,1.63,12.64-.81,1.29-1.27.95-2.24-1.65-2.3-6.08-6.02-13.14-7.42-14.01-.75-.49-1.36-2.36-1.36-4.16,0-1.93-.7-3.54-1.7-3.92-.93-.36-2.65-2.49-3.79-4.74l-2.09-4.09,3.76-7.47c4.82-9.56,5.24-9.87,4.75-3.57-.54,6.86,1.05,6.11,3.45-1.59,1.03-3.4,3.16-8.42,4.7-11.17,2.21-3.97,2.5-5.22,1.38-6.15-1.59-1.32-3.54,1.14-6.04,7.65-2.04,5.31-3.32,6.5-3.32,3.11,0-3.95,3.08-10.9,5.88-13.3,1.3-1.11,3.43-2.95,4.77-4.09,6.13-5.28,12.42-6.78,16.32-3.92,2.11,1.56,2.11,1.61,0,5.22-1.18,2-5,6.99-8.51,11.08-6.54,7.63-7.2,9.47-5.27,14.57,2.36,6.22,9.2,8.94,13.78,5.49,2.84-2.16,3.77-2.07,3.77.34s4.9,4.9,7.81,3.99c3.14-1,2.5-2.5-1.84-4.33-4.38-1.82-4.25-2.95.54-4.93,2.92-1.21,3.25-1.86,3.17-5.92-.05-2.5.71-6.4,1.72-8.63,2.65-6.01,2.41-8.85-.68-8.1-1.36.34-1.86.34-1.09-.02.75-.34,1.38-1.2,1.38-1.91,0-1.54,5.15-7.31,6.54-7.31.52,0,1.73-.3,2.66-.66,1.5-.57,1.62.47,1.03,8.28-.66,8.38-.54,9.08,1.93,11.72,3.86,4.13,5.67,4.83,14.95,5.88,9.53,1.06,11.31.7,11.31-2.38,0-3.95,9.78-12.41,20.13-17.36,6.61-3.18,9.33-5.02,8.56-5.79-1.2-1.2-11.28,2.52-14.5,5.36-.97.84-2.52,1.54-3.49,1.54-1.59,0-9.83,7.76-14.8,13.92-1.79,2.21-2.54,2.34-9.39,1.59-10.47-1.14-11.15-2.08-11.6-15.84-.2-6.17-.79-11.66-1.3-12.19-1.67-1.73-10.65,5.07-14.57,11.01-3.65,5.54-3.73,5.94-2.77,12.1,1.39,8.89.62,10.78-6.24,15.34-6.79,4.5-10.35,4.47-12.46-.16-2.18-4.79-1.52-6.62,5.72-15.73,7.56-9.51,8.96-12.76,7.33-17.05-1.19-3.17-8.09-5.79-12.31-4.7-1.41.36-6.15,4-10.55,8.1-7.31,6.81-8.2,8.15-10.62,15.68-1.46,4.54-3.92,11.21-5.45,14.84-3.97,9.35-3.89,9.92,2.9,19.54,1.2,1.68,1,2.27-1.36,4.1-1.5,1.16-3.52,2.15-4.47,2.15-3.06.05-6.49,4.88-7.08,9.99-.32,2.68-.98,6.35-1.48,8.17-.84,3.08-1.24,3.27-5.74,3.06-5.49-.27-8.2-2.7-9.28-8.37-.36-1.91-1.37-4.45-2.23-5.63-1.48-2-2.02-2.05-8.44-.73-4.32.87-7.88,2.38-9.67,4.05-3.54,3.36-4.74,3.35-7.45-.12-1.78-2.27-2.09-3.86-1.61-8.54.71-6.88.11-7.53-8.81-9.46q-6.42-1.37-10.65,2.02c-2.32,1.86-4.95,3.4-5.85,3.4s-3.32-1.99-5.4-4.4c-2.05-2.41-4.08-4.4-4.45-4.4s-3.18-1.52-6.2-3.38l-5.49-3.38-6.32,1.82c-7.01,2.02-10.42,4.63-12.42,9.47-2.05,4.97,2.05,16.98,7.45,21.75,4.64,4.13,4.74,4-5.88,10.06Zm353.61,28.66c-1.41.75-4.79-.23-4.79-1.4,0-1.27,2.27-1.29,4.24-.03.82.52,1.07,1.16.55,1.43Zm99.98-4.31c.91-.92,3.97,1.93,3.97,3.68,0,.84-.48,1.52-1.06,1.52-1.32,0-3.75-4.36-2.91-5.2Zm-4.15,184.2c-.89,0-1.94-.48-2.32-1.09-.38-.6.07-1.09.96-1.09s1.97.49,2.32,1.09c.38.61-.05,1.09-.97,1.09Zm25.37,12.04c-4.38-4.64-8.69-5.72-10.44-2.57-.82,1.43-1.45,1.54-3.36.5-1.29-.7-2.36-1.7-2.36-2.23s-.32-1.82-.73-2.88c-.65-1.68-.2-1.82,4.08-1.13,5.43.86,17.16,6.92,18.09,9.33,1.37,3.61-1.43,3.08-5.28-1.02Zm17.89,26.26c0-1.88,2.95-.92,5.49,1.78,1.75,1.86,2.07,2.74,1.02,2.68-1.98-.07-6.51-3.18-6.51-4.47Zm-92.81,89.09c.38-.59,1.14-1.09,1.72-1.09s1.04.5,1.04,1.09-.77,1.11-1.72,1.11-1.41-.5-1.04-1.11Zm-71.66-10.46c4.38-2.05,10.06-5.02,12.64-6.58,2.55-1.57,4.66-2.43,4.66-1.91,0,1.16-9.24,8.2-13.76,10.49-3.81,1.93-11.49,3.57-11.49,2.47,0-.39,3.57-2.41,7.95-4.47Zm-137.28-42.86c2.58-1.14,6.02-3.02,7.69-4.22,1.64-1.18,3.29-1.86,3.65-1.5.77.77-3.79,4.99-9.72,9.01-4.95,3.34-6.27,3.5-6.27.79,0-1.34,1.61-2.74,4.66-4.08Zm-12.85-6.97c1.18-1.13,9.3-4.59,9.3-3.99,0,.23-1.68,1.43-3.7,2.7-3.73,2.31-7.58,3.2-5.6,1.29Zm215.76-231.29c-2.75.55-3.52.44-2.7-.41.61-.66,2.84-1.52,4.93-1.91,2.59-.49,3.47-.36,2.72.41-.61.62-2.82,1.48-4.95,1.91Zm-98.56,137.82c4.4-4.85,6.31-6.33,6.31-4.91,0,1.13-1.11,3.72-2.47,5.75-2.22,3.35-11.51,9.6-10.55,7.12.22-.55,3.24-4.15,6.7-7.95Zm-33.23,14.91c2.13.39,4.32,1.16,4.9,1.7,1.86,1.73-4.36,1.07-6.59-.71-2-1.59-1.89-1.67,1.7-.98Zm-53.23,7.61c4.24-6.78,9.01-16.7,10.08-20.9l1.11-4.36.87,3.2c.59,2.2.25,5.04-1.09,8.97-1.38,4.06-3.61,7.37-7.51,11.08-4.34,4.16-5.09,4.59-3.47,2Zm-18.68,21.86c1.11-1.98,3.56-4.02,5.88-4.93,2.2-.84,4.37-1.7,4.81-1.91,2.04-.91.45,2.18-3.84,7.45-4.66,5.76-16.94,15.71-23.56,19.11-4.4,2.27-4.72,2.25-4.72-.16,0-1.24,1.34-2.47,3.57-3.29,4.26-1.56,15.16-11.48,17.86-16.27Zm-4.05-8.88c.78-.31,1.73-.27,2.09.09.38.38-.29.63-1.43.57-1.29-.04-1.54-.3-.66-.66Zm-2.91,6.26c1.72,0,3.11.28,3.11.65,0,2.45-4.63,7.44-10.31,11.13-9.24,5.99-9.21,5.97-10.03,4.63-.41-.66-.57-1.3-.36-1.45,3.93-2.59,11.82-9.97,12.96-12.12,1.09-2.04,2.41-2.84,4.63-2.84Zm-9.13-1.11c2.27,0,1.34,1.89-2.61,5.38-4.25,3.74-6,4.26-6,1.83,0-1.73,6.54-7.2,8.62-7.2Zm-4.95-4.45c.97.97.61,1.79-1.47,3.4-1.52,1.16-3.38,2.11-4.13,2.13-2.31.04-1.46-2.59,1.5-4.75,2.15-1.57,3.11-1.75,4.1-.77Zm-11.32-1.52c.87-.86,3.09-1.89,4.9-2.29l3.29-.73-3.59,2.31c-4.18,2.68-7.06,3.13-4.59.71Zm-63.1-11.32c.28.27-.25,1.13-1.16,1.89-1.03.86-1.68.95-1.68.22,0-1.32,2.09-2.88,2.84-2.11Zm-28.1-38.18c.61-.38,1.11-.18,1.11.43s-.5,1.4-1.11,1.77c-.6.38-1.09.2-1.09-.41s.48-1.41,1.09-1.78Zm-21.39,37.07c3.61-3.47,7.56-8.4,8.78-10.97,2.3-4.91,4.5-6.4,3.25-2.2-1.41,4.74-5.91,11.46-10.35,15.46-7.56,6.85-9.07,4.81-1.68-2.29Zm49.19-95.49c-2.06,1.25-1.77,2.95.48,3,1.75.02,1.72.18-.2,1.65h-.02c-3.09,2.34-7.49,2.14-6.81-.32.3-1.05.86-3,1.23-4.32.66-2.31,8.71-9.12,10.76-9.12,1.24,0-3.52,7.92-5.45,9.12Zm13.39-39.86c.98,0,1.47.48,1.11,1.09-.38.61-.88,1.09-1.11,1.09s-.71-.49-1.09-1.09c-.38-.6.11-1.09,1.09-1.09Zm-8.78-3.31c.38-.6.9-1.09,1.16-1.09s.49.48.49,1.09-.52,1.11-1.16,1.11-.86-.5-.49-1.11Zm22.2-91.15c2.45,0,7.63,5.92,10.12,11.53,2.48,5.63,3.49,14.32,1.86,16.25-.68.81-2.59,2.04-4.26,2.73-2.45,1.04-3.02,1-3.02-.21,0-.81.73-2.1,1.65-2.85,1.88-1.55,2.25-10.42.62-14.48-.55-1.41-2.79-4.48-4.93-6.86-4.38-4.82-4.81-6.11-2.04-6.11Zm-5.76,4.38c2.25,0,4.11,3.02,3.34,5.44-.5,1.56.36,3.73,2.77,7.1,3.34,4.66,3.41,5.02,2,9.06-.81,2.32-1.51,4.72-1.52,5.33-.02.59-.43,1.72-.9,2.47-.48.75-1.56,1.38-2.39,1.38-1.2,0-1.4-1.23-.88-5.54.63-5.36-.28-8.8-3.56-13.14-1.64-2.2-.73-12.09,1.13-12.09Zm-7.4,30.87c.93-2.26,1.38-5.61,1.05-7.99-.46-3.45-.18-4.23,1.68-4.82,3.36-1.08,6.13,4.58,4.8,9.83-.39,1.61-2.31,3.45-4.91,4.74l-4.26,2.11,1.63-3.86Zm-108.88,16.82c-.95-2.47-.91-2.52,1.54-1.88,1.2.32,2.2,1.25,2.2,2.09,0,2.09-2.91,1.93-3.73-.21Zm45.87,4.49c-.36.91-1.32,1.64-2.16,1.64s-1.54-.73-1.54-1.64.97-1.65,2.16-1.65c1.47,0,1.97.52,1.54,1.65Zm16.07,15.89c0-.62.86-1.46,1.91-1.88,2.98-1.14,9.23-5.57,10.83-7.7,1.18-1.54,1.47-1.59,1.47-.27,0,1.91-3.72,6.37-7.6,9.08-3,2.11-6.61,2.52-6.61.77Zm18.68-29.46c-1.03,1-2.73,4.47-3.79,7.69-1.03,3.24-2.97,7.04-4.27,8.45-2.91,3.15-5.91,4.85-6.61,3.74-1.43-2.32,1.08-7.33,5.52-11.05,4.22-3.52,5.2-5.22,7.61-13.11,1.52-4.98,3.2-9.06,3.74-9.06,1.68,0-.2,11.4-2.2,13.33Zm1.61,11.1c-1.16,2.25-2.54,4.11-3.04,4.11-1.65,0,.46-4.86,3.32-7.69,2.99-2.93,2.97-2.77-.28,3.58Zm-2.72,42.54c-.61,0-1.09-.77-1.09-1.7s.48-1.41,1.09-1.04c.61.38,1.09,1.14,1.09,1.72s-.48,1.02-1.09,1.02Zm-2.2-13.76c0-.34,2.71-3.25,6.04-6.51,5.33-5.18,6.04-5.6,6.04-3.36,0,1.53-1.7,4.04-4.4,6.49-3.84,3.46-7.68,5.16-7.68,3.38Zm6.2,4.43c.34-.91.95-1.65,1.32-1.65s2.13-2.25,3.86-4.99c2.9-4.58,3.25-4.82,4.63-3.02,2.18,2.88,1.93,3.92-1.86,7.79-3.59,3.67-9.15,4.97-7.95,1.86Zm8.99,6.58c-3.25,2.74-7.51,3.72-7.51,1.72,0-.57,2.2-2.56,4.88-4.4,2.66-1.84,5.18-4.34,5.56-5.56.39-1.21,1.13-1.95,1.67-1.62,1.62,1-1.16,6.97-4.59,9.87Zm3.2-69.73c2.58-2.82.43,9.71-2.61,15.27-2.93,5.38-2.81,6.43.52,4.36,2.81-1.75,4.11-4.2,6.67-12.48,1.2-3.84,2.74-6.74,3.72-6.93,4.52-.92,2.47,12.39-2.2,14.15-1.41.54-3.07,2.34-3.72,4-.63,1.67-2.32,4.58-3.76,6.46-1.45,1.89-2.93,4.68-3.32,6.22-.38,1.54-1.77,3.13-3.07,3.52-1.46.45-1.86.95-1,1.29,2,.84,1.68,3.38-1.02,8.17-1.7,3.06-4.2,5.17-8.86,7.56-6.26,3.2-10.73,4.26-10.71,2.5.02-.45,1.88-1.72,4.13-2.82,6.99-3.43,18.67-23.97,17.13-30.1-.66-2.59,5.27-18.02,8.11-21.16Zm-9.6-15.18c3.2.32,3.77.88,5.01,5.12,1.04,3.5,1.09,5.68.23,8.24-.63,1.91-1.52,3.9-1.99,4.42-1.45,1.61-2.98-2.73-2.23-6.31.93-4.32.32-7.26-1.52-7.26-.81,0-1.72,1.86-2.11,4.33-.97,6-2.29,6.31-4.86,1.11-3.63-7.35-1.2-10.49,7.47-9.64Zm-32.64-4.58c-.79,3.02-2.38,3.81-3.24,1.59-.39-1.04-.04-2.23.84-2.79,2.38-1.52,3.02-1.2,2.4,1.19Zm-4.75-7.7c.62,0,1.14-.49,1.14-1.09s.75-1.11,1.64-1.11,1.64.5,1.64,1.11-.36,1.11-.82,1.11-2.66,1.7-4.92,3.77c-2.43,2.21-4.38,3.29-4.8,2.61-.75-1.21,4.2-6.4,6.11-6.4Zm-37.68,18.86c-2.2-2.31-2.91-4.16-2.91-7.65,0-3.77-.36-4.61-2.05-4.61-3.67,0-5.02-2.82-3.59-7.54,1.63-5.44,3.97-7.45,10.35-8.89,4.79-1.07,5.58-.93,9.87,1.75,6.83,4.26,16.61,13.76,16.75,16.32.07,1.21.23,5.67.38,9.88.21,6.85.41,7.47,1.77,5.67.84-1.11,1.86-3.95,2.25-6.33.88-5.11,2.74-4.63,2.74.73,0,2.48.52,3.78,1.52,3.78,1.86,0,3.04-2.68,2.16-4.94-.93-2.43,1.54-2.02,2.86.47.63,1.18,1.14,3.18,1.14,4.48,0,1.65.57,2.22,1.91,1.95,1.2-.25,1.81-1.23,1.63-2.55-.91-6.44-.52-12.58.91-14.32,1.45-1.73,1.64-1.59,2.31,1.84.41,2.05,2.11,7.08,3.79,11.16,2.27,5.51,3.59,7.4,5.17,7.4,1.81,0,2-.54,1.38-3.84-.71-3.88.38-5.01,2.39-2.47,1.52,1.89,2.68,13.8,1.81,18.21-.49,2.43-1.59,3.99-3.33,4.63-1.68.65-2.59,1.88-2.59,3.52,0,2.97-2.84,7.42-4.74,7.38-3.43-.04-4.13-1.7-2.43-5.79,2.08-4.93,2.08-5.17.05-5.17-.89,0-2.36,1.45-3.29,3.22-3.22,6.22-6.95,5.76-4.32-.55.89-2.12,1.32-4.32.97-4.91-1.24-2-3.57-1.02-4.29,1.79-.38,1.57-1.93,4.77-3.42,7.15-2.75,4.34-5.99,5.74-5.99,2.56,0-.95,1.78-3.92,3.97-6.58,2.34-2.84,3.7-5.52,3.33-6.49-1.04-2.7-2.66-1.93-4.59,2.13-2.43,5.1-4.31,6.47-7.71,5.63-3.67-.93-3.16-3.95.97-5.94,3.02-1.45,4.9-4.11,3.73-5.28-.32-.32-2.65.92-5.16,2.74-2.5,1.83-5.28,3.04-6.13,2.72-2.11-.82-2.02-1.24,1.16-5.42,3.2-4.18,3.34-4.84,1.11-4.84-.9,0-2.95,1.48-4.58,3.29-3.38,3.81-5.86,4.27-5.86,1.11s-1.29-2.66-3.84,1.32c-1.22,1.89-2.95,3.54-3.86,3.66-.91.13-3.29,1.75-5.27,3.61-4.31,4.02-10.19,7.15-11.24,5.97-1.49-1.66-4.22-11.4-3.63-12.92.39-1.04,1.59-1.36,3.54-.97,2.23.45,4.56-.48,9.51-3.83,3.61-2.43,6.74-3.91,6.96-3.31.55,1.56-2.52,4.19-10.6,9.08-6.74,4.07-8.06,6.33-4.16,7.08,4.36.84,18.57-13.07,16.59-16.27-.34-.57.86-1.8,2.7-2.75,3.06-1.59,3.33-2.18,3.33-7.47-.02-5.33-.39-6.15-5.33-11.49-4.82-5.24-8.96-7.42-8.96-4.72,0,1.25,4.49,8.31,7.6,11.98,1.61,1.89,2.02,3.51,1.54,6.04-.92,4.85-1.93,5.81-8.83,8.38-8.1,3.04-9.55,2.31-2.75-1.39,8.17-4.45,8.91-5.72,5.36-9.4Z"/>
      <path class="cls-1" d="m388.74,242.93c0,2.34,6.42-3.72,12.94-12.25,1.89-2.47,4.15-6.67,5.04-9.33,3.17-9.65,4.1-24.24,1.68-26.76-.56-.57-1-2.31-1.02-3.84-.04-3.68-3.83-8.71-5.4-7.15-.81.81-.3,3.75,1.66,9.76,2.77,8.49,2.85,10.35.86,20.68-1.02,5.36-2.59,2-2.61-5.56-.02-8.08-1.68-12.62-4.83-13.23-1.7-.32-1.93.07-1.32,2.2,4.02,14.21,2.27,29.26-4.86,41.33-1.18,2.02-2.14,3.88-2.14,4.15Z"/>
      <path class="cls-1" d="m350,63.3c-2.15,0-2.07.27,1.09,3.56,2.15,2.24,4.18,6.15,5.44,10.44,2.27,7.76,3.66,8.83,3.63,2.75-.04-7.65-5.56-16.75-10.15-16.75Z"/>
      <path class="cls-1" d="m354.29,114.01c-2.63-.52-2.37,6.45.34,9.92,1.37,1.73,2.65,6.15,3.52,12.28q1.38,9.53,3.38,7.04c2.52-3.2,1.95-8.15-2.32-20.17-1.97-5.52-3.78-8.86-4.92-9.08Z"/>
      <path class="cls-1" d="m337.06,48.86c1.41-.49,1.68-1.99.36-2.11-.43-.05-1,.5-1.24,1.23-.25.72.16,1.11.88.88Z"/>
      <path class="cls-1" d="m345.58,153.55c-1.64,3.43-2.98,6.9-2.98,7.72,0,1.86-9.35,11.96-19.05,20.56-5.44,4.83-8.39,6.67-10.64,6.67-1.72,0-3.36-.39-3.66-.87-.29-.49,1.64-3.08,4.29-5.76,2.66-2.7,7.38-8.72,10.49-13.39,4.97-7.47,5.76-9.44,6.58-16.48,1.19-10.39,1.21-12.92.09-12.92-1.04,0-2.93,6.02-3.97,12.65-1.54,9.74-18.72,32.46-25.58,33.8-5.29,1.03-4.99-.97,1.14-7.6,7.72-8.37,13.89-20.88,14.25-28.87.32-7.12-1.98-9.1-3.06-2.65-1.03,6.27-4.81,15.59-8.81,21.75-3.47,5.38-13.32,15.28-17.57,17.7-1.86,1.06-1.93,1.45-.59,3.07.84,1.02,2.11,1.62,2.79,1.36.7-.25,2.84.2,4.77,1,3.13,1.32,3.38,1.77,2.47,4.2-2.47,6.45-7.2,14.71-10.67,18.57-2.05,2.29-3.41,4.67-3.04,5.29,1.68,2.74,11.78-11.17,14.84-20.43,2.04-6.11,2.66-6.6,5.29-3.97l2.29,2.31-2.95,6.01c-1.61,3.3-2.56,6.4-2.09,6.88,1.04,1.03,3.97-2.75,3.97-5.15,0-.95,1.22-3.52,2.7-5.7,2.54-3.74,3.11-3.99,9.6-4.43,3.81-.25,8.9-1.38,11.31-2.52,6.33-2.93,20.84-13.76,23.22-17.32,1.13-1.66,2.93-3.31,4.02-3.67,2.5-.81,9.78-15.57,8.96-18.16-1.02-3.22-3.18-1.25-5.29,4.83-1.57,4.52-3.91,7.6-10.9,14.41-9.38,9.12-19.61,16.42-22.2,15.83-.93-.2,2.52-4.59,8.85-11.24,5.71-6,10.37-11.45,10.37-12.1s.91-2.92,2.02-5.01c4.02-7.63,6.08-18.62,5.01-26.87-1.54-11.78-3.32-10.15-3.29,2.97.04,10.03-.3,11.96-2.95,17.52Z"/>
      <path class="cls-1" d="m329.85,34.11c1.13-2.93.75-6.53-.89-8.78-2.59-3.5-3.97-.79-2.66,5.29,1.14,5.34,2.38,6.56,3.56,3.49Z"/>
      <path class="cls-1" d="m308.13,33.64c1.27,0,1.61-.66,1.18-2.32l-.61-2.32,2.47,2.32c1.36,1.27,2.81,2.32,3.22,2.32,1.43,0,.75-3.68-1.06-5.68-1.89-2.07-4.77-2.71-4.77-1.05,0,.52-2.11.55-4.66.09-5.6-1.05-6.78-.2-5.28,3.79,1.75,4.61,1.47,5.06-3.18,5.06-2.38,0-4.61.47-4.97,1.04-.79,1.27,2.84,3.36,5.83,3.36,2.45,0,12.62,9.53,16.38,15.35,2.34,3.61,2.48,3.68,2.47,1.09,0-1.5-.75-4.15-1.65-5.87-2.15-4.11-2.09-4.29.82-3.4,4.66,1.43,12.07,8.49,14.78,14.14l2.7,5.58-.59-5.78c-.44-4.43-.23-5.76.93-5.76,1.77,0,9.14,8.22,10.57,11.8.55,1.36,1.5,3.79,2.15,5.4.81,2.07,1.46,2.59,2.31,1.75.84-.84.77-2.4-.22-5.4-3.29-10.01-12.94-20.14-19.2-20.14-2.12,0-4.27-.89-5.56-2.31-1.14-1.29-4.56-3.57-7.58-5.09-7.09-3.61-10.65-7.98-6.47-7.98Z"/>
      <path class="cls-1" d="m332.91,28.05c.11,2.95.59,4.13,1.56,3.75,1.99-.75,2.5-2.74,1.45-5.58-1.47-3.91-3.2-2.88-3.01,1.83Z"/>
      <path class="cls-1" d="m321.9,36.86c3.4.34-1.29-11.12-4.83-11.8-1.57-.3-1.41.59,1.13,5.69,1.64,3.32,3.3,6.08,3.7,6.11Z"/>
      <path class="cls-1" d="m504.66,208.43c-1.16.23-2.64,2.54-3.79,5.88-1.63,4.72-2.34,5.54-5.12,5.86-3.68.41-6.26,2.15-5.36,3.59.57.91,1.81.75,9.26-1.19,3.04-.79,5.31-4.61,6.27-10.6.55-3.32.36-3.86-1.27-3.54Z"/>
      <path class="cls-1" d="m539.4,233.53c2.65,0,4.81-17.54,2.26-18.39-1.14-.39-1.88,2.11-1.56,5.29.02.34-.32,3.43-.79,6.86-.47,3.43-.43,6.24.09,6.24Z"/>
      <path class="cls-1" d="m644.14,363.59c-.04,1.48-1.23,2.43-3.89,3.13-2.13.55-4.35,1.37-4.95,1.86-.61.46-5.04,1.98-9.89,3.36-10.24,2.93-12.87,4.69-10.38,6.94,2.06,1.88,12.49,4.63,23.02,6.06,4.52.63,13.17,1.91,19.22,2.9,6.99,1.13,12.98,1.46,16.48.98,6.92-1,16.14-.7,19.43.61,3.36,1.35,3.51,1.35,9.45-.13,7.55-1.86,15.59-7.28,15.59-10.47,0-5.18-9.85-12.53-24.87-18.61-9.6-3.86-9.83-3.9-16.87-2.58-9.14,1.72-15.41.23-18.88-4.43-2.47-3.36-7.67-4.53-9.19-2.08-.41.66-1.67.97-2.81.66-2.34-.61-2.63.57-.89,3.81.66,1.22.81,3.04.34,4.04-.46,1.02-.86,2.79-.91,3.95Zm-5.01,10.65c0-1.41,3.23-3.86,4.02-3.08.38.38.06,1.45-.7,2.36-1.54,1.84-3.33,2.22-3.33.71Zm31.19,6.08c-1.45.95-2.63,2.42-2.63,3.25,0,1.67-3.92,2.09-4.88.54-.34-.55.12-1.27,1.02-1.61.89-.34,1.93-2.63,2.32-5.08.8-4.93,1.72-5.95,4.56-5.06,2.97.95,2.71,5.92-.39,7.95Zm14.26,1.93c-.45,1.18-2.05,1.73-5.06,1.73-4.08,0-4.35-.18-3.61-2.47.45-1.36.79-3.83.74-5.49-.09-3.35,1.34-3.79,5.81-1.75,2.79,1.27,3.57,4.22,2.13,7.97Zm11.17.45c-1.02,3.2-5.61,3.27-6.45.09-1.25-4.82,1.32-6.77,5.22-3.93,1.4,1.02,1.75,2.18,1.23,3.84Zm6.13,2.21c-1.78.25-2.45-.11-2.11-1.11.57-1.7,4.02-1.99,4.42-.36.16.59-.87,1.25-2.31,1.46Zm-41.18-24.54c4.9,2.05,12.34,2.39,15.44.71,3.38-1.78,5.81-1.57,10.55.97,2.29,1.22,7.45,3.47,11.51,4.99,6.61,2.48,14.51,8.26,14.51,10.58,0,1-10.28,1.22-11.28.22-.36-.36-.36-1.43,0-2.36.55-1.43-.02-1.61-3.45-1.06-4.36.71-9.44-.62-9.44-2.48,0-.62.77-1.13,1.73-1.13,1.06,0,1.57-.75,1.36-1.93-.55-2.88-4.67-2.43-5.09.55-.2,1.36-.7,2.47-1.11,2.47s-1.25-1.11-1.84-2.47c-1.03-2.36-1.56-2.45-11.76-2.07-10.63.41-10.67.39-14-2.93-5.45-5.44-4.31-7.06,2.86-4.06Zm-6,15.73c1.41-4.74,3.48-5.16,6.06-1.27,1.41,2.13,1.32,2.58-.79,4.56-2.25,2.09-2.27,2.23-.34,3.36,1.68.98,1.34,1.18-2.11,1.19-4.63.05-4.93-.79-2.82-7.85Zm-1.54-12.08c.23.71-.36,1.3-1.3,1.3s-1.73-.79-1.73-1.73c0-1.95,2.36-1.61,3.04.43Zm-3.74,15.33c-1.54,2.47-5.18,2.97-6.86.95-1.09-1.3-.7-1.91,2.22-3.36,4.15-2.07,6.65-.77,4.64,2.41Z"/>
      <path class="cls-1" d="m626.62,329.09c-6.69,3.4-9.94,4.04-11.07,2.23-.87-1.43-3.88-.18-3.88,1.63,0,.79.63,1.7,1.38,2.04,4.47,1.93,22.79-4.08,22.79-7.49,0-2.45-1.88-2.13-9.23,1.59Z"/>
      <path class="cls-1" d="m614.84,315.89c-5.81,0-7.94.97-6.35,2.88,1.34,1.63,13.07,2.2,13.07.65,0-2-2.9-3.52-6.72-3.52Z"/>
      <path class="cls-1" d="m667.3,295.64c-4.54,2.08-7.08,2.61-9.87,2.09-4.05-.77-5.79.56-4.64,3.52.54,1.41,1.72,1.59,6.26,1,5.58-.75,16.34-5.54,16.34-7.28,0-2.16-2.34-1.97-8.08.66Z"/>
      <path class="cls-1" d="m626.81,308.96c-3.29-2.45-5.25-1.72-5.25,1.98,0,2.02.68,2.7,3.02,2.98,6.34.81,7.26-1.21,2.23-4.97Z"/>
      <path class="cls-1" d="m665.5,290.74c1.5-.41,2.74-1.48,2.74-2.36,0-1.05-.93-1.48-2.74-1.29-1.52.18-6.94.5-12.05.73-8.65.38-12.67,1.93-8.06,3.13,3.06.81,17.01.65,20.11-.22Z"/>
      <path class="cls-1" d="m546.4,230.6c1.98-.75,5.97-7.21,5.97-9.66,0-3.41-2.47-1.13-5,4.61-1.79,4.06-2.06,5.47-.97,5.04Z"/>
      <path class="cls-1" d="m555.17,210.16c.3-.77-.47-5.29-1.68-10.07-1.22-4.75-2.22-10.56-2.22-12.87,0-5.42-1.7-5.47-2.59-.11-1.09,6.63-.84,9.36,1.59,17.11,2.22,7.04,3.76,8.92,4.9,5.94Z"/>
      <path class="cls-1" d="m589.47,248.4l-2.97,7.72,2.11,6.81c1.16,3.73,2.95,8.08,3.97,9.62,2.09,3.2,6.9,6,10.26,6,3,0,2.84.95-1.02,5.47-1.81,2.09-3.81,5.31-4.47,7.13-.66,1.82-2.16,5.81-3.32,8.83-2.84,7.38-2.68,9.67.91,13.35,1.68,1.72,4.7,5.24,6.74,7.84,3.29,4.2,3.56,5.02,2.34,7.28-.75,1.4-1.06,3.49-.7,4.65.91,2.88,9.07,10.71,15.59,14.98,2.95,1.93,6.04,4.9,6.85,6.6.8,1.68,2.61,3.5,4.02,4.04,1.4.54,2.88,1.48,3.27,2.12,1.2,1.93,4.79,1.32,5.5-.93.36-1.16.84-5.72,1.04-10.12l.38-8.03,3.7-.12c2.04-.07,5.27-.97,7.22-1.97,1.93-1,4.48-1.82,5.68-1.82,2.31,0,6.72-4.79,6.72-7.29,0-1.72,3.93-2.04,4.93-.39,1.29,2.05,12.3,6.6,16.03,6.58,2.05,0,5.04-.88,6.63-1.93,8.47-5.6,15.05-11.44,16.3-14.48,1.24-2.99,1.11-4.18-1-9.69-3.11-8.1-5.54-16.68-5.52-19.47.03-1.99.16-2.04,1.39-.41,1.16,1.54,2.64,1.68,9.58,1,12.69-1.25,17.54-4.59,17.54-12.12,0-4.84-2.41-8.92-7.88-13.32-11.11-8.9-14.15-9.51-19.23-3.77-3.22,3.65-3.52,3.75-7.61,2.63-5.63-1.54-8.04-2.82-11.67-6.2-4.58-4.27-4.05-8.01,1.67-11.82,8.7-5.83,17.36-3.95,28.31,6.1,5.26,4.82,12.07,7.54,20.25,8.1,4.22.27,8.63,0,9.78-.63,1.16-.6,5.86-1.57,10.46-2.14,15.41-1.89,23.34-8.1,23.51-18.4.07-4.27-.59-6.37-3.15-10.03-1.77-2.54-4.97-7.47-7.08-10.94-7.15-11.74-11.88-15.71-23.61-19.79-11.15-3.88-16.8-4.61-20.16-2.63-3.51,2.05-6.96,7.08-8.99,13.08-1.63,4.79-3.06,7.13-4.31,7.13-.45,0-5.22-3.36-10.62-7.49-14.85-11.39-19.36-13.75-24.93-13.12-2.57.28-7.77,1.91-11.56,3.61-5.79,2.61-7.67,4.2-11.85,10.06-4.24,5.95-8.49,16.53-7.94,19.79.39,2.36-.38,2.5-3.13.59-5.65-3.89-13.46-7.08-15.41-6.27-1.04.43-5.6,1.16-10.12,1.62l-8.21.86-6.62,7.01c-4.91,5.18-7.38,8.97-9.6,14.69Zm113.99,69.96c.38.36.2,1.5-.38,2.54-.77,1.38-1.27,1.52-1.88.54-.88-1.43,1.14-4.2,2.25-3.08Zm-55.27-2.84c-.81.32-1.38,2.54-1.38,5.34,0,5.17-1.57,7.44-2.54,3.68-.87-3.33-3.04-2.05-5.97,3.5-3.88,7.37-7.01,9.74-13.64,10.41-3.16.32-5.93.77-6.18,1.02-1.2,1.19,1.43,2.73,5.75,3.38,3.09.46,5.01,1.36,5.33,2.54.3.98.89,2.67,1.32,3.74.52,1.27.28,1.91-.7,1.89-1.98-.02-16.03-9.9-19.98-14.05-3.04-3.2-3.08-3.36-1.25-6.13,1.35-2.09,2.82-2.86,5.35-2.86,5.36,0,15.17-2.86,16.21-4.74.52-.92,2.95-2,5.4-2.42,3.23-.55,4.79-1.48,5.67-3.4.91-1.98,2.04-2.61,4.59-2.55,1.86.05,2.77.34,2.02.64Zm3.29,5.54c.05-3.34.5-4.81,1.37-4.47.72.27,1.2,1.98,1.09,3.79-.34,5.7-2.56,6.31-2.47.68Zm14.69-4.97c-.39,2-1.54,4.27-2.56,5.02-2.68,1.98-3.27,1.75-5.2-2.13-2.04-4.08-1.54-4.75,4.2-5.79l4.27-.75-.71,3.65Zm5.27,8.6c-1.95,0-1.61-2.37.43-3.06.71-.23,1.3.36,1.3,1.3s-.79,1.75-1.73,1.75Zm18.19,0c-.59,0-1.09-.48-1.09-1.04s.5-1.34,1.09-1.72c.61-.38,1.11.09,1.11,1.04s-.5,1.72-1.11,1.72Zm16.48-40.65c-.61,0-1.09-.77-1.09-1.72s.48-1.39,1.09-1.02c.61.38,1.09,1.14,1.09,1.7s-.48,1.03-1.09,1.03Zm-5.44-12.06c.65,0,.88-.49.5-1.09-.91-1.46,1.25-5.22,3.79-6.58,1.43-.77,3.04-.77,5.04-.02,3.66,1.4,11.56,8.08,13.35,11.3,1.73,3.13,1.78,8.74.11,10.44-.73.73-1.97,1.32-2.75,1.32-1.68,0-1.91-2.86-.32-3.84,3.18-1.97-2.66-11.53-7.06-11.53-2.49,0-2.15,1.93,1.02,5.68,1.5,1.78,2.73,4.22,2.73,5.38,0,3.65-2.97,2.31-5.86-2.65-3.88-6.59-5.83-8.09-8.47-6.43-2.74,1.7-3.24,1.64-3.24-.34,0-.91.54-1.64,1.16-1.64Zm-17.43-1.67c1.27,2.81,1.64,2.93,6.7,2.27,4.72-.62,5.31-.48,4.99,1.2-.2,1.07-1.61,2.21-3.11,2.58-1.5.36-2.92,1.57-3.13,2.68-.34,1.83.15,1.97,4.65,1.36,4.38-.6,5.18-.39,6.27,1.63,1.13,2.13,1.02,2.27-1.56,1.62-1.54-.39-3.08-.27-3.41.27-.93,1.52,1.43,12.73,3.84,18.16,2.16,4.88,2.16,4.9-.06,8.83-1.21,2.18-2.21,4.93-2.21,6.11s-.5,2.16-1.09,2.16c-1.49,0-1.4-1.09.54-6.58,3.72-10.54.07-12.3-4.56-2.2-1.67,3.61-3.9,6.86-4.95,7.18-1.04.34-2.22,1.57-2.59,2.75-.36,1.18-1.5,2.59-2.53,3.14-1.63.86-1.86.34-1.84-4.13.02-3.9.75-6.08,3.09-9.13,3.4-4.45,4.5-10.26,1.95-10.26-.88,0-3.09,2.57-4.95,5.74-1.86,3.14-4.24,6.58-5.28,7.63-1.82,1.8-2,1.8-3.5-.23-1.47-1.99-1.2-2.54,3.32-7.02,4.92-4.88,5.81-7.99,2.48-8.62-1.07-.22-2.66,1.14-3.99,3.41-3.83,6.45-16.66,13.94-15.86,9.24.36-2.14-1.98-2.55-3.88-.68-.68.7-4,1.24-7.37,1.2-5.67-.05-6.11.12-6.11,2.47,0,2.59-2.38,3.84-7.33,3.88-1.43,0-2.68.9-3.09,2.18-.81,2.52-6.4,4.24-13.73,4.22-4.29-.02-5.58-.63-9.62-4.54-2.57-2.49-4.66-4.88-4.66-5.34,0-.48,2.34-.55,5.22-.18,3.45.43,4.84.28,4.11-.43-1.48-1.48-7.99-3.59-11.08-3.59-1.38,0-2.81-.47-3.18-1.06-1.11-1.82,4.91-2.59,9.21-1.18,6.99,2.32,18.78-2.54,18.78-7.72,0-2.75-1.68-2.68-4.72.18-1.32,1.25-3.81,3-5.5,3.9-2.83,1.48-3.51,1.41-7.76-.65-2.57-1.24-5.25-2.25-5.97-2.25-2.26,0-1.43-5.01,1.55-9.46,5.56-8.33,9.1-11.19,14.8-11.98,5.25-.71,13.08.9,13.08,2.72,0,.48,1.48,1.48,3.31,2.23,2.63,1.09,3.63,1.09,4.97-.02,1.18-.98,4.07-1.21,9.87-.77,4.52.34,8.22.23,8.22-.25,0-2.18-3.79-3.56-12.1-4.4-5.79-.57-9.61-1.52-10.74-2.66-1.63-1.61-1.57-2,.5-4.79,2.25-3,2.41-3.04,14.79-3.04,10.85,0,13.1-.32,17.12-2.47,4.66-2.49,10.2-3.31,10.2-1.49,0,.54-1.23,1.29-2.75,1.67-1.5.38-2.74,1.21-2.74,1.84,0,.77,2.06.91,6.01.41,5.77-.71,6.06-.65,7.36,2.23Zm-1.59-6.7c.36.38-.28.63-1.45.57-1.29-.05-1.54-.3-.66-.66.79-.31,1.73-.27,2.11.09Zm74.43-43.08c0,1.91-.57,3.67-1.27,3.9-.82.27-1.22-1.04-1.11-3.75.2-4.99,2.38-5.13,2.38-.15Zm-5.56-13.12c.71-.71,3.9,1.91,3.9,3.18,0,.54-.68.97-1.52.97-1.57,0-3.36-3.16-2.38-4.15Zm-100.69,10.67c1.36-2.77,2.45-5.61,2.45-6.35,0-1.98,9.66-7.72,16.21-9.63,5.54-1.61,5.95-1.59,10.83.86,5.01,2.5,6.47,4.61,7.8,11.16.43,2.16-.09,4.04-1.73,6.26-2.74,3.7-2.88,4.36-.9,4.36,2.13,0,5.95-4.47,6.83-7.95.91-3.7,2.12-3.83,4.32-.45,1.11,1.68,1.45,3.76,1,6.04-.41,1.98-.25,3.46.36,3.46,1.43,0,4.7-3.7,4.7-5.31,0-1.77,1.45-1.61,5.33.61,3.13,1.81,3.4,1.81,5.45-.06,1.18-1.07,2.47-3.52,2.84-5.43,1.93-9.6,6.86-15.07,13.56-15.07,4.04,0,15.64,3.56,15.64,4.79,0,.57,1.31,3.67,2.88,6.9,2.47,5.02,2.66,6.15,1.41,7.66-1.7,2.04-1.38,8.26.5,9.46,2.38,1.52,4.24.82,8.06-3,3.81-3.81,5.83-4.79,5.83-2.86,0,.55,1.73,3.07,3.84,5.59,2.11,2.54,3.84,5.02,3.84,5.54s-1.2,2.23-2.68,3.83c-1.46,1.59-2.43,3.52-2.15,4.27.29.75-.43,2.55-1.59,4-1.75,2.16-2.4,2.37-3.79,1.23-1.47-1.23-1.34-1.96.98-6.34,2.95-5.54,3.52-11.43,1.11-11.43-.84,0-1.86,1.36-2.27,3.02-1.52,6.11-8.28,16.69-11.14,17.41-3.95,1-4.26,0-1.05-3.45,3.14-3.4,3.64-6,1.16-6-.91,0-1.64.48-1.64,1.07,0,2.27-11.71,9.9-15.21,9.9-3.2,0-3.38-.16-2.11-2.18.75-1.22,1.95-2.2,2.65-2.2,1.45,0,8.08-7.24,8.08-8.83,0-2.11-2.95-.98-6.11,2.3-4.26,4.45-12.42,9.82-14.94,9.82-2.84,0-2.55-.61,2.4-5.07,3.89-3.52,5.7-7.01,3.63-7.01-.41,0-3.08,1.97-5.92,4.37l-5.18,4.36-2.92-2.29c-2.82-2.22-2.84-2.36-.95-4.45,1.93-2.15,1.89-2.16-2.07-1.43-2.32.45-5.7.22-8.01-.55-2.18-.71-6.42-1.29-9.4-1.27-4.66.04-5.43-.25-5.43-2.09,0-3.67-2.06-2.34-4.81,3.09-1.45,2.86-3.72,6.18-5.04,7.38-1.89,1.72-2.32,3.15-2.04,7.01q.36,4.85-4.31,6.24c-2.58.75-4.74,1.18-4.81.95-.07-.25-.2-1.06-.27-1.79-.23-2.31-3.75-2.23-4.48.09-.38,1.19-1.41,2.75-2.29,3.48-2.56,2.13-2.04-1.45,1.14-7.72,1.5-2.97,2.73-5.92,2.73-6.54,0-2.31-1.75-1.03-3.75,2.7-1.14,2.13-2.49,3.84-3,3.84-1.61,0-1-5.15.79-6.63.93-.79,2.22-2.36,2.82-3.52,1.04-1.95.77-2.07-3.61-1.75-4.32.31-4.9.04-6.38-2.93-2.48-5.06-2.09-15.54.81-21.47Zm-4.13,43.51c0,.27-.5.48-1.11.48s-1.09-.52-1.09-1.16.5-.86,1.09-.49c.6.38,1.11.89,1.11,1.16Zm-.98-14.12c.86.87.87,1.79.04,3.25-1.04,1.77-1.18,1.62-1.22-1.22-.04-2.36.29-2.91,1.18-2.04Zm-24.95-19.07c6.18-.57,7.5-.36,10.73,1.86,6.27,4.29,13.01,11.32,13.01,13.55,0,2.05-.09,2.07-2.16.2-2.09-1.89-5.52-1.68-5.52.34,0,.56.73,2.77,1.64,4.94,2.63,6.27,2.18,11.12-1.14,12.63-1.54.7-2.9,1.27-3.02,1.27s-.31-3.29-.41-7.29c-.12-5.76-.65-7.76-2.45-9.56-1.77-1.75-2.59-1.99-3.59-.98-1,1.02-.9,1.75.44,3.25,1.02,1.13,1.95,4.61,2.22,8.28.27,3.48.79,6.65,1.18,7.04.55.54-1.38,4.59-4.24,8.9-.31.47-21.5.84-25.97.47-2.22-.18-4.48-.93-5.06-1.65-.57-.73-1.91-5.17-3-9.85-2.47-10.69-1.27-15.32,6.03-23.2,5.99-6.49,11.88-9.32,21.32-10.19Z"/>
      <path class="cls-1" d="m732.06,204.98c.91,0,1.34-.5.97-1.11-.38-.61-1.41-1.09-2.32-1.09s-1.34.49-.97,1.09c.38.61,1.41,1.11,2.33,1.11Z"/>
      <path class="cls-1" d="m727.76,214.85c2.32-4.63,2.41-6.58.28-6.58-1.25,0-5.43,8.06-5.43,10.47,0,3.09,2.64,1.09,5.15-3.9Z"/>
      <path class="cls-1" d="m678.78,206.89c-.16-2.79-3.4-2.4-3.4.43,0,1.29.57,4.25,1.27,6.58,2.25,7.55,2.84,5.61,2.12-7.01Z"/>
      <path class="cls-1" d="m667.23,256.58c.81,0,4.85-7.65,4.85-9.19,0-2.09-3.19-2.45-3.7-.41-.2.75-.87,2.95-1.5,4.88-.63,1.91-.86,3.77-.54,4.11.34.34.75.61.89.61Z"/>
      <path class="cls-1" d="m623.85,269.13c2.86-2.57,3.02-10.69.21-10.13-1.48.28-1.94,1.64-2.12,6.2-.2,5.7-.15,5.81,1.91,3.93Z"/>
      <path class="cls-1" d="m771.48,299.99c-14.89.97-21.56,2.47-22.22,4.95-.41,1.61-1.25,1.88-4.26,1.39-4.66-.75-4.7,0-.61,10.12,2.29,5.67,4.1,8.35,6.85,10.21,2.07,1.38,4.31,3.81,4.99,5.38.86,2.04,2.13,2.93,4.38,3.09,6.7.49,25.51,6.19,33.37,10.14,7.99,4,8.54,4.11,18.13,3.74,15.96-.63,22.51-.5,32.39.64,5.15.59,10.9,1.14,12.8,1.24,5.2.25,26.05-4.15,27.3-5.74.61-.77,2.48-2.31,4.2-3.41,3.75-2.45,3.4-5.04-1.73-12.55-4.83-7.03-5.42-7.53-13.16-11-16.91-7.58-26.42-9.39-32.64-6.16-6.54,3.4-12.83,4.02-22.79,2.29-10.14-1.77-13.59-3.42-17.93-8.49-4.02-4.7-14.46-6.79-29.07-5.83Zm18.27,4.34c2.47.39,5.9,2.32,9.03,5.07,6.45,5.66,9.51,6.54,24.71,7.06,8.81.31,13.22.93,15.07,2.13,3.62,2.38,4.13,2.15,3.4-1.5-.45-2.29-.16-3.38,1.05-3.84,3.22-1.23,4.95-.65,7.72,2.65,3.22,3.84,6.4,4.49,5.33,1.09-1.11-3.46,2.16-2.7,6.99,1.67,4.26,3.84,6.22,4.66,6.92,2.9.2-.52,2.43-.07,4.95,1.02,4.81,2.05,12.44,11.64,12.44,15.6,0,2.54-6.15,5.18-13.86,5.97-5.65.59-5.76.55-6.11-2.48-.37-3.2-3.11-5.24-3.11-2.32,0,1.08-2.13,2.29-5.94,3.4-6.78,1.97-11.64,2.24-11.64.63,0-.61.38-1.11.82-1.14.47-.02,2.75-1.68,5.1-3.68,4.82-4.13,3.75-6.52-1.14-2.55-1.72,1.4-4.49,3.11-6.13,3.83-1.66.73-3.02,1.82-3.02,2.43,0,1.18-4.69,1.57-5.78.48-.36-.36,1.29-2.58,3.67-4.94,3.81-3.83,5.59-7.6,3.57-7.6-.39,0-2.47,2.04-4.59,4.53-3.68,4.31-10.67,8.4-12.01,7.06-.36-.34.7-2,2.31-3.7,3.22-3.35,3.88-6.79,1.34-6.79-.89,0-2.13.95-2.76,2.1-1.68,3.15-4.38,5.58-6.2,5.58-1.24,0-1.34-.46-.47-2.13,1.99-3.7,1.43-7.76-1.07-7.76-1.81,0-2.09.5-1.56,2.7,1.3,5.15-6.95,10.17-13.66,8.33-2.86-.77-2.86-.79-.43-1.59,1.36-.43,2.47-1.31,2.47-1.93s-.84-.82-1.86-.43c-3.49,1.34-11.17,2-13.17,1.13-1.52-.66-.68-1.16,3.51-2.11,3.63-.84,5.61-1.89,5.84-3.13.32-1.63-.43-1.77-6.42-1.14-6.7.7-6.78.68-5.35-1.61,2.21-3.52.48-4.02-5.01-1.45-5.26,2.47-7.2,2.73-11.48,1.61-2.39-.65-2.18-.87,2.2-2.5,2.71-.98,4.82-2.48,4.82-3.4s-.73-1.41-1.64-1.18c-.91.23-4.86,1.32-8.78,2.43-10.51,2.97-14.71,2.74-17.61-.95l-2.37-3.02,3.86-1.09c4.43-1.27,6.58-2.9,3.42-2.59-6.22.57-8.94-.22-10.19-2.95-.7-1.54-1.27-2.93-1.27-3.11,0-1.43,10.26-7.13,13.73-7.61,13.42-1.89,16.21-2.02,21.05-.95,2.92.63,7.1,1.45,9.29,1.81Z"/>
      <path class="cls-1" d="m767.9,319.84c-1.66.49-5.01.97-7.42,1.08-6.03.23-6.27.3-5.42,1.68.43.7,2.13.93,4.04.55,1.83-.38,5.22-.66,7.56-.66,3.18,0,4.26-.45,4.26-1.77,0-1.41-.61-1.59-3.02-.88Z"/>
    </g>
  </g>
</svg>