<?xml version="1.0" encoding="UTF-8"?>
<svg id="Layer_2" data-name="Layer 2" xmlns="http://www.w3.org/2000/svg" viewBox="0 0 1422.87 228.35">
  <defs>
    <style>
      .cls-1 {
        stroke-width: 0px;
      }
    </style>
  </defs>
  <g id="Layer_1-2" data-name="Layer 1">
    <g>
      <path class="cls-1" d="m16.28,68.57c-6.27,1.83-6.23,1.81-5.18,3.51,1.2,1.94,4.04,1.72,8.67-.67,5.43-2.8,3.03-4.76-3.49-2.84Z"/>
      <path class="cls-1" d="m151.14,98.26c-4.43-2.3-9.5-4.97-11.27-5.98-4.93-2.74-15.81-6.17-19.1-6-12.51.65-16.3.3-24.65-2.27-10.42-3.22-14.84-6.61-14.24-10.93.38-2.64,1.12-2.85,9.9-2.85,7.9,0,9.79-.42,11.31-2.5,2.59-3.54,2.36-5.01-1.94-11.79-4.44-6.99-15.69-14.71-21.5-14.78-5.79-.04-18.57,3.56-23.58,6.65l-4.36,2.69-6.69-3.28c-10.17-4.99-11.48-5.12-23.1-2.17-11.58,2.94-16.23,6.14-19.77,13.6-4.13,8.69-2.36,14.55,5.64,18.7,3.88,2,25.26,5.12,35.69,5.18,7.56.06,7.71.1,5.01,2.29-3.9,3.16-5.52,6.95-4.32,10.13,1.41,3.75,11.03,9.03,18.06,9.96,8.51,1.12,15.52,4.36,15.52,7.18,0,4.69,4.13,6.59,15.63,7.18,6.99.36,10.78,1.07,10.57,1.98-.17.78,1.58,2.59,3.89,4.04,2.99,1.85,5.52,2.42,8.74,1.94,2.48-.38,9.77-1.35,16.17-2.13,17.21-2.12,24.07-4.78,26.85-10.4,3.56-7.18,1.41-11.32-8.46-16.44Zm-117.68-19.2c-3.1-.82-2.99-1.14,3.01-7.94,6.36-7.22,4.48-8.8-2.72-2.29-2.84,2.54-6.09,4.65-7.22,4.65-1.39,0-1.81.7-1.28,2.09.72,1.83-.09,1.98-6.63,1.16-14.32-1.79-18.13-8.34-10.74-18.51,3.03-4.19,5.31-5.75,10.68-7.35,14.74-4.38,20.49-3.9,30.04,2.59l4.59,3.12,5.49-3.7c6.76-4.55,22.62-7.52,27.23-5.1,7.18,3.77,13.71,10.97,13.81,15.23.02,1.43-1.75,1.64-8.99,1.05-6.93-.59-9.48-.34-10.91,1.09-2.25,2.25-4.25,2.4-4.93.38-.36-1.09-1.18-1.09-3.24,0-1.51.82-3.98,1.5-5.45,1.5s-3.98,1.49-5.58,3.35c-1.6,1.85-5.29,4.76-8.19,6.46-5.05,2.97-12.67,3.88-18.97,2.23Zm49.56,25.46c-.67,0-1.58-.57-2.02-1.29-.44-.71.1-1.3,1.22-1.3s2.02.59,2.02,1.3-.54,1.29-1.22,1.29Zm30.63,17.92c-4-1.47-4.54-3.01-1.47-4.19,2.44-.95,8.95,1.87,8.63,3.75-.32,1.81-2.99,1.98-7.16.44Zm38.3-7.27c-2.25,1.31-7.06,2.74-10.69,3.16-5.82.7-6.53.53-5.82-1.35.44-1.16,1.2-2.1,1.69-2.1s2.91-1.71,5.37-3.79c3.09-2.61,4.06-4.19,3.14-5.14-.93-.94-3.6.19-8.9,3.77-8.32,5.66-9.06,5.83-13.52,3.37l-3.06-1.71,4.68-2.88c2.57-1.6,4.67-3.72,4.67-4.74,0-2.55-.8-2.36-8.61,2.06-7.14,4.02-10.8,4.86-10.8,2.48,0-.76.88-2.25,1.96-3.33,1.05-1.08,1.93-2.48,1.93-3.14,0-2.09-2.61-1.33-7.01,2.02-4.3,3.28-12.4,4.48-12.4,1.83,0-.78,1.31-2.47,2.91-3.77,3.41-2.75,2.02-5.16-1.64-2.86-3.6,2.25-6.53,1.96-9.69-1.01-2.59-2.46-3.12-2.51-8.99-.74-6.99,2.1-16.93.97-22.32-2.57-3.87-2.52-2.48-5.39,4.38-9.03,4.42-2.33,4.95-3.14,4.82-7.37-.15-4.4.27-4.97,5.48-7.41,6.93-3.24,6.95-3.24,6.95.02,0,6.82,7.22,14.61,14.87,16.02,2.84.53,5.75,1.33,6.46,1.77.72.44,4.86,2.06,9.22,3.58,6.82,2.4,8.34,2.53,10.99,1.05,3.54-1.94,9.1-2.31,10.9-.7.7.59,3.29,1.88,5.77,2.82,2.49.97,8.48,4.11,13.31,6.97,9.96,5.92,10.82,8.69,3.96,12.69Z"/>
      <path class="cls-1" d="m52.22,65.46c-1.96,1.56-5.9,4.06-8.74,5.58-6.61,3.51-6.74,3.67-4.61,4.97,1.16.72,4.32-.25,9.01-2.78,9.48-5.05,11.52-7.01,9.45-9.06-1.2-1.22-2.33-.92-5.11,1.29Z"/>
      <path class="cls-1" d="m501.97,167.85c-4.08-2.09-8.02-2.72-17.77-2.93-12.91-.25-42.68,2.25-50.7,4.25-2.48.63-8,1.83-12.27,2.67-10.25,2.02-12.24,3.16-11.35,6.48,1.06,4.06,6.11,6.69,15,7.81,4.4.55,15.56.65,24.8.23,9.27-.4,17.98-.72,19.41-.67,29.05.76,35.85.46,38.24-1.68,5.81-5.27,3.75-11.52-5.35-16.17Zm-64.04,16.78c-1.5-.06-1.81-.38-.78-.78.95-.38,2.06-.34,2.48.1v-.02c.42.44-.34.74-1.7.7Zm5.93-.1c-1.79,0-2.51-.3-1.62-.66.88-.36,2.36-.36,3.24,0,.88.36.15.66-1.62.66Zm58.54-9.98c-.53.53-2.57,1.35-4.53,1.83-2.76.67-3.56.4-3.56-1.22,0-2.72-1.62-2.61-7.61.44-4.46,2.27-6.14,2.38-17.75,1.27-7.03-.67-18.34-.91-25.1-.49-6.76.4-13.45.91-14.89,1.12-1.41.19-4.61-.02-7.11-.49-4.19-.78-3.77-.99,5.83-3.14,5.69-1.26,12.21-2.86,14.49-3.56,2.29-.7,12.86-1.37,23.52-1.48,17.03-.17,19.71.09,21.96,2.13,2.48,2.25,2.61,2.25,4.02-.38,1.12-2.11,2.21-2.53,4.95-1.9,3.88.91,7.31,4.36,5.77,5.85Z"/>
      <path class="cls-1" d="m333.37,71.18c.4-1.94-.12-3.22-1.49-3.75-2.72-1.03-4.15,1.35-5.22,8.63-.46,3.2-1.94,7.98-3.26,10.61-1.33,2.63-2.43,5.14-2.43,5.54s1.12.15,2.48-.59c4.02-2.15,7.75-7.71,8.55-12.78.42-2.61,1.03-6.04,1.37-7.66Z"/>
      <path class="cls-1" d="m344.21,62c-1.41-.99-2.55-2.51-2.55-3.41,0-2-9.94-10.3-13.79-11.5-5.56-1.77-4.93,2.11,1.26,7.52,9.37,8.23,12.08,18,6.21,22.3-1.16.84-1.66,1.96-1.14,2.46.51.5,1.81.21,2.91-.7,1.31-1.09,1.96-1.16,1.96-.21,0,2.25-8.03,16.99-9.24,16.99-.61,0-1.09.59-1.09,1.3,0,2.53,3.43,1.22,6.04-2.31,4.69-6.34,8.57-14.95,10.27-22.91,1.58-7.29,1.54-7.87-.84-9.54Z"/>
      <path class="cls-1" d="m1389.57,194.96c-9.66-2.23-14.65-2.67-23.92-2.11-8.47.51-13.77.13-19.1-1.33-6.74-1.85-8.32-1.83-17.98.11-10.25,2.04-14.11,3.75-14.11,6.23,0,4.06,19.45,15.29,26.95,15.56,1.89.06,6.35-.51,9.92-1.27,8.53-1.81,17.3-.1,25.54,4.97,5.72,3.52,7.18,3.88,13.1,3.14,4.75-.57,7.93-.23,11.18,1.25,6.61,3.01,15.26,1.7,18.99-2.85,3.96-4.84,3.71-7.11-1.35-12.34-4.74-4.86-10.21-6.99-29.22-11.37Zm-48.13,5.16c-2.23.78-4.13,1.3-4.21,1.2-.06-.13-2.59-.46-5.62-.74-6.8-.61-7.07-2.36-.65-4.15,10.91-3.03,20.3.28,10.49,3.69Zm18.95.8c-9.69,4.66-13.2,4.3-5.35-.57,2.4-1.47,6.04-2.65,8.09-2.61,3.41.06,3.16.33-2.74,3.18Zm10.06,3.16c-2.17-.02-2.19-.1-.04-1.35,1.26-.73,2.27-2.12,2.27-3.12,0-2.59,2.25-3.62,5.9-2.69,4.44,1.12,3.94,3.14-1.33,5.33-2.46,1.03-5.51,1.85-6.8,1.83Zm15.9,2.48c-4.02,4.27-5.29,4.8-6.53,2.78-.42-.67,1.72-2.48,4.78-4.02l5.54-2.8-3.79,4.04Zm14.84,4c-9.03,4.61-14.34,2.82-8.09-2.76,5.39-4.8,6.3-5.12,9.87-3.5,4.52,2.06,4.21,3.2-1.79,6.26Zm13.2,4.25c-1.24.36-3.22,1.05-4.4,1.54-1.15.48-2.49.29-2.93-.4-.96-1.6,4.15-5.37,7.31-5.37,2.97,0,2.99,3.39.02,4.24Z"/>
      <path class="cls-1" d="m697.41,123.21c0,6.56-2.61,17.87-4.67,20.21-.99,1.13-1.79,2.44-1.79,2.92,0,2.02,3.72.64,5.48-2.04,2.33-3.6,6.63-22.44,5.54-24.26-1.9-3.06-4.55-1.22-4.55,3.16Z"/>
      <path class="cls-1" d="m495.24,73.25c2.53-2.11,1.62-9.35-1.24-9.87-1.85-.36-2.27.51-2.27,4.61,0,2.78.38,5.43.86,5.92.46.46,1.67.17,2.65-.65Z"/>
      <path class="cls-1" d="m861.13,160.31c-1.64-1.64-2-1.64-2.44-.06-.67,2.42-3.67,11.75-4.42,13.81-.34.88-.11,1.6.51,1.6,4.52-.09,9.53-12.17,6.35-15.35Z"/>
      <path class="cls-1" d="m459.38,90.28c4.78-4.97,10.36-12.95,10.36-14.78,0-3.79-2.23-2.02-6.85,5.45-2.52,4.1-5.81,8.55-7.28,9.9-1.5,1.33-2.69,2.99-2.69,3.68,0,1.3,3.12-.74,6.46-4.25Z"/>
      <path class="cls-1" d="m476.71,69.27c-.4,1.24-2.7,6.33-5.12,11.32-3.45,7.14-6.04,10.36-12.17,15.22-4.3,3.41-7.79,6.76-7.79,7.45s.27,1.25.63,1.25c.61,0,9.16-6.06,16.69-11.85,6.13-4.72,11.12-13.73,11.12-20.09,0-5.58-2.04-7.56-3.37-3.3Z"/>
      <path class="cls-1" d="m661.19,56c2.4-2.91,9.5-2.42,12.4.82,1.37,1.54,4.21,3.54,6.36,4.48,2.12.95,5.24,1.75,6.93,1.77,7.16.11,29.25-9.18,31.41-13.22,1.98-3.7-.91-6.13-7.3-6.13-3.01,0-7.73-.94-10.47-2.08-7.14-2.99-18.42-1.12-29.67,4.93-2.17,1.16-6.08,2.51-8.69,2.99-5.47,1.03-7.83,3.27-6.67,6.3,1.01,2.64,3.6,2.7,5.7.15Zm16.17-8.87c6.34-2.93,8.95-3.47,14.24-2.91,15.14,1.62,21.39,2.8,21.1,4.02-.19.7-1.07,1.12-1.98.91-.91-.21-2.84.74-4.32,2.11-3.64,3.41-11.77,4.67-13.66,2.15-1.85-2.48-5.18-2.48-6.15,0-.92,2.44-3.37,2.48-6.74.13-1.43-1.01-4.31-2.06-6.42-2.32-3.6-.46-3.35-.72,3.93-4.09Z"/>
      <path class="cls-1" d="m1308.87,204.52c-2.97-1.85-5.75-3.91-6.17-4.57-.44-.65-3.35-1.75-6.46-2.44-4.21-.93-7.1-2.76-11.06-7.01-6.74-7.29-9.16-7.32-22.21-.49l-10.08,5.27-13.92-4.66c-7.64-2.54-15.5-5.81-17.42-7.24-1.91-1.41-6.97-3.2-11.24-3.98-4.25-.78-9.24-1.68-11.09-2.04-1.85-.36-6.09.3-9.43,1.43-8.08,2.74-16.51,2.57-26.44-.55-4.53-1.43-11.12-2.57-14.68-2.57-5.85,0-21.75-5.01-24.84-7.83-.64-.59-.53-2.76.27-5.01,1.2-3.47.99-4.46-1.68-7.54-2.88-3.39-3.62-3.56-14.49-3.56s-19.96,1.46-34.04,5.64c-6.34,1.9-7.6,2.91-12,9.56-2.69,4.09-5.39,7.43-6,7.43-1.12,0-7.94-2.93-23.77-10.19-4.82-2.23-10.55-4.04-12.74-4.04-7.14,0-19.14,3.88-25.23,8.13l-5.92,4.17-5.01-5.62c-2.76-3.09-5.37-7.58-5.81-9.93-2.19-11.66-19.33-15.14-41.32-8.36-14.82,4.57-18.32,4.61-24.38.3-2.95-2.11-7.24-4.78-9.52-5.96-5.07-2.59-16.67-2.69-21.08-.17-6.14,3.49-12.19,2.46-18.78-3.27-9.16-7.91-13.1-9.58-22.3-9.37-5.93.12-8.09-.28-8.09-1.54,0-.95-1.07-3.06-2.4-4.67-2.34-2.88-2.55-2.91-6.85-.86-3.79,1.79-7.6,2-25.41,1.33-11.53-.42-20.97-1.06-20.97-1.37,0-.34,1.75-2.59,3.88-5.03,2.46-2.8,3.89-5.83,3.89-8.27,0-5.07-5.49-13.22-10.86-16.13l-4.27-2.3-6.78,5.37-6.78,5.35h-11.6c-7.85,0-12.8-.63-15.39-1.96-4.78-2.48-4.74-3.22.44-6.46,5.33-3.35,7.48-10.59,4.51-15.14-1.09-1.66-3.09-3.09-4.42-3.16-1.33-.06-7.45-.57-13.6-1.12l-11.2-.96-2.12,4.1c-2.76,5.35-9.14,9.18-15.33,9.18-3.96,0-5.72-.86-9.06-4.48l-4.12-4.48-9.41.8c-8.63.72-9.75,1.16-13.26,5.18-2.13,2.4-3.85,5.12-3.85,6,0,2.53-9.03,10.61-15.43,13.81-4.74,2.38-6.95,2.72-12.93,2.02-3.96-.48-8.53-.88-10.13-.92-3.83-.11-3.66-1.43.76-5.85,3.91-3.9,14.69-8.74,22.36-10.03,2.57-.44,5.64-1.87,6.85-3.2,2.06-2.3,2.02-2.61-.78-5.66-3.87-4.21-12.44-6.34-16.69-4.13-1.71.88-8.05,1.98-14.11,2.44-16.61,1.27-27.16,3.5-28.51,6.04-.65,1.2-3.03,2.85-5.28,3.62-6.27,2.19-13.08-.19-17.88-6.25-3.68-4.65-4.65-5.11-12.21-5.93-6.67-.72-9.29-.4-13.9,1.64-3.09,1.37-6.45,3.48-7.43,4.65-2.44,2.97-4.97,2.69-6.74-.75-.82-1.6-2.65-3.83-4.09-4.97-2.53-2.02-2.46-2.17,3.33-6.32,3.24-2.33,6.82-6.17,7.92-8.48,2.3-4.85,2.67-14.28.61-15.54-3.58-2.21-18.36-4.59-27.7-4.44-5.69.08-10.89.1-11.52.06-4-.3,23.58-15.63,28.15-15.63,1.12,0,5.09,1.22,8.86,2.72,12.61,4.99,26.93,1.72,29.99-6.82.96-2.73.44-3.91-3.5-7.85-3.62-3.6-6.32-4.95-12.15-6.04-4.12-.78-12.88-2.86-19.45-4.63-14.51-3.92-16.74-3.94-27.73-.15-11.18,3.83-15.08,6.48-16,10.84-1.31,6.17-6.21,15.98-8.61,17.26-1.6.87-3.48.64-6.13-.75-6.34-3.27-13.2-2.51-20.28,2.23-3.45,2.32-6.93,5.51-7.72,7.14-2.11,4.3-2.61,4.55-5.69,2.91-3.7-2-18.91,2.51-24.53,7.24-2.29,1.91-4.84,3.03-5.98,2.59-1.09-.42-5.43.67-9.64,2.46-8.48,3.56-19.35,4.17-27.14,1.52-3.67-1.25-4.59-2.27-4.91-5.41-1.01-10.45-3.2-12.05-17.23-12.57-7.11-.25-8,.06-16.19,6.09-1.26.92-2.31.48-3.79-1.62-1.81-2.61-3.09-2.91-12.97-2.91-16.93,0-33.2,7.26-39.14,17.47-1.41,2.44-1.6,2.46-3.26.32-4.19-5.39-15.22-1.41-21.9,7.89-3.96,5.48-6.67,7.54-16.08,12.15-10.8,5.31-11.37,5.79-11.71,10.06-.19,2.48-.63,5.79-.99,7.4-1.22,5.54-12.93,8.82-18.66,5.24-2.06-1.28-2.97-1.14-5.16.86-3.06,2.76-3.14,3.46-1.29,10.13,1.33,4.8,1.46,4.89,7.43,4.66,6.97-.25,16.82,3.12,19.23,6.54,3.14,4.47,11.07,6.53,22.02,5.73l10.11-.74,16.71,12.55,9.62-.33c5.31-.19,10.28-.83,11.06-1.41,3.79-2.86,16.49-4.27,25.25-2.8,15.03,2.54,26.08-2.55,27.73-12.72.44-2.78,1.69-5.77,2.78-6.67,2.3-1.92,1.98-2.17,5.66,4.55,6.35,11.53,15.92,14.29,55.12,15.96,28.3,1.2,31.52.75,37.25-5.14,3.29-3.37,4.46-3.72,12.19-3.72,5.98,0,9.24.63,10.82,2.04,1.81,1.64,2.7,1.72,4.78.44,3.28-2.06,6.48-.78,8.02,3.25,1.54,4.04,7.2,5.51,22.13,5.79,11.92.19,17.88-1.48,25.35-7.12,4.66-3.49,10.47-4.08,11.58-1.15.42,1.07,2.33,1.94,4.3,1.94s4.57,1.14,5.83,2.55c1.26,1.39,4.72,3.85,7.64,5.49,4.72,2.61,7.03,2.95,19.62,2.82,7.83-.06,15.44-.76,16.89-1.52,1.43-.78,3.22-1.01,3.96-.52,2.84,1.85,8.38,12.19,7.6,14.21-.51,1.29.23,2.87,1.94,4.15q2.72,2.06.17,5.22c-2.52,3.12-2.82,3.16-26.68,3.45-22.97.27-24.68.46-35.85,4.19-6.46,2.15-12.55,4.57-13.52,5.37-2.78,2.31-2.09,6.88,1.58,10.32,3.28,3.05,3.83,3.12,21.65,2.76,12.78-.27,19.43-.95,22.06-2.27,5.03-2.51,5.18-2.49,11.33,1.96,6.4,4.65,8.55,5.05,30.86,5.88,9.63.36,19.79.88,22.66,1.18,10.88,1.12,26.19,3.2,34.28,4.63,4.61.82,8.99,1.51,9.71,1.56,2.25.11,25.45-1.58,36.87-2.65,18.97-1.81,60.99-.13,64.26,2.57,2.38,1.98,2.22,2.57-2.17,7.37-7.18,7.87-5.01,10.99,10.02,14.46,13.12,3.03,14.09,3.01,30.41-.54,11.18-2.45,15.1-2.78,20.05-1.81,4.06.82,10.55.73,19.08-.23,13.85-1.56,19.03-2.82,27.1-6.66,5.81-2.78,26.49-3.43,34.36-1.07,2.48.74,11.96,1.39,21.04,1.46,15.56.12,16.88-.06,23.26-3.37,6.15-3.2,7.6-3.43,15.84-2.69,4.99.46,12,1.66,15.58,2.65,4,1.12,16.13,2.06,31.54,2.49l25.05.65,8.25-3.94c8.05-3.83,11.63-4.06,15.46-1.01,6.75,5.37,42.82,8.02,59.29,4.34,8.63-1.94,13.66-2.15,31.68-1.41,11.79.46,28.41,1.68,36.95,2.69,19.33,2.25,39.35,4.21,53.69,5.22,6.04.44,16.66,1.62,23.58,2.65,6.95,1.01,17.16,1.85,22.7,1.85,9.11,0,10.48-.34,14.29-3.56,3.2-2.72,4.23-4.65,4.36-8.21.19-5.85-.53-6.97-7.16-11.12ZM186.51,110.75c-.97.32-1.45-.17-1.14-1.14.32-.93,1.35-1.93,2.27-2.25.97-.33,1.46.15,1.14,1.12-.32.95-1.33,1.96-2.27,2.27Zm350.46,72.05c-2.82,1.28-5.14,3.12-5.14,4.06,0,2.63-4.46,2.11-7.11-.84-3.01-3.33-1.62-4.74,2.67-2.78,3.98,1.81,6.19.8,5.35-2.44-.48-1.85.74-2.78,5.85-4.44,3.56-1.18,6.78-1.81,7.18-1.41,1.25,1.25-3.49,5.45-8.8,7.85Zm22.63-5.43c-5.33,2.55-5.41,2.55-6.36,1.01-1.77-2.84.97-5.29,5.9-5.29,6.25,0,6.4,1.46.46,4.27Zm313.74-21.75c.72.44,1.28,1.94,1.28,3.31s-.57,2.52-1.28,2.52-1.28-1.49-1.28-3.33.54-2.95,1.28-2.51Zm-53.71-27.31c3.93-2.86,5.85-2.19,5.85,2.09,0,2.93-.59,3.87-2.44,3.87-1.33,0-3.2-.93-4.15-2.06-1.47-1.77-1.35-2.36.74-3.89Zm-198.82-12.47c3.2-6.97,6-5.89,6.48,2.53.51,8.85-2.42,14.97-6.65,13.9-2.36-.59-4.61.84-11.11,7.1-7.84,7.56-11.77,9.64-11.69,6.23.02-.88,4.69-6.87,10.4-13.26,5.69-6.4,11.35-13.81,12.57-16.49Zm-244.74-40.64c1.01-3.3,1.83-7.98,1.83-10.38,0-4.17,2.8-7.09,4.82-5.05,1.69,1.68.55,9.39-2.25,15.37-3.91,8.32-6.88,8.35-4.4.06Zm-15.62,7.79c1.18-2.23,1.85-6.66,1.72-11.16-.11-4.1.04-7.69.33-7.98.28-.3,2.11-.93,4.04-1.41,2.91-.74,3.75-.33,4.95,2.27,2.02,4.42-.44,12.8-5.43,18.47-2.19,2.49-4.78,4.53-5.77,4.53-2.25,0-2.25-.17.15-4.72Zm-163.09,28c-1.12,0-1.67-.59-1.22-1.3.44-.72,1.35-1.29,2.02-1.29s1.22.57,1.22,1.29-.91,1.3-2.02,1.3Zm141.3-9.81c-2.57-.99-15.75,8.72-18.19,13.39-3.29,6.27-14.76,15.64-16.74,13.66-1.16-1.16,1.2-4.93,7.6-12.13,7.12-8.02,11.54-16.23,9.43-17.54-.84-.52-2.54.55-3.98,2.51-1.37,1.9-3.18,3.45-4,3.48-.82.02-5.56,4.73-10.53,10.46-9.35,10.8-12.74,12.06-6.02,2.25,4.06-5.94,6.51-14.05,4.23-14.05-.72,0-5.48,5.39-10.55,11.96-5.08,6.59-10.34,12.51-11.73,13.14-1.37.65-2.48,1.66-2.48,2.27s-1.18,1.09-2.59,1.09-2.57-.44-2.54-.99c.04-.53,4.69-5.87,10.36-11.85,5.66-6,10.3-11.39,10.3-11.98,0-1.83-3.09-1.09-6.46,1.54-1.79,1.39-3.9,2.53-4.69,2.55-.8.02-3.06,2.11-4.97,4.63-6.97,9.12-13.67,14.81-17.48,14.81-6.14,0-5.41-3.1,2.68-11.1,7.18-7.11,9.37-10.89,6.31-10.89-.71,0-4.72,3.6-8.84,8l-7.54,8-5.05-2.36c-2.78-1.29-5.24-2.51-5.48-2.72-.23-.19,2.25-2.8,5.5-5.81,5.16-4.76,7.58-9.01,5.14-9.01-.44,0-3.94,2.88-7.77,6.38-3.83,3.52-8.8,7.29-11.05,8.4-4.59,2.3-10.15,2.72-10.15.76,0-.72.8-1.31,1.77-1.31,2.04,0,13.77-10,13.77-11.74,0-2.13-1.9-1.27-8.91,3.98-6.42,4.84-11.26,6-7.85,1.88,2.89-3.48.53-4.38-3.18-1.22-3.7,3.2-7.93,4.11-10.46,2.25-2.51-1.83-2.02-9.77.76-12.74,1.47-1.54,3.41-5.35,4.31-8.45,1.52-5.09,2.51-6.06,10.47-10.27,4.82-2.55,10.76-6.93,13.18-9.71,11.85-13.64,13.92-14.84,18.81-10.9,2.71,2.21,2.8,2.69,1.24,8.46-1.83,6.87-1.35,8.3,1.85,5.64,1.2-.99,3.41-1.81,4.88-1.81,2.42,0,2.67-.65,2.34-6.02-.4-6.21,1.35-9.01,3.98-6.4.78.78,2.19,1.43,3.12,1.43,1.98,0,2.27-4.65.38-5.81-2.33-1.46-1.35-3.16,3.56-6.25,7.75-4.87,17.39-7.52,25.78-7.08,8.13.42,8.17.46,6.67,9.43-.34,2.09.23,2.53,2.82,2.3,2.46-.25,4.27,1.03,7.75,5.5,7.07,9.07,8.67,7.47,3.24-3.27-1.79-3.49-3.24-6.88-3.24-7.54s2.33-2.76,5.18-4.74c4.57-3.16,5.9-3.48,11.64-2.72,9.22,1.22,10.36,1.88,10.36,6,0,6.46,2.17,10.11,6.74,11.31,4.17,1.12,4.23,1.26,3.81,7.49-.59,8.36-3.35,18.93-6.04,23.02-1.18,1.79-2.21,3.75-2.32,4.32-.4,2.23-7.22,6.82-9.09,6.11Zm13.07-.34c-.27.82-1.87,2-3.58,2.63-3.03,1.12-3.05,1.09-.7-1.49,2.59-2.86,5.08-3.54,4.27-1.14Zm-6.17,12.72c-.72,0-1.3-.57-1.3-1.28s.59-1.28,1.3-1.28,1.28.57,1.28,1.28-.59,1.28-1.28,1.28Zm123.8-6.02c-1.56-.44-4.27,1.46-8.47,5.94-3.39,3.6-7.16,6.57-8.35,6.57-3.92,0-2.38-4.61,2.96-8.91,2.85-2.3,5.18-4.72,5.18-5.39,0-2.3-3.43-1.24-6.48,2-3.35,3.58-6.8,4.36-5.62,1.29,1.33-3.46-2.61-2.06-7.92,2.8-4.67,4.3-14.71,11.48-21.85,15.63-3.24,1.89-8.57,2.14-8.57.42,0-.65,1.14-1.56,2.55-2,4.46-1.43,28.49-22.81,28.49-25.37,0-3.29-4.97-.19-13.43,8.35-9.06,9.12-25.41,19.33-27.56,17.18-.46-.46-.59-.99-.29-1.2,1.57-1.05,21.43-15.81,22.47-16.69.78-.66.73-1.56-.11-2.4-.95-.93-4.3.78-10.95,5.5-11.06,7.92-15.67,11.14-20.4,14.27-3.62,2.42-13.1,3.14-13.1,1.01,0-.7,2.17-2.38,4.84-3.75,2.67-1.35,7.48-4.8,10.68-7.66,5.03-4.53,5.49-5.33,3.45-6.15-1.56-.61-3.56.02-5.83,1.79-9.18,7.24-22.86,15.75-25.31,15.71-2.67-.04-2.67-.09-.21-1.93,1.39-1.06,2.99-1.9,3.58-1.9,2,0,11.18-6.67,11.96-8.69.42-1.09.08-2.8-.74-3.79-1.16-1.39-.97-2.99.8-6.95,2.71-6,1.47-13.24-2.4-14-2.02-.38-2.21.25-1.54,5.18,1.26,9.16-4.51,21.2-12.21,25.46-7.35,4.06-11.83,4.46-15.53,1.39-2.32-1.91-2.76-2.86-1.52-3.37.95-.38,3.35-2.29,5.35-4.23,2.88-2.82,3.81-5.2,4.54-11.53.91-7.75,3.52-12.59,5.96-11.1,3.6,2.23-2.34,20.38-7.71,23.56-3.22,1.9-3.72,6.78-.72,6.78,1.12,0,4.61-1.77,7.77-3.94,4.75-3.28,5.6-4.48,4.97-7.01-.43-1.67-.06-4.36.8-5.98.86-1.62,1.54-6.04,1.51-9.83l-.06-6.88,6.42-2.78c6.63-2.84,9.11-6,10.78-13.69.86-4.02,2.44-5.92,5.22-6.25.71-.09,2.02-.25,2.91-.36.91-.1,1.62-1.62,1.62-3.37,0-3.81,6.08-8.82,14.17-11.69,7.96-2.8,9.87-2.48,11.71,1.92.88,2.15,2.38,3.9,3.33,3.9s3.49-3.73,5.66-8.28c2.99-6.27,4.99-8.76,8.34-10.34,5.71-2.71,12.93-2.67,17.16.11,3.3,2.17,3.39,2.13,8.21-3.03,3.12-3.35,5.6-7.79,6.97-12.46,2.46-8.48,5.71-11.31,16.74-14.5,8.25-2.4,15.11-2.15,27.37,1.01,4.27,1.12,11.24,2.3,15.52,2.63,6.82.55,8.14,1.12,11.3,4.91,1.98,2.36,3.58,5.01,3.58,5.91,0,2.32-4.96,5.22-10.67,6.27-4.76.86-4.85.8-4.85-3.14,0-4.38-1.36-5.11-3.87-2.09-2.46,2.97-4.04,2.32-3.14-1.3.67-2.63.33-3.22-1.75-3.22-1.41,0-3.33.91-4.23,2-.93,1.12-3.16,1.83-5.01,1.62-2.64-.32-3.27-1.01-2.95-3.31.42-2.97-2.69-4.19-4.25-1.66-.42.7-2.59.91-4.8.46-2.88-.59-3.77-.38-3.12.67.51.82,2.04,1.49,3.39,1.49,4.86,0,.99,3.83-12.08,11.94-7.2,4.46-14.28,8.72-15.73,9.45-1.43.73-2.61,2.19-2.61,3.22,0,1.58,3.2,1.94,18.76,2.09,10.32.11,21.18.84,24.17,1.67,4.57,1.22,5.39,1.93,5.18,4.54-.3,3.62-8.88,13.67-11.71,13.67-1.07,0-2.12-1.31-2.36-2.91-.23-1.6-1.29-2.91-2.36-2.91-2.36,0-3.45,8.05-1.39,10.13.78.76,1.39,2.38,1.39,3.6s1.85,3.77,4.11,5.66c3.46,2.91,4.21,4.55,4.67,10.32.53,6.23.32,6.97-2.32,7.81-3.68,1.16-5.45-1.28-4.69-6.53.8-5.47-.44-10.95-2.46-10.95-1.09,0-2.02,2.61-2.61,7.43-1.03,8.61-2.3,10.68-6.55,10.68-3.64,0-3.6.25-1.12-5.66,1.64-3.92,1.67-4.67.15-4.67-2.23,0-4.21,2.33-7.93,9.39-3.12,5.91-11.29,11.51-15.24,10.44Zm30.74,26.68c-.42-.69.44-1.24,1.89-1.24s2.67.23,2.67.51c0,1.22-3.87,1.85-4.57.73Zm39.94-6.42c-3.79,0-2.65-2.84,3.41-8.51,6.09-5.71,7.81-8.3,5.49-8.3-.54,0-4.42,2.82-8.61,6.27-7.1,5.83-7.92,6.19-11.79,5.01-3.16-.97-4-1.85-3.51-3.71.86-3.3-1.37-3.03-8.24.99-5.54,3.24-5.87,3.28-7.51,1.03-1.64-2.23-2.11-2.1-8.67,2.42-6.24,4.27-14.07,6.4-14.05,3.81,0-.52,2.91-2.61,6.48-4.61,5.92-3.33,7.45-6.06,3.37-6.06-.88,0-5.41,2.55-10.06,5.67-6.32,4.23-8.99,5.37-10.57,4.48-1.88-1.06-1.47-2.04,3.03-7.73,2.82-3.6,5.16-6.95,5.16-7.48,0-1.33,8.67-5.28,11.6-5.28,1.35,0,2.76-.49,3.14-1.07.36-.59,3.88-1.79,7.79-2.67,7.31-1.64,11.56-5.48,16.11-14.51.92-1.85,3.7-4.33,6.14-5.49,4.76-2.27,14.11-2.87,15.26-.99.4.63-.46,4.55-1.89,8.72-3.33,9.69-2.76,13.1,1.14,6.97,1.6-2.51,3.24-6.14,3.66-8.13.88-4.19,2.69-5.66,4.59-3.75,1.54,1.54-3.92,16.4-8.24,22.49-2.15,3.01-2.23,3.62-.59,3.62,1.09,0,2.84-1.67,3.9-3.67,1.03-2,2.88-4.48,4.1-5.49,1.22-1.01,3.03-3.77,4-6.11,4.02-9.6,6,2.09,2.14,12.63-2.17,5.91-13.85,19.43-16.8,19.43Zm25.98-10.25c-1.56,4.8-3.28,6.88-9.32,11.14-5.9,4.17-7.85,4.95-9.6,3.83-1.91-1.2-1.43-2.09,3.94-7.24,4.8-4.61,6.86-8,9.62-15.79,1.94-5.45,3.51-11.12,3.51-12.61,0-3.52,3.46-3.5,4.57.02,1.05,3.33-.19,12.74-2.72,20.65Zm32.43,10.4c3.2-3.43,5.83-6.61,5.83-7.07,0-2.21-4.11-.32-9.41,4.34-6.76,5.96-8.8,6.69-4.93,1.77,1.47-1.88,2.7-4.19,2.7-5.18,0-3.41-3.79-1.69-10.36,4.72-6.42,6.25-11.64,8.36-11.64,4.67,0-.97.93-2.53,2.04-3.45,2.75-2.29,7.01-10.86,7.01-14.11,0-4.02-3.56-3.14-4.48,1.09-.82,3.75-5.85,9.62-5.85,6.85,0-.8,1.48-5.96,3.27-11.48,2.11-6.46,2.99-11.35,2.46-13.73-1.48-6.69,7.69-11.9,23.2-13.2,7.35-.61,16.29-1.96,26.21-3.96,4.06-.8,9.53,1.08,9.53,3.31,0,.65-2.19,1.6-4.86,2.08-6.04,1.12-18.17,6.36-21.45,9.31-3.96,3.54-8.87,11.98-8.11,13.98.49,1.24,2.88,1.81,7.7,1.81,4.48,0,7.54.67,8.53,1.85,2.38,2.87-1.89,9.73-11.28,18.09-12.17,10.82-16.66,9.58-6.11-1.69Zm-12.38,47.18c-1.75,2.11-12.84,2.55-12.84.51s6.55-4.04,10.63-3.14c3.03.65,3.43,1.16,2.21,2.63Zm11.73,1.83c-1.06.7-2.8,1.27-3.88,1.27-1.72,0-1.72-.15,0-1.27,1.07-.7,2.82-1.26,3.88-1.26,1.72,0,1.72.15,0,1.26Zm8.42,9.06c-.44.72-1.68,1.28-2.74,1.28s-1.6-.57-1.15-1.28c.44-.72,1.68-1.28,2.73-1.28s1.6.57,1.16,1.28Zm124.12-1.69c-6.72,3.41-12.21,6.72-12.21,7.33-.02.61,1.41.19,3.18-.97,4.12-2.69,6.78-2.82,4.61-.19-1.35,1.62-.54,1.81,5.71,1.47,10.8-.61,10,1.48-.88,2.3-26.72,2.04-32.03,2.19-32.03.86,0-.73.46-1.35,1.06-1.35s2.36-1.22,3.96-2.74c1.6-1.49,7.98-5.2,14.15-8.23,12.71-6.25,20.99-14.59,23.44-23.6,1.39-5.16,4.19-7.64,6.82-6.02,1.79,1.12.61,8.61-2.78,17.56-2.78,7.32-2.87,7.39-15.01,13.58Zm5.62,1.88c-.32.97-2.3,1.93-4.36,2.17-4.32.49-3.07-1.49,1.85-2.99,2.27-.7,2.93-.48,2.51.82Zm.91-38.99c.44-.72,1.35-1.31,2.02-1.31s1.22.59,1.22,1.31-.91,1.28-2.02,1.28-1.66-.57-1.22-1.28Zm3.49-5.83c.02-2.13.32-2.85.63-1.58.34,1.26.32,2.99-.04,3.87-.36.88-.63-.15-.59-2.29Zm8.51,42.61c-2.78,1.96-7.48,2.78-7.48,1.3,0-1.28,7.08-6.97,8.74-7.01,2.64-.06,1.83,3.54-1.26,5.71Zm-1.2-58.24c-.63,3.54-3.22,3.96-4.08.67-.97-3.7-3.67-2.61-5.2,2.11-.67,2.09-3.2,5.98-5.58,8.65-5.39,6.02-5.52,10.03-.49,15.18,2.61,2.65,3.7,4.9,3.35,6.84-.3,1.58-.59,3.33-.63,3.88-.06.55-2.55,3.67-5.56,6.9-5.96,6.48-11.05,9.37-29.37,16.66-6.69,2.67-13.35,5.94-14.8,7.29-2.69,2.52-7.92,3.26-9.11,1.3-1.6-2.57,25.26-21.48,32.63-22.95,4.89-.97,6.19-2.53,4.22-4.93-1.09-1.3-.67-2.21,1.83-3.85,1.79-1.18,3.24-2.95,3.24-3.93s1.46-3.54,3.24-5.67c3.26-3.88,4.17-9.66,2.06-13.01-1.94-3.08-4-.23-4,5.49,0,4.4-.78,6.24-3.79,9.14-2.09,2-4.46,5.26-5.3,7.26-1.12,2.72-5.54,5.96-17.23,12.66-19.77,11.31-23.45,13.16-26.26,13.16-2.02,0-2.04-.17-.23-1.62,1.1-.89,4.27-4.22,7.03-7.4l5.01-5.77-5.16,3.06c-2.87,1.68-6.64,3.77-8.42,4.63-19.58,9.48-24.07,10.87-28,8.57-2.13-1.25-2.02-1.39,1.12-1.43,1.94-.02,6.13-1.49,9.31-3.28,3.17-1.77,6.69-3.22,7.81-3.22s2.02-.53,2.02-1.16,1.01-1.47,2.25-1.89c1.24-.42,3.14-1.29,4.21-1.94,2.36-1.43,7.16-3.56,12-5.33,3.43-1.24,5.89-4.57,4.44-6.02-.38-.38-7.01,2.55-14.72,6.48-11.22,5.72-14.11,6.76-14.46,5.14-.25-1.12,1.35-3.9,3.56-6.17,3.93-4.04,5.16-7.22,2.8-7.22-.67,0-7.39,3.91-14.93,8.72-18.11,11.52-26.57,16.26-26.57,14.93,0-.61,2.78-3.17,6.15-5.72,3.39-2.53,11.56-9.75,18.15-16.02,8.63-8.21,11.6-11.81,10.57-12.8-1.01-.99-2.55.02-5.43,3.58-2.21,2.74-6.38,6.53-9.29,8.4-6.63,4.32-16.63,9.33-17.31,8.65-1.41-1.41,5.14-8.74,14.81-16.59,10.17-8.27,12.46-11.39,9.64-13.14-.65-.4-5.75,3.7-11.33,9.11-13.43,13.05-14.57,14.03-19.66,16.63-3.33,1.71-4.69,1.88-5.82.7-1.12-1.16,1.22-4.02,9.52-11.77,6.06-5.62,13.71-12.4,17.01-15.07,6.57-5.29,15.9-18.87,18.17-26.47,1.58-5.3.22-12.72-2.52-13.62-1.16-.38-1.6,1.7-1.6,7.58,0,10.13-2.82,16.28-12.02,26.15-5.09,5.49-7.72,7.35-10.38,7.35-2.45,0-4.8,1.41-7.52,4.53-2.19,2.48-4.78,4.53-5.75,4.53s-2.38,1.16-3.14,2.59c-1.67,3.1-4.59,3.37-5.69.55-1.12-2.93-1.28-2.7,4.42-6.09,2.87-1.72,6.93-5.83,9.03-9.16,2.13-3.33,5.27-6.59,6.99-7.27,5.18-1.96,9.81-11.32,9.81-19.79,0-7.92,1.92-10.53,4.85-6.63,2.08,2.78,1.47,15.43-.88,17.77-1.67,1.68-1.77,3.45-.21,3.45.65,0,2.48-2.19,4.1-4.86,3.22-5.37,4.19-17.22,1.45-18.13-2.36-.78-1.85-2.69,1.64-6.19,1.75-1.75,4.7-5.75,6.53-8.88,3.79-6.46,4.13-6.66,13.88-7.87,7.09-.88,7.2-.84,11.51,4,2.4,2.67,6.82,7.43,9.85,10.55,6.3,6.48,6.66,8.61,2.53,14.72-4.65,6.88-5.01,7.62-3.79,7.62.63,0,3.39-3.24,6.11-7.22l4.97-7.2-2.76-6.55c-2.99-7.08-2.78-8.8,1.05-8.8,1.81,0,2.85,1.48,3.9,5.52.78,3.01,1.96,7.28,2.63,9.45.67,2.19,1.22,4.97,1.22,6.15s.51,2.17,1.16,2.17c2.15,0,2.38-10.93.4-19.47-1.83-7.93-1.79-8.72.42-12.11,2.36-3.6,2.53-3.62,13.18-3.07,13.18.7,16.45,2.78,13.23,8.51-1.08,1.94-3.69,4.34-5.82,5.35-4.82,2.27-5.89,3.92-4.38,6.74,1.66,3.12,8.3,5.03,18.08,5.22,16.81.31,18.74-.02,23.9-4.11,3.37-2.67,5.75-3.67,7.62-3.14,3.71,1.05,11.1,9.06,11.1,12,0,2.73-4.27,7.79-9.54,11.22-3.75,2.44-5.41,1.75-6.19-2.61-.3-1.56-1.5-2.57-3.03-2.57-1.91,0-2.7,1.01-2.99,3.87-.61,5.52-2.27,6.72-5.41,3.88-2.82-2.54-4.61-1.72-5.37,2.48Zm-109.11,53.29c2.13-1.81,4.89-3.3,6.15-3.33,2.99-.06,2.84.54-.65,2.84-1.6,1.05-4.38,2.34-6.15,2.84-3.12.91-3.09.82.65-2.36Zm120.94,8.25c-1.06.7-2.8,1.27-3.88,1.27-1.72,0-1.72-.15,0-1.27,1.07-.67,2.82-1.24,3.88-1.24,1.72,0,1.72.15,0,1.24Zm13.37,3.67c-.75,2.97-4.33,3.96-4.27,1.2.06-2.4,3.5-6.48,4.32-5.16.38.64.38,2.43-.04,3.96Zm3.88-21.16c-2.59-2.59-4.95-1.79-4.95,1.7,0,3.06-3.98,6.64-7.43,6.7-2.95.06-2.86-1.43.27-5.41,2.53-3.22,2.53-3.27-.02-8.27-1.47-2.91-3.79-5.31-5.45-5.73-6.4-1.54-2.38-14.17,4.53-14.17,1.67,0,3.28-1.94,5.14-6.14,3.24-7.4,4.09-8.05,10.74-8.07,2.85,0,7.16-.59,9.56-1.26,2.4-.7,7.79-.91,11.96-.46,6.02.61,8.56,1.64,12.4,4.95l4.85,4.19-4.38.95c-3.37.76-4.63.49-5.54-1.12-1.09-1.93-6.21-3.03-6.21-1.33,0,.44,1.2,2.46,2.67,4.55,1.87,2.63,2.17,3.75.94,3.75-.92,0-2.44-1.16-3.33-2.59-2.61-4.19-4.08-2.99-3.96,3.24.1,5.52.3,5.81,3.83,5.81,2.04,0,3.7-.54,3.7-1.24s2.48-1.9,5.5-2.69c3.03-.78,11.16-4.02,18.06-7.16,6.91-3.14,13.46-5.73,14.53-5.73,2.4,0,14.8,7.83,17.69,11.18,2.67,3.09,4.17,8.9,3.83,14.88-.15,2.61.33,5.12,1.12,5.58,3.83,2.38-1.12,14.93-5.9,14.93-1.03,0-4.69,2.63-8.13,5.83-3.41,3.2-7.47,5.81-8.99,5.81-3.77,0-3.54-.76,1.75-5.72,4.59-4.32,6.09-9.79,2.67-9.79-1.01,0-3.48,1.98-5.5,4.38-5.03,6.04-12.99,11.14-17.39,11.14h-3.67l4.46-4.61c5.48-5.62,8.08-13.16,5.96-17.14-2.38-4.44-5.08-2.11-4.97,4.32.06,4.25-.8,6.8-3.43,10.25-3.7,4.86-9.45,8.48-12.02,7.58-.85-.29-2.17.65-2.95,2.11-1.12,2.09-2.69,2.67-7.12,2.67-3.14,0-6.02-.51-6.42-1.14-.67-1.12,3.67-7.64,6.34-9.5,2.3-1.58,2.25,1.27-.04,4.78-1.22,1.83-1.81,3.75-1.33,4.23,1.49,1.5,5.18-1.6,7.45-6.25,1.18-2.42,4.17-6.38,6.67-8.76,4.06-3.91,4.38-4.72,3.22-8.09-1.69-4.8-4.19-4.78-6.19.04-1.68,4.06-6.09,8.72-7.2,7.6-.75-.76,1.18-5.72,3.6-9.16,2.25-3.2-1.35-5.66-3.67-2.51-1.64,2.25-10.19,3.26-13.32,1.58-.99-.53-4.06-.44-6.87.19-3.98.91-5.49.72-7.09-.88Zm15.12,17.5c-3.16,0-3.16-.04-.42-5.77,1.26-2.67,3.12-4.57,4.44-4.57,3.51,0,3.81,1.75,1.09,6.23-1.48,2.45-3.58,4.11-5.12,4.11Zm-4.55,7.77c-.44.71-1.37,1.3-2.09,1.3s-.93-.59-.51-1.3c.44-.72,1.39-1.29,2.11-1.29s.93.57.48,1.29Zm-7.11-10.91c0-1.83.59-3.33,1.3-3.33s1.28,1.14,1.28,2.53-.57,2.86-1.28,3.3c-.74.44-1.3-.63-1.3-2.51Zm1.3,30.36c0-1.41,10.42-7.81,12.72-7.81,2.91,0,1.46,2.04-3.91,5.54-5.6,3.62-8.8,4.46-8.8,2.27Zm11.87,1.64c-1.12-.44.04-1.85,3.22-3.98,2.71-1.83,6.75-4.88,8.97-6.78,3.7-3.2,14.13-6.21,15.77-4.57,1.08,1.09-3.37,5.41-10.57,10.23-6.42,4.32-13.87,6.51-17.39,5.1Zm6.88,8.4c-2.15-.02-2.86-.31-1.6-.63,1.27-.33,3.01-.32,3.88.04.88.36-.15.61-2.27.59Zm24.97-11.58c-4.8,2.65-9.09,4.04-12.29,4-4.27-.06-4.61-.27-2.57-1.62,18.63-12.25,23.65-15.14,27.6-15.9,3.92-.74,4.46-.57,3.52,1.09-1.77,3.05-8.21,7.98-16.26,12.42Zm12.19-.88c-1.18-.74-.19-2.21,3.47-5.16,2.82-2.25,5.67-4.11,6.34-4.11s1.93-.88,2.82-1.93c1.75-2.13,6.46-2.68,6.46-.78,0,.65-2.97,3.85-6.61,7.11-6.48,5.85-9.24,6.93-12.48,4.87Zm23.5,2.17c-.8,1.14-10.86,1.69-10.86.59,0-.67,2.63-3.12,5.83-5.41,3.2-2.32,5.81-4.74,5.81-5.41s.82-1.2,1.83-1.2,2.06-.67,2.33-1.49c.27-.82,1.22-1.24,2.11-.95,1.35.46-1.07,5.22-7.06,13.87Zm18.26-11.45c-1.01,1.62-5.83,4.27-5.83,3.2,0-.42.84-1.62,1.85-2.63,2.08-2.09,5.18-2.53,3.98-.57Zm8.32,3.9c-.76,0-1.01-.59-.57-1.29.44-.71,1.06-1.3,1.37-1.3s.57.59.57,1.3-.61,1.29-1.37,1.29Zm2.67-14.24c0-1.49-.86-2.59-2.06-2.59-1.14,0-2.38,1.18-2.74,2.59-.4,1.49-1.77,2.59-3.26,2.59-1.94,0-2.34-.55-1.6-2.25,1.67-3.94,1.33-7.35-.76-7.77-1.24-.25-2.72,1.2-3.87,3.83-1.54,3.48-2.72,4.34-6.4,4.67-3.67.34-4.21.09-2.93-1.24,1.96-1.98,2.13-5.83.3-6.97-.74-.44-3.08,1.05-5.2,3.35-2.14,2.27-4.32,3.7-4.82,3.18-.5-.53.38-1.83,1.98-2.93,1.6-1.07,2.91-2.51,2.91-3.2s2.91-3.9,6.46-7.09c5.28-4.74,6.46-6.59,6.46-10.07,0-2.96.88-4.82,2.93-6.17,2.17-1.46,2.91-3.2,2.91-6.9,0-4.76.27-5.06,6.32-7.33,5.92-2.19,6.74-2.21,12.55-.29,3.41,1.14,8.36,3.77,10.99,5.87,2.64,2.09,5.33,3.79,6.02,3.79s2.76,1.22,4.64,2.69c2.91,2.27,3.45,3.77,3.64,10.02.29,9.87-.38,11.87-4.04,11.87-1.77,0-3.39.95-3.83,2.25-.43,1.25-2.48,4.17-4.59,6.46-3.64,3.98-4.32,4.22-12.9,4.22s-9.08-.25-9.08-2.59Zm62.87,13.48c.95,2.46-7.3,5.01-14.36,4.42l-5.18-.42,6.46-3.81c7.01-4.1,16.26-10.86,17.77-12.97.53-.74.97-2.34.97-3.56.02-1.6-1.54-.67-5.48,3.22-3.03,3.01-10.72,8.24-17.08,11.63-11.2,5.93-16.59,7.41-18.11,4.95-.4-.63,3.12-3.41,7.83-6.13,4.69-2.74,9.58-5.58,10.87-6.32,5.16-3.01,6.61-4.95,5.89-7.85-.4-1.62-.15-3.3.57-3.75,2.78-1.73,1.03-10.99-2.09-10.99-1.28,0-1.81,1.72-1.81,5.89,0,8.26-2.76,12.72-11.32,18.23-10.03,6.45-19.14,9.83-23.78,8.82-4.69-1.03-3.64-2.8,3.54-5.96,3.68-1.64,5.35-3.1,4.9-4.27-.44-1.14,1.37-3.01,4.95-5.12,3.12-1.81,7.09-5.2,8.84-7.51,8.61-11.41,9.27-14.3,5.1-22.11-2.27-4.21-2.36-4.95-.63-5.62,2.59-.99,5.37,1.41,6.4,5.5,1.3,5.26,4,2.95,3.54-3.03-.42-5.05-.25-5.3,4.53-6.95,5.22-1.79,17.05-1.64,22.05.25,1.81.67,4.15,3.77,6.02,7.94,1.69,3.75,4.38,8.19,5.98,9.83,2.4,2.51,2.73,3.92,2.06,8.23-1.7,10.63-4.8,13.77-21.47,21.86-5.39,2.61-7.48,4.3-6.97,5.6Zm14.8-2.97c-3.12-.86-3.07-.93,1.71-3.75,2.67-1.58,5.6-2.86,6.52-2.86,2.02,0,5.94-4.15,5.94-6.32,0-.86,1.3-3.43,2.91-5.71,1.6-2.3,2.91-4.25,2.91-4.38.02-.11,1.62-.61,3.58-1.12,4.87-1.22,4.72,2.3-.38,9.01-2.11,2.8-3.83,5.72-3.83,6.53s-3.35,3.14-7.45,5.22c-9.18,4.69-8.13,4.4-11.9,3.37Zm54.22,4.76c-1.39.86-2.53,1.05-2.53.42,0-1.18,3.88-3.18,4.65-2.4.21.21-.73,1.12-2.12,1.98Zm-7.1-.97c-1.68,1.85-3.98,2.53-8.57,2.53-8.44,0-8.09-2.04,1.46-8.42,4.25-2.85,7.75-5.6,7.77-6.13.02-.55.85-.97,1.81-.97,2.93,0,5.37-3.72,3.6-5.49-1.14-1.14-2.67-.36-6.35,3.2-2.66,2.57-9.33,7.1-14.81,10.03-8.33,4.48-10.69,5.2-14.55,4.48-2.52-.49-4.59-1.25-4.59-1.69.02-.96,14.8-10.72,18.32-12.11,2.93-1.16,3.14-4.88.28-4.88-1.9,0-1.9-.3-.09-3.07,1.12-1.69,2.19-5.62,2.43-8.74l.4-5.67,18.06-4.51,12.93,4.59c7.09,2.53,13.66,5.2,14.57,5.98,2.69,2.23,1.96,4.93-1.25,4.59-2.42-.25-2.99.43-3.33,3.85-.46,4.87-5.64,9.43-17.87,15.77-4.36,2.25-8.95,5.24-10.21,6.65Zm31.86-.19c-2.46,2.46-6.59,3.73-6.59,2.02,0-.4,1.43-2.27,3.2-4.17,2.38-2.55,3.6-3.09,4.65-2.02,1.07,1.07.74,2.17-1.27,4.17Zm-3.07-6.63c-6.02,3.01-11.87,5.47-13.05,5.47-3.75,0-2.25-2.46,3.18-5.24,7.29-3.71,18.7-12.91,20.4-16.42.78-1.6,2.02-2.93,2.74-2.93,1.88,0,1.64,4.11-.51,9.27-1.51,3.6-3.81,5.37-12.76,9.85Zm258.98,13.2c-2.36-.67-5.24-.63-7.18.09-1.77.67-5.6,1.24-8.53,1.24-5.2,0-5.24-.04-2.93-2.61,1.28-1.41,2.04-2.88,1.67-3.27-.53-.52-7.62,2.25-14.3,5.6-2.53,1.27-.57-5.03,2.27-7.26,1.77-1.39,3.22-2.91,3.22-3.33,0-1.77-3.18-.48-12.63,5.03-14.29,8.38-22.15,7.64-10-.93,3.2-2.25,5.83-4.86,5.83-5.79,0-2.17-1.37-2.15-4.57.11-3.67,2.57-14.55,8.54-15.54,8.54-.44,0,.67-1.79,2.53-3.98,5.93-7.05,3.6-8.61-4.19-2.8-2.61,1.96-5.81,4.86-7.11,6.46-2.33,2.91-7.35,4.04-7.35,1.66,0-.67,2.04-2.86,4.53-4.84,8.76-6.97,4.95-7.43-8.27-.99-7.61,3.69-10.7,4.51-16.4,4.32-3.85-.12-7.01-.72-7.01-1.33s.74-1.09,1.62-1.09c2.67-.02,13.03-5.69,13.6-7.43.53-1.67-13.35,3.64-18.42,7.03-3.39,2.27-6.53,2.15-9.01-.34-2.78-2.78-1.72-3.93,4.46-4.93,4.64-.74,7.94-3.64,6.17-5.41-.34-.33-4.93,1.22-10.19,3.43-10.53,4.44-16.69,6-16.69,4.19,0-.65,1.89-1.72,4.21-2.42,2.48-.74,4.38-2.23,4.65-3.68.53-2.87-.23-2.69-12.74,2.57-8.24,3.48-19.37,6.34-17.24,4.44.59-.52,3.41-2.54,6.25-4.48,3.93-2.69,4.4-3.33,1.94-2.67-6.34,1.71-21.43,7.56-27.16,10.55-5.9,3.09-9.07,3.83-9.03,2.09.04-2.25,2.36-4.11,10-7.94,4.44-2.23,8.09-4.93,8.09-5.98,0-1.56-.84-1.48-4.87.54-15.18,7.66-24.91,11.75-27.94,11.75-5.69,0-3.69-3.83,3.05-5.81,3.79-1.12,12.11-7.09,11.16-8.02-.36-.36-2.27.19-4.3,1.2-23.48,11.88-26.34,13.1-27.69,11.73-1.41-1.41,4.27-5.47,13.37-9.56,3.35-1.5,4.51-3.69,2.82-5.37-.4-.42-6.34,1.85-13.16,5.01-11.62,5.39-16.86,6.55-17.52,3.85-.15-.61,2.76-2.65,6.45-4.53,6.72-3.37,8.55-5.33,4.99-5.33-1.01,0-2.64-1.6-3.56-3.56-2.44-5.07-5.56-4.63-5.6.8-.04,4.72-5.26,10.53-9.45,10.53-1.22,0-3.56.95-5.22,2.11-2.97,2.09-2.97,2.06.29-2.93,2.61-3.98,3.48-7.35,4.19-16.5.88-11.08,1.09-11.71,5.77-16.36,3.88-3.89,6.61-5.26,13.79-6.88,12.9-2.95,22.27-3.77,28.19-2.49,4.78,1.03,5.22,1.51,5.94,6.23.86,5.73,2.65,9.33,8.11,16.45,4.02,5.24,6,5.29,6,.11,0-2.8.44-3.2,2.9-2.53,1.6.42,4,.78,5.35.8,2,0,2.27.7,1.67,3.83-.42,2.11-.28,4.15.36,4.55,2.21,1.37,5.24-.93,5.24-3.98,0-4.06,2.31-3.98,3.89.12,1.56,4.13,7.75,4.69,7.75.72,0-2.44.19-2.44,6.8-.36,4.36,1.39,10,2.02,15.77,1.79,8-.36,9.2-.09,11.14,2.48,2.69,3.58,5.09,2.27,5.09-2.76,0-2.3.7-3.81,1.72-3.81,2.91,0,14.17,3.96,20.28,7.11,8.13,4.21,29.27,10.99,34.26,10.99,2.29,0,6.9-1.45,10.25-3.22,3.35-1.79,7.07-3.22,8.27-3.2,3.48.06,6.87,3.26,5.96,5.62-.91,2.33.42,2.69,3.3.86,1.3-.82,3.2-.42,5.98,1.3,2.23,1.39,5.06,2.53,6.25,2.53,2.61,0,13.84,9.08,12.95,10.46-.32.55-2.38.46-4.55-.15Z"/>
      <path class="cls-1" d="m971.99,168.14c-2.76-.4-2.91.02-2.91,8.09,0,4.68.5,8.51,1.13,8.51,1.64,0,4.26-6.91,4.49-11.9.15-3.54-.32-4.36-2.72-4.7Z"/>
      <path class="cls-1" d="m1114.74,176.08c-1.96.76-1.79,1.37,1.41,5.39,4.09,5.11,5.58,5.69,5.58,2.11,0-3.77-4.4-8.48-6.99-7.5Z"/>
    </g>
  </g>
</svg>