<?xml version="1.0" encoding="UTF-8"?>
<svg id="Layer_2" data-name="Layer 2" xmlns="http://www.w3.org/2000/svg" viewBox="0 0 759.46 237.88">
  <defs>
    <style>
      .cls-1 {
        stroke-width: 0px;
      }
    </style>
  </defs>
  <g id="Layer_1-2" data-name="Layer 1">
    <g>
      <path class="cls-1" d="m242.68,97.7c1.16-1.88-.56-6.15-2.48-6.15-2.54,0-3.33,2.1-1.85,4.89,1.45,2.73,3.13,3.21,4.33,1.26Z"/>
      <path class="cls-1" d="m180.18,125.81c1.19-.24,2.14-1.52,2.14-2.85s-.96-2.62-2.14-2.84c-1.62-.32-2.16.4-2.16,2.84s.54,3.15,2.16,2.85Z"/>
      <path class="cls-1" d="m193.61,117.19c3.1-.6,3.52-3.47.52-3.47-1.52,0-2.57.81-2.57,1.94s.84,1.77,2.05,1.52Z"/>
      <path class="cls-1" d="m205.5,108.65c-1.62-8.12-4.69-7.84-4.69.42,0,3.57.54,6.9,1.22,7.38,2.71,1.92,4.55-2.23,3.47-7.8Z"/>
      <path class="cls-1" d="m236.67,113.54c2.47,3.55,4.83,1.74,3.67-2.81-.5-2.06-1.62-3.17-3.23-3.17-2.95,0-3.12,2.17-.44,5.97Z"/>
      <path class="cls-1" d="m270.84,68.88c.88,6.01-.06,7.4-3.12,4.63-2.81-2.55-2.99-.83-.22,2.24,2.5,2.77,3.37,2.81,5.49.22,2.07-2.48,1.54-7.82-1-10.28-1.7-1.66-1.82-1.34-1.14,3.19Z"/>
      <path class="cls-1" d="m367.67,121.3c0,.44-1.8,1.42-4.01,2.21-2.83.98-3.53,1.68-2.37,2.39,2.05,1.28,13.05-.58,18.68-3.15,20.73-9.44,27.32-12.28,32.33-13.89,3.43-1.1,5.45-2.88,7.84-6.93,1.74-3.01,2.87-6.3,2.48-7.32-.46-1.2.86-2.83,3.87-4.77,8.98-5.73,16.3-16.37,16.3-23.69,0-5.75-2.68-4.89-3.97,1.26-1.94,9.4-8.32,17.28-19.9,24.63-2.79,1.77-3.19,2.48-1.85,3.39,1.34.88.81,1.9-2.54,4.77-2.35,2-6.21,4.29-8.62,5.07-2.41.76-5.83,2.43-7.6,3.67-1.79,1.24-7.88,3.71-13.55,5.47-12.1,3.75-17.1,5.77-17.1,6.9Z"/>
      <path class="cls-1" d="m433.84,39.06c1.12,1.82,2.99-2.77,2.57-6.34-.24-2.1-1.24-3.5-2.7-3.79-2.05-.38-2.21.1-1.43,4.29.48,2.61,1.21,5.23,1.56,5.83Z"/>
      <path class="cls-1" d="m382.44,140.82c-7.15,7.24-10.58,9.84-12.9,9.84-5.51,0-4.95-3.21,1.72-9.96,3.45-3.5,6.25-6.83,6.25-7.37,0-3.35-3.21-.9-12.28,9.4-8,9.06-10.99,11.62-13.47,11.62-3.89,0-14.87,3.81-14.87,5.17s2.14,1.26,4.81-.18c1.22-.64,5.47-1.74,9.46-2.44,14.05-2.47,28.22-5.63,29.76-6.63.86-.54,1.28-1.47.92-2.05-.36-.58,2.12-3.69,5.51-6.9,3.41-3.21,6.18-6.86,6.18-8.1s-.3-2.26-.66-2.26c-.38,0-5.05,4.43-10.43,9.86Z"/>
      <path class="cls-1" d="m418.3,79.25c.68,0,.9-.56.48-1.24-.42-.68-1.32-1.23-2-1.23s-.88.54-.46,1.23c.42.68,1.3,1.24,1.99,1.24Z"/>
      <path class="cls-1" d="m423.11,56.21c4.09-6.45,5.13-15.15,1.83-15.15-1.26,0-1.87,1.28-1.9,4.01-.04,3.55-1.27,7.79-4.23,14.77-1.74,4.15.68,2.11,4.31-3.63Z"/>
      <path class="cls-1" d="m423.71,73.3c-3.52,5.33-2,6.33,2.41,1.58,4.71-5.09,6.99-11.12,6.57-17.42-.42-6.54-2.72-8.24-4.85-3.61-1.06,2.34-1.06,3.57-.04,4.81,1.81,2.19.08,8.32-4.09,14.63Z"/>
      <path class="cls-1" d="m331.96,77.36c0,1.64,3.85.34,7.13-2.41,5.73-4.81,6.28-17.84.84-19.92-2.92-1.12-3.28.08-1.22,4.01,3.39,6.5,1.62,14.49-3.65,16.5-1.7.64-3.1,1.46-3.1,1.83Z"/>
      <path class="cls-1" d="m339.53,38.4c3.19-.46,4.47-5.11,2.34-8.42-1.56-2.41-3.25-.58-4.37,4.71-.81,3.81-.64,4.09,2.02,3.71Z"/>
      <path class="cls-1" d="m361.6,85.88c3.01-4.35,3.67-6.5,3.37-10.66-.54-7.44-3.63-7.06-3.93.48-.26,6.58-5.23,15.14-10.05,17.34-1.66.76-3.02,1.85-3.02,2.41,0,3.31,9.22-3.15,13.63-9.56Z"/>
      <path class="cls-1" d="m354.12,22.5c0-3.93-2.3-7.3-4.97-7.3-3.17,0-3.05,1.87.36,6.19,3.31,4.21,4.61,4.53,4.61,1.1Z"/>
      <path class="cls-1" d="m462.86,147.8c-4.61,2.25-10.3,4.41-12.68,4.81l-4.31.7,3.39-2.9c1.86-1.61,3.39-3.59,3.39-4.41,0-2.07-.92-1.89-4.99,1.02-4.21,3.01-15.47,6.55-17.26,5.45-.68-.44-1.99-.18-2.86.54-2.19,1.82-21.49,6.68-25.6,6.43-4.03-.22-5.53,1.72-2.61,3.37,1.19.66,2.63.9,3.21.56.58-.36,5.57-.82,11.11-1.02,8.92-.32,14.99-1.38,39.62-6.94,6.54-1.46,17.16-6.31,18.46-8.42,2-3.25-1.22-2.97-8.86.8Z"/>
      <path class="cls-1" d="m496.29,97.77c2.44-2.04,5.91-11.46,5.41-14.73-.79-4.97-2.89-3.21-3.65,3.07-.42,3.43-1.39,7.41-2.14,8.84-.79,1.45-1.41,2.99-1.41,3.45s.8.18,1.79-.62Z"/>
      <path class="cls-1" d="m350.74,143.97c8.52-7.78,11.44-11.79,8.58-11.79-1.21,0-21.21,20.23-21.21,21.45,0,1.44,2.62-.56,12.63-9.66Z"/>
      <path class="cls-1" d="m447.88,140.82c1.67,0,.81-5.23-.96-5.81-.76-.26-2.57,1.36-3.99,3.59-1.4,2.25-4.5,5.45-6.87,7.14-2.34,1.7-4.31,3.53-4.33,4.05-.04,1.16,10.62-4.65,13.13-7.18,1.01-.98,2.35-1.78,3.03-1.78Z"/>
      <path class="cls-1" d="m348.75,131.34c-.9-.9-6.35,3.15-21.41,15.84-7.1,5.97-13.41,10.88-14.01,10.88s-1.08.54-1.08,1.22c0,2.57,2.99,1.01,11.95-6.19,5.09-4.09,12.21-9.32,15.81-11.64,6.13-3.93,10.22-8.64,8.74-10.1Z"/>
      <path class="cls-1" d="m528,70.39c1.82-1.84,2.2-2.86,1.14-3.21-1.6-.54-6.31,3.09-6.31,4.85,0,1.89,2.41,1.1,5.17-1.64Z"/>
      <path class="cls-1" d="m520.74,65.16c1.45-1.08,1.77-1.99.92-2.51-1.97-1.22-6.21.5-6.21,2.51,0,2.2,2.39,2.2,5.29,0Z"/>
      <path class="cls-1" d="m539.51,82.9c2.04-1.7,2.19-1.23,1.82,6.81-.36,7.99,2.05,3.55,3.61-6.68,1.1-7.3,1.06-9.34-.2-10.14-2.24-1.42-2.81-1.3-4.99,1.12-4.75,5.23-4.93,12.77-.24,8.88Z"/>
      <path class="cls-1" d="m529.52,82.93c2.51,0,4.63-3.24,4.19-6.39-.56-3.95-2.59-2.95-4.35,2.12-1.2,3.47-1.16,4.27.16,4.27Z"/>
      <path class="cls-1" d="m498.22,132.28c0,1.54,1.72,1.42,10.92-.74,14.55-3.43,33.51-12.43,36.14-17.14,1.92-3.43-1.01-2.82-8.66,1.81-8.5,5.15-21.81,9.82-27.98,9.82-3.83,0-10.42,3.95-10.42,6.25Z"/>
      <path class="cls-1" d="m528.06,152.31c-.84-.34-2.22-.34-3.06,0-.84.34-.16.62,1.54.62s2.39-.28,1.52-.62Z"/>
      <path class="cls-1" d="m581.62,99.69c.4-.42-.46-2.04-1.92-3.61-1.46-1.56-2.69-4.47-2.69-6.45-.02-4.63-1.88-7.76-3.61-6.03-1.76,1.76.88,9.76,4.53,13.69,1.61,1.74,3.27,2.83,3.69,2.41Z"/>
      <path class="cls-1" d="m587.59,115.44c.44-2.3,1.28-4.19,1.9-4.19s1.97-1.81,3.01-4.01c1.64-3.41,1.68-4.69.3-8.82-.9-2.67-2.4-5.09-3.35-5.41-1.28-.42-1.5.04-.8,1.76,3.23,8.06,1.79,15.26-3.07,15.26-2.68,0-3.27,1.48-2.62,6.81.6,5.29,3.55,4.41,4.63-1.41Z"/>
      <path class="cls-1" d="m556.12,97.06c3.17-2.86,6.48-14.11,5.41-18.38-1.46-5.81-3.59-2.59-4.21,6.43-.34,4.83-1.32,9.48-2.16,10.32-.85.84-1.54,2.06-1.54,2.7s1.12.16,2.5-1.08Z"/>
      <path class="cls-1" d="m518.22,136.99c.22,1.12,1.45,1.84,2.83,1.7,1.32-.16,5.27-.64,8.76-1.08,5.65-.72,6.33-.56,6.15,1.42-.12,1.41.94,2.55,2.89,3.11,1.7.48,4.29.94,5.79,1,3.1.14,33.35-11.79,36-14.21,3.63-3.28-.04-3.08-8.78.5-9.62,3.95-18.24,5.97-18.24,4.31,0-.58,2.79-2.65,6.17-4.63,5.81-3.41,7.7-5.55,4.87-5.55-.7,0-4.09,1.45-7.56,3.19-4.71,2.4-6.51,2.8-7.21,1.68-.54-.86-1.88-1.16-3.08-.7-1.19.46-5.7,1.32-10.02,1.94-10.77,1.52-19.1,4.81-18.56,7.32Z"/>
      <path class="cls-1" d="m590.22,128.19c-1.03,2.55-2.89,5.55-4.17,6.71-3.29,2.97-15.01,8.16-22.43,9.92-3.47.82-6.3,1.97-6.3,2.57s.78.76,1.74.4c.98-.38,3.65-1.04,5.94-1.46,6.53-1.22,19.68-5.97,23.31-8.4,3.27-2.19,5.96-7.66,5.96-12.08,0-3.77-2.09-2.57-4.05,2.34Z"/>
      <path class="cls-1" d="m583.18,151.99c0,1.2,14.7-3.45,18.18-5.74,3.37-2.2,10.14-11.3,10.14-13.63,0-2.85-2.3-1.82-4.21,1.84-2.69,5.21-9.32,10.52-17.18,13.77-3.81,1.59-6.94,3.27-6.94,3.75Z"/>
      <path class="cls-1" d="m619.3,147.71c2.7-3.08,5.75-10.02,5.75-13.06s-3.19-5.37-5.74-4.41c-1.58.62-1.72,1.14-.64,2.25,3.41,3.41.54,11.9-5.79,17.26-2.01,1.68-6.2,4.11-9.28,5.37-3.11,1.28-5.65,2.81-5.65,3.39,0,3.05,16.62-5.35,21.35-10.79Z"/>
      <path class="cls-1" d="m635.5,133.42c-3.11,0-4.23,1.87-1.63,2.73,4.73,1.58-6.03,15.49-15.89,20.52-2.89,1.46-5.25,3.21-5.25,3.86,0,1.87.84,1.54,9.64-3.61,8.38-4.89,11.61-7.84,15.5-14.09,2.95-4.73,1.76-9.42-2.37-9.42Z"/>
      <path class="cls-1" d="m597.21,117.91c2.12-.82,3.95-13.79,2.19-15.55-2.47-2.47-3.91.6-3.91,8.32,0,6.23.36,7.75,1.72,7.23Z"/>
      <path class="cls-1" d="m610.72,102.28c5.35,2.75,11.88,7.98,18.88,15.05,4.67,4.71,5.3,5.97,4.67,9.24l-.72,3.77,2.52-2.91c3.19-3.66,3.17-5.57-.14-11.1-3.81-6.35-7.32-10-9.62-10-1.1,0-3.77-1.8-5.9-3.99-5.33-5.51-12.26-9.16-14.05-7.38-2.06,2.05-.4,4.85,4.35,7.32Z"/>
      <path class="cls-1" d="m572.1,153.13c0,1.48,4.57,1.48,8,0,1.9-.82,1.28-1.08-2.77-1.14-2.89-.06-5.23.46-5.23,1.14Z"/>
      <path class="cls-1" d="m414.06,136.39c1.22-3.15-.76-3.59-3.63-.8-1.5,1.46-4.67,4.33-7.03,6.37-2.86,2.47-3.65,3.71-2.34,3.75,2.47.04,12.07-6.81,13.01-9.32Z"/>
      <path class="cls-1" d="m362.18,161.82c1.08,1.74,5.03,1.43,17.2-1.42,14.51-3.41,18.12-4.47,27.7-8.24,7.84-3.07,19.44-10.76,23.65-15.66,2-2.32,3-6.77,1.52-6.77-.36,0-3.77,3.35-7.55,7.44-3.79,4.09-9.18,8.46-11.95,9.7-10.81,4.81-26.04,8.84-44.98,11.85-5.11.82-6.53,1.61-5.59,3.1Z"/>
      <path class="cls-1" d="m429.3,124.26c8.62-2.24,8.72-2.24,10.44.22,2.47,3.51,11.12,4.63,16.92,2.21,5.61-2.34,7.06-2.37,7.06-.12,0,.96,1.24,2.01,2.77,2.29,13.37,2.59,46.74-6.21,55.04-14.5,3.53-3.53,3.91-4.37,2.22-5.01-1.22-.46-3.66.46-6.09,2.28-5.35,4.05-11.87,6.66-19.1,7.66-8.1,1.12-20.1,4.07-23.47,5.77-1.99,1.01-3.17,1.03-4.11.08-.94-.92.72-2.08,5.75-3.97,3.91-1.45,8.54-3.65,10.28-4.9,1.77-1.24,4.31-2.58,5.7-3.02,2.17-.66,6.73-6.54,6.73-8.66,0-1.5-2.52-.64-8.66,2.99-6.01,3.55-33.59,15.52-38.75,16.8-4.27,1.08,14.53-9.72,19.62-11.27,5.59-1.7,8.04-5.19,2.69-3.87-3.97,1.01-4.03.22-.36-4.65,3.25-4.33,4.89-8.12,3.51-8.12-.5,0-3.67,2.77-7.01,6.17-8.3,8.42-21.07,14.79-30.73,15.34-15.84.86-23.97,3.68-20.56,7.09,1.08,1.08,3.57.88,10.12-.82Z"/>
      <path class="cls-1" d="m479.15,89.09c1.04,0,2.25-.96,2.68-2.14.44-1.21,2.03-4.13,3.53-6.56,1.97-3.17,2.41-4.97,1.56-6.45-1.67-2.99-3.07-2.59-4.65,1.3-.76,1.87-2.2,4.77-3.19,6.45-.98,1.7-1.78,4.05-1.8,5.25-.02,1.18.82,2.14,1.86,2.14Z"/>
      <path class="cls-1" d="m523.45,159.88c-2.19,1.02,13.37-.66,18.76-2.05,2.87-.72,4.95-1.77,4.61-2.28-.5-.84-20.09,2.79-23.37,4.33Z"/>
      <path class="cls-1" d="m259.91,39.64c4.41,2.77,8,5.59,8,6.3s.56,1.28,1.24,1.28c2.91,0,1.04-5.99-2.79-8.9-8.19-6.23-14.45-8.28-14.45-4.71,0,.56,3.59,3.29,7.99,6.03Z"/>
      <path class="cls-1" d="m217.02,100.17c-.98,0-4.09-1.02-6.9-2.28-4.09-1.83-6.35-4.25-11.22-11.97-3.37-5.32-6.12-10.87-6.12-12.35,0-4.57-6.09-9.86-12.41-10.82-3.1-.46-6.51-.5-7.57-.1-1.94.74-4.11,5.1-4.93,9.82-.32,1.89-1.22,2.37-3.83,2.09-2.43-.26-4.75.78-7.96,3.61-6.81,5.93-7.17,8.96-1.86,15.43,2.42,2.97,6.31,6.29,8.62,7.37,3.55,1.68,9.02,9.06,9.02,12.15,0,1.67-7.19-3.67-8.98-6.66-1.04-1.76-3.53-5.01-5.51-7.21-3.03-3.39-4.43-4.01-9.12-4.01-4.35,0-6.15.68-8.5,3.19-2.7,2.9-2.99,4.23-2.99,14.47v11.29l-7.01-.42-7.01-.41-.38,7.18-.36,7.19-4.01-.4c-2.86-.28-4.23.18-4.81,1.66-1.02,2.69,1.52,4.25,6.95,4.25,6.83,0,7.8-1.2,6.79-8.44l-.86-6.32h5.13c2.8,0,6.23-.6,7.59-1.32,2.3-1.25,2.43-2.09,1.62-11.63-.82-9.94-.74-10.38,2.31-13.45,1.74-1.72,4.29-3.15,5.67-3.15,2.45,0,8.26,4.97,13.03,11.16,1.34,1.72,3.97,4.15,5.83,5.37,2.24,1.48,3.39,3.29,3.39,5.45.04,4.09,1.76,6.91,3.55,5.79.76-.46,1.36-2.21,1.36-3.89s.84-4.33,1.86-5.9c1.7-2.6,1.65-3.02-.74-5.19-1.44-1.28-3.65-4.39-4.93-6.88-1.26-2.49-3.51-4.91-4.97-5.37-3.55-1.12-13.39-10.28-13.39-12.47,0-.94,1.72-3.41,3.83-5.47,3.5-3.43,4.15-3.63,7.37-2.28,5.33,2.2,7.42.82,7.1-4.71-.38-6.54.7-7.66,7.46-7.66s9.06,1.9,10.5,8c.5,2.03,3.07,6.94,5.71,10.92,5.57,8.34,5.76,9.02,2.23,8.9-1.62-.08-3.01.94-3.65,2.67-.84,2.22-.62,2.77,1.12,2.77,1.2,0,2.83-.66,3.63-1.46,1.44-1.43,5.91.16,16.48,5.85,4.41,2.39,9.66,2.31,9.66-.12,0-1.04-1.12-4.09-2.49-6.77l-2.48-4.89h2.48c3.29,0,3.13-1.4-.54-4.85-1.72-1.62-3.83-2.52-4.91-2.1-2.54.96-12.65-5.33-13.51-8.44-2.61-9.28,1.54-16.07,9.2-15.03,2.55.34,5.19.04,5.89-.66.88-.86,3.09.34,7.06,3.83,3.19,2.81,6.32,5.11,6.92,5.11s1.88,1.79,2.81,3.99c1.72,4.15,6.13,8.84,9.16,9.76.96.3,2.72,3.55,3.93,7.24,3.32,10.22,2.86,22.1-.88,22.1-2.07,0-2.19,1.49-.28,3.39,1.04,1.04.2,3.41-3.39,9.44-5.13,8.6-7.17,10.23-9.92,7.94-1.38-1.14-2.3-.84-4.39,1.43-1.97,2.1-2.81,2.4-3.23,1.18-.3-.92,1.18-3.15,3.3-4.93,4.23-3.5,5.03-6.13,1.91-6.13-1.59,0-1.83-.82-1.23-3.99,1.87-9.64,1.87-11.05.02-13.85-1.06-1.62-2.66-2.64-3.59-2.3-2.5.96-3.43,4.53-1.54,5.95,1.54,1.16,1.66,2.59,1.12,11.95-.18,3.17-5.53,10.87-7.56,10.87-.52,0-1.28-1.21-1.68-2.69-.68-2.64-.76-2.66-3.21-.44-1.4,1.26-2.52,3.57-2.52,5.13s-1.22,3.97-2.68,5.35c-5.77,5.35-6.32,1.86-.94-6.05,2.03-3.01,4.05-6.88,4.45-8.62.42-1.72,1.74-5.09,2.92-7.48,2.35-4.69,1.94-11.06-.68-11.06-2.07,0-3.07,2.8-3.07,8.59,0,3.97-.46,4.81-3.07,5.45-2.38.6-3.37,2-4.45,6.26-1.38,5.55-2.5,7.05-6.23,8.37-1.72.61-2.04-.18-2.04-4.93,0-3.66-.84-6.77-2.41-8.84-3.61-4.85-5.71-4.09-6.43,2.32-.54,4.89-.98,5.57-3.69,5.67-5.23.24-5.35.42-2.02,3.05,3.93,3.09,4.05,5.09.66,10.59-2.52,4.07-10.19,9.02-13.99,9.02-3.12,0-2.19-1.58,4.27-7.13,3.39-2.92,6.16-6.08,6.16-7.01,0-3.23-2.67-3.35-5.96-.28-3.24,3.03-11.32,8.6-17.02,11.75-1.61.88-4.71,1.44-6.92,1.22l-3.97-.38,4.63-2.75c4.81-2.83,7.62-7.48,5.73-9.46-.64-.68-2.06.14-3.52,2.01-1.36,1.72-3.89,3.41-5.59,3.73-2.34.46-2.81.22-1.88-.88,2.1-2.55,0-2.99-4.71-.96-2.48,1.04-7.28,2.04-10.66,2.23-3.39.16-8.44.68-11.21,1.18-4.53.78-5.45.5-8.78-2.75-3.85-3.77-5.43-9.2-5.27-17.96.04-2.85-.9-6.05-2.41-8.16-2.24-3.17-2.3-3.81-.7-7.01,3.09-6.21,3.47-13.03.9-16.28-2.08-2.63-2.68-2.77-7.12-1.52-7.49,2.06-8.08,2.83-9.52,12.91-1.3,9.02-1.5,9.46-5.11,10.4-6.1,1.61-8.32.48-7.39-3.75,1.42-6.48-6.5-12.07-17.06-12.07-5.97,0-8.72,2.08-10.12,7.72-.48,1.88-1.87,3.97-3.11,4.63-2.79,1.48-9.82,1.52-12.12.06-.96-.6-2.9-.66-4.31-.1-1.42.54-5.91,1.71-9.98,2.55-13.27,2.8-17.2,6.21-13.55,11.77,2.65,4.05,6.52,6.19,12.81,7.13,2.99.44,6.94,1.9,8.82,3.23,4.11,2.92,7.3,3.03,15.88.48,4.67-1.39,6.91-1.56,7.86-.62.72.72,2.19,1.32,3.23,1.32,1.06-.02,3.37,1.74,5.13,3.88,3.63,4.41,7.61,4.99,15.77,2.31,4.27-1.41,5.47-1.34,9.56.56,2.59,1.2,5.53,2.88,6.56,3.75,1,.86,6.11,3.05,11.37,4.83,7.86,2.7,10.88,3.15,17.44,2.59,5.23-.46,10.6-.04,15.73,1.24,18.96,4.69,33.57,4.49,54.18-.74,5.53-1.4,13.59-2.4,19.44-2.4,10.26,0,23.21-3.27,27.24-6.88,2.08-1.86,8.19-2.3,10.62-.78.8.52,1.62,4.25,1.84,8.3l.38,7.35,5.53.04c3.04.02,7.01.66,8.8,1.46,3.57,1.54,7.51.94,11.86-1.86,2.61-1.68,11.7-1.54,13.45.22.38.36-1.08,2.14-3.23,3.95-5.93,4.99-4.93,8.84,3.37,13.13,7.6,3.91,18.22,5.88,30.49,5.65,4.75-.1,9.82.48,11.28,1.24,1.44.78,4.07,1.42,5.83,1.42s6.35,1.28,10.24,2.89c6.72,2.75,8.22,2.86,32.89,2.57,14.23-.18,29.32-.72,33.55-1.23,7.12-.82,8.28-.6,15.94,3.19,7.51,3.69,9.24,4.05,18.8,3.93,5.79-.08,12.46.32,14.83.9,10.41,2.5,20.28.76,24.86-4.39,1.92-2.18,1.86-2.75-.78-9.1-4.13-9.84-9.76-12.81-23.99-12.61-9.14.12-10.9-.2-13.31-2.45-1.52-1.44-2.77-3.26-2.77-4.09,0-4.05,21.52-2.57,32.01,2.23,7.66,3.51,19.7,5.93,22.35,4.51,1.16-.62,5.15-1.14,8.84-1.14,5.69,0,7.7.68,13.19,4.45,6.35,4.37,6.57,4.43,13.07,3.13,5.85-1.19,7.73-.99,16.75,1.8,23.35,7.2,23.95,7.32,28.3,5.55,2.21-.9,6.86-2.16,10.3-2.82,5.77-1.1,7.01-.88,14.71,2.62,13.39,6.08,30.1,5.68,30.1-.7,0-1.06,1.39-1.7,3.63-1.7,2.01,0,3.97-.56,4.39-1.25,1.18-1.92,5.53-1.44,5.53.63,0,2.34.58,2.32,7.66-.22,5.53-1.99,5.93-1.97,8.28.16,2.08,1.86,3.25,2.02,7.32,1,4.55-1.16,5.01-1.02,7.41,2.25,1.74,2.37,4.07,3.7,7.2,4.19,2.54.38,9.9,1.79,16.33,3.12,23.53,4.91,34.48,1.87,34.48-9.58,0-2.14-1.14-4.65-2.87-6.27-2.7-2.53-14.89-7.58-18.34-7.58-.86,0-3.75-.62-6.39-1.34-3.69-1.02-4.41-1.62-3.08-2.54,1.16-.8-2.19-.94-9.96-.42-13.15.9-21.21,2.52-26.08,5.31-3.19,1.83-3.49,1.74-8.32-2.62-2.75-2.51-5.61-4.53-6.35-4.53-3.87,0-10.06-4.45-12.29-8.82-2.22-4.33-2.26-4.85-.44-5.55,1.1-.42,2.45-.08,2.97.76.72,1.19,1.56,1.23,3.51.18,1.6-.86,5.17-1.08,9.36-.58,7.86.92,13.17-.78,16.03-5.17,2.63-3.99,2.5-4.49-2.41-10.57-6.51-8.1-11.92-13.15-15.67-14.71-3.43-1.43-7.1-7.14-7.1-11.05s-1.48-6.07-4.47-6.07c-1.99,0-3.35-.96-4.05-2.83-1.41-3.67-3.55-5.33-8.2-6.31-2.06-.44-6.45-3.27-9.74-6.3-3.27-3.01-8.24-6.57-11.03-7.92-4.99-2.43-14.25-13.09-14.25-16.41,0-.92-.86-4.55-1.9-8.1-1.88-6.36-2.05-6.5-11.25-10.7-10.06-4.57-12.63-5.05-14.93-2.77-2.99,3.01-1.56,6.86,4.31,11.66,15.25,12.47,22.53,23.35,17.04,25.48-2.48.94-12.3-3.51-19.74-8.94-3.39-2.47-7.68-5.47-9.54-6.66-1.86-1.19-3.39-2.91-3.39-3.85s-1.52-2.27-3.39-2.99c-3.89-1.48-10.16-6.86-10.16-8.7,0-2.63-7.8-10.08-10.34-9.88-6.08.48-8.46-.28-11.59-3.65-4.01-4.33-9.56-5.87-24.39-6.74-10.84-.64-11.44-.52-16.9,2.93-7.48,4.73-8.38,8.3-4.23,16.55,4.21,8.34,4.49,9.46,3.29,12.69-1.28,3.45-5.55,3.65-9.02.4-1.41-1.3-5.51-3.49-9.14-4.85-8.16-3.09-14.45-7.3-16.01-10.72-.86-1.92-.54-4.03,1.22-8,3.19-7.11,2.24-10.34-5.03-17.28-4.57-4.35-6.13-6.83-6.81-10.79-1.02-6.07-2.06-6.75-14.31-9.28-11.64-2.41-15.73-1.41-22.91,5.65-5.87,5.77-6.43,8.48-2.82,13.91,3.41,5.15,3.13,6.39-2.14,9.12-5.45,2.81-7.06,5.17-10.06,14.87-2.01,6.43-2.07,7.6-.46,10.9.98,2.03,4.45,5.93,7.68,8.66,3.25,2.72,6.19,6.11,6.57,7.5.58,2.26.08,2.52-4.75,2.52-7.39,0-15.03-3.31-20.2-8.74-2.97-3.13-6.48-5.19-11.1-6.54l-6.78-1.97v-7.21c0-3.95-.76-8.62-1.7-10.38-2.5-4.69-1.16-6.41,6.34-8.1,5.31-1.19,7.01-2.19,8.19-4.75,1.37-3.01,1.14-3.59-2.95-7.34-2.44-2.24-5.19-5.81-6.09-7.96-1.32-3.15-3.11-4.45-9.34-6.79-15.21-5.71-33.61-4.99-46.2,1.83-6.4,3.46-9.62,8.66-7.32,11.8,5.45,7.4,5.91,8.42,4.67,10.39-.68,1.12-4.21,3.01-7.82,4.17-3.61,1.19-7.84,3.35-9.38,4.81-3.21,2.99-3.59,2.83-11.35-5.07-9.18-9.32-23.63-16.76-30.18-15.54-8.82,1.66-11.09,6.65-8.76,19.32.76,4.15.3,5.01-6.72,12.93-6.39,7.18-8.08,8.42-11.02,8.12-4.51-.48-10.59,4.53-12.49,10.28-2.63,7.96-.78,11.37,12.7,23.59,4.92,4.45,7.02,9,4.15,9Zm-126.2,34.73c1.97-1.98.26-1.88-7.13.34-7.82,2.39-9.22,2.34-8.26-.18.66-1.68.28-1.89-2.18-1.1-1.65.5-5.19,1.3-7.92,1.77-3.63.6-4.87,1.38-4.75,2.95.26,3.17-2.35,2.59-6.12-1.32l-3.3-3.47,9.26-2.85c5.09-1.56,9.56-3.33,9.94-3.93,1.02-1.64-2.28-1.28-8.26.9-2.97,1.1-9.06,2.1-13.55,2.26-6.23.2-8.98.9-11.57,2.95-4.23,3.33-9.84,3.39-15.09.2-2.23-1.36-5.43-2.46-7.14-2.46-4.13,0-10.66-3.45-10.06-5.31.62-1.9,12.43-4.55,25.08-5.65,10.6-.9,16.48-3.49,16.48-7.26,0-1.2.92-3.47,2.02-5.05,1.87-2.67,2.63-2.85,9.42-2.12,9.3.96,10.65,2.06,9.86,7.97-.56,4.03-.2,4.93,2.71,6.83,1.82,1.21,4.35,1.92,5.61,1.59,1.26-.32,3.23.1,4.39.96,2.04,1.49,6.59,1.21,6.66-.42.02-.42.16-5.33.32-10.9.32-11.26,1.7-13.81,7.74-14.23,3.23-.24,3.65.16,3.99,3.61.2,2.12-.56,6.01-1.72,8.62-2.48,5.57-2.32,7.55.81,10.94,1.92,2.08,2.2,3.68,1.6,9.24-.78,7.2-2.79,9.81-7.46,9.81-3.07,0-3.73-2.31-1.37-4.67Zm10.43,8.9c-.79,2.04-5.15,2.64-6.25.86-.36-.58.44-2.07,1.8-3.29,2.79-2.52,5.74-.92,4.45,2.43Zm89.27-4.85l-1.02,3.71-.68-4.31c-.7-4.41.88-8.06,2.08-4.83.36.96.18,3.41-.38,5.43Zm290.43,53.58c.68,0,1.24.84,1.24,1.84s-.56,1.85-1.24,1.85-1.23-.83-1.23-1.85.56-1.84,1.23-1.84Zm191.88-15.1c3.39-4.08,32.47-5.25,39.55-1.58,2.03,1.04,4.79,1.9,6.15,1.9,4.67,0,11.05,3.97,12.35,7.68,1.48,4.27-.9,8.88-5.21,10.02-3.25.88-13.19,1.02-13.19.2,0-.32,2.62-1.34,5.85-2.28,4.43-1.28,5.95-2.37,6.26-4.43.38-2.53.06-2.65-4.31-1.87-2.59.48-5.99,1.34-7.57,1.92-4.79,1.79-10.44,1.34-9.64-.74,1.06-2.77-1.54-3.61-4.09-1.3-1.41,1.26-3.79,1.9-6.3,1.66-4.35-.44-6.63-3.49-2.61-3.49,2.91,0,5.88-3.1,4.05-4.23-.68-.42-3.27.08-5.76,1.12-6.01,2.5-7.9,2.37-7.9-.58,0-2.54-.94-2.93-6.11-2.49-2.5.22-2.77-.04-1.52-1.52ZM242.06,79.25c-3.25-3.25-3.12-4.87.3-4.03,3.08.74,7.09,3.83,7.09,5.45,0,1.97-4.95,1.02-7.39-1.42Zm21.53,72.4c-7.99,5.31-9.58,5.01-2.42-.44,3.15-2.41,6.33-4.17,7.06-3.93.72.24-1.36,2.2-4.63,4.37Zm9.42-.68c-1.6,2.07-2.62,2.71-2.62,1.7,0-.26.98-1.22,2.16-2.17,1.94-1.52,1.99-1.48.46.46Zm-.16-15.13c0-.64.14-1.18.32-1.18.16,0,2.13-.5,4.33-1.14,2.21-.64,3.73-.68,3.39-.12-1.02,1.64-8.04,3.77-8.04,2.44Zm33.81,42.95c-3.73,1.7-9.18,1.9-9.18.32,0-1.28,6.65-3.81,10.02-3.81s2.83,1.83-.84,3.49Zm8.68-9.76c-2.04.06-2.15-.14-.62-1.12,1.02-.66,3.23-1.16,4.93-1.12,2.81.06,2.87.16.6,1.12-1.34.58-3.57,1.1-4.91,1.12Zm83.62,18.48c-1.42-.06-1.72-.34-.74-.74.9-.34,1.96-.3,2.37.1.42.42-.32.7-1.63.64Zm72.78,8.72c-1.03,0-1.87-.2-1.87-.48,0-.26.84-.8,1.87-1.19,1-.4,1.84-.18,1.84.48s-.84,1.19-1.84,1.19Zm-8.52-10.46c.66-2.61,1.08-2.77,4.61-1.65,2.15.68,4.67,1.48,5.61,1.79,2.99.94-1.94,5.01-7.88,6.51-11.03,2.77-17.06.86-7.36-2.34,2.83-.94,4.53-2.4,5.01-4.31Zm-8.18.62c.7,0,1.3.54,1.3,1.22s-.26,1.24-.56,1.24c-.28,0-.88-.56-1.3-1.24-.4-.68-.16-1.22.56-1.22Zm-7.4-5.45c3.03,1.06,6.5,1.64,7.7,1.34,1.23-.32,2.23-.16,2.23.38s-1.52,1.28-3.39,1.66c-1.86.4-8.62,1.85-14.99,3.25-13.59,2.95-12.15,2.89-16.44.56-4.21-2.28-3.31-4.21,1.94-4.21,5.21-.02,13.17-2.28,13.17-3.75,0-1.7,3.51-1.43,9.78.76Zm-11.28-6.88c-2.63-.04-5.03-2.08-4.13-3.55,1.28-2.06,2.93-1.64,4.41,1.1.98,1.86.92,2.44-.28,2.44Zm130.51,5.39c-3.99,1.06-6.1.94-5.33-.32.84-1.34,8.1-2.51,8.1-1.3,0,.48-1.24,1.22-2.77,1.62Zm40.25,3.89c-1.3-.99-1.74-1.83-.94-1.84,2.35-.06,5.33,1.36,5.33,2.57,0,1.6-1.66,1.34-4.39-.72Zm17.62,4.27c-2.19,0-9.08-5.77-8.1-6.75,1.34-1.36,9.64,3.86,9.64,6.05,0,.38-.68.7-1.54.7Zm30.49-15.55c1.64.62,1.56,1.08-.58,3.23-2.66,2.64-10.24,3.39-13.53,1.3-1.45-.9-1.07-1.42,1.84-2.52,5.41-2.06,10.1-2.84,12.27-2Zm-12.79-6.74c3.51,2.85,2.41,4.43-4.77,6.79-7.78,2.57-21.15,4.33-22.03,2.91-.92-1.5-.72-1.61,6.19-3.29,3.3-.82,7.74-2.75,9.84-4.31,5.63-4.17,7.72-4.57,10.76-2.1Zm-55.56-102.16c0-.6-3.61-3.95-7.99-7.39-4.41-3.47-8.02-6.86-8.02-7.52,0-1.52,6.13-.24,12.99,2.7,5.33,2.27,6.41,4.07,8.94,14.73.7,3.05,1.12,5.7.92,5.92-.56.56-6.83-7.18-6.83-8.44Zm-191.52,35.02c-1.16.44-1.59-.5-1.46-3.3.1-2.17-.28-6.78-.8-10.28-.97-6.12-.86-6.39,2.4-8,1.87-.9,3.63-2.35,3.91-3.21.28-.84-3.23-5.41-7.78-10.12l-8.28-8.56.84-6.25c1.16-8.8,2.75-11.61,8.32-14.73,6.65-3.75,7.96-7.56,4.59-13.53-2.47-4.43-2.5-4.81-.52-7.82,1.12-1.74,4.03-4.65,6.41-6.48,3.81-2.91,5.09-3.23,10.54-2.59,3.41.4,8.62,1.66,11.57,2.79,4.45,1.7,5.39,2.61,5.39,5.27,0,4.33,3.75,10.22,9.06,14.27,5.77,4.39,6.63,7.41,3.37,11.82-5.76,7.78-1.06,18.24,9.02,20.12l4.63.88-.74,5.77c-.42,3.17-1.22,10.56-1.8,16.41-.76,7.86-1.76,11.67-3.77,14.51-2.99,4.19-13.51,11.63-22.27,15.72-9.08,4.27-25.81,9.1-32.61,9.44-5.65.28-4.85,3.77.96,4.25,4.21.36,23.55-5.19,29.5-8.44,1.19-.64,2.89-1.18,3.79-1.18,3.59,0,15.25-7.54,19.46-12.59,7.48-8.96,10.08-15.28,10.3-24.98.34-14.81.46-15.39,2.87-15.39,5.88,0,9.94,13.47,5.73,19.02-.98,1.32-1.8,3.43-1.8,4.71,0,4.49-10.99,17.94-19.1,23.37-4.29,2.87-7.58,5.45-7.28,5.75.28.28,3.43-.8,6.99-2.44,10.16-4.67,23.83-19.28,24.77-26.5.26-1.99,1.1-5.15,1.85-7.06.76-1.9,1.38-4.99,1.38-6.86,0-2.32,1.14-4.23,3.69-6.12,4.71-3.47,4.85-7.99.56-17.06-5.45-11.55-1.89-14.95,16.35-15.61,13.53-.5,20.77,1.42,22.49,5.95.76,2.01,2.77,3.09,7.88,4.23,6.57,1.47,11.74,5.5,11.88,9.24.06,1.48,10.21,9.36,12.07,9.36.62,0,2.63,1.94,4.43,4.31,1.81,2.39,3.91,4.31,4.69,4.31s3.93,2.1,7.01,4.67c7.9,6.56,23.7,12.85,26.14,10.43.64-.66,1.56-3.91,2.05-7.22l.86-6.01,3.57,4.69c1.97,2.57,5.27,5.39,7.37,6.3,2.09.88,7.6,4.73,12.23,8.54,4.63,3.83,9.6,6.96,11.08,6.97,4.85.02,6.45,2.01,13.87,17.02,2.2,4.49,4.87,7.64,8.34,9.86,8.76,5.65,19,17.3,17.42,19.84-1.68,2.72-8.22,5.13-11.81,4.33-1.98-.42-3.61-1.03-3.61-1.32s1.39-2.74,3.09-5.43c4.29-6.79,4.09-9.84-.62-9.84-4.13,0-4.31.28-2.27,3.55,1.16,1.86.92,3.01-1.3,6.11-2.18,3.09-3.87,3.97-8.78,4.61-6.41.86-8.17,2.92-7.5,8.82.22,2.01-.76,3.39-3.46,4.93-2.07,1.19-3.77,2.51-3.77,2.93-.02.44-2.92,1.86-6.47,3.21-3.57,1.32-8.42,3.15-10.79,4.05-2.37.9-6.53,1.66-9.24,1.72-2.7.06-5.51.86-6.26,1.78-1.54,1.97-18.76,5.21-19.68,3.71-.72-1.16,5.69-4.07,11.9-5.41,2.3-.5,6.11-1.92,8.5-3.17l4.31-2.24-5.23-.06c-4.41-.04-5.23-.44-5.23-2.52,0-3.27-1.44-3.11-4.93.62-3.37,3.59-21.25,10.82-25.08,10.14-2.59-.46-2.59-.5-.18-1.42,9.6-3.71,15.35-6.37,15.37-7.14.02-.48-.94-.58-2.12-.2-1.54.48-1.3-.08.8-1.94,2.12-1.86,2.61-2.99,1.65-3.95-.94-.94-2.85-.26-6.66,2.42-9.04,6.34-37.99,14.17-37.99,10.28,0-1.1,3.27-2.6,18.14-8.42,7.77-3.03,11.38-5.77,9.76-7.4-.28-.28-4.03.84-8.34,2.51-12.63,4.81-29.86,10-31.87,9.6-4.33-.88-3.79-2.59,1.06-3.37,9.36-1.5,6.86-3.06-3.73-2.35-9.62.66-10.02.61-6.57-1.08l3.71-1.8-4.35-.1c-2.9-.06-5.05.72-6.46,2.37-1.54,1.79-3.63,2.47-7.66,2.47-3.06,0-5.57-.56-5.57-1.24s.9-1.23,1.99-1.23,5.47-1.66,9.72-3.68c4.25-2.05,10.98-4.45,14.95-5.37l7.21-1.67-5.53-.6c-3.05-.34-6.12-.24-6.78.22-2.12,1.41-11.22,3.71-14.69,3.71-1.82,0-5.83,1.16-8.92,2.57-4.39,2.01-6.56,2.32-10.04,1.5l-4.45-1.06,8.58-2.21c4.73-1.22,10.9-2.77,13.73-3.43,5.15-1.22,8.86-4.09,7.3-5.65-.44-.44-3.71.08-7.26,1.16-9.38,2.91-18.78,4.65-25.06,4.65-3.03,0-7.26.92-9.4,2.03-2.12,1.1-6.47,2.14-9.62,2.32-5.89.32-19.72,5.75-22.19,8.74-2.26,2.72-.28,7.4,3.91,9.12,2.64,1.1,3.3,1.86,2.17,2.44-1.97,1.02-14.05,3.31-22.27,4.21-6.03.68-8-.82-3.09-2.32,1.68-.5,2.17-1.08,1.24-1.46-.84-.36-6.67.48-12.93,1.85-15.31,3.33-18.14,3.7-18.82,2.6-.32-.52,2.32-1.64,5.89-2.5,7.92-1.88,14.01-4.37,15.12-6.13,1.4-2.29.06-2.37-5.63-.36-6.63,2.33-16.92,4.77-24.95,5.92-3.25.46-8.78,2.17-12.31,3.81-6.79,3.17-10.14,3.73-11.26,1.88-.38-.62,1.94-2.06,5.15-3.19,3.23-1.14,8.36-3.1,11.41-4.39,8.56-3.59,20-7.3,22.43-7.3,1.2,0,2.2-.62,2.2-1.39,0-1.78-4.49-1.08-22.79,3.59-16.12,4.11-34.74,7.18-36,5.92-1.46-1.46,1.48-3.01,13.21-6.92,6.45-2.17,12.33-4.69,13.06-5.65.76-.94,2.01-1.72,2.79-1.72s1.41-.54,1.41-1.23c0-2-3.79-1.42-12.95,1.97-9.04,3.37-24.65,7.84-27.54,7.86-2.63.04.44-3.1,4.81-4.91,4.47-1.86,5.09-6.15.88-6.13-1.52.02-7.08,1.39-12.33,3.07-5.23,1.68-11.77,3.41-14.49,3.85-2.72.42-5.25,1.26-5.61,1.86-.36.58-2.42,1.04-4.59,1.02-3.53-.04-3.07-.46,4.69-4.27,10.14-4.95,25.59-19.2,24.35-22.45-.54-1.42-.3-1.68.88-.96,1.02.64,1.32.52.84-.28-.44-.7.02-1.97,1.04-2.81,2.01-1.66,2.48-4.91.72-4.91-.61,0-2.73,1.86-4.71,4.11-8.14,9.26-26.2,19.18-26.2,14.39,0-.66,3.91-3.79,8.7-6.94,5.76-3.79,8.28-6.15,7.48-6.95-1.94-1.92-7.41-1.43-10.02.94-1.5,1.34-3.41,1.88-5.13,1.42-1.68-.44-4.33.26-6.81,1.81l-4.07,2.5.02-3.48c0-2.65,1.1-4.21,4.61-6.56,2.55-1.7,5.17-3.75,5.83-4.55,1.16-1.41,13.15-6.54,15.21-6.54.52,0,2.25,1.2,3.83,2.67,2.61,2.42,3.35,2.54,8.18,1.24,2.92-.78,6.19-1.08,7.26-.66,1.08.4,3.09-.28,4.49-1.56,2.46-2.24,7.17-3.7,22.61-7.11,6.59-1.45,14.43-4.47,31.05-11.97,7.7-3.46,16.52-9.72,15.66-11.1-.42-.68-1.5-.94-2.39-.6Zm-91.64,55.48c1.56-1.88,5.43-2.49,4.33-.66-.38.58-1.82,1.38-3.23,1.74-2.1.54-2.28.36-1.1-1.08Zm-20.41-23.91c.42-.68,1-1.25,1.3-1.25s.54.56.54,1.25-.58,1.22-1.3,1.22-.96-.56-.54-1.22Zm105.29-42.3c0,6.63-.16,6.98-7.2,14.07-5.35,5.41-9.4,8.17-15.86,10.84-9.96,4.11-17.68,6.05-15.71,3.99.7-.74,3.47-2.15,6.17-3.13,4.07-1.48,4.37-1.81,1.81-1.92-2.87-.1-2.93-.2-.7-1.5,1.32-.74,3.93-2.95,5.81-4.87,1.88-1.94,3.9-3.53,4.51-3.53,1.62,0,12.51-16.28,13.59-20.3,2.19-8.16,7.58-3.63,7.58,6.35Zm-105.33-46.32c1.12-1.26,5.31-3.51,9.28-4.99,3.97-1.48,7.54-3.53,7.92-4.53,1.4-3.67.64-8.76-1.77-11.81-1.34-1.72-2.46-4.01-2.46-5.07,0-7.02,32.17-13.79,41.81-8.8,1.92,1,5.75,2.17,8.48,2.6,4.13.66,5.21,1.45,6.3,4.53.72,2.07,3.25,5.61,5.61,7.92l4.29,4.17-5.63,2.42c-3.11,1.32-6.33,2.41-7.19,2.41s-2.47,1.02-3.61,2.28c-1.92,2.13-1.9,2.61.41,7.7,1.42,3.13,2.46,8.1,2.48,11.81.02,3.51.64,6.78,1.4,7.26,1.87,1.14.76,16.12-1.52,20.91-1.01,2.12-2.87,3.79-4.51,4.01-3.23.46-2.45,2.68.94,2.68,3.67,0,6.83-5.25,9.2-15.29,1.21-5.13,2.65-9.34,3.21-9.34,3.23,0,7.6,2.95,10.04,6.76,1.54,2.41,3.93,4.67,5.27,5.03,1.84.48,2.55,1.85,2.8,5.39.26,3.83-.54,5.91-4.13,10.72-6.5,8.72-9.02,10.68-11.3,8.78-1.54-1.28-2.39-.82-5.05,2.75-5.25,7.06-12.77,13.71-18.28,16.19-2.85,1.28-6.74,3.63-8.62,5.21-1.9,1.59-5.21,3.77-7.37,4.89-4.15,2.12-10.23,2.72-10.23,1.02,0-1.48,5.94-6.71,12.93-11.37,6.03-4.03,15.39-12.95,15.39-14.67,0-2.14-1.84-2.37-3.91-.48-2.77,2.51-2.81,2.47-4.21-5.01-1.06-5.75-4.25-9.7-6.23-7.74-.5.5-.2,2.85.64,5.21,2.99,8.19,2.28,11.22-3.99,17.22-3.17,3.03-6.43,5.51-7.26,5.51-.84.02-4.03,1.7-7.08,3.77-7.74,5.23-14.71,8.78-16.3,8.26-1.54-.52,5.65-7.72,10.14-10.12,4.06-2.16,13.63-11.34,17.11-16.37,2.79-4.03,2.81-10.34.04-12.07-.64-.38-1.14-1.74-1.14-3.02s-1.34-3.87-2.99-5.77c-2.45-2.81-3.31-3.17-4.61-1.89-1.24,1.25-1.26,2.05-.12,3.71,2.81,4.01,6.57,13.09,6.21,14.95-.2,1.02-2.31,3.12-4.67,4.67-2.37,1.57-6.01,4.35-8.1,6.21-2.1,1.85-6.47,5.31-9.72,7.68-3.25,2.37-7.36,5.73-9.12,7.48-4.49,4.39-22.91,14.53-28.99,15.94-6.17,1.42-8.12,1.5-8.06.3.08-1.18,6.79-5.45,11.97-7.57,2.2-.9,3.99-2.12,3.99-2.71,0-1.94,7.34-4.87,10.3-4.13,2.44.62,3.43-.06,5.79-3.97,4.13-6.77,6.79-8.34,7.56-4.41.3,1.62,1.14.96,3.3-2.55,1.61-2.59,5.03-6.12,7.64-7.84,7.4-4.87,9.66-9.68,8.38-17.74-.58-3.66-.78-7.53-.44-8.59.84-2.67-5.57-11.95-12.93-18.74-5.5-5.05-6.07-6.07-5.41-9.44.62-3.08.14-4.37-2.61-6.91-3.19-2.95-3.25-3.25-1.3-5.39Zm-26.44,87.99c.84-1.02,2.08-1.84,2.77-1.84s.56.8-.3,1.84c-.84,1.03-2.08,1.85-2.77,1.85s-.54-.82.3-1.85Zm41.43-55.76c1.61,2.52,2.91,4.89,2.91,5.25,0,1.78-3.95.16-9.06-3.75-5.53-4.21-10.64-11.88-10.64-15.99,0-2.72,12.99,8.48,16.79,14.49Zm-69.29-24.07c5.45-6.72,6.28-9.78,4.41-16.39-2.12-7.64-.44-11.03,6.09-12.13,4.11-.68,6.3-.16,12.79,3.03,10.43,5.13,24.99,19.66,26.16,26.06.5,2.77.3,4.81-.54,5.31-1.94,1.21-1.64,6.38.64,10.81,2.15,4.13,1.71,13.49-.66,14.27-2.03.68-1.57,2.7.62,2.7,1.12,0,2.77-2.04,3.85-4.85,1.68-4.27,2.18-4.67,4.23-3.39,1.94,1.2,2.19,2.43,1.58,7.61-1.02,8.68-2.82,13.95-5.21,15.3-1.14.64-1.64,1.56-1.14,2.06,1.63,1.63,6.39-4.09,8.94-10.62,1.34-3.49,2.85-6.59,3.35-6.9,1.6-1.02,5.79,2.01,5.13,3.71-.34.92.22,2,1.28,2.42,1.14.42,1.92,2.21,1.92,4.41,0,3.93-3.11,7.64-8.94,10.68-3.21,1.68-3.39,1.64-3.39-.96,0-2.17-2.59-.04-12.22,10.1-12.11,12.73-17.34,15.77-10.43,6.1,1.97-2.77,4.13-5.9,4.79-6.98.68-1.08,2.48-3.35,4.01-5.03,1.52-1.7,2.77-3.57,2.77-4.15,0-1.44-2.14-1.32-3.06.18-1.65,2.65-3.09,1.01-3.09-3.55,0-4.81-2.5-8.42-4.83-6.97-.83.5-.81,1.72.08,3.64,1.01,2.19.8,4.63-.78,10.1-2.77,9.52-4.21,12.11-11.28,20.3-3.29,3.81-6.52,7.8-7.2,8.88-.68,1.08-2.84,2.35-4.81,2.81-4.19,1-4.11.82,4.15-9.74,3.07-3.95,6.78-9.14,8.22-11.55,1.46-2.41,3.15-4.73,3.77-5.15,1.7-1.18,3.91-12.57,3.35-17.32-.54-4.47-3.51-9.94-5.39-9.94-2.37,0-2.32,2.22.12,7.15,2.75,5.53,2.43,12.39-.78,16.68-2.5,3.39-4.67,1.28-3.75-3.65.42-2.28.16-7.53-.58-11.68-1.16-6.39-1.08-7.84.56-9.64,1.06-1.16,1.9-2.63,1.9-3.27s-4.01-3.28-8.92-5.95c-7.33-3.97-21.84-16.44-21.84-18.78,0-.34,1.86-2.92,4.15-5.73Z"/>
      <path class="cls-1" d="m330.17,60.63c1.94-3.75,1.6-9.72-.56-9.72-.6,0-1.36,1.81-1.7,4.01-.34,2.2-1.02,5.25-1.5,6.77-1.34,4.21,1.46,3.41,3.77-1.06Z"/>
      <path class="cls-1" d="m332.25,27.85c2.5.9,2.95.06,2.41-4.57-.54-4.63-1.94-5.69-3.19-2.44-1.22,3.19-.86,6.43.78,7.01Z"/>
      <path class="cls-1" d="m265.57,60.43c-1.97-5.13-3.33-4.01-3.43,2.81-.1,6.55,1.32,7.95,3.43,3.35.86-1.92.86-3.85,0-6.15Z"/>
      <path class="cls-1" d="m318.72,54.29c.84-.28,1.52-2.08,1.52-3.99s-.68-3.73-1.52-4.01c-1.04-.34-1.54.94-1.54,4.01s.5,4.35,1.54,3.99Z"/>
      <path class="cls-1" d="m710.02,156.31c16.72-.16,21.03-.56,24.33-2.32,5.05-2.72,5.07-5.17.04-8.24-13.11-7.96-47.3-8.02-54.48-.08-3.67,4.05-2.02,7.68,4.25,9.36,3.45.92,13.25,1.41,25.86,1.28Zm-20.26-11.14c7.72-2.44,24.99-2.7,33.13-.52,5.43,1.44,11.77,4.79,11.77,6.19,0,.48-3.15,1.58-6.99,2.44-5.41,1.21-7.12,1.23-7.5.08-.32-.96-3.49-1.46-9.08-1.46-5.29,0-9.96-.72-12.23-1.9-3.22-1.66-3.73-1.66-4.35-.06-.4,1.02-.34,2.43.08,3.12.52.83-1,1.28-4.15,1.28-3.65,0-5.29-.62-6.23-2.36-2.1-3.93-1.57-4.59,5.55-6.82Z"/>
      <path class="cls-1" d="m744.47,217.15c-2.12-1.52-5.47-2.47-8.78-2.49-2.95-.02-9.24-1.2-13.97-2.64-10.02-3.05-29.88-4.37-33.83-2.27-3.53,1.89-1.76,4.13,2.59,3.27,4.69-.94,4.47-.26-.78,2.23-8.66,4.11-4.79,7.44,10.64,9.2,5.67.64,11.97,1.82,13.99,2.64,2.05.82,10.62,2.17,19.1,3.01,8.46.82,16.59,1.59,18.08,1.68,1.7.1,3.65-1.18,5.31-3.52l2.65-3.71-5.77-2.48c-3.19-1.34-7.32-3.57-9.22-4.91Zm-43.61-3.03c-2.65,2.01-3.59,2.21-4.79.98-1.8-1.8-.62-2.86,3.19-2.82,3.77.04,3.86.14,1.6,1.84Zm6.1,5.51c-.42.68-1.03,1.22-1.3,1.22-.3,0-.56-.54-.56-1.22s.6-1.24,1.32-1.24.94.56.54,1.24Zm16.37,1.19c-2.48.02-4.89.6-5.29,1.28v-.02c-.9,1.46-1.57,1.46-5.11.02-3.63-1.47-4.43-3.15-2.34-4.89,2.14-1.76,11.86-.56,15.09,1.91,1.99,1.5,1.77,1.68-2.35,1.7Zm16.26,6.19c-10.88,0-11.08-.04-11.08-2.95,0-2.2.98-3.3,3.79-4.29,3.21-1.1,4.91-.82,11.08,1.94,4.01,1.79,7.3,3.71,7.3,4.27s-4.99,1.03-11.08,1.03Z"/>
      <path class="cls-1" d="m615.97,235.87c4.81-1.06,18.54.16,20.12,1.81.36.38,5.63.24,11.72-.34,6.12-.56,15.57-.88,21.07-.7,10.28.32,13.67-1.03,12.19-4.83-.88-2.32-8.28-7.23-10.87-7.23-2.4,0-6.95-6.79-7.01-10.48-.1-5.45-2.61-6.61-17.32-8.12-23.15-2.35-24.77-2.43-67.93-3.05-36.72-.52-41.57-.38-41.57,1.28,0,1.04-.96,1.88-2.14,1.88s-4.15.56-6.57,1.25c-3.61,1-4.67,2.06-5.81,5.79-1.3,4.23-1.16,4.85,1.79,7.92,5.35,5.59,14.19,8.5,33.51,11,19.83,2.59,30.79,3.11,36.76,1.77,2.55-.58,6.25-.16,10.46,1.16,4.95,1.57,7.76,1.79,11.61.9Zm-33.01-6.23c-2.27,1.45-14.55,1.34-14.55-.1,0-.66,3.63-1.14,8.08-1.06,4.87.08,7.44.56,6.48,1.16Zm-4.61-8.08c-8.22,2.45-9.3,1.52-2.37-2.04,7.88-4.03,3.43-4.41-6.15-.54-4.51,1.85-9.46,3.83-10.99,4.43-1.52.61-2.77,1.67-2.77,2.37,0,1.52-10.66,1.69-11.6.18-.68-1.1,10.28-5.45,17.46-6.92,2.21-.46,4.01-1.34,4.01-1.97,0-1.64-2.65-1.4-8.78.8-3.7,1.32-7.37,1.68-11.77,1.14-5.31-.64-6.79-.38-8.76,1.59-2.12,2.14-2.68,2.2-5.69.62-4.51-2.37-3.93-6.68,1.12-8.18,2.02-.6,5.09-1.7,6.77-2.43,1.7-.72,7.03-1.16,11.86-.96,5.35.22,9.9-.24,11.67-1.19,1.68-.9,6.93-1.48,12.65-1.4,9.32.12,9.94.3,13.85,4.19,5.43,5.41,5.47,8.38.08,8.38-2.26,0-7.01.86-10.6,1.92Zm15.37,9.16c-1.06,0-1.92-.56-1.92-1.24s.52-1.22,1.16-1.22,1.5.54,1.92,1.22c.4.68-.12,1.24-1.16,1.24Zm18.9-3.81c2.22-1.36,5.53-2.77,7.35-3.13,4.03-.81,9.52-4.77,7.96-5.73-.62-.38-5.49,1.2-10.84,3.5-11.55,5.03-14.88,5.19-19.66.99-3.21-2.81-3.39-3.31-1.54-4.33,2.95-1.66,2.57-4.13-1-6.48-1.7-1.1-3.09-2.92-3.09-4.01,0-1.81,1.79-1.92,16.94-1.19,14.71.72,48.48,2.87,49.19,3.15.76.28,4.99,11.14,5.67,14.55.82,4.17-.92,5.43-3.66,2.66-2.31-2.28-7.04-.72-8.76,2.89-1.2,2.48-2.52,3.39-5.05,3.39-1.88,0-3.72-.32-4.11-.7-1.04-1.04,4.21-6.23,7.26-7.19,3.57-1.12,4.81-4.43,1.65-4.43-3.97,0-16.14,6.52-15.45,8.28.36.96-.36,1.58-1.83,1.58-1.34,0-2.42-.56-2.42-1.24s.56-1.22,1.22-1.22,1.24-.78,1.24-1.74,2.52-3.97,5.59-6.68c8.12-7.13,4.85-7.28-4.85-.2-8.82,6.41-20.83,11.67-23.95,10.46-1.44-.54-.9-1.32,2.17-3.19Z"/>
    </g>
  </g>
</svg>