<?xml version="1.0" encoding="UTF-8"?>
<svg xmlns="http://www.w3.org/2000/svg" version="1.1" viewBox="0 0 396 140">
  <defs>
    <style>
      .cls-1 {
        fill: #231f20;
      }
    </style>
  </defs>
  <!-- Generator: Adobe Illustrator 28.7.1, SVG Export Plug-In . SVG Version: 1.2.0 Build 142)  -->
  <g>
    <g id="Layer_1">
      <g>
        <g>
          <path class="cls-1" d="M59.18,26.33c4.5,0,8.45.83,11.84,2.5,3.39,1.67,6.22,3.88,8.5,6.63,2.28,2.75,3.97,5.89,5.08,9.42,1.11,3.53,1.68,7.13,1.71,10.79.03,3.67-.53,7.25-1.67,10.75-1.14,3.5-2.83,6.63-5.08,9.38-2.25,2.75-5.07,4.97-8.46,6.67-3.39,1.7-7.36,2.54-11.92,2.54h-28.92V26.33h28.92ZM53.85,29h-15.42v53.34h15.42c3.95.11,7.38-.57,10.29-2.04,2.92-1.47,5.35-3.43,7.29-5.88,1.94-2.44,3.4-5.25,4.38-8.42.97-3.17,1.46-6.42,1.46-9.75s-.49-6.61-1.46-9.83c-.97-3.22-2.45-6.1-4.42-8.63-1.97-2.53-4.42-4.6-7.33-6.21-2.92-1.61-6.32-2.47-10.21-2.58Z"/>
          <path class="cls-1" d="M112.03,26.33h7.33l27.34,58.68h-9.59l-6.67-14.67h-35.09l-6.75,14.67h-3.5l26.92-58.68ZM96.86,67.17h32.09l-15.92-35.09-16.17,35.09Z"/>
          <path class="cls-1" d="M141.62,26.42h9.5l24.09,52.93,24.34-52.93h3.5l-26.84,58.59h-7.92l-26.67-58.59Z"/>
          <path class="cls-1" d="M210.55,85.01V26.33h8.25v58.68h-8.25Z"/>
          <path class="cls-1" d="M230.13,26.33h9.5l38.51,51.18V26.33h3.17v58.68h-7.92l-40.01-53.01v53.01h-3.25V26.33Z"/>
          <path class="cls-1" d="M321.9,27.33c-3.95,0-7.4.82-10.38,2.46-2.97,1.64-5.46,3.81-7.46,6.5-2,2.7-3.5,5.75-4.5,9.17-1,3.42-1.5,6.91-1.5,10.46s.49,7.04,1.46,10.46c.97,3.42,2.46,6.46,4.46,9.13,2,2.67,4.49,4.82,7.46,6.46,2.97,1.64,6.43,2.43,10.38,2.38,2.61,0,5.21-.28,7.79-.83,2.58-.55,5.03-1.36,7.33-2.42,2.31-1.06,4.42-2.38,6.33-3.96s3.49-3.43,4.71-5.54l1.92,1.08c-2.61,4.06-6.25,7.38-10.92,9.96-4.67,2.58-10.39,3.88-17.17,3.88-5.5,0-10.32-.88-14.46-2.63-4.14-1.75-7.58-4.07-10.34-6.96-2.75-2.89-4.82-6.18-6.21-9.88-1.39-3.69-2.08-7.46-2.08-11.29s.69-7.6,2.08-11.29c1.39-3.69,3.46-6.99,6.21-9.88,2.75-2.89,6.2-5.21,10.34-6.96,4.14-1.75,8.96-2.63,14.46-2.63,6.78,0,12.53,1.31,17.25,3.92,4.72,2.61,8.36,5.95,10.92,10l-2.08,1.25c-1.39-2.17-3.08-4.06-5.08-5.67-2-1.61-4.15-2.94-6.46-4-2.31-1.06-4.71-1.85-7.21-2.38-2.5-.53-4.92-.79-7.25-.79Z"/>
          <path class="cls-1" d="M357.49,85.01V26.33h8.25v58.68h-8.25Z"/>
        </g>
        <g>
          <path class="cls-1" d="M167.74,110.07c-.45-.97-.67-2.04-.67-3.11s.22-2.14.67-3.15c.42-.95,1.03-1.8,1.82-2.55.77-.71,1.66-1.31,2.69-1.7,1.03-.42,2.14-.63,3.27-.63,2.2,0,4.29.81,5.88,2.26l-.44.47c-1.46-1.35-3.4-2.1-5.44-2.1-2.47,0-5.88,2.3-5.88,7.4,0,4.81,3.01,7.12,5.46,7.36.14.02.28.02.42.02,1.07,0,2.1-.2,3.07-.57.93-.4,1.76-.93,2.47-1.6l.44.47c-.77.73-1.68,1.29-2.67,1.7-1.05.42-2.16.63-3.31.63s-2.24-.22-3.27-.63c-1.03-.42-1.92-.97-2.69-1.7-.79-.75-1.41-1.6-1.82-2.57Z"/>
          <path class="cls-1" d="M199.69,115h-2.69l-2.06-4.3h-8.39l-2.06,4.3h-.79l7.6-15.81h.79l7.6,15.81ZM194.64,110.07l-3.9-8.1-3.9,8.1h7.8Z"/>
          <path class="cls-1" d="M204.46,114.98h-2.53v-15.8h12.45v.63h-9.92v6.91h8.65v.63h-8.65v7.62Z"/>
          <path class="cls-1" d="M217.61,114.96v-15.79h12.47v.63h-9.94v6.91h8.67v.63h-8.67v6.99h9.94v.63h-12.47Z"/>
        </g>
      </g>
    </g>
  </g>
</svg>