<?xml version="1.0" encoding="UTF-8"?>
<svg xmlns="http://www.w3.org/2000/svg" version="1.1" viewBox="0 0 396 140">
  <defs>
    <style>
      .cls-1 {
        fill: #231f20;
      }
    </style>
  </defs>
  <!-- Generator: Adobe Illustrator 28.7.1, SVG Export Plug-In . SVG Version: 1.2.0 Build 142)  -->
  <g>
    <g id="Layer_1">
      <g>
        <g>
          <path class="cls-1" d="M59.3,26.33c4.5,0,8.44.83,11.82,2.5,3.39,1.67,6.22,3.87,8.49,6.62,2.28,2.75,3.97,5.89,5.08,9.41,1.11,3.53,1.68,7.12,1.71,10.78.03,3.66-.53,7.24-1.67,10.74-1.14,3.5-2.83,6.62-5.08,9.37-2.25,2.75-5.07,4.97-8.45,6.66-3.39,1.69-7.36,2.54-11.91,2.54h-28.9V26.33h28.9ZM53.97,29h-15.41v53.3h15.41c3.94.11,7.37-.57,10.29-2.04,2.91-1.47,5.34-3.43,7.29-5.87,1.94-2.44,3.4-5.25,4.37-8.41.97-3.16,1.46-6.41,1.46-9.74s-.49-6.61-1.46-9.83c-.97-3.22-2.44-6.09-4.41-8.62-1.97-2.53-4.41-4.59-7.33-6.2-2.92-1.61-6.32-2.47-10.2-2.58Z"/>
          <path class="cls-1" d="M112.1,26.33h7.33l27.31,58.63h-9.58l-6.66-14.66h-35.06l-6.74,14.66h-3.5l26.9-58.63ZM96.95,67.14h32.06l-15.91-35.06-16.16,35.06Z"/>
          <path class="cls-1" d="M141.67,26.42h9.49l24.07,52.88,24.32-52.88h3.5l-26.81,58.54h-7.91l-26.65-58.54Z"/>
          <path class="cls-1" d="M210.53,84.96V26.33h8.24v58.63h-8.24Z"/>
          <path class="cls-1" d="M230.1,26.33h9.49l38.47,51.13V26.33h3.16v58.63h-7.91l-39.97-52.96v52.96h-3.25V26.33Z"/>
          <path class="cls-1" d="M321.79,27.33c-3.94,0-7.4.82-10.37,2.46-2.97,1.64-5.45,3.8-7.45,6.5-2,2.69-3.5,5.75-4.5,9.16-1,3.41-1.5,6.9-1.5,10.45s.49,7.04,1.46,10.45c.97,3.41,2.46,6.45,4.45,9.12,2,2.66,4.48,4.82,7.45,6.45,2.97,1.64,6.42,2.43,10.37,2.37,2.61,0,5.2-.28,7.79-.83,2.58-.55,5.02-1.36,7.33-2.41,2.3-1.05,4.41-2.37,6.33-3.96s3.48-3.43,4.71-5.54l1.92,1.08c-2.61,4.05-6.25,7.37-10.91,9.95-4.66,2.58-10.38,3.87-17.15,3.87-5.5,0-10.31-.87-14.45-2.62-4.14-1.75-7.58-4.07-10.33-6.95-2.75-2.89-4.82-6.18-6.2-9.87-1.39-3.69-2.08-7.45-2.08-11.28s.69-7.59,2.08-11.28c1.39-3.69,3.46-6.98,6.2-9.87,2.75-2.89,6.19-5.2,10.33-6.95,4.13-1.75,8.95-2.62,14.45-2.62,6.77,0,12.52,1.3,17.24,3.91,4.72,2.61,8.36,5.94,10.91,9.99l-2.08,1.25c-1.39-2.17-3.08-4.05-5.08-5.66-2-1.61-4.15-2.94-6.45-4-2.3-1.05-4.71-1.85-7.2-2.37-2.5-.53-4.91-.79-7.25-.79Z"/>
          <path class="cls-1" d="M357.35,84.96V26.33h8.24v58.63h-8.24Z"/>
        </g>
        <g>
          <path class="cls-1" d="M141.29,114.92v-15.78h7.3c1.09,0,2.18.2,3.18.61.99.42,1.86.97,2.61,1.7.75.71,1.34,1.56,1.76,2.51.42.97.65,2,.65,3.07s-.24,2.08-.65,3.06c-.42.93-1.01,1.78-1.76,2.51-.75.73-1.62,1.31-2.61,1.7-1.01.42-2.1.61-3.18.61h-7.3ZM147.76,99.77h-3.94v14.51h4.49c2.85-.18,5.83-1.84,5.83-7.24,0-5.77-3.38-7.28-6.39-7.28Z"/>
          <path class="cls-1" d="M174.99,114.92h-2.69l-2.06-4.29h-8.39l-2.06,4.29h-.79l7.59-15.8h.79l7.59,15.8ZM169.95,110l-3.9-8.09-3.9,8.09h7.79Z"/>
          <path class="cls-1" d="M177.25,114.92v-15.78h2.53v15.15h9.75v.63h-12.28Z"/>
          <path class="cls-1" d="M206.11,114.88v-13.45l-2.57,1.56v-.71l5.1-3.12v15.72h-2.53Z"/>
          <path class="cls-1" d="M217.8,114.98c-1.34,0-2.41-.26-3.3-.73-.87-.47-1.56-1.21-2.16-2.25l.53-.3c.55.95,1.17,1.6,1.9,2,.79.45,1.76.67,2.99.67,4.01-.04,3.78-5.42,3.8-7.87-.22.47-.47.87-.83,1.19-.69.65-1.64,1.03-2.67,1.03h-.43c-2.04,0-3.56-.53-4.59-1.58-.55-.57-.97-1.34-1.17-2.19-.14-.57-.12-1.03-.12-1.11.1-3.38,2.99-4.86,6.05-4.86h.24c2.65,0,4.73,1.78,5.58,4.45.34,1.03.49,2.23.49,3.56s-.16,2.51-.49,3.56c-.3.97-.77,1.82-1.34,2.49-1.09,1.29-2.65,1.96-4.47,1.96ZM217.92,99.58c-2.79,0-3.52,1.62-3.52,4.27,0,1.3,0,3.86,3.01,4.23h.63c2.53,0,3.36-2,3.36-4.37,0-2.61-.49-4.13-3.48-4.13Z"/>
          <path class="cls-1" d="M233.54,114.98c-1.34,0-2.41-.26-3.3-.73-.87-.47-1.56-1.21-2.16-2.25l.53-.3c.55.95,1.17,1.6,1.9,2,.79.45,1.76.67,2.99.67,4.01-.04,3.78-5.42,3.8-7.87-.22.47-.47.87-.83,1.19-.69.65-1.64,1.03-2.67,1.03h-.43c-2.04,0-3.56-.53-4.59-1.58-.55-.57-.97-1.34-1.17-2.19-.14-.57-.12-1.03-.12-1.11.1-3.38,2.99-4.86,6.05-4.86h.24c2.65,0,4.73,1.78,5.58,4.45.34,1.03.49,2.23.49,3.56s-.16,2.51-.49,3.56c-.3.97-.77,1.82-1.34,2.49-1.09,1.29-2.65,1.96-4.47,1.96ZM233.66,99.58c-2.79,0-3.52,1.62-3.52,4.27,0,1.3,0,3.86,3.01,4.23h.63c2.53,0,3.36-2,3.36-4.37,0-2.61-.49-4.13-3.48-4.13Z"/>
          <path class="cls-1" d="M245.14,113.04c-.59-.69-1.03-1.52-1.34-2.51-.32-1.03-.49-2.22-.49-3.56s.18-2.49.49-3.54c.32-.97.75-1.84,1.34-2.51,1.11-1.27,2.63-1.94,4.45-1.94,1.36,0,2.45.24,3.32.73.87.47,1.56,1.21,2.14,2.25l-.53.3c-.53-.95-1.13-1.6-1.9-2.02-.79-.43-1.74-.65-2.97-.65-3.8.02-3.8,4.92-3.8,7.34,0,.16,0,.36-.02.51.22-.46.49-.85.85-1.19.69-.65,1.64-1.01,2.67-1.01,2.23-.08,3.94.46,5,1.56.59.57,1.01,1.34,1.19,2.19.14.59.12,1.05.12,1.13,0,1.56-.67,2.83-1.88,3.7-1.07.73-2.51,1.13-4.19,1.17h-.24c-1.72-.06-3.16-.73-4.21-1.96ZM245.99,109.84v.28c0,1.13,0,3.18,1.84,3.99.49.18,1.09.26,1.68.28.39,0,.79-.04,1.17-.08,2.31-.69,2.31-2.99,2.31-4.19,0-1.33-.12-4.05-3.01-4.25h-.63c-.87,0-1.66.3-2.25.85-.34.34-.59.73-.79,1.21-.2.55-.3,1.19-.3,1.92h-.02Z"/>
        </g>
      </g>
    </g>
  </g>
</svg>